<svg width="1920" height="1080" viewBox="0 0 1920 1080" fill="none" xmlns="http://www.w3.org/2000/svg">
<rect width="1920" height="1080" fill="#DA743B"/>
<path d="M548.536 980.125C547.317 980.125 546.327 980.026 545.567 979.828C544.806 979.63 544.161 979.266 543.629 978.734C543.109 978.214 542.739 977.505 542.52 976.609C542.312 975.703 542.207 974.536 542.207 973.109V956.531C542.207 955.104 542.312 953.943 542.52 953.047C542.739 952.141 543.109 951.427 543.629 950.906C544.161 950.375 544.806 950.01 545.567 949.812C546.327 949.615 547.317 949.516 548.536 949.516V952.641C547.609 952.641 547.015 952.885 546.754 953.375C546.494 953.854 546.364 954.885 546.364 956.469V973.172C546.364 974.755 546.494 975.792 546.754 976.281C547.015 976.76 547.609 977 548.536 977V980.125ZM551.302 978V950.5H560.521V954.109H555.489V962.109H560.271V965.641H555.489V974.391H560.708V978H551.302ZM562.631 960.031C562.631 956.198 564.474 954.281 568.162 954.281C569.995 954.281 571.334 954.807 572.177 955.859C573.032 956.901 573.459 958.641 573.459 961.078V962.359H569.756V960.812C569.756 959.75 569.636 958.964 569.396 958.453C569.157 957.932 568.756 957.672 568.193 957.672C567.641 957.672 567.23 957.833 566.959 958.156C566.698 958.479 566.568 959.031 566.568 959.812C566.568 961.052 567.12 962.203 568.224 963.266L570.443 965.281C572.724 967.406 573.865 969.745 573.865 972.297C573.865 974.297 573.412 975.797 572.506 976.797C571.599 977.797 570.193 978.297 568.287 978.297C566.381 978.297 564.974 977.755 564.068 976.672C563.162 975.578 562.709 973.828 562.709 971.422V969.906H566.599V971.797C566.599 973.88 567.131 974.922 568.193 974.922C568.756 974.922 569.162 974.74 569.412 974.375C569.662 974 569.787 973.37 569.787 972.484C569.787 970.922 569.068 969.474 567.631 968.141C567.589 968.099 567.25 967.797 566.615 967.234C565.99 966.672 565.625 966.339 565.521 966.234C563.594 964.474 562.631 962.406 562.631 960.031ZM581.991 978.281C579.647 978.281 578.058 977.589 577.225 976.203C576.402 974.818 575.991 972.812 575.991 970.188V962.594C575.991 959.188 576.584 956.891 577.772 955.703C578.72 954.755 580.152 954.281 582.069 954.281C583.985 954.281 585.371 954.865 586.225 956.031C587.079 957.188 587.506 958.859 587.506 961.047V963.625H583.506V960.906C583.506 959.479 583.376 958.583 583.116 958.219C582.866 957.854 582.439 957.672 581.834 957.672C581.23 957.672 580.798 957.943 580.537 958.484C580.287 959.026 580.162 959.854 580.162 960.969V971.531C580.162 972.688 580.277 973.536 580.506 974.078C580.746 974.62 581.204 974.891 581.881 974.891C582.808 974.88 583.334 974.229 583.459 972.938C583.491 972.635 583.506 972.281 583.506 971.875C583.506 971.771 583.506 971.661 583.506 971.547V968.766H587.506V971.141C587.506 973.432 587.079 975.198 586.225 976.438C585.371 977.667 583.959 978.281 581.991 978.281ZM589.726 980.125V977C590.653 977 591.246 976.76 591.507 976.281C591.767 975.792 591.897 974.755 591.897 973.172V956.469C591.897 954.885 591.767 953.854 591.507 953.375C591.246 952.885 590.653 952.641 589.726 952.641V949.516C590.944 949.516 591.934 949.615 592.694 949.812C593.455 950.01 594.095 950.375 594.616 950.906C595.137 951.427 595.502 952.141 595.71 953.047C595.929 953.943 596.038 955.104 596.038 956.531V973.109C596.038 974.536 595.929 975.703 595.71 976.609C595.502 977.505 595.137 978.214 594.616 978.734C594.095 979.266 593.455 979.63 592.694 979.828C591.934 980.026 590.944 980.125 589.726 980.125ZM607.68 978L603.414 950.5H607.399L609.196 962.922L610.305 971.672H610.414L611.367 962.922L612.867 950.5H616.774L612.852 978H607.68ZM622.931 970.359C622.931 971.974 623.05 973.099 623.29 973.734C623.54 974.37 624.045 974.688 624.806 974.688C625.566 974.688 626.066 974.365 626.306 973.719C626.545 973.062 626.665 971.943 626.665 970.359V957.547C626.665 956.245 626.54 955.297 626.29 954.703C626.05 954.099 625.571 953.797 624.852 953.797C624.144 953.797 623.644 954.099 623.352 954.703C623.071 955.297 622.931 956.24 622.931 957.531V970.359ZM630.868 970.312C630.868 973 630.389 975.005 629.431 976.328C628.472 977.651 626.936 978.312 624.821 978.312C622.717 978.312 621.17 977.651 620.181 976.328C619.201 974.995 618.712 972.99 618.712 970.312V957.734C618.712 952.693 620.769 950.172 624.884 950.172C627.009 950.172 628.535 950.812 629.462 952.094C630.399 953.375 630.868 955.255 630.868 957.734V970.312ZM634.041 978V950.5H638.228V974.438H643.525V978H634.041ZM646.526 978V954.125H643.307V950.5H653.791V954.125H650.697V978H646.526ZM662.854 969.734L661.011 955.922H660.948L659.261 969.734H662.854ZM654.229 978L658.151 950.5H663.682L667.854 978H663.948L663.292 973.094H658.854L658.261 978H654.229ZM675.621 965.078L674.277 965.016V978H670.089V950.5H677.011C678.449 950.5 679.522 950.792 680.23 951.375C680.938 951.948 681.402 952.755 681.621 953.797C681.85 954.828 681.964 956.182 681.964 957.859C681.964 959.526 681.787 960.797 681.433 961.672C681.079 962.547 680.423 963.135 679.464 963.438C680.412 963.604 681.074 964.245 681.449 965.359C681.824 966.474 682.011 968.797 682.011 972.328C682.011 975.849 682.063 977.74 682.167 978H677.98C677.876 977.792 677.824 974.505 677.824 968.141C677.824 966.922 677.678 966.115 677.386 965.719C677.095 965.312 676.506 965.099 675.621 965.078ZM674.292 961.766H675.964C676.496 961.766 676.886 961.646 677.136 961.406C677.397 961.167 677.574 960.755 677.667 960.172C677.772 959.589 677.824 958.698 677.824 957.5V957.328C677.824 955.839 677.699 954.865 677.449 954.406C677.199 953.948 676.621 953.719 675.714 953.719H674.292V961.766Z" fill="black"/>
<path d="M301.558 116.815C301.558 116.815 282 130.689 282 155.946C282 181.204 282.356 857.108 282.356 917.228C282.356 977.347 300.847 979.482 329.651 979.482C358.456 979.482 826.08 979.126 876.932 979.126C927.784 979.126 939.875 981.616 949.121 988.375C958.366 995.134 969.39 994.067 977.925 989.087C987.171 984.106 1005.66 984.106 1019.53 984.106C1033.76 984.106 1413.9 983.751 1472.22 983.751C1530.54 983.751 1582.1 983.751 1603.79 983.751C1620.86 983.751 1638.29 974.501 1638.29 944.264C1638.29 914.026 1637.93 181.915 1637.93 155.946C1637.93 129.977 1639 117.882 1616.24 118.238C1594.19 118.238 301.558 116.815 301.558 116.815Z" fill="black"/>
<path d="M332.141 94.759C332.141 94.759 289.468 100.095 289.468 143.851C289.468 187.963 289.823 873.116 289.823 915.805C289.823 953.513 290.534 975.569 321.472 975.569C352.41 975.569 829.636 975.213 869.109 975.213C908.581 975.213 938.452 973.79 950.543 983.039C962.633 992.289 966.901 989.798 977.925 984.107C988.948 978.77 1042.29 981.616 1086.03 981.616C1129.77 981.616 1499.6 981.261 1552.94 981.261C1605.93 981.261 1633.67 983.751 1633.67 938.216C1633.67 892.682 1633.31 289.704 1633.31 238.478C1633.31 186.895 1633.31 169.464 1633.31 142.428C1633.31 115.392 1627.62 105.431 1615.89 105.431C1604.51 105.431 332.141 94.759 332.141 94.759Z" fill="url(#paint0_linear)"/>
<path d="M336.764 94.759C336.764 94.759 294.446 99.7394 294.446 143.851C294.802 187.607 295.158 870.626 295.158 912.959C295.158 950.667 295.869 972.367 326.807 972.367C357.745 972.367 831.414 972.011 870.531 972.011C909.648 972.011 939.164 970.588 951.254 979.838C963.345 989.087 967.612 986.597 978.28 980.905C989.304 975.569 1042.29 978.415 1085.67 978.415C1129.06 978.415 1496.4 978.059 1549.03 978.059C1601.66 978.059 1629.04 980.549 1629.04 935.015C1629.04 889.48 1628.69 288.637 1628.69 237.41C1628.69 186.184 1628.69 168.753 1628.69 141.717C1628.69 114.68 1623 105.075 1611.26 105.075C1599.88 105.431 336.764 94.759 336.764 94.759Z" fill="#E39A63"/>
<path d="M873.732 88.7115C873.732 88.7115 901.113 88.7115 925.295 88.7115C949.476 88.7115 966.19 97.605 966.19 111.479C966.19 124.997 966.901 980.905 966.901 980.905C966.901 980.905 956.233 970.233 929.206 970.233C901.469 970.233 507.811 970.233 456.248 970.233C427.088 970.233 338.186 970.233 327.162 970.233C316.138 970.233 302.27 963.474 302.27 935.015C302.27 906.556 301.914 466.151 301.914 399.272C301.914 332.393 301.914 204.327 301.914 164.84C301.914 164.84 301.914 159.859 301.914 138.515C301.914 117.171 307.248 89.0673 352.766 89.0673C398.284 89.0673 873.732 88.7115 873.732 88.7115Z" fill="#F6E9CE"/>
<path d="M955 111.115C955 111.115 957.169 88.3556 981.384 88.3556C1005.6 88.3556 1584.24 88 1597.62 88C1610.99 88 1623.28 92.6229 1623.28 113.248C1623.28 133.874 1623.64 511.174 1623.64 561.315C1623.64 561.315 1624 912.656 1624 932.926C1624 965.998 1607.74 974.532 1575.21 974.532C1542.68 974.532 992.227 974.888 979.577 974.888C972.71 974.888 956.446 974.888 956.446 982L955 111.115Z" fill="#F6E9CE"/>
<path opacity="0.8" d="M312.227 103.652C312.227 103.652 311.871 104.008 311.515 104.364C311.515 104.72 311.16 105.075 310.804 105.431C310.449 106.143 310.093 106.498 309.737 107.21C309.026 108.277 308.315 110.056 307.248 111.834C306.537 113.969 305.826 116.103 305.115 118.594C304.759 121.084 304.048 123.93 303.336 127.131C302.981 130.333 302.625 133.89 302.27 137.448C302.27 141.005 302.27 145.274 301.914 149.187C301.914 153.456 301.914 157.725 301.914 162.349C301.914 180.848 302.27 202.192 302.27 224.959C302.27 247.727 302.27 272.273 302.625 296.819C302.625 321.365 302.625 345.555 302.625 368.678C302.625 391.445 302.27 413.145 302.27 431.288C301.914 449.786 301.914 464.728 301.914 475.4C301.914 486.072 301.558 492.119 301.558 492.119C301.558 492.119 301.558 486.072 301.203 475.4C301.203 464.728 300.847 449.431 300.492 431.288C300.492 412.79 300.136 391.445 300.136 368.678C300.136 345.911 300.136 321.365 299.78 296.819C299.78 272.273 299.78 248.082 299.78 224.959C299.78 202.192 300.136 180.492 300.136 162.349C300.136 157.725 300.136 153.456 300.136 149.187C300.492 144.918 300.492 141.005 300.847 137.448C301.203 133.89 301.914 130.333 302.27 127.131C303.336 123.93 304.048 121.084 304.759 118.594C305.47 116.103 306.181 113.613 306.893 111.834C307.959 110.056 308.671 108.277 309.382 107.21C310.093 106.498 310.449 106.143 310.804 105.431C311.16 105.075 311.515 104.72 311.871 104.364C311.871 104.008 312.227 103.652 312.227 103.652Z" fill="white"/>
<path opacity="0.8" d="M1623 116.103C1623 116.103 1623 121.795 1623.35 131.756C1623.35 141.717 1623.71 156.302 1624.06 173.377C1624.06 190.453 1624.42 210.73 1624.42 232.43C1624.42 254.13 1624.42 276.897 1624.78 300.02C1624.78 323.143 1624.78 345.911 1624.78 367.611C1624.78 389.311 1624.42 409.232 1624.42 426.664C1624.06 443.739 1624.06 458.324 1624.06 468.285C1623.71 478.246 1623.71 483.938 1623.71 483.938C1623.71 483.938 1623.71 478.246 1623.35 468.285C1623.35 458.324 1623 443.739 1622.64 426.664C1622.64 409.588 1622.29 389.311 1622.29 367.611C1622.29 345.911 1622.29 323.143 1621.93 300.02C1621.93 276.897 1621.93 254.13 1621.93 232.43C1621.93 210.73 1622.29 190.809 1622.29 173.377C1622.64 156.302 1622.64 141.717 1622.64 131.756C1623 122.151 1623 116.103 1623 116.103Z" fill="white"/>
<defs>
<linearGradient id="paint0_linear" x1="289.889" y1="542.013" x2="1634.04" y2="541.207" gradientUnits="userSpaceOnUse">
<stop stop-color="#E0C99F"/>
<stop offset="0.0459901" stop-color="#E6D1AB"/>
<stop offset="0.1534" stop-color="#F0E0C0"/>
<stop offset="0.2571" stop-color="#F6E9CE"/>
<stop offset="0.352" stop-color="#F8ECD2"/>
<stop offset="0.7183" stop-color="#F8ECD2"/>
<stop offset="0.7699" stop-color="#F6E9CE"/>
<stop offset="0.8256" stop-color="#F0E0C1"/>
<stop offset="0.8831" stop-color="#E6D1AB"/>
<stop offset="0.9087" stop-color="#E0C99F"/>
<stop offset="1" stop-color="#D2B37C"/>
</linearGradient>
</defs>
</svg>
