<svg width="143" height="67" viewBox="0 0 143 67" fill="none" xmlns="http://www.w3.org/2000/svg">
<path d="M66.6749 7.42281C33.704 10.0451 31.3887 11.0645 26.9267 11.0661L2.70677 39.1301L31.2047 63.0012C35.6089 62.2977 37.982 61.9801 70.9529 59.3579C123.235 55.1998 137.573 53.7063 142.035 53.7046L124.231 28.983L137.757 1.76947C133.353 2.47296 118.957 3.26468 66.6749 7.42281Z" fill="#A05A2F"/>
<path d="M46.5768 24.8391L50.3069 24.4939L47.4656 44.8305L42.7553 45.2664L36.2576 25.794L39.9878 25.4488L43.7129 37.3653C44.0447 38.3781 44.4134 39.8406 44.8192 41.7527C44.8578 40.0924 44.961 38.5862 45.1288 37.2343L46.5768 24.8391ZM65.6836 33.0804C65.9885 36.3749 65.6057 38.9642 64.5351 40.8482C63.4646 42.7322 61.7812 43.7804 59.485 43.9929C57.1798 44.2062 55.3285 43.4897 53.9313 41.8432C52.5332 40.1876 51.6805 37.6989 51.3731 34.3772C51.0682 31.0827 51.4519 28.5025 52.5241 26.6366C53.5955 24.7617 55.2929 23.7168 57.6163 23.5018C59.9125 23.2893 61.7551 24.0112 63.1441 25.6676C64.5322 27.315 65.3788 29.7859 65.6836 33.0804ZM55.1602 34.0542C55.3702 36.3232 55.8161 38.0256 56.4979 39.1617C57.1797 40.2977 58.0742 40.8145 59.1814 40.712C61.4141 40.5054 62.3154 38.0787 61.8854 33.4319C61.4554 28.7851 60.1331 26.5641 57.9186 26.769C56.7932 26.8732 55.9997 27.5462 55.5379 28.788C55.0753 30.0208 54.9494 31.7762 55.1602 34.0542ZM68.9628 42.8413L67.121 22.938L70.8239 22.5954L72.3659 39.2585L77.4982 38.7836L77.7981 42.0237L68.9628 42.8413ZM84.7824 41.3774L81.0931 41.7188L79.5524 25.0692L75.7406 25.4219L75.4395 22.1682L86.7525 21.1214L87.0536 24.3751L83.2417 24.7278L84.7824 41.3774ZM98.6417 40.0949L97.0333 35.1772L91.8465 35.6572L91.1678 40.7865L87.4649 41.1291L90.5437 20.6882L95.5672 20.2233L102.358 39.7509L98.6417 40.0949ZM96.0354 31.9606L94.5452 27.4302C94.4557 27.1547 94.2454 26.4648 93.9143 25.3604C93.5915 24.246 93.3898 23.5004 93.3091 23.1234C93.2634 23.9148 93.1934 24.7909 93.0993 25.7516C93.0042 26.7032 92.7305 28.8887 92.278 32.3083L96.0354 31.9606ZM106.543 31.5512L107.26 39.2974L103.557 39.64L101.715 19.7368L106.562 19.2883C108.613 19.0985 110.169 19.4442 111.23 20.3255C112.3 21.2059 112.927 22.6444 113.112 24.6411C113.345 27.1551 112.658 28.9898 111.054 30.1452L115.687 38.5176L111.725 38.8842L107.863 31.429L106.543 31.5512ZM106.248 28.3656L107.201 28.2774C108.072 28.1968 108.676 27.8938 109.012 27.3684C109.347 26.834 109.469 26.0766 109.378 25.0964C109.284 24.08 109.013 23.3773 108.565 22.9886C108.126 22.5899 107.484 22.4296 106.64 22.5077L105.714 22.5934L106.248 28.3656Z" fill="#F6E9CE"/>
</svg>
