<svg width="1920" height="1080" viewBox="0 0 1920 1080" fill="none" xmlns="http://www.w3.org/2000/svg">
<g clip-path="url(#clip0)">
<rect width="1920" height="1080" fill="#DA743B"/>
<path d="M1979.29 957.137L1881.72 891.874V783.363L1869.16 703.338L1856.61 782.845L1755.38 759.537H1747.53L1737.59 695.828L1727.65 759.796L1687.63 760.314L1615.17 740.89L1570.7 756.429L1561.29 695.828L1550.82 763.421L1486.21 785.952H1316.45V719.654H1303.11L1291.86 699.195L1280.62 719.654H1269.37L1258.12 699.195L1246.87 719.654H1235.62L1224.38 699.195L1213.13 719.654H1203.45L1192.2 699.195L1180.96 719.654H1168.4L1157.15 699.195L1145.9 719.654H1134.66L1123.41 699.195L1112.16 719.654H1102.48L1091.23 699.195L1079.99 719.654H1064.82V547.175H1028.46C1029.24 543.29 1029.76 539.146 1029.76 535.003C1029.76 509.882 1013.28 488.387 990.527 480.876V426.75H996.544C996.544 414.578 987.65 404.737 975.879 402.665V383.501H973.786V365.372C976.141 364.595 977.972 362.523 977.972 359.934C977.972 356.826 975.618 354.236 972.479 354.236V333H971.694V353.977C968.555 354.236 966.201 356.826 966.201 359.675C966.201 362.265 968.032 364.336 970.386 365.113V383.242H968.293V402.406C956.522 404.219 947.629 414.319 947.629 426.491H953.645V480.617C930.888 488.387 914.409 509.623 914.409 534.744C914.409 538.887 914.932 543.031 915.717 546.916H895.052V684.692L872.557 674.851V616.84L884.851 605.445L863.663 596.64V574.885H868.371L857.385 554.685C859.739 553.908 861.57 551.836 861.57 548.988C861.57 545.88 858.954 543.031 855.554 543.031C852.415 543.031 849.538 545.621 849.538 548.988C849.538 551.577 851.369 553.908 853.723 554.685L842.737 574.885H847.445V589.906L786.498 564.526V541.218H782.051V512.472H795.653V505.22H782.051V493.307H775.773V505.22H762.171V512.472H775.773V541.477H771.326V564.785L711.164 589.906V575.144H715.872L704.886 554.944C707.24 554.167 709.071 552.095 709.071 549.247C709.071 546.139 706.456 543.29 703.055 543.29C699.916 543.29 697.039 545.88 697.039 549.247C697.039 551.836 698.87 554.167 701.224 554.944L690.238 575.144H694.946V596.381L678.467 603.373V533.449H653.356C652.571 508.846 636.615 488.387 614.119 480.876V426.75H620.135C620.135 414.837 611.242 404.737 599.732 402.665V383.501H597.901V365.372C600.256 364.595 602.087 362.523 602.087 359.934C602.087 356.826 599.732 354.236 596.593 354.236V333H595.809V353.977C592.67 354.236 590.316 356.826 590.316 359.675C590.316 362.265 592.147 364.336 594.501 365.113V383.242H592.408V402.406C580.637 404.219 571.744 414.319 571.744 426.491H577.76V480.617C555.526 488.128 539.308 508.846 538.523 533.19H507.134V695.051H432.847V681.325L285.318 618.912L259.422 555.462L232.479 618.912H58.0078L29.2345 632.637L15.3709 623.573L-119.341 670.448L-112.801 691.684H-96.0606V701.785V768.083L-148.114 781.809V804.858L-253.006 847.071L-315 820.914V1458H2131V957.137H1979.29ZM686.053 689.613H678.728V610.365L686.053 617.099V689.613Z" fill="#AE6034"/>
<path d="M808.689 128C808.896 126.995 809 126.198 809 125.607C809 125.001 808.984 124.547 808.952 124.244C808.936 123.941 808.904 123.622 808.856 123.287C808.824 122.936 808.776 122.553 808.713 122.138C808.665 121.708 808.617 121.213 808.569 120.655C808.202 116.843 806.902 113.708 804.669 111.252C803.68 110.167 802.612 109.346 801.463 108.788C800.315 108.213 799.366 107.926 798.616 107.926C797.882 107.926 797.316 107.974 796.917 108.07C796.024 110.75 795.577 113.549 795.577 116.468C795.577 119.052 795.713 120.982 795.984 122.258C796.415 124.172 797.077 126.094 797.97 128.024H790.816C791.199 127.067 791.39 125.057 791.39 121.995C791.39 118.916 791.622 116.045 792.084 113.381C792.547 110.702 793.145 108.317 793.879 106.228C794.628 104.138 795.458 102.312 796.367 100.749C797.292 99.1694 798.209 97.7977 799.118 96.6333C800.044 95.453 800.913 94.4481 801.726 93.6187C802.54 92.7733 803.218 92.0316 803.76 91.3936H811.297C810.611 92.1751 810.268 93.2677 810.268 94.6714C810.268 95.3094 810.371 96.3542 810.579 97.8057L811.177 102.16C813.362 117.217 815.316 125.831 817.039 128H808.689ZM797.898 105.534C798.52 105.294 799.174 105.175 799.86 105.175C800.546 105.175 801.16 105.223 801.702 105.318C802.261 105.414 802.811 105.574 803.353 105.797C804.518 106.243 805.491 106.953 806.272 107.926C805.491 103.827 805.012 101.323 804.837 100.414L803.999 96.2266L802.635 97.8535C800.721 100.15 799.142 102.71 797.898 105.534ZM824.289 115.319C824.082 116.978 823.978 118.302 823.978 119.291C823.978 120.264 824.098 121.165 824.337 121.995C824.576 122.824 824.919 123.542 825.366 124.148C826.323 125.44 827.535 126.086 829.003 126.086C831.81 126.086 833.214 124.539 833.214 121.444C833.214 118.956 831.77 116.316 828.883 113.525L826.395 111.108C824.21 109.003 822.718 107.312 821.921 106.036C820.342 103.516 819.552 101.012 819.552 98.5234C819.552 96.4977 820.206 94.799 821.514 93.4272C823.093 91.7524 825.366 90.915 828.333 90.915C829.497 90.915 830.374 90.9709 830.965 91.0825C832.065 91.2899 832.799 91.3936 833.166 91.3936C834.091 91.3936 834.809 91.1064 835.319 90.5322C835.51 90.3249 835.718 90.0537 835.941 89.7188C837.106 90.3727 837.688 92.7733 837.688 96.9204C837.688 99.5682 837.425 101.522 836.898 102.782C836.723 103.213 836.523 103.484 836.3 103.596C836.045 101.187 835.263 99.0339 833.955 97.1357C832.424 94.9027 830.654 93.7861 828.644 93.7861C826.921 93.7861 825.86 94.5757 825.462 96.1548C825.35 96.6014 825.294 97.1597 825.294 97.8296C825.294 98.4836 825.494 99.2332 825.892 100.079C826.291 100.924 826.809 101.769 827.447 102.615C828.101 103.444 828.851 104.282 829.697 105.127C832.249 107.743 833.939 109.513 834.769 110.438C835.614 111.364 836.364 112.321 837.018 113.31C838.453 115.527 839.171 117.672 839.171 119.746C839.171 122.25 838.198 124.323 836.252 125.966C834.242 127.641 831.658 128.479 828.5 128.479C825.884 128.479 823.635 127.825 821.753 126.517C819.68 125.081 818.643 123.183 818.643 120.822C819.265 118.605 820.621 116.978 822.71 115.941C823.268 115.654 823.795 115.447 824.289 115.319ZM874.416 128C874.623 126.995 874.727 126.198 874.727 125.607C874.727 125.001 874.711 124.547 874.679 124.244C874.663 123.941 874.631 123.622 874.583 123.287C874.551 122.936 874.503 122.553 874.44 122.138C874.392 121.708 874.344 121.213 874.296 120.655C873.929 116.843 872.629 113.708 870.396 111.252C869.407 110.167 868.339 109.346 867.19 108.788C866.042 108.213 865.093 107.926 864.343 107.926C863.609 107.926 863.043 107.974 862.644 108.07C861.751 110.75 861.304 113.549 861.304 116.468C861.304 119.052 861.44 120.982 861.711 122.258C862.142 124.172 862.804 126.094 863.697 128.024H856.543C856.926 127.067 857.117 125.057 857.117 121.995C857.117 118.916 857.349 116.045 857.811 113.381C858.274 110.702 858.872 108.317 859.606 106.228C860.355 104.138 861.185 102.312 862.094 100.749C863.019 99.1694 863.936 97.7977 864.845 96.6333C865.771 95.453 866.64 94.4481 867.453 93.6187C868.267 92.7733 868.945 92.0316 869.487 91.3936H877.024C876.338 92.1751 875.995 93.2677 875.995 94.6714C875.995 95.3094 876.098 96.3542 876.306 97.8057L876.904 102.16C879.089 117.217 881.043 125.831 882.766 128H874.416ZM863.625 105.534C864.247 105.294 864.901 105.175 865.587 105.175C866.273 105.175 866.887 105.223 867.429 105.318C867.988 105.414 868.538 105.574 869.08 105.797C870.245 106.243 871.218 106.953 871.999 107.926C871.218 103.827 870.739 101.323 870.564 100.414L869.726 96.2266L868.362 97.8535C866.448 100.15 864.869 102.71 863.625 105.534ZM890.112 91.3936C889.841 92.2708 889.705 93.1003 889.705 93.8818C889.705 95.2057 889.937 97.1198 890.399 99.624C892.345 109.402 893.478 115.048 893.797 116.563C894.466 119.69 894.873 121.588 895.017 122.258C895.176 122.912 895.32 123.542 895.447 124.148C898.414 120.623 900.464 115.814 901.596 109.721C902.011 107.488 902.218 105.382 902.218 103.404C902.218 101.426 902.179 99.8952 902.099 98.8105C902.019 97.7259 901.883 96.737 901.692 95.8438C901.309 94.0573 900.703 92.5659 899.874 91.3696H908.224C907.889 92.3267 907.713 93.2837 907.697 94.2407C907.681 95.1978 907.65 96.6572 907.602 98.6191C907.554 100.565 907.307 102.886 906.86 105.582C906.413 108.277 905.855 110.686 905.185 112.807C904.515 114.929 903.774 116.795 902.96 118.406C902.147 120.017 901.333 121.428 900.52 122.641C899.706 123.853 898.933 124.89 898.199 125.751L896.333 128H888.796C889.035 127.394 889.155 126.804 889.155 126.229C889.155 125.288 889.027 123.909 888.772 122.09C886.045 103.875 883.708 93.6426 881.762 91.3936H890.112ZM929.614 119.147C930.045 119.738 930.26 120.591 930.26 121.708C930.26 122.824 930.213 123.717 930.117 124.387C930.021 125.041 929.87 125.639 929.662 126.182C929.184 127.394 928.554 128 927.772 128H908.392C909.62 127.346 910.434 126.716 910.833 126.11C911.582 124.977 911.957 123.542 911.957 121.803C911.941 117.544 911.933 113.692 911.933 110.247V97.6621C911.933 95.2855 911.558 93.5628 910.809 92.4941C910.522 92.1113 910.179 91.7445 909.78 91.3936H927.772C928.857 91.7764 929.598 93.1162 929.997 95.4131C930.109 96.0511 930.165 96.6732 930.165 97.2793C930.165 98.5234 929.981 99.5124 929.614 100.246L928.322 97.6621C927.461 95.9714 926.225 94.8389 924.614 94.2646C923.721 93.9456 922.716 93.7861 921.599 93.7861C920.483 93.7861 919.685 93.826 919.207 93.9058C918.728 93.9696 918.361 94.137 918.106 94.4082C917.691 94.8708 917.484 95.756 917.484 97.064C917.484 98.356 917.516 99.2572 917.58 99.7676C917.644 100.262 917.795 100.669 918.034 100.988C918.529 101.61 919.574 101.921 921.169 101.921H928.681C928.314 102.846 927.94 103.5 927.557 103.883C926.791 104.648 925.754 105.031 924.446 105.031C923.936 105.031 923.45 104.975 922.987 104.864C922.126 104.656 921.368 104.553 920.714 104.553C920.06 104.553 919.518 104.617 919.087 104.744C918.672 104.856 918.345 105.039 918.106 105.294C917.691 105.741 917.484 106.547 917.484 107.711V119.124C917.484 122.122 917.652 123.901 917.986 124.459C918.321 125.017 918.728 125.352 919.207 125.464C919.685 125.56 920.483 125.607 921.599 125.607C922.716 125.607 923.729 125.448 924.638 125.129C925.547 124.81 926.305 124.363 926.911 123.789C927.533 123.215 928.043 122.537 928.442 121.755C928.841 120.958 929.232 120.089 929.614 119.147ZM939.042 101.945C939.01 103.604 938.994 105.494 938.994 107.615C938.994 110.63 939.05 114.083 939.162 117.975C939.273 121.851 939.361 124.06 939.425 124.603C939.489 125.129 939.568 125.591 939.664 125.99C939.824 126.644 940.071 127.314 940.406 128H933.994C934.472 127.027 934.759 126.078 934.855 125.153C934.967 124.212 935.054 123.279 935.118 122.354C935.246 120.471 935.31 117.943 935.31 114.769C935.31 110.925 935.246 107.416 935.118 104.242L934.855 97.6621C934.759 95.2376 934.377 93.515 933.707 92.4941C933.435 92.1113 933.101 91.7445 932.702 91.3936H940.143C941.084 93.5628 942.081 95.7161 943.133 97.8535L946.387 104.218L953.374 117.066C953.39 116.061 953.398 114.984 953.398 113.836V110.104C953.398 102.128 952.911 96.3701 951.938 92.8291C951.747 92.1751 951.539 91.6966 951.316 91.3936L958.518 91.3696C957.72 92.9647 957.218 97.4548 957.01 104.84C956.978 105.988 956.963 107.089 956.963 108.142L956.986 110.151V119.913C956.986 124.044 957.018 126.74 957.082 128H953.206L946.268 115.08L939.042 101.945ZM960.624 102.16C960.241 101.235 960.05 100.142 960.05 98.8823C960.05 97.6222 960.098 96.5934 960.193 95.7959C960.289 94.9824 960.417 94.2487 960.576 93.5947C960.959 92.1273 961.43 91.3936 961.988 91.3936H983.066C983.992 91.3936 984.614 92.7653 984.933 95.5088C985.012 96.2744 985.052 97.064 985.052 97.8774C985.052 99.7915 984.845 101.219 984.43 102.16C983.059 97.9014 981.28 95.1738 979.095 93.9775C978.6 93.6904 978.114 93.5469 977.635 93.5469C977.157 93.5469 976.782 93.6745 976.511 93.9297C976.24 94.1689 976.016 94.5597 975.841 95.1021C975.554 96.0591 975.41 97.2075 975.41 98.5474V107.52L975.434 114.841V121.779C975.434 123.342 975.634 124.499 976.032 125.249C976.447 125.982 976.862 126.541 977.276 126.923C977.707 127.306 978.21 127.665 978.784 128H966.558C967.706 127.059 968.44 126.285 968.759 125.679C969.349 124.579 969.644 123.279 969.644 121.779V100.222C969.644 97.7179 969.548 96.1069 969.357 95.3892C969.166 94.6554 968.934 94.1689 968.663 93.9297C968.392 93.6745 968.017 93.5469 967.539 93.5469C967.06 93.5469 966.574 93.6904 966.079 93.9775C965.585 94.2487 965.098 94.6156 964.62 95.0781C964.157 95.5247 963.711 96.0511 963.28 96.6572C962.865 97.2474 962.482 97.8615 962.131 98.4995C961.446 99.7596 960.943 100.98 960.624 102.16ZM1006.08 115.726L1006.2 106.539C1006.2 100.111 1005.96 96.0033 1005.49 94.2168C1005.26 93.3555 1004.99 92.7254 1004.67 92.3267C1004.37 91.9279 1004.12 91.6169 1003.93 91.3936H1011.78L1011.28 92.0635C1010.56 93.1162 1010.16 94.3045 1010.08 95.6284C1010 96.9523 1009.94 98.2922 1009.89 99.6479C1009.86 101.004 1009.82 102.352 1009.79 103.691C1009.76 105.94 1009.74 108.453 1009.74 111.228V114.147C1009.74 119.299 1008.92 122.992 1007.26 125.225C1005.61 127.394 1002.93 128.479 999.217 128.479C992.024 128.479 988.443 123.861 988.475 114.625L988.499 96.7051C988.499 94.1849 988.052 92.4144 987.159 91.3936H996.227C995.286 92.526 994.815 94.137 994.815 96.2266C994.815 97.4388 994.807 98.6829 994.791 99.959L994.695 107.615C994.679 108.875 994.671 110.175 994.671 111.515C994.671 116.316 994.815 119.363 995.102 120.655C995.389 121.931 995.74 122.928 996.155 123.646C997.112 125.272 998.531 126.086 1000.41 126.086C1003.32 126.086 1005.1 123.965 1005.77 119.722C1005.98 118.462 1006.08 117.13 1006.08 115.726ZM1025.15 105.271C1023.3 105.271 1022.38 106.363 1022.38 108.548C1022.38 117.608 1022.53 122.944 1022.83 124.555C1023.01 125.528 1023.23 126.253 1023.5 126.732L1024.22 128H1015.73C1016.24 126.788 1016.53 125.775 1016.61 124.961C1016.71 124.148 1016.79 123.279 1016.85 122.354C1016.98 120.471 1017.04 117.943 1017.04 114.769C1017.04 110.925 1016.98 107.416 1016.85 104.242L1016.59 97.6621C1016.52 96.0033 1016.38 94.8468 1016.16 94.1929C1015.81 93.1561 1015.23 92.223 1014.44 91.3936H1027.09C1030.95 91.3936 1033.74 91.7764 1035.47 92.542C1037.28 93.3395 1038.19 94.7033 1038.19 96.6333C1038.19 98.3241 1037.56 99.9111 1036.3 101.395C1035.12 102.766 1033.58 103.859 1031.66 104.672C1031.9 110.797 1033.82 116.675 1037.43 122.306C1038.97 124.746 1040.55 126.644 1042.17 128H1033.19C1031.63 125.863 1030.19 121.532 1028.86 115.008C1028.42 112.743 1028.12 110.861 1027.98 109.362C1027.85 107.862 1027.74 106.961 1027.64 106.658C1027.56 106.339 1027.43 106.084 1027.24 105.893C1026.85 105.478 1026.16 105.271 1025.15 105.271ZM1030.66 101.012C1031.1 100.533 1031.41 100.023 1031.59 99.4805C1031.78 98.9382 1031.88 98.4198 1031.88 97.9253C1031.88 97.4149 1031.81 96.9124 1031.66 96.418C1031.53 95.9076 1031.27 95.4609 1030.87 95.0781C1029.99 94.2168 1028.46 93.7861 1026.28 93.7861C1025.46 93.7861 1024.8 93.818 1024.29 93.8818C1023.8 93.9456 1023.41 94.1211 1023.12 94.4082C1022.63 94.8867 1022.38 96.1069 1022.38 98.0688C1022.38 99.7915 1022.56 100.892 1022.93 101.371C1023.58 102.216 1024.57 102.639 1025.9 102.639C1027.22 102.639 1028.23 102.487 1028.93 102.184C1029.65 101.865 1030.23 101.474 1030.66 101.012ZM1058.91 128C1059.12 126.995 1059.23 126.198 1059.23 125.607C1059.23 125.001 1059.21 124.547 1059.18 124.244C1059.16 123.941 1059.13 123.622 1059.08 123.287C1059.05 122.936 1059 122.553 1058.94 122.138C1058.89 121.708 1058.84 121.213 1058.79 120.655C1058.43 116.843 1057.13 113.708 1054.89 111.252C1053.91 110.167 1052.84 109.346 1051.69 108.788C1050.54 108.213 1049.59 107.926 1048.84 107.926C1048.11 107.926 1047.54 107.974 1047.14 108.07C1046.25 110.75 1045.8 113.549 1045.8 116.468C1045.8 119.052 1045.94 120.982 1046.21 122.258C1046.64 124.172 1047.3 126.094 1048.2 128.024H1041.04C1041.42 127.067 1041.62 125.057 1041.62 121.995C1041.62 118.916 1041.85 116.045 1042.31 113.381C1042.77 110.702 1043.37 108.317 1044.1 106.228C1044.85 104.138 1045.68 102.312 1046.59 100.749C1047.52 99.1694 1048.43 97.7977 1049.34 96.6333C1050.27 95.453 1051.14 94.4481 1051.95 93.6187C1052.77 92.7733 1053.44 92.0316 1053.99 91.3936H1061.52C1060.84 92.1751 1060.49 93.2677 1060.49 94.6714C1060.49 95.3094 1060.6 96.3542 1060.8 97.8057L1061.4 102.16C1063.59 117.217 1065.54 125.831 1067.26 128H1058.91ZM1048.12 105.534C1048.75 105.294 1049.4 105.175 1050.09 105.175C1050.77 105.175 1051.39 105.223 1051.93 105.318C1052.49 105.414 1053.04 105.574 1053.58 105.797C1054.74 106.243 1055.72 106.953 1056.5 107.926C1055.72 103.827 1055.24 101.323 1055.06 100.414L1054.22 96.2266L1052.86 97.8535C1050.95 100.15 1049.37 102.71 1048.12 105.534ZM1074.51 115.319C1074.31 116.978 1074.2 118.302 1074.2 119.291C1074.2 120.264 1074.32 121.165 1074.56 121.995C1074.8 122.824 1075.14 123.542 1075.59 124.148C1076.55 125.44 1077.76 126.086 1079.23 126.086C1082.04 126.086 1083.44 124.539 1083.44 121.444C1083.44 118.956 1082 116.316 1079.11 113.525L1076.62 111.108C1074.43 109.003 1072.94 107.312 1072.15 106.036C1070.57 103.516 1069.78 101.012 1069.78 98.5234C1069.78 96.4977 1070.43 94.799 1071.74 93.4272C1073.32 91.7524 1075.59 90.915 1078.56 90.915C1079.72 90.915 1080.6 90.9709 1081.19 91.0825C1082.29 91.2899 1083.02 91.3936 1083.39 91.3936C1084.32 91.3936 1085.03 91.1064 1085.54 90.5322C1085.74 90.3249 1085.94 90.0537 1086.17 89.7188C1087.33 90.3727 1087.91 92.7733 1087.91 96.9204C1087.91 99.5682 1087.65 101.522 1087.12 102.782C1086.95 103.213 1086.75 103.484 1086.53 103.596C1086.27 101.187 1085.49 99.0339 1084.18 97.1357C1082.65 94.9027 1080.88 93.7861 1078.87 93.7861C1077.15 93.7861 1076.09 94.5757 1075.69 96.1548C1075.58 96.6014 1075.52 97.1597 1075.52 97.8296C1075.52 98.4836 1075.72 99.2332 1076.12 100.079C1076.52 100.924 1077.03 101.769 1077.67 102.615C1078.33 103.444 1079.08 104.282 1079.92 105.127C1082.47 107.743 1084.16 109.513 1084.99 110.438C1085.84 111.364 1086.59 112.321 1087.24 113.31C1088.68 115.527 1089.4 117.672 1089.4 119.746C1089.4 122.25 1088.42 124.323 1086.48 125.966C1084.47 127.641 1081.88 128.479 1078.73 128.479C1076.11 128.479 1073.86 127.825 1071.98 126.517C1069.9 125.081 1068.87 123.183 1068.87 120.822C1069.49 118.605 1070.85 116.978 1072.94 115.941C1073.49 115.654 1074.02 115.447 1074.51 115.319ZM1114.64 97.8296L1114.66 121.66C1114.68 122.569 1114.78 123.255 1114.98 123.717C1115.17 124.18 1115.57 124.411 1116.17 124.411C1119.01 124.411 1121.22 122.609 1122.8 119.004C1124.33 115.495 1125.1 110.63 1125.1 104.409C1125.1 101.139 1124.71 98.659 1123.95 96.9683C1122.91 94.6873 1121.11 93.5469 1118.54 93.5469C1116.9 93.5469 1115.88 93.7383 1115.5 94.1211C1115.13 94.5039 1114.9 94.9824 1114.78 95.5566C1114.69 96.1149 1114.64 96.8726 1114.64 97.8296ZM1107.99 128C1108.5 126.788 1108.79 125.775 1108.87 124.961C1108.97 124.148 1109.05 123.279 1109.11 122.354C1109.24 120.471 1109.3 117.943 1109.3 114.769C1109.3 110.925 1109.24 107.416 1109.11 104.242L1108.85 97.6621C1108.79 96.0033 1108.64 94.8468 1108.42 94.1929C1108.07 93.1561 1107.49 92.223 1106.7 91.3936H1119.83C1125.29 91.3936 1128.85 93.5389 1130.53 97.8296C1131.12 99.3449 1131.41 101.179 1131.41 103.333C1131.41 115.375 1127.33 123.047 1119.16 126.349C1116.4 127.466 1113.16 128.024 1109.42 128.024C1109.19 128.024 1108.95 128.024 1108.71 128.024C1108.47 128.024 1108.23 128.016 1107.99 128ZM1154.55 119.147C1154.98 119.738 1155.2 120.591 1155.2 121.708C1155.2 122.824 1155.15 123.717 1155.05 124.387C1154.96 125.041 1154.8 125.639 1154.6 126.182C1154.12 127.394 1153.49 128 1152.71 128H1133.33C1134.56 127.346 1135.37 126.716 1135.77 126.11C1136.52 124.977 1136.89 123.542 1136.89 121.803C1136.88 117.544 1136.87 113.692 1136.87 110.247V97.6621C1136.87 95.2855 1136.49 93.5628 1135.74 92.4941C1135.46 92.1113 1135.11 91.7445 1134.71 91.3936H1152.71C1153.79 91.7764 1154.53 93.1162 1154.93 95.4131C1155.04 96.0511 1155.1 96.6732 1155.1 97.2793C1155.1 98.5234 1154.92 99.5124 1154.55 100.246L1153.26 97.6621C1152.4 95.9714 1151.16 94.8389 1149.55 94.2646C1148.66 93.9456 1147.65 93.7861 1146.53 93.7861C1145.42 93.7861 1144.62 93.826 1144.14 93.9058C1143.66 93.9696 1143.3 94.137 1143.04 94.4082C1142.63 94.8708 1142.42 95.756 1142.42 97.064C1142.42 98.356 1142.45 99.2572 1142.51 99.7676C1142.58 100.262 1142.73 100.669 1142.97 100.988C1143.46 101.61 1144.51 101.921 1146.1 101.921H1153.62C1153.25 102.846 1152.87 103.5 1152.49 103.883C1151.73 104.648 1150.69 105.031 1149.38 105.031C1148.87 105.031 1148.38 104.975 1147.92 104.864C1147.06 104.656 1146.3 104.553 1145.65 104.553C1144.99 104.553 1144.45 104.617 1144.02 104.744C1143.61 104.856 1143.28 105.039 1143.04 105.294C1142.63 105.741 1142.42 106.547 1142.42 107.711V119.124C1142.42 122.122 1142.59 123.901 1142.92 124.459C1143.26 125.017 1143.66 125.352 1144.14 125.464C1144.62 125.56 1145.42 125.607 1146.53 125.607C1147.65 125.607 1148.66 125.448 1149.57 125.129C1150.48 124.81 1151.24 124.363 1151.85 123.789C1152.47 123.215 1152.98 122.537 1153.38 121.755C1153.78 120.958 1154.17 120.089 1154.55 119.147Z" fill="#F6E9CE"/>
<path d="M570.646 244.113L570.728 274.937C570.728 284.776 568.254 293.093 563.307 299.889C557.49 307.717 549.391 311.631 539.007 311.631C530.853 311.631 524.33 308.913 519.437 303.477C514.979 298.53 512.751 292.55 512.751 285.537C515.197 279.883 517.806 275.562 520.579 272.572C525.145 267.625 528.95 264.88 531.995 264.336C531.125 269.283 530.69 273.822 530.69 277.954C530.69 282.085 530.853 285.591 531.179 288.473C531.56 291.299 532.158 293.827 532.973 296.056C534.767 301.003 537.594 303.477 541.454 303.477C544.824 303.477 547.379 301.302 549.119 296.953C550.586 293.365 551.32 288.554 551.32 282.52V262.95C551.32 239.357 551.157 219.487 550.831 203.342C550.722 199.047 550.07 195.514 548.874 192.741C547.732 189.914 545.775 187.414 543.003 185.239H575.212C573.582 188.175 572.576 191.328 572.195 194.698C571.869 198.069 571.57 201.765 571.298 205.788C570.864 213.453 570.646 226.228 570.646 244.113ZM632.459 303.477C642.896 303.477 649.637 290.756 652.682 265.314C653.714 256.725 654.231 246.614 654.231 234.98C654.231 206.169 646.919 191.763 632.296 191.763C617.672 191.763 610.361 206.169 610.361 234.98C610.361 268.957 614.737 290.403 623.489 299.318C626.207 302.09 629.197 303.477 632.459 303.477ZM632.296 311.631C617.836 311.631 606.936 304.836 599.597 291.245C592.53 278.144 588.996 259.389 588.996 234.98C588.996 209.593 596.797 193.611 612.399 187.033C617.89 184.75 624.522 183.608 632.296 183.608C654.584 183.608 668.202 193.502 673.149 213.29C674.78 219.65 675.595 227.832 675.595 237.834C675.595 247.837 674.725 257.595 672.986 267.108C671.246 276.567 668.582 284.613 664.995 291.245C657.656 304.836 646.756 311.631 632.296 311.631ZM710.743 266.782C710.037 272.436 709.683 276.948 709.683 280.318C709.683 283.634 710.091 286.706 710.906 289.533C711.722 292.36 712.891 294.806 714.413 296.872C717.675 301.275 721.806 303.477 726.807 303.477C736.375 303.477 741.159 298.203 741.159 287.657C741.159 279.177 736.239 270.18 726.4 260.667L717.919 252.431C710.472 245.255 705.389 239.493 702.671 235.144C697.289 226.554 694.598 218.02 694.598 209.539C694.598 202.635 696.827 196.846 701.284 192.17C706.666 186.462 714.413 183.608 724.524 183.608C728.493 183.608 731.483 183.799 733.494 184.179C737.245 184.886 739.746 185.239 740.996 185.239C744.149 185.239 746.595 184.261 748.335 182.304C748.987 181.597 749.694 180.673 750.455 179.531C754.423 181.76 756.407 189.942 756.407 204.076C756.407 213.1 755.51 219.759 753.717 224.054C753.119 225.521 752.439 226.446 751.678 226.826C750.808 218.618 748.144 211.279 743.687 204.81C738.468 197.199 732.434 193.394 725.584 193.394C719.713 193.394 716.098 196.084 714.739 201.466C714.358 202.988 714.168 204.891 714.168 207.174C714.168 209.403 714.848 211.958 716.207 214.839C717.566 217.721 719.333 220.602 721.507 223.483C723.736 226.31 726.291 229.164 729.172 232.045C737.87 240.96 743.632 246.994 746.459 250.147C749.34 253.3 751.895 256.562 754.124 259.933C759.017 267.489 761.463 274.801 761.463 281.868C761.463 290.403 758.147 297.47 751.515 303.069C744.665 308.777 735.859 311.631 725.095 311.631C716.18 311.631 708.515 309.402 702.1 304.944C695.033 300.052 691.499 293.583 691.499 285.537C693.619 277.981 698.24 272.436 705.362 268.902C707.264 267.924 709.058 267.217 710.743 266.782ZM837.709 279.829C839.177 281.84 839.911 284.749 839.911 288.554C839.911 292.36 839.748 295.404 839.421 297.687C839.095 299.916 838.579 301.954 837.872 303.803C836.241 307.934 834.094 310 831.43 310H765.38C769.566 307.771 772.339 305.624 773.698 303.558C776.253 299.698 777.53 294.806 777.53 288.88C777.476 274.366 777.449 261.237 777.449 249.495V206.604C777.449 198.504 776.171 192.632 773.616 188.99C772.638 187.686 771.469 186.435 770.11 185.239H831.43C835.127 186.544 837.655 191.11 839.014 198.938C839.394 201.113 839.585 203.233 839.585 205.299C839.585 209.539 838.959 212.91 837.709 215.41L833.306 206.604C830.37 200.841 826.157 196.981 820.667 195.024C817.622 193.937 814.197 193.394 810.392 193.394C806.587 193.394 803.869 193.529 802.238 193.801C800.607 194.019 799.357 194.59 798.487 195.514C797.073 197.09 796.367 200.107 796.367 204.565C796.367 208.968 796.475 212.04 796.693 213.779C796.91 215.465 797.427 216.851 798.242 217.938C799.927 220.058 803.488 221.118 808.924 221.118H834.529C833.279 224.271 832.001 226.5 830.696 227.805C828.087 230.414 824.553 231.719 820.096 231.719C818.356 231.719 816.698 231.528 815.122 231.148C812.186 230.441 809.604 230.088 807.375 230.088C805.146 230.088 803.298 230.305 801.83 230.74C800.417 231.121 799.302 231.746 798.487 232.616C797.073 234.138 796.367 236.883 796.367 240.852V279.748C796.367 289.968 796.938 296.029 798.079 297.932C799.221 299.834 800.607 300.976 802.238 301.356C803.869 301.683 806.587 301.846 810.392 301.846C814.197 301.846 817.649 301.302 820.748 300.215C823.847 299.128 826.429 297.605 828.495 295.648C830.615 293.691 832.354 291.381 833.713 288.717C835.072 285.999 836.404 283.036 837.709 279.829ZM841.786 147.566C836.513 155.395 829.201 162.407 819.851 168.604C817.514 170.127 815.611 171.268 814.143 172.029H802.075C802.999 171.16 804.086 169.964 805.336 168.441C805.336 168.441 808.055 165.071 813.491 158.33C818.383 152.024 820.83 148.436 820.83 147.566H841.786ZM968.837 179.531C970.413 181.76 971.201 185.185 971.201 189.806C971.201 194.372 971.038 198.096 970.712 200.977C970.44 203.804 970.005 206.549 969.407 209.213C968.103 215.193 966.282 219.705 963.944 222.749C961.933 212.257 959.323 204.755 956.116 200.243C952.746 195.677 948.342 193.394 942.906 193.394C937.524 193.394 933.311 194.426 930.267 196.492C927.223 198.558 924.885 201.276 923.254 204.646C920.536 210.246 919.177 218.509 919.177 229.436C919.177 240.308 920.4 250.283 922.846 259.362C925.347 268.386 928.881 276.16 933.447 282.683C943.069 296.545 955.6 303.477 971.038 303.477C970.821 305.923 969.543 308.043 967.206 309.837C966.499 310.381 965.738 310.707 964.923 310.815C945.189 310.815 929.098 303.558 916.649 289.043C903.439 273.605 896.834 252.567 896.834 225.929C896.834 212.013 900.911 201.548 909.066 194.535C916.296 188.338 926.19 185.239 938.747 185.239L952.365 185.402C958.78 185.402 963.292 184.478 965.901 182.63C966.988 181.814 967.967 180.782 968.837 179.531ZM1026.57 303.477C1037.01 303.477 1043.75 290.756 1046.8 265.314C1047.83 256.725 1048.34 246.614 1048.34 234.98C1048.34 206.169 1041.03 191.763 1026.41 191.763C1011.79 191.763 1004.47 206.169 1004.47 234.98C1004.47 268.957 1008.85 290.403 1017.6 299.318C1020.32 302.09 1023.31 303.477 1026.57 303.477ZM1026.41 311.631C1011.95 311.631 1001.05 304.836 993.711 291.245C986.643 278.144 983.11 259.389 983.11 234.98C983.11 209.593 990.911 193.611 1006.51 187.033C1012 184.75 1018.64 183.608 1026.41 183.608C1048.7 183.608 1062.32 193.502 1067.26 213.29C1068.89 219.65 1069.71 227.832 1069.71 237.834C1069.71 247.837 1068.84 257.595 1067.1 267.108C1065.36 276.567 1062.7 284.613 1059.11 291.245C1051.77 304.836 1040.87 311.631 1026.41 311.631ZM1151.01 279.829C1152.48 281.84 1153.21 284.749 1153.21 288.554C1153.21 292.36 1153.05 295.404 1152.72 297.687C1152.4 299.916 1151.88 301.954 1151.17 303.803C1149.54 307.934 1147.4 310 1144.73 310H1078.68C1082.87 307.771 1085.64 305.624 1087 303.558C1089.55 299.698 1090.83 294.806 1090.83 288.88C1090.78 274.366 1090.75 261.237 1090.75 249.495V206.604C1090.75 198.504 1089.47 192.632 1086.92 188.99C1085.94 187.686 1084.77 186.435 1083.41 185.239H1144.73C1148.43 186.544 1150.96 191.11 1152.31 198.938C1152.7 201.113 1152.89 203.233 1152.89 205.299C1152.89 209.539 1152.26 212.91 1151.01 215.41L1146.61 206.604C1143.67 200.841 1139.46 196.981 1133.97 195.024C1130.92 193.937 1127.5 193.394 1123.69 193.394C1119.89 193.394 1117.17 193.529 1115.54 193.801C1113.91 194.019 1112.66 194.59 1111.79 195.514C1110.37 197.09 1109.67 200.107 1109.67 204.565C1109.67 208.968 1109.78 212.04 1109.99 213.779C1110.21 215.465 1110.73 216.851 1111.54 217.938C1113.23 220.058 1116.79 221.118 1122.23 221.118H1147.83C1146.58 224.271 1145.3 226.5 1144 227.805C1141.39 230.414 1137.85 231.719 1133.4 231.719C1131.66 231.719 1130 231.528 1128.42 231.148C1125.49 230.441 1122.91 230.088 1120.68 230.088C1118.45 230.088 1116.6 230.305 1115.13 230.74C1113.72 231.121 1112.6 231.746 1111.79 232.616C1110.37 234.138 1109.67 236.883 1109.67 240.852V279.748C1109.67 289.968 1110.24 296.029 1111.38 297.932C1112.52 299.834 1113.91 300.976 1115.54 301.356C1117.17 301.683 1119.89 301.846 1123.69 301.846C1127.5 301.846 1130.95 301.302 1134.05 300.215C1137.15 299.128 1139.73 297.605 1141.8 295.648C1143.92 293.691 1145.66 291.381 1147.01 288.717C1148.37 285.999 1149.71 283.036 1151.01 279.829ZM1228.15 279.829C1229.62 281.949 1230.35 284.504 1230.35 287.494C1230.35 290.484 1230.14 293.066 1229.7 295.241C1229.32 297.415 1228.78 299.481 1228.07 301.438C1226.44 305.733 1224.37 308.587 1221.87 310H1156.31C1160.61 307.336 1163.41 305.026 1164.71 303.069C1167.21 299.372 1168.46 294.588 1168.46 288.717C1168.41 274.257 1168.38 261.183 1168.38 249.495V206.767C1168.38 198.884 1167.08 193.095 1164.47 189.398C1163.54 188.039 1162.4 186.653 1161.04 185.239H1194.56C1191.35 189.86 1189.53 194.617 1189.09 199.509C1188.99 201.14 1188.93 202.934 1188.93 204.891V279.584C1188.93 289.75 1189.47 295.839 1190.56 297.85C1191.65 299.807 1192.95 300.976 1194.48 301.356C1196 301.683 1198.31 301.846 1201.41 301.846C1204.51 301.846 1207.44 301.302 1210.21 300.215C1212.99 299.128 1215.46 297.605 1217.63 295.648C1221.33 292.278 1224.84 287.005 1228.15 279.829ZM1294.12 261.482L1294.04 239.139C1294.04 236.095 1293.55 234.029 1292.58 232.942C1290.78 230.931 1287.47 229.925 1282.63 229.925H1269.74C1263 229.925 1259.31 231.827 1258.65 235.633C1258.49 236.72 1258.41 237.889 1258.41 239.139L1258.33 263.602C1258.33 284.694 1259.41 297.904 1261.59 303.232C1262.46 305.298 1263.82 307.554 1265.67 310H1235.09C1236.83 305.868 1237.83 302.417 1238.1 299.644C1238.43 296.872 1238.76 293.447 1239.08 289.37C1239.68 280.835 1239.98 271.077 1239.98 260.096C1239.98 249.115 1239.95 241.558 1239.9 237.427C1239.84 233.241 1239.79 229.164 1239.74 225.195C1239.35 208.724 1238.84 198.857 1238.19 195.595C1237.53 192.279 1236.99 190.05 1236.56 188.909L1235.09 185.239H1265.67C1261.75 189.588 1259.58 195.459 1259.14 202.853C1258.98 205.081 1258.9 207.419 1258.9 209.865C1258.9 212.312 1259.12 214.241 1259.55 215.655C1260.04 217.014 1260.83 218.02 1261.92 218.672C1263.38 219.65 1266.83 220.14 1272.27 220.14H1280.02C1285.56 220.14 1288.99 219.732 1290.29 218.917C1292.47 217.503 1293.55 214.432 1293.55 209.702C1293.55 198.123 1291.27 189.969 1286.7 185.239H1317.28C1315.65 188.827 1314.65 192.143 1314.27 195.188C1313.94 198.232 1313.69 201.167 1313.53 203.994C1313.37 206.767 1313.21 210.001 1313.04 213.698C1312.88 217.394 1312.74 221.227 1312.63 225.195C1312.47 234.437 1312.39 242.809 1312.39 250.311C1312.39 280.808 1313.53 299.481 1315.82 306.331C1316.2 307.472 1316.68 308.695 1317.28 310H1286.7C1289.42 306.358 1291.08 303.232 1291.68 300.623C1292.28 297.959 1292.74 294.833 1293.06 291.245C1293.77 284.341 1294.12 274.42 1294.12 261.482ZM1377.22 303.477C1387.66 303.477 1394.4 290.756 1397.44 265.314C1398.48 256.725 1398.99 246.614 1398.99 234.98C1398.99 206.169 1391.68 191.763 1377.06 191.763C1362.43 191.763 1355.12 206.169 1355.12 234.98C1355.12 268.957 1359.5 290.403 1368.25 299.318C1370.97 302.09 1373.96 303.477 1377.22 303.477ZM1377.06 311.631C1362.6 311.631 1351.7 304.836 1344.36 291.245C1337.29 278.144 1333.76 259.389 1333.76 234.98C1333.76 209.593 1341.56 193.611 1357.16 187.033C1362.65 184.75 1369.28 183.608 1377.06 183.608C1399.35 183.608 1412.96 193.502 1417.91 213.29C1419.54 219.65 1420.36 227.832 1420.36 237.834C1420.36 247.837 1419.49 257.595 1417.75 267.108C1416.01 276.567 1413.34 284.613 1409.76 291.245C1402.42 304.836 1391.52 311.631 1377.06 311.631Z" fill="#F6E9CE"/>
<path d="M129.675 976.423C96.704 979.045 94.3887 980.064 89.9267 980.066L65.7067 1008.13L94.2047 1032C98.6089 1031.3 100.982 1030.98 133.953 1028.36C186.235 1024.2 200.573 1022.71 205.035 1022.7L187.231 997.983L200.757 970.769C196.353 971.473 181.957 972.265 129.675 976.423Z" fill="#A05A2F"/>
<path d="M118.732 1007.53C118.904 1009.39 118.564 1010.86 117.712 1011.94C116.869 1013.01 115.562 1013.63 113.792 1013.8C112.059 1013.96 110.553 1013.75 109.274 1013.19L108.935 1009.52C110.513 1010.36 111.924 1010.72 113.167 1010.6C113.875 1010.54 114.388 1010.29 114.706 1009.87C115.033 1009.44 115.165 1008.9 115.103 1008.23C115.042 1007.56 114.773 1006.98 114.296 1006.47C113.818 1005.96 113.058 1005.41 112.015 1004.83C111.108 1004.32 110.407 1003.82 109.912 1003.32C109.426 1002.82 109.03 1002.24 108.723 1001.59C108.424 1000.94 108.234 1000.17 108.152 999.285C107.994 997.578 108.341 996.182 109.192 995.097C110.053 994.01 111.282 993.393 112.879 993.245C114.404 993.104 115.909 993.395 117.395 994.118L116.444 997.199C115.985 996.985 115.506 996.801 115.006 996.646C114.516 996.49 113.998 996.437 113.454 996.487C112.855 996.543 112.41 996.785 112.121 997.215C111.839 997.635 111.73 998.185 111.793 998.865C111.855 999.537 112.1 1000.1 112.527 1000.57C112.964 1001.03 113.692 1001.54 114.713 1002.08C116.092 1002.83 117.077 1003.64 117.669 1004.5C118.27 1005.36 118.625 1006.37 118.732 1007.53ZM130.554 1011.97L128.945 1007.05L123.758 1007.53L123.08 1012.66L119.377 1013.01L122.455 992.565L127.479 992.1L134.27 1011.63L130.554 1011.97ZM127.947 1003.84L126.457 999.307C126.367 999.032 126.157 998.342 125.826 997.237C125.503 996.123 125.302 995.377 125.221 995C125.175 995.792 125.105 996.668 125.011 997.628C124.916 998.58 124.642 1000.77 124.19 1004.19L127.947 1003.84ZM136.136 1011.46L134.294 991.552L137.779 991.229L139.621 1011.13L136.136 1011.46ZM133.997 989.973L133.963 989.605C134.29 989.09 134.658 988.365 135.066 987.43C135.474 986.495 135.76 985.782 135.925 985.291L140.254 984.89L140.281 985.176C140.099 985.587 139.617 986.267 138.836 987.219C138.053 988.161 137.289 989 136.543 989.737L133.997 989.973ZM154.992 999.481C155.296 1002.77 154.857 1005.34 153.675 1007.21C152.501 1009.07 150.658 1010.11 148.144 1010.34L143.27 1010.8L141.428 990.892L146.751 990.399C149.065 990.185 150.946 990.876 152.394 992.472C153.84 994.059 154.706 996.395 154.992 999.481ZM151.204 999.942C150.792 995.494 149.361 993.384 146.911 993.611L145.427 993.748L146.673 1007.21L147.871 1007.1C149.223 1006.98 150.169 1006.32 150.71 1005.14C151.249 1003.94 151.414 1002.21 151.204 999.942ZM167.707 1008.53L166.099 1003.62L160.912 1004.1L160.233 1009.23L156.53 1009.57L159.609 989.127L164.632 988.662L171.424 1008.19L167.707 1008.53ZM165.101 1000.4L163.61 995.869C163.521 995.594 163.311 994.904 162.98 993.799C162.657 992.685 162.455 991.939 162.374 991.562C162.329 992.354 162.259 993.23 162.164 994.19C162.069 995.142 161.796 997.328 161.343 1000.75L165.101 1000.4Z" fill="#F6E9CE"/>
<path fill-rule="evenodd" clip-rule="evenodd" d="M983 522L936 545.288V556.523L943.705 563.343L936 568.449V1208H983V522Z" fill="#784323"/>
<path fill-rule="evenodd" clip-rule="evenodd" d="M1152.58 609.678L1158.42 604.897L1151.11 599C1147.2 599.319 1119.3 599.671 1074.63 600.233C1041.37 600.652 998.811 601.188 949.942 601.915C912.7 602.469 885.285 602.925 865.009 603.276V609.25L860.587 603.353C854.455 603.46 849.029 603.556 844.221 603.641L844.221 603.641C818.886 604.091 810.733 604.235 807 604.042L831.608 637.384L808.003 671.444C811.728 671.139 819.881 671.041 845.212 670.737L845.216 670.737L845.227 670.737C855.517 670.613 868.641 670.455 885.451 670.236L888.484 664.818L889.203 670.186C906.009 669.965 926.331 669.684 950.944 669.317C992.945 668.693 1030.28 668.086 1061.06 667.586H1061.06C1086.53 667.173 1107.51 666.832 1122.92 666.614L1121.9 657.19L1130.61 666.51C1142.79 666.353 1150.23 666.305 1152.11 666.402L1192.17 632.098L1160.39 606.479L1152.58 609.678Z" fill="#FFA14A"/>
<path d="M887.945 651.52L887.52 622.969L892.52 622.894L892.945 651.446L887.945 651.52ZM918.177 651.071L911.693 651.167L902.558 630.617L902.305 630.621C902.654 632.191 902.841 633.881 902.868 635.691L903.1 651.295L898.179 651.368L897.754 622.816L904.277 622.719L913.331 643.056L913.545 643.053C913.278 641.689 913.13 640.064 913.102 638.176L912.87 622.592L917.752 622.519L918.177 651.071ZM923.372 650.993L922.948 622.442L927.947 622.367L928.372 650.919L923.372 650.993ZM942.716 626.386C941.193 626.409 940.002 627.319 939.143 629.116C938.298 630.912 937.898 633.399 937.946 636.576C938.044 643.189 939.818 646.471 943.268 646.419C944.779 646.397 946.353 645.892 947.992 644.904L948.063 649.63C946.683 650.575 944.907 651.064 942.732 651.096C939.517 651.144 937.024 649.905 935.254 647.379C933.498 644.839 932.585 641.252 932.516 636.617C932.447 631.982 933.279 628.356 935.011 625.739C936.756 623.122 939.21 621.79 942.374 621.742C943.415 621.727 944.414 621.855 945.368 622.128C946.336 622.4 947.372 622.886 948.476 623.586L946.783 627.928C946.191 627.533 945.561 627.177 944.892 626.862C944.223 626.533 943.498 626.375 942.716 626.386ZM952.277 650.563L951.852 622.012L956.852 621.937L957.277 650.489L952.277 650.563ZM976.025 650.21L974.278 643.028L966.837 643.139L965.304 650.369L959.992 650.448L966.635 621.675L973.841 621.567L981.357 650.131L976.025 650.21ZM973.212 638.336L971.59 631.719C971.492 631.317 971.269 630.311 970.92 628.701C970.583 627.079 970.378 625.994 970.305 625.449C970.152 626.571 969.956 627.811 969.715 629.169C969.475 630.514 968.844 633.596 967.822 638.417L973.212 638.336ZM988.223 638.914L988.388 650.026L983.076 650.105L982.651 621.554L989.604 621.45C992.546 621.406 994.724 622.071 996.138 623.443C997.565 624.815 998.299 626.933 998.342 629.798C998.396 633.404 997.216 635.941 994.803 637.41L1000.48 649.846L994.793 649.931L990.117 638.886L988.223 638.914ZM988.155 634.344L989.522 634.324C990.772 634.305 991.665 633.94 992.201 633.229C992.737 632.505 992.995 631.44 992.974 630.034C992.952 628.576 992.644 627.545 992.049 626.942C991.467 626.325 990.57 626.026 989.359 626.044L988.031 626.064L988.155 634.344ZM1030.79 635.077C1030.86 639.803 1030.03 643.449 1028.3 646.014C1026.56 648.579 1024.05 649.886 1020.76 649.935C1017.45 649.984 1014.89 648.759 1013.08 646.26C1011.27 643.747 1010.33 640.109 1010.26 635.344C1010.19 630.617 1011.02 626.985 1012.76 624.446C1014.49 621.894 1017.02 620.593 1020.36 620.543C1023.65 620.494 1026.2 621.726 1027.99 624.239C1029.79 626.738 1030.72 630.351 1030.79 635.077ZM1015.69 635.302C1015.74 638.557 1016.19 641.031 1017.03 642.724C1017.88 644.417 1019.1 645.252 1020.68 645.229C1023.89 645.181 1025.44 641.824 1025.34 635.158C1025.24 628.492 1023.6 625.183 1020.43 625.23C1018.81 625.254 1017.61 626.125 1016.81 627.843C1016.02 629.548 1015.64 632.034 1015.69 635.302ZM1041.34 657.481C1039.96 657.502 1038.86 657.355 1038.05 657.042L1037.98 652.414C1038.83 652.661 1039.64 652.78 1040.39 652.768C1041.47 652.752 1042.25 652.396 1042.74 651.698C1043.24 651.001 1043.47 649.968 1043.45 648.601L1043.04 620.655L1048.35 620.576L1048.76 648.249C1048.79 650.124 1048.5 651.756 1047.88 653.145C1047.27 654.535 1046.4 655.596 1045.25 656.329C1044.11 657.075 1042.81 657.459 1041.34 657.481ZM1072.45 634.458C1072.52 639.184 1071.69 642.829 1069.95 645.394C1068.22 647.959 1065.71 649.266 1062.41 649.315C1059.11 649.365 1056.55 648.14 1054.74 645.64C1052.93 643.128 1051.99 639.489 1051.92 634.724C1051.85 629.998 1052.68 626.365 1054.42 623.826C1056.15 621.274 1058.68 619.973 1062.01 619.924C1065.31 619.875 1067.85 621.106 1069.65 623.619C1071.44 626.119 1072.38 629.731 1072.45 634.458ZM1057.35 634.682C1057.4 637.937 1057.85 640.411 1058.69 642.104C1059.54 643.798 1060.75 644.633 1062.34 644.609C1065.55 644.561 1067.1 641.204 1067 634.539C1066.9 627.873 1065.26 624.563 1062.08 624.611C1060.47 624.635 1059.27 625.505 1058.47 627.223C1057.68 628.928 1057.3 631.414 1057.35 634.682ZM1084.44 632.756L1093.16 632.626L1093.38 647.273C1090.92 648.364 1088.3 648.93 1085.52 648.972C1082.2 649.021 1079.62 647.796 1077.79 645.297C1075.96 642.798 1075.02 639.172 1074.95 634.42C1074.88 629.837 1075.85 626.235 1077.85 623.614C1079.87 620.993 1082.72 619.655 1086.41 619.6C1088.69 619.566 1090.87 620.119 1092.96 621.26L1091.34 625.621C1089.71 624.707 1088.2 624.261 1086.79 624.282C1084.77 624.312 1083.18 625.241 1082.03 627.068C1080.88 628.882 1080.33 631.345 1080.38 634.457C1080.43 637.659 1080.89 640.107 1081.76 641.8C1082.64 643.493 1083.9 644.327 1085.53 644.303C1086.38 644.29 1087.26 644.167 1088.14 643.932L1088.04 637.39L1084.51 637.443L1084.44 632.756ZM1116.39 633.804C1116.46 638.53 1115.63 642.175 1113.9 644.741C1112.16 647.306 1109.65 648.613 1106.35 648.662C1103.05 648.711 1100.49 647.486 1098.68 644.986C1096.87 642.474 1095.93 638.835 1095.86 634.07C1095.79 629.344 1096.62 625.711 1098.36 623.172C1100.09 620.62 1102.62 619.319 1105.96 619.27C1109.25 619.221 1111.8 620.453 1113.59 622.965C1115.39 625.465 1116.32 629.078 1116.39 633.804ZM1101.29 634.028C1101.34 637.283 1101.79 639.757 1102.63 641.451C1103.48 643.144 1104.7 643.979 1106.28 643.955C1109.49 643.908 1111.04 640.551 1110.94 633.885C1110.84 627.219 1109.2 623.91 1106.03 623.957C1104.41 623.981 1103.21 624.852 1102.41 626.569C1101.62 628.274 1101.24 630.761 1101.29 634.028Z" fill="#010101"/>
<path fill-rule="evenodd" clip-rule="evenodd" d="M697.206 702.9L690.399 717.245L703.453 702.949C746.694 703.289 800.23 703.671 852.613 704.044L852.614 704.044L852.615 704.044L852.615 704.044C908.11 704.44 962.311 704.827 1001.6 705.144C1071.32 705.706 1126.26 706.608 1161.64 707.189L1166.49 707.269L1162.95 716.563L1173.55 707.384C1192.28 707.686 1203.46 707.838 1206 707.689L1180.29 743.03L1205.43 778.781C1199.16 778.312 1140.35 777.468 1045.47 776.614L1049.96 766.122L1033.57 775.561L1034.12 776.513C1023.5 776.42 1012.47 776.328 1001.03 776.235C961.739 775.918 907.542 775.43 852.051 774.93L852.042 774.93L852.01 774.93L851.972 774.929L851.941 774.929C793.032 774.399 732.674 773.855 687.148 773.489L679.925 765.769L680.762 773.438C640.861 773.122 613.747 772.96 611.496 773.092L569 737.201L612.07 702C614.605 702.19 648.755 702.515 697.206 702.9Z" fill="#FFA14A"/>
<path d="M643.374 728.915C641.851 728.902 640.639 729.784 639.739 731.561C638.853 733.338 638.396 735.815 638.371 738.992C638.317 745.606 640.016 748.927 643.466 748.955C644.977 748.967 646.563 748.498 648.224 747.548L648.186 752.274C646.785 753.188 644.998 753.636 642.823 753.618C639.607 753.592 637.144 752.296 635.433 749.73C633.735 747.151 632.904 743.544 632.942 738.909C632.979 734.274 633.894 730.668 635.685 728.091C637.49 725.514 639.974 724.239 643.138 724.264C644.18 724.272 645.175 724.424 646.123 724.718C647.084 725.012 648.109 725.522 649.197 726.247L647.404 730.549C646.821 730.14 646.199 729.771 645.538 729.44C644.877 729.096 644.155 728.921 643.374 728.915ZM664.936 753.406L663.353 746.186L655.912 746.126L654.214 753.319L648.901 753.276L656.203 724.662L663.409 724.721L670.268 753.449L664.936 753.406ZM662.395 741.471L660.926 734.818C660.838 734.414 660.638 733.403 660.325 731.786C660.026 730.156 659.846 729.067 659.785 728.52C659.607 729.638 659.382 730.873 659.11 732.225C658.839 733.564 658.137 736.632 657.005 741.427L662.395 741.471ZM690.268 739.059C690.23 743.772 689.237 747.371 687.29 749.856C685.356 752.327 682.586 753.548 678.979 753.519L671.987 753.463L672.218 724.909L679.854 724.971C683.174 724.997 685.749 726.249 687.578 728.724C689.407 731.187 690.304 734.632 690.268 739.059ZM684.818 739.171C684.869 732.791 683.137 729.587 679.622 729.559L677.493 729.541L677.337 748.857L679.056 748.871C680.996 748.887 682.435 748.091 683.372 746.484C684.31 744.864 684.792 742.426 684.818 739.171ZM706.401 753.74L693.53 753.637L693.761 725.083L706.631 725.187L706.594 729.776L699.036 729.715L698.981 736.512L705.993 736.569L705.955 741.178L698.944 741.121L698.88 749.031L706.438 749.092L706.401 753.74ZM715.163 742.697L715.073 753.81L709.761 753.768L709.991 725.214L716.944 725.27C719.887 725.294 722.049 726.008 723.431 727.412C724.826 728.817 725.512 730.951 725.489 733.816C725.46 737.422 724.222 739.932 721.776 741.345L727.163 753.908L721.479 753.862L717.057 742.713L715.163 742.697ZM715.2 738.127L716.567 738.138C717.817 738.148 718.718 737.804 719.271 737.105C719.823 736.394 720.105 735.335 720.117 733.929C720.128 732.47 719.844 731.433 719.263 730.816C718.695 730.187 717.806 729.867 716.595 729.857L715.267 729.846L715.2 738.127ZM748.96 754.084L742.476 754.032L733.815 733.277L733.561 733.275C733.873 734.853 734.023 736.547 734.008 738.357L733.882 753.962L728.96 753.922L729.191 725.369L735.714 725.421L744.299 745.96L744.513 745.962C744.277 744.593 744.166 742.964 744.182 741.076L744.307 725.491L749.19 725.53L748.96 754.084ZM772.962 739.961C772.924 744.687 772.009 748.313 770.218 750.837C768.427 753.362 765.884 754.611 762.59 754.585C759.282 754.558 756.754 753.274 755.003 750.734C753.253 748.181 752.397 744.521 752.436 739.756C752.474 735.03 753.388 731.417 755.179 728.918C756.971 726.407 759.533 725.164 762.866 725.191C766.16 725.218 768.676 726.508 770.413 729.061C772.15 731.601 773 735.234 772.962 739.961ZM757.865 739.839C757.839 743.094 758.229 745.578 759.035 747.29C759.842 749.002 761.039 749.865 762.628 749.878C765.831 749.903 767.459 746.583 767.513 739.917C767.567 733.25 766.005 729.904 762.828 729.879C761.214 729.866 759.989 730.709 759.155 732.408C758.321 734.094 757.891 736.571 757.865 739.839ZM789.297 746.538C789.275 749.207 788.582 751.246 787.216 752.654C785.864 754.063 783.918 754.757 781.379 754.736C778.892 754.716 776.78 754.211 775.043 753.22L775.086 747.966C777.21 749.377 779.164 750.089 780.948 750.104C781.963 750.112 782.727 749.838 783.239 749.282C783.765 748.727 784.031 747.967 784.039 747.003C784.047 746.053 783.748 745.185 783.142 744.398C782.537 743.599 781.535 742.712 780.136 741.737C778.919 740.881 777.995 740.066 777.363 739.293C776.744 738.507 776.263 737.63 775.919 736.664C775.588 735.698 775.428 734.577 775.438 733.301C775.458 730.853 776.151 728.918 777.517 727.497C778.895 726.076 780.73 725.374 783.022 725.393C785.209 725.411 787.307 726.04 789.316 727.28L787.523 731.523C786.901 731.154 786.247 730.823 785.559 730.531C784.884 730.239 784.156 730.09 783.375 730.083C782.515 730.077 781.849 730.358 781.376 730.927C780.916 731.483 780.681 732.249 780.674 733.226C780.666 734.189 780.932 735.031 781.474 735.752C782.028 736.473 782.991 737.294 784.364 738.217C786.216 739.482 787.501 740.768 788.22 742.076C788.951 743.384 789.31 744.871 789.297 746.538ZM821.031 754.665L814.547 754.613L805.886 733.859L805.632 733.857C805.945 735.435 806.094 737.129 806.079 738.939L805.953 754.544L801.031 754.504L801.262 725.95L807.785 726.003L816.37 746.542L816.584 746.543C816.348 745.174 816.238 743.546 816.253 741.658L816.379 726.072L821.261 726.112L821.031 754.665ZM845.033 740.542C844.995 745.269 844.08 748.894 842.289 751.419C840.498 753.944 837.955 755.193 834.661 755.166C831.354 755.139 828.825 753.856 827.074 751.316C825.324 748.762 824.468 745.103 824.507 740.338C824.545 735.611 825.459 731.999 827.25 729.5C829.042 726.988 831.604 725.746 834.937 725.773C838.231 725.799 840.747 727.089 842.484 729.642C844.222 732.183 845.071 735.816 845.033 740.542ZM829.936 740.42C829.91 743.676 830.3 746.159 831.106 747.872C831.913 749.584 833.11 750.446 834.699 750.459C837.902 750.485 839.53 747.165 839.584 740.498C839.638 733.832 838.076 730.486 834.899 730.46C833.285 730.447 832.06 731.29 831.226 732.989C830.392 734.675 829.962 737.152 829.936 740.42ZM856.519 754.952L851.227 754.909L851.419 731.023L845.951 730.979L845.989 726.311L862.218 726.442L862.181 731.11L856.712 731.066L856.519 754.952ZM876.402 755.112L874.82 747.892L867.379 747.832L865.68 755.026L860.368 754.983L867.669 726.369L874.876 726.427L881.734 755.155L876.402 755.112ZM873.862 743.177L872.392 736.525C872.304 736.12 872.104 735.11 871.792 733.492C871.492 731.862 871.312 730.774 871.252 730.226C871.073 731.345 870.848 732.58 870.577 733.932C870.306 735.271 869.604 738.338 868.471 743.134L873.862 743.177ZM896.525 747.403C896.503 750.073 895.81 752.111 894.444 753.52C893.091 754.928 891.146 755.622 888.607 755.601C886.12 755.581 884.008 755.076 882.271 754.085L882.313 748.832C884.438 750.242 886.392 750.955 888.175 750.969C889.191 750.977 889.955 750.703 890.467 750.148C890.992 749.592 891.259 748.832 891.267 747.869C891.274 746.918 890.976 746.05 890.37 745.264C889.764 744.465 888.762 743.578 887.364 742.603C886.147 741.747 885.222 740.932 884.591 740.158C883.972 739.372 883.491 738.496 883.147 737.529C882.816 736.563 882.656 735.442 882.666 734.166C882.686 731.718 883.379 729.784 884.744 728.362C886.123 726.941 887.958 726.24 890.25 726.258C892.437 726.276 894.535 726.905 896.543 728.145L894.751 732.389C894.129 732.019 893.474 731.688 892.787 731.396C892.112 731.104 891.384 730.955 890.603 730.949C889.743 730.942 889.077 731.223 888.604 731.792C888.143 732.348 887.909 733.115 887.901 734.091C887.894 735.055 888.16 735.897 888.701 736.617C889.255 737.338 890.219 738.159 891.592 739.082C893.443 740.347 894.729 741.634 895.447 742.941C896.179 744.249 896.538 745.737 896.525 747.403ZM921.774 755.479L920.192 748.258L912.751 748.198L911.052 755.392L905.74 755.349L913.041 726.735L920.248 726.793L927.106 755.522L921.774 755.479ZM919.234 743.544L917.764 736.891C917.676 736.486 917.476 735.476 917.164 733.859C916.864 732.228 916.684 731.14 916.623 730.592C916.445 731.711 916.22 732.946 915.949 734.298C915.678 735.637 914.976 738.704 913.843 743.5L919.234 743.544ZM934.228 744.465L934.138 755.578L928.826 755.535L929.056 726.982L936.009 727.038C938.952 727.062 941.114 727.776 942.496 729.18C943.891 730.585 944.577 732.719 944.554 735.584C944.525 739.19 943.287 741.7 940.84 743.112L946.227 755.676L940.544 755.63L936.122 744.481L934.228 744.465ZM934.265 739.895L935.632 739.906C936.882 739.916 937.783 739.572 938.335 738.873C938.888 738.162 939.17 737.103 939.181 735.696C939.193 734.238 938.909 733.201 938.328 732.584C937.76 731.954 936.87 731.635 935.66 731.625L934.331 731.614L934.265 739.895ZM967.788 741.533C967.762 744.801 967.304 747.558 966.413 749.803C965.536 752.049 964.246 753.718 962.544 754.811L967.735 762.647L961.603 762.597L957.709 756.159L957.416 756.157C954.109 756.13 951.58 754.847 949.83 752.306C948.08 749.753 947.224 746.094 947.262 741.328C947.3 736.602 948.215 732.989 950.006 730.491C951.797 727.979 954.359 726.737 957.692 726.764C960.987 726.79 963.502 728.08 965.24 730.633C966.977 733.173 967.827 736.807 967.788 741.533ZM952.691 741.411C952.665 744.666 953.055 747.15 953.862 748.862C954.668 750.575 955.866 751.437 957.454 751.45C960.657 751.476 962.286 748.155 962.339 741.489C962.393 734.823 960.832 731.477 957.655 731.451C956.04 731.438 954.816 732.281 953.982 733.98C953.148 735.666 952.718 738.143 952.691 741.411ZM988.841 727.464L988.692 745.94C988.664 749.338 987.875 751.93 986.324 753.714C984.774 755.486 982.546 756.36 979.643 756.336C976.804 756.313 974.65 755.41 973.18 753.628C971.71 751.832 970.989 749.196 971.017 745.719L971.166 727.321L976.439 727.364L976.287 746.153C976.258 749.785 977.448 751.611 979.857 751.631C980.976 751.64 981.846 751.185 982.465 750.265C983.085 749.345 983.401 748.033 983.415 746.327L983.568 727.422L988.841 727.464ZM1005.62 756.155L992.752 756.051L992.982 727.498L1005.85 727.601L1005.82 732.191L998.257 732.13L998.203 738.927L1005.21 738.983L1005.18 743.593L998.165 743.536L998.102 751.446L1005.66 751.507L1005.62 756.155ZM1028.75 742.025C1028.71 746.751 1027.79 750.377 1026 752.902C1024.21 755.426 1021.67 756.675 1018.37 756.649C1015.07 756.622 1012.54 755.339 1010.79 752.798C1009.04 750.245 1008.18 746.586 1008.22 741.82C1008.26 737.094 1009.17 733.481 1010.96 730.983C1012.75 728.471 1015.32 727.229 1018.65 727.255C1021.94 727.282 1024.46 728.572 1026.2 731.125C1027.93 733.665 1028.78 737.299 1028.75 742.025ZM1013.65 741.903C1013.62 745.158 1014.01 747.642 1014.82 749.354C1015.63 751.066 1016.82 751.929 1018.41 751.942C1021.61 751.968 1023.24 748.647 1023.3 741.981C1023.35 735.314 1021.79 731.968 1018.61 731.943C1017 731.93 1015.77 732.773 1014.94 734.472C1014.11 736.158 1013.68 738.635 1013.65 741.903ZM1032.01 756.368L1032.24 727.814L1037.55 727.857L1037.36 751.763L1044.72 751.822L1044.69 756.47L1032.01 756.368ZM1067.07 742.334C1067.03 747.061 1066.11 750.686 1064.32 753.211C1062.53 755.736 1059.99 756.985 1056.69 756.958C1053.39 756.931 1050.86 755.648 1049.11 753.108C1047.36 750.554 1046.5 746.895 1046.54 742.129C1046.58 737.403 1047.49 733.791 1049.28 731.292C1051.08 728.78 1053.64 727.538 1056.97 727.565C1060.26 727.591 1062.78 728.881 1064.52 731.434C1066.25 733.974 1067.1 737.608 1067.07 742.334ZM1051.97 742.212C1051.94 745.467 1052.33 747.951 1053.14 749.663C1053.95 751.376 1055.14 752.238 1056.73 752.251C1059.94 752.277 1061.56 748.957 1061.62 742.29C1061.67 735.624 1060.11 732.278 1056.93 732.252C1055.32 732.239 1054.09 733.082 1053.26 734.781C1052.43 736.467 1052 738.944 1051.97 742.212ZM1054.35 725.708L1054.35 725.18C1054.89 724.494 1055.52 723.516 1056.23 722.246C1056.95 720.976 1057.45 720.003 1057.76 719.329L1063.97 719.379L1063.97 719.789C1063.65 720.346 1062.87 721.245 1061.62 722.485C1060.37 723.712 1059.17 724.796 1058 725.737L1054.35 725.708ZM1079.09 740.908L1087.82 740.978L1087.7 755.626C1085.22 756.661 1082.59 757.167 1079.8 757.144C1076.48 757.118 1073.93 755.834 1072.15 753.294C1070.39 750.753 1069.53 747.107 1069.57 742.354C1069.6 737.771 1070.66 734.192 1072.72 731.618C1074.8 729.043 1077.68 727.771 1081.36 727.801C1083.64 727.819 1085.81 728.423 1087.87 729.611L1086.16 733.933C1084.55 732.983 1083.05 732.502 1081.64 732.491C1079.62 732.474 1078.01 733.366 1076.81 735.166C1075.63 736.954 1075.02 739.403 1075 742.515C1074.97 745.718 1075.37 748.176 1076.21 749.889C1077.05 751.601 1078.29 752.464 1079.92 752.477C1080.77 752.484 1081.65 752.381 1082.54 752.166L1082.59 745.624L1079.05 745.595L1079.09 740.908ZM1092.21 756.854L1092.44 728.3L1097.44 728.341L1097.21 756.894L1092.21 756.854ZM1112.11 732.697C1110.59 732.685 1109.37 733.567 1108.47 735.344C1107.59 737.121 1107.13 739.598 1107.11 742.774C1107.05 749.389 1108.75 752.71 1112.2 752.738C1113.71 752.75 1115.3 752.281 1116.96 751.331L1116.92 756.057C1115.52 756.97 1113.73 757.418 1111.56 757.401C1108.34 757.375 1105.88 756.079 1104.17 753.513C1102.47 750.934 1101.64 747.327 1101.68 742.692C1101.71 738.056 1102.63 734.45 1104.42 731.874C1106.22 729.297 1108.71 728.021 1111.87 728.047C1112.91 728.055 1113.91 728.207 1114.86 728.501C1115.82 728.795 1116.84 729.304 1117.93 730.029L1116.14 734.331C1115.56 733.923 1114.93 733.554 1114.27 733.223C1113.61 732.879 1112.89 732.704 1112.11 732.697ZM1133.67 757.189L1132.09 749.969L1124.65 749.908L1122.95 757.102L1117.64 757.059L1124.94 728.445L1132.14 728.503L1139 757.232L1133.67 757.189ZM1131.13 745.254L1129.66 738.601C1129.57 738.197 1129.37 737.186 1129.06 735.569C1128.76 733.939 1128.58 732.85 1128.52 732.302C1128.34 733.421 1128.12 734.656 1127.85 736.008C1127.57 737.347 1126.87 740.414 1125.74 745.21L1131.13 745.254ZM1153.79 749.48C1153.77 752.149 1153.08 754.188 1151.71 755.596C1150.36 757.004 1148.41 757.698 1145.87 757.678C1143.39 757.658 1141.28 757.152 1139.54 756.162L1139.58 750.908C1141.71 752.318 1143.66 753.031 1145.44 753.045C1146.46 753.053 1147.22 752.78 1147.74 752.224C1148.26 751.668 1148.53 750.909 1148.53 749.945C1148.54 748.995 1148.24 748.126 1147.64 747.34C1147.03 746.541 1146.03 745.654 1144.63 744.679C1143.41 743.823 1142.49 743.008 1141.86 742.235C1141.24 741.448 1140.76 740.572 1140.42 739.606C1140.08 738.639 1139.92 737.518 1139.93 736.242C1139.95 733.794 1140.65 731.86 1142.01 730.439C1143.39 729.017 1145.23 728.316 1147.52 728.335C1149.71 728.352 1151.8 728.981 1153.81 730.221L1152.02 734.465C1151.4 734.095 1150.74 733.764 1150.05 733.472C1149.38 733.18 1148.65 733.031 1147.87 733.025C1147.01 733.018 1146.35 733.299 1145.87 733.868C1145.41 734.424 1145.18 735.191 1145.17 736.167C1145.16 737.131 1145.43 737.973 1145.97 738.693C1146.52 739.414 1147.49 740.236 1148.86 741.158C1150.71 742.423 1152 743.71 1152.72 745.018C1153.45 746.326 1153.81 747.813 1153.79 749.48Z" fill="#010101"/>
<path fill-rule="evenodd" clip-rule="evenodd" d="M1126.35 801.409L1121.28 814.707L1131.79 805.613L1152.35 821.489L1112.7 856.889C1108.49 856.759 1092.37 857.395 1068.81 858.326L1068.8 858.326L1068.8 858.326C1053.79 858.919 1035.77 859.631 1015.88 860.34C970.698 861.95 939.796 862.981 918.508 863.681L921.63 856.394L908.403 864.013C883.357 864.834 875.129 865.107 871.419 865.488L894.491 830.678L869 797.599C872.77 797.716 881.142 797.394 906.856 796.404L912.211 796.198L919.49 805.904V795.919C940.627 795.11 970.624 793.977 1013.46 792.45C1033.35 791.742 1051.38 791.169 1066.39 790.691C1089.96 789.942 1106.09 789.43 1110.28 789L1126.35 801.409Z" fill="#FFA14A"/>
<path d="M976.002 828.394C976.17 833.118 975.415 836.78 973.735 839.38C972.056 841.981 969.57 843.34 966.278 843.457C962.973 843.575 960.391 842.403 958.531 839.942C956.671 837.467 955.656 833.849 955.486 829.086C955.318 824.363 956.074 820.714 957.754 818.139C959.434 815.552 961.939 814.198 965.27 814.08C968.563 813.962 971.132 815.141 972.979 817.616C974.826 820.078 975.834 823.671 976.002 828.394ZM960.914 828.932C961.03 832.185 961.528 834.649 962.409 836.325C963.289 838 964.523 838.81 966.111 838.753C969.312 838.639 970.794 835.251 970.556 828.588C970.319 821.926 968.612 818.651 965.437 818.764C963.824 818.822 962.637 819.717 961.878 821.451C961.119 823.172 960.797 825.666 960.914 828.932ZM994.742 822.274C994.85 825.306 994.165 827.662 992.688 829.343C991.223 831.011 989.046 831.897 986.157 832L984.83 832.047L985.198 842.392L979.889 842.581L978.872 814.045L986.114 813.786C991.657 813.589 994.533 816.418 994.742 822.274ZM984.666 827.44L985.681 827.404C986.982 827.358 987.939 826.965 988.551 826.227C989.163 825.489 989.44 824.306 989.382 822.68C989.328 821.183 988.996 820.088 988.385 819.393C987.774 818.685 986.856 818.353 985.633 818.396L984.345 818.442L984.666 827.44ZM1006.86 817.288C1005.34 817.342 1004.16 818.277 1003.34 820.091C1002.53 821.905 1002.19 824.399 1002.3 827.574C1002.54 834.185 1004.38 837.428 1007.83 837.305C1009.33 837.252 1010.9 836.714 1012.52 835.692L1012.69 840.416C1011.33 841.389 1009.56 841.915 1007.39 841.992C1004.17 842.107 1001.65 840.919 999.833 838.431C998.024 835.928 997.037 832.361 996.872 827.729C996.707 823.096 997.463 819.454 999.14 816.801C1000.83 814.148 1003.26 812.765 1006.42 812.652C1007.46 812.615 1008.46 812.723 1009.42 812.975C1010.39 813.227 1011.44 813.692 1012.56 814.368L1010.96 818.745C1010.36 818.362 1009.72 818.02 1009.04 817.718C1008.37 817.404 1007.64 817.26 1006.86 817.288ZM1010.5 846.571C1010.55 847.964 1010.13 849.08 1009.23 849.92C1008.34 850.772 1006.92 851.233 1004.98 851.302C1004.03 851.336 1003.18 851.23 1002.41 850.984L1002.3 847.978C1003.11 848.171 1003.9 848.253 1004.68 848.225C1005.82 848.184 1006.38 847.735 1006.35 846.876C1006.31 845.783 1005.26 845.103 1003.21 844.838L1004.64 841.699L1008.02 841.579L1007.35 843.088C1008.24 843.278 1008.98 843.662 1009.56 844.24C1010.15 844.818 1010.47 845.596 1010.5 846.571ZM1034.74 826.301C1034.9 831.024 1034.15 834.687 1032.47 837.287C1030.79 839.888 1028.31 841.246 1025.01 841.364C1021.71 841.482 1019.13 840.31 1017.27 837.848C1015.41 835.374 1014.39 831.756 1014.22 826.993C1014.05 822.269 1014.81 818.62 1016.49 816.046C1018.17 813.458 1020.67 812.105 1024 811.987C1027.3 811.869 1029.87 813.048 1031.71 815.523C1033.56 817.985 1034.57 821.577 1034.74 826.301ZM1019.65 826.839C1019.76 830.092 1020.26 832.556 1021.14 834.231C1022.02 835.907 1023.26 836.716 1024.85 836.66C1028.05 836.546 1029.53 833.157 1029.29 826.495C1029.05 819.833 1027.35 816.558 1024.17 816.671C1022.56 816.729 1021.37 817.624 1020.61 819.358C1019.85 821.079 1019.53 823.572 1019.65 826.839ZM1021.5 808.147C1021.1 808.162 1020.78 808.33 1020.54 808.651C1020.32 808.958 1020.16 809.518 1020.06 810.329L1017.3 810.427C1017.38 808.431 1017.77 806.939 1018.47 805.949C1019.19 804.959 1020.16 804.443 1021.37 804.4C1021.93 804.38 1022.43 804.473 1022.88 804.678C1023.35 804.87 1023.78 805.089 1024.18 805.336C1024.58 805.582 1024.96 805.809 1025.34 806.017C1025.71 806.213 1026.09 806.303 1026.48 806.289C1026.92 806.274 1027.23 806.093 1027.42 805.748C1027.61 805.402 1027.77 804.862 1027.89 804.128L1030.64 804.03C1030.57 806.013 1030.16 807.507 1029.43 808.51C1028.71 809.5 1027.76 810.016 1026.57 810.058C1026 810.078 1025.48 809.992 1025.02 809.801C1024.57 809.595 1024.15 809.369 1023.75 809.123C1023.36 808.863 1022.99 808.635 1022.63 808.44C1022.27 808.231 1021.89 808.134 1021.5 808.147ZM1051.49 840.029L1038.62 840.488L1037.61 811.951L1050.47 811.493L1050.63 816.08L1043.08 816.349L1043.32 823.142L1050.33 822.892L1050.49 827.498L1043.49 827.748L1043.77 835.653L1051.32 835.384L1051.49 840.029ZM1067.56 831.58C1067.66 834.248 1067.06 836.315 1065.75 837.782C1064.46 839.248 1062.55 840.026 1060.01 840.117C1057.53 840.205 1055.39 839.792 1053.62 838.879L1053.43 833.628C1055.61 834.944 1057.6 835.571 1059.38 835.507C1060.39 835.471 1061.14 835.164 1061.63 834.587C1062.13 834.008 1062.37 833.238 1062.33 832.275C1062.3 831.325 1061.96 830.471 1061.32 829.712C1060.68 828.94 1059.64 828.097 1058.2 827.184C1056.95 826.382 1055.99 825.609 1055.32 824.864C1054.67 824.105 1054.15 823.251 1053.77 822.3C1053.4 821.349 1053.19 820.236 1053.14 818.961C1053.05 816.515 1053.66 814.552 1054.96 813.072C1056.28 811.592 1058.08 810.811 1060.37 810.73C1062.56 810.652 1064.68 811.188 1066.74 812.34L1065.14 816.657C1064.5 816.315 1063.83 816.013 1063.13 815.752C1062.44 815.49 1061.71 815.372 1060.93 815.4C1060.07 815.431 1059.42 815.741 1058.97 816.33C1058.53 816.906 1058.33 817.682 1058.37 818.658C1058.4 819.62 1058.7 820.45 1059.28 821.146C1059.86 821.842 1060.86 822.621 1062.27 823.482C1064.18 824.665 1065.52 825.894 1066.29 827.17C1067.08 828.445 1067.5 829.915 1067.56 831.58Z" fill="#010101"/>
<path fill-rule="evenodd" clip-rule="evenodd" d="M989.375 899.702L985.362 909.631L997.064 899.91C1001.71 900.04 1006.01 900.167 1009.9 900.282C1022.28 900.65 1030.61 900.897 1033.39 900.731L1009.86 933.141L1032.93 965.881C1026.34 965.394 988.576 964.348 939.533 964C920.451 963.865 903.151 963.675 888.747 963.517L888.747 963.517L888.746 963.517C866.13 963.27 850.652 963.1 846.622 963.341L832.624 951.542L837.234 941.353L827.126 946.907L807.646 930.487L847.084 898.19C851.11 898.488 866.585 898.538 889.198 898.611C903.605 898.658 920.909 898.714 939.995 898.849C958.393 898.98 975.203 899.333 989.375 899.702Z" fill="#FFA14A"/>
<path d="M895.815 939.066C895.827 941.736 895.159 943.783 893.811 945.208C892.476 946.633 890.539 947.351 888 947.362C885.513 947.373 883.395 946.894 881.646 945.925L881.623 940.671C883.764 942.055 885.727 942.743 887.511 942.735C888.527 942.731 889.287 942.447 889.792 941.885C890.311 941.323 890.568 940.56 890.564 939.597C890.56 938.646 890.25 937.782 889.635 937.003C889.019 936.212 888.006 935.337 886.596 934.38C885.368 933.539 884.434 932.735 883.793 931.97C883.164 931.191 882.672 930.321 882.316 929.359C881.974 928.397 881.8 927.278 881.794 926.002C881.784 923.554 882.452 921.611 883.8 920.173C885.161 918.735 886.987 918.011 889.279 918.001C891.467 917.991 893.572 918.594 895.596 919.809L893.856 924.075C893.23 923.713 892.571 923.39 891.879 923.107C891.201 922.823 890.471 922.683 889.69 922.686C888.831 922.69 888.168 922.979 887.702 923.554C887.248 924.116 887.024 924.885 887.028 925.862C887.032 926.826 887.309 927.664 887.859 928.378C888.422 929.092 889.396 929.901 890.78 930.807C892.647 932.049 893.948 933.319 894.683 934.618C895.431 935.917 895.808 937.4 895.815 939.066ZM918.151 932.525C918.172 937.251 917.302 940.888 915.542 943.434C913.782 945.981 911.255 947.262 907.961 947.276C904.654 947.29 902.109 946.038 900.328 943.52C898.546 940.988 897.645 937.34 897.624 932.574C897.604 927.848 898.474 924.224 900.234 921.703C901.993 919.17 904.54 917.896 907.873 917.881C911.168 917.867 913.699 919.126 915.468 921.657C917.237 924.176 918.131 927.798 918.151 932.525ZM903.054 932.59C903.068 935.845 903.489 938.324 904.317 940.026C905.144 941.728 906.352 942.576 907.941 942.569C911.144 942.555 912.731 939.215 912.702 932.548C912.674 925.882 911.071 922.555 907.894 922.569C906.279 922.576 905.065 923.434 904.252 925.143C903.439 926.839 903.04 929.322 903.054 932.59ZM921.47 918.272L928.755 918.24C931.723 918.228 933.887 918.798 935.247 919.951C936.606 921.091 937.291 922.917 937.302 925.43C937.309 927.084 936.957 928.472 936.245 929.595C935.534 930.705 934.56 931.38 933.324 931.619L933.325 931.815C934.941 932.211 936.11 932.961 936.831 934.065C937.552 935.169 937.916 936.639 937.924 938.474C937.935 941.066 937.248 943.1 935.861 944.577C934.487 946.041 932.595 946.779 930.187 946.789L921.593 946.826L921.47 918.272ZM926.519 929.735L928.961 929.724C930.08 929.719 930.867 929.416 931.32 928.815C931.773 928.214 931.997 927.322 931.992 926.137C931.987 924.952 931.723 924.107 931.2 923.601C930.677 923.082 929.855 922.826 928.736 922.83L926.489 922.84L926.519 929.735ZM926.538 934.168L926.573 942.156L929.249 942.145C930.355 942.14 931.174 941.798 931.705 941.119C932.249 940.439 932.518 939.39 932.512 937.97C932.501 935.418 931.376 934.147 929.136 934.157L926.538 934.168ZM946.331 935.606L946.379 946.719L941.066 946.742L940.943 918.188L947.896 918.158C950.839 918.145 953.01 918.832 954.409 920.22C955.821 921.607 956.533 923.733 956.546 926.597C956.561 930.204 955.355 932.729 952.926 934.171L958.468 946.667L952.785 946.692L948.225 935.598L946.331 935.606ZM946.311 931.036L947.678 931.03C948.928 931.025 949.825 930.669 950.369 929.964C950.913 929.245 951.181 928.183 951.175 926.777C951.169 925.318 950.872 924.284 950.283 923.675C949.708 923.052 948.814 922.744 947.603 922.749L946.275 922.755L946.311 931.036ZM973.137 946.604L960.266 946.659L960.143 918.105L973.014 918.049L973.034 922.639L965.475 922.672L965.504 929.469L972.516 929.438L972.536 934.048L965.524 934.078L965.558 941.988L973.117 941.955L973.137 946.604Z" fill="#010101"/>
</g>
<defs>
<clipPath id="clip0">
<rect width="1920" height="1080" fill="white"/>
</clipPath>
</defs>
</svg>
