<svg width="675" height="78" viewBox="0 0 675 78" fill="none" xmlns="http://www.w3.org/2000/svg">
<path fill-rule="evenodd" clip-rule="evenodd" d="M50.0065 1.95435L47.7847 13.5114L54.0476 1.95728C72.3583 1.96875 95.6213 1.96045 124.403 1.95019L124.404 1.95019H124.404H124.404C149.676 1.94118 179.203 1.93065 213.368 1.93065C320.091 -0.867216 515.925 0.0638683 614.261 0.531398L614.265 0.531418C622.853 0.572248 630.697 0.609542 637.673 0.640508L635.088 13.557L646.055 0.676215C662.328 0.74191 672.298 0.756182 673.738 0.669003L675 37.8986L673.738 77.0531C669.951 76.8239 607.927 76.5494 527.608 76.315L530.728 69.7098L518.133 76.2878C419.107 76.0076 295.481 75.7914 218.414 75.7914C166.594 75.7914 124.783 75.8892 92.1217 76.0384L85.1929 69.3242L86.0042 76.0675C32.5084 76.3316 5.2433 76.7358 0 77.0531L3.77549e-06 37.8986L7.27566e-06 1.59934C3.99906 1.84138 19.6984 1.92927 50.0065 1.95435Z" fill="#D2B37C"/>
<path d="M304.687 46.1769C304.662 48.9128 303.95 51.003 302.549 52.4476C301.161 53.8922 299.166 54.605 296.564 54.586C294.015 54.5673 291.85 54.051 290.071 53.037L290.119 47.6519C292.295 49.0959 294.297 49.8246 296.126 49.838C297.167 49.8456 297.95 49.5644 298.475 48.9943C299.014 48.4244 299.288 47.6456 299.297 46.658C299.306 45.6838 299 44.794 298.38 43.9886C297.76 43.1699 296.734 42.2615 295.301 41.2634C294.054 40.3867 293.107 39.5523 292.46 38.7601C291.827 37.9547 291.334 37.0569 290.983 36.0666C290.645 35.0765 290.481 33.9275 290.493 32.6196C290.515 30.1106 291.227 28.1271 292.628 26.6693C294.042 25.2115 295.924 24.4912 298.273 24.5083C300.515 24.5248 302.665 25.1678 304.722 26.4374L302.882 30.7883C302.245 30.41 301.574 30.0714 300.869 29.7726C300.177 29.4739 299.431 29.3216 298.631 29.3158C297.75 29.3093 297.067 29.598 296.581 30.1817C296.109 30.7521 295.868 31.5378 295.859 32.5387C295.85 33.5263 296.123 34.3892 296.677 35.1273C297.244 35.8655 298.231 36.7069 299.638 37.6515C301.535 38.9466 302.851 40.2642 303.586 41.6043C304.335 42.9444 304.702 44.4687 304.687 46.1769ZM327.668 39.7385C327.625 44.583 326.684 48.2998 324.846 50.889C323.008 53.4781 320.401 54.7604 317.024 54.7357C313.634 54.7109 311.043 53.3973 309.251 50.7949C307.459 48.1792 306.585 44.429 306.629 39.5445C306.672 34.6999 307.612 30.9964 309.45 28.434C311.288 25.8582 313.916 24.5828 317.332 24.6078C320.709 24.6325 323.286 25.9526 325.065 28.5682C326.844 31.1705 327.711 34.8939 327.668 39.7385ZM312.194 39.6252C312.164 42.9617 312.562 45.5071 313.387 47.2616C314.212 49.0161 315.439 49.8992 317.067 49.9112C320.35 49.9352 322.022 46.5307 322.083 39.6976C322.144 32.8645 320.546 29.4361 317.289 29.4123C315.635 29.4001 314.379 30.2652 313.523 32.0073C312.666 33.7361 312.223 36.2754 312.194 39.6252ZM331.262 25.1701L338.729 25.2248C341.772 25.247 343.982 25.8571 345.36 27.0551C346.737 28.2397 347.415 30.1198 347.392 32.6956C347.377 34.3905 346.997 35.8091 346.253 36.9515C345.508 38.0805 344.501 38.7605 343.231 38.9915L343.23 39.1917C344.881 39.6175 346.068 40.4003 346.792 41.54C347.516 42.6798 347.87 44.1906 347.853 46.0723C347.829 48.7282 347.097 50.8049 345.656 52.3025C344.228 53.7869 342.279 54.52 339.81 54.502L331.002 54.4375L331.262 25.1701ZM336.282 36.9787L338.785 36.997C339.932 37.0054 340.743 36.7043 341.215 36.0938C341.688 35.4833 341.929 34.5709 341.94 33.3564C341.951 32.1419 341.692 31.2725 341.163 30.7481C340.634 30.2104 339.795 29.9373 338.647 29.9289L336.345 29.912L336.282 36.9787ZM336.242 41.5229L336.169 49.7106L338.912 49.7306C340.046 49.7389 340.89 49.3981 341.443 48.7081C342.01 48.0182 342.3 46.946 342.313 45.4913C342.336 42.8755 341.2 41.5592 338.904 41.5424L336.242 41.5229ZM356.508 43.2328L356.407 54.6234L350.961 54.5836L351.222 25.3162L358.349 25.3683C361.365 25.3904 363.581 26.1207 364.996 27.5591C366.425 28.9977 367.126 31.185 367.1 34.1211C367.067 37.8178 365.796 40.3911 363.287 41.8409L368.798 54.7141L362.973 54.6715L358.45 43.247L356.508 43.2328ZM356.55 38.5484L357.951 38.5586C359.232 38.568 360.156 38.2144 360.723 37.4978C361.29 36.7679 361.58 35.6823 361.593 34.2409C361.606 32.7462 361.316 31.683 360.721 31.0514C360.139 30.4065 359.228 30.0795 357.986 30.0704L356.625 30.0604L356.55 38.5484ZM383.833 54.8241L370.641 54.7276L370.901 25.4602L384.094 25.5567L384.052 30.2611L376.305 30.2044L376.243 37.1709L383.43 37.2235L383.387 41.9479L376.201 41.8954L376.128 50.0029L383.876 50.0596L383.833 54.8241Z" fill="#523422"/>
</svg>
