<svg width="675" height="78" viewBox="0 0 675 78" fill="none" xmlns="http://www.w3.org/2000/svg">
<path fill-rule="evenodd" clip-rule="evenodd" d="M50.0065 1.95435L47.7847 13.5114L54.0476 1.95728C72.3583 1.96875 95.6213 1.96045 124.403 1.95019L124.404 1.95019H124.404H124.404C149.676 1.94118 179.203 1.93065 213.368 1.93065C320.091 -0.867216 515.925 0.0638683 614.261 0.531398L614.265 0.531418C622.853 0.572248 630.697 0.609542 637.673 0.640508L635.088 13.557L646.055 0.676215C662.328 0.74191 672.298 0.756182 673.738 0.669003L675 37.8986L673.738 77.0531C669.951 76.8239 607.927 76.5494 527.608 76.315L530.728 69.7098L518.133 76.2878C419.107 76.0076 295.481 75.7914 218.414 75.7914C166.594 75.7914 124.783 75.8892 92.1217 76.0384L85.1929 69.3242L86.0042 76.0675C32.5084 76.3316 5.2433 76.7358 0 77.0531L3.77549e-06 37.8986L7.27566e-06 1.59934C3.99906 1.84138 19.6984 1.92927 50.0065 1.95435Z" fill="#D2B37C"/>
<path d="M159.814 28.2601C158.252 28.2486 157.01 29.1538 156.086 30.9755C155.175 32.7974 154.706 35.3365 154.677 38.5928C154.616 45.3725 156.355 48.7753 159.891 48.8012C161.439 48.8125 163.065 48.3306 164.769 47.3554L164.726 52.1999C163.289 53.137 161.457 53.5974 159.228 53.5811C155.932 53.557 153.407 52.2306 151.656 49.6018C149.917 46.9598 149.069 43.2632 149.112 38.5121C149.154 33.761 150.095 30.0642 151.933 27.4216C153.785 24.7792 156.333 23.4698 159.576 23.4935C160.644 23.5014 161.663 23.6556 162.635 23.9564C163.62 24.2572 164.67 24.7787 165.784 25.521L163.943 29.9319C163.346 29.5138 162.709 29.1354 162.031 28.7968C161.354 28.4448 160.615 28.2659 159.814 28.2601ZM181.894 53.3466L180.278 45.9473L172.651 45.8915L170.903 53.2661L165.458 53.2263L172.967 23.8918L180.354 23.9459L187.359 53.3865L181.894 53.3466ZM179.3 41.1154L177.799 34.2976C177.709 33.8832 177.505 32.8473 177.186 31.19C176.881 29.5194 176.697 28.4036 176.635 27.8426C176.452 28.9891 176.22 30.2553 175.941 31.6413C175.662 33.014 174.94 36.1585 173.775 41.0749L179.3 41.1154ZM207.872 38.6217C207.829 43.4529 206.808 47.1425 204.81 49.6904C202.826 52.2251 199.985 53.4789 196.288 53.4519L189.122 53.3994L189.382 24.132L197.21 24.1893C200.613 24.2142 203.251 25.4948 205.123 28.031C206.996 30.5539 207.912 34.0841 207.872 38.6217ZM202.285 38.741C202.343 32.2015 200.571 28.9186 196.967 28.8923L194.785 28.8763L194.609 48.6748L196.371 48.6877C198.359 48.7023 199.835 47.8856 200.797 46.2376C201.76 44.5763 202.256 42.0774 202.285 38.741ZM224.396 53.6575L211.203 53.561L211.464 24.2936L224.656 24.3901L224.614 29.0945L216.867 29.0379L216.805 36.0044L223.992 36.057L223.95 40.7814L216.763 40.7288L216.691 48.8364L224.438 48.8931L224.396 53.6575ZM233.386 42.3319L233.285 53.7226L227.84 53.6827L228.1 24.4153L235.227 24.4675C238.243 24.4895 240.459 25.2198 241.874 26.6583C243.303 28.0968 244.004 30.2841 243.978 33.2202C243.945 36.917 242.674 39.4903 240.166 40.9401L245.677 53.8132L239.851 53.7706L235.328 42.3461L233.386 42.3319ZM233.428 37.6475L234.829 37.6578C236.111 37.6672 237.035 37.3136 237.602 36.597C238.169 35.8671 238.459 34.7814 238.472 33.3401C238.485 31.8453 238.194 30.7822 237.599 30.1505C237.018 29.5056 236.106 29.1786 234.865 29.1695L233.504 29.1596L233.428 37.6475ZM268.019 53.9767L261.373 53.9281L252.513 32.662L252.252 32.6601C252.572 34.2774 252.723 36.0136 252.707 37.8687L252.564 53.8636L247.519 53.8267L247.78 24.5593L254.466 24.6082L263.248 45.6535L263.468 45.6551C263.227 44.2519 263.115 42.5828 263.132 40.6476L263.275 24.6727L268.279 24.7093L268.019 53.9767ZM292.633 39.4821C292.59 44.3267 291.65 48.0435 289.811 50.6327C287.973 53.2218 285.366 54.504 281.989 54.4793C278.599 54.4545 276.008 53.1409 274.216 50.5386C272.425 47.9229 271.55 44.1727 271.594 39.2881C271.637 34.4436 272.578 30.7401 274.416 28.1776C276.254 25.6018 278.881 24.3264 282.298 24.3514C285.674 24.3761 288.252 25.6963 290.03 28.3119C291.809 30.9142 292.677 34.6376 292.633 39.4821ZM277.159 39.3689C277.129 42.7053 277.527 45.2508 278.352 47.0053C279.177 48.7597 280.404 49.6429 282.032 49.6548C285.315 49.6788 286.987 46.2743 287.048 39.4413C287.109 32.6082 285.511 29.1797 282.255 29.1559C280.6 29.1438 279.344 30.0088 278.488 31.751C277.632 33.4798 277.189 36.0191 277.159 39.3689ZM324.027 39.4716C323.984 44.3028 322.963 47.9923 320.965 50.5403C318.981 53.075 316.14 54.3288 312.443 54.3018L305.277 54.2493L305.537 24.9819L313.365 25.0392C316.768 25.0641 319.406 26.3447 321.278 28.8809C323.151 31.4038 324.067 34.934 324.027 39.4716ZM318.44 39.5909C318.498 33.0514 316.726 29.7685 313.122 29.7421L310.94 29.7262L310.764 49.5247L312.526 49.5376C314.514 49.5521 315.99 48.7354 316.952 47.0875C317.915 45.4262 318.411 42.9273 318.44 39.5909ZM340.551 54.5074L327.358 54.4109L327.619 25.1435L340.811 25.24L340.769 29.9444L333.022 29.8877L332.96 36.8542L340.147 36.9068L340.105 41.6313L332.918 41.5787L332.846 49.6863L340.593 49.7429L340.551 54.5074ZM363.754 54.6772L358.411 29.7131L358.191 29.7115C358.427 31.6352 358.538 33.3977 358.524 34.9992L358.349 54.6376L353.305 54.6007L353.565 25.3333L361.933 25.3945L366.733 48.4327L366.893 48.4339L372.063 25.4687L380.551 25.5308L380.29 54.7982L375.125 54.7604L375.302 34.9218C375.316 33.2803 375.425 31.5994 375.627 29.8791L375.467 29.878L369.7 54.7207L363.754 54.6772ZM398.488 54.9313L396.872 47.5321L389.245 47.4763L387.498 54.8509L382.053 54.8111L389.561 25.4766L396.948 25.5306L403.953 54.9713L398.488 54.9313ZM395.894 42.7001L394.393 35.8823C394.304 35.4679 394.099 34.432 393.78 32.7747C393.475 31.1042 393.291 29.9884 393.23 29.4273C393.046 30.5738 392.814 31.8401 392.535 33.2261C392.256 34.5987 391.534 37.7433 390.369 42.6597L395.894 42.7001ZM416.166 55.0607L410.822 30.0966L410.602 30.095C410.839 32.0187 410.95 33.7812 410.935 35.3827L410.761 55.0211L405.716 54.9842L405.976 25.7168L414.344 25.778L419.144 48.8162L419.304 48.8173L424.474 25.8521L432.962 25.9142L432.701 55.1816L427.537 55.1439L427.713 35.3053C427.728 33.6637 427.836 31.9829 428.038 30.2626L427.878 30.2614L422.111 55.1042L416.166 55.0607ZM450.9 55.3148L449.284 47.9156L441.656 47.8598L439.909 55.2344L434.464 55.1945L441.972 25.8601L449.359 25.9141L456.365 55.3548L450.9 55.3148ZM448.306 43.0836L446.805 36.2658C446.715 35.8514 446.511 34.8155 446.192 33.1582C445.886 31.4876 445.703 30.3718 445.641 29.8108C445.457 30.9573 445.226 32.2235 444.947 33.6096C444.667 34.9822 443.945 38.1268 442.78 43.0432L448.306 43.0836ZM458.127 55.3677L458.388 26.1003L463.833 26.1401L463.615 50.6431L471.162 50.6983L471.12 55.4627L458.127 55.3677ZM481.39 55.5379L475.965 55.4982L476.183 31.0153L470.578 30.9743L470.62 26.1898L487.256 26.3115L487.213 31.096L481.608 31.055L481.39 55.5379ZM501.77 55.687L500.154 48.2878L492.527 48.232L490.78 55.6066L485.335 55.5667L492.843 26.2323L500.23 26.2863L507.235 55.727L501.77 55.687ZM499.176 43.4558L497.675 36.638C497.586 36.2236 497.381 35.1877 497.062 33.5304C496.757 31.8598 496.573 30.744 496.512 30.183C496.328 31.3295 496.096 32.5957 495.817 33.9818C495.538 35.3544 494.816 38.499 493.651 43.4154L499.176 43.4558ZM514.544 44.3891L514.443 55.7797L508.998 55.7399L509.258 26.4725L516.385 26.5246C519.401 26.5467 521.617 27.277 523.032 28.7154C524.461 30.154 525.162 32.3413 525.136 35.2774C525.103 38.9742 523.832 41.5474 521.324 42.9972L526.835 55.8704L521.009 55.8278L516.486 44.4033L514.544 44.3891ZM514.586 39.7047L515.987 39.7149C517.269 39.7243 518.193 39.3707 518.76 38.6541C519.327 37.9242 519.617 36.8386 519.63 35.3972C519.643 33.9025 519.352 32.8393 518.757 32.2077C518.176 31.5628 517.264 31.2358 516.023 31.2267L514.662 31.2167L514.586 39.7047Z" fill="#523422"/>
</svg>
