<svg width="237" height="275" viewBox="0 0 237 275" fill="none" xmlns="http://www.w3.org/2000/svg">
<path fill-rule="evenodd" clip-rule="evenodd" d="M17.5578 234.045L16.7777 240.226L18.9767 234.047C25.4058 234.053 33.5737 234.048 43.6794 234.043H43.6796H43.6797H43.6799C52.5531 234.038 62.9201 234.033 74.9158 234.033C112.388 232.536 181.147 233.034 215.674 233.284L215.674 233.284C218.69 233.306 221.444 233.326 223.894 233.343L222.986 240.25L226.837 233.362C232.551 233.397 236.051 233.404 236.557 233.358L237 253.269L236.557 274.209C235.227 274.087 213.45 273.94 185.249 273.814L186.345 270.282L181.922 273.8C147.153 273.65 103.747 273.534 76.6877 273.534C58.493 273.534 43.8128 273.587 32.3451 273.666L29.9124 270.076L30.1972 273.682C11.4141 273.823 1.84099 274.039 0 274.209V253.269L2.55457e-06 233.855C1.40411 233.985 6.91632 234.032 17.5578 234.045Z" fill="#D2B37C"/>
<path d="M70.5141 249.882C70.4948 251.778 69.9998 253.231 69.0292 254.242C68.0668 255.245 66.6823 255.741 64.8757 255.73L64.0456 255.724L63.9797 262.194L60.6594 262.172L60.8413 244.327L65.37 244.356C68.8367 244.378 70.5514 246.22 70.5141 249.882ZM64.075 252.844L64.7097 252.848C65.5235 252.853 66.132 252.633 66.5354 252.188C66.9387 251.743 67.1455 251.012 67.1559 249.995C67.1654 249.059 66.9894 248.366 66.6277 247.916C66.2662 247.458 65.7029 247.226 64.9379 247.222L64.1323 247.216L64.075 252.844ZM72.1465 262.246L72.3284 244.4L75.6486 244.421L75.4963 259.362L80.0983 259.391L80.0687 262.296L72.1465 262.246ZM90.152 262.361L89.1725 257.85L84.5217 257.82L83.4505 262.318L80.1302 262.297L84.7317 244.406L89.236 244.435L93.4844 262.382L90.152 262.361ZM88.58 254.904L87.6701 250.748C87.6157 250.496 87.4919 249.864 87.2988 248.854C87.1138 247.835 87.0028 247.155 86.9656 246.813C86.8526 247.512 86.7105 248.284 86.5391 249.13C86.3678 249.967 85.9251 251.885 85.2109 254.883L88.58 254.904ZM100.634 247.23C99.6822 247.224 98.9237 247.776 98.359 248.888C97.8024 249.999 97.514 251.548 97.4937 253.533C97.4516 257.667 98.5088 259.741 100.665 259.755C101.609 259.761 102.601 259.466 103.641 258.87L103.611 261.824C102.734 262.397 101.616 262.678 100.257 262.67C98.2471 262.657 96.7091 261.849 95.643 260.248C94.5851 258.638 94.071 256.384 94.1005 253.487C94.13 250.59 94.7064 248.335 95.8297 246.723C96.9611 245.111 98.5155 244.311 100.493 244.324C101.144 244.328 101.766 244.421 102.358 244.604C102.958 244.787 103.598 245.104 104.277 245.556L103.151 248.247C102.787 247.992 102.399 247.762 101.986 247.556C101.573 247.342 101.123 247.233 100.634 247.23ZM114.078 262.514L113.099 258.003L108.448 257.973L107.377 262.471L104.056 262.45L108.658 244.559L113.162 244.588L117.411 262.535L114.078 262.514ZM112.506 255.057L111.596 250.901C111.542 250.648 111.418 250.017 111.225 249.007C111.04 247.988 110.929 247.308 110.892 246.966C110.779 247.665 110.637 248.437 110.465 249.283C110.294 250.12 109.851 252.037 109.137 255.036L112.506 255.057ZM117.843 257.264L117.872 254.408L124.012 254.447L123.983 257.304L117.843 257.264ZM126.494 262.593L126.675 244.747L129.8 244.767L129.618 262.613L126.494 262.593ZM126.556 243.318L126.559 242.989C126.897 242.56 127.29 241.948 127.737 241.153C128.185 240.358 128.505 239.75 128.696 239.328L132.578 239.353L132.575 239.609C132.376 239.958 131.886 240.52 131.105 241.297C130.324 242.065 129.569 242.744 128.838 243.333L126.556 243.318ZM144.335 253.613C144.305 256.559 143.68 258.809 142.46 260.364C141.248 261.91 139.515 262.676 137.26 262.662L132.89 262.634L133.072 244.788L137.845 244.819C139.92 244.832 141.528 245.611 142.668 247.157C143.808 248.694 144.364 250.846 144.335 253.613ZM140.929 253.689C140.969 249.701 139.891 247.701 137.694 247.686L136.363 247.678L136.24 259.75L137.314 259.757C138.527 259.765 139.427 259.266 140.015 258.261C140.603 257.247 140.908 255.723 140.929 253.689ZM158.726 253.851C158.696 256.805 158.12 259.072 156.997 260.652C155.874 262.232 154.283 263.015 152.224 263.002C150.157 262.988 148.578 262.189 147.487 260.603C146.397 259.009 145.867 256.723 145.897 253.745C145.927 250.791 146.504 248.532 147.626 246.969C148.749 245.397 150.352 244.618 152.436 244.631C154.494 244.644 156.065 245.448 157.148 247.042C158.23 248.627 158.756 250.897 158.726 253.851ZM149.29 253.791C149.27 255.825 149.51 257.377 150.012 258.446C150.514 259.516 151.261 260.054 152.254 260.06C154.256 260.073 155.278 257.996 155.32 253.829C155.363 249.663 154.391 247.573 152.406 247.561C151.397 247.554 150.63 248.082 150.107 249.145C149.583 250.2 149.311 251.748 149.29 253.791ZM160.747 262.812L160.929 244.966L164.249 244.987L164.097 259.928L168.699 259.958L168.669 262.863L160.747 262.812ZM182.677 254.004C182.647 256.958 182.07 259.225 180.947 260.805C179.824 262.385 178.233 263.168 176.175 263.155C174.108 263.142 172.529 262.342 171.438 260.756C170.348 259.162 169.817 256.876 169.848 253.898C169.878 250.944 170.454 248.685 171.577 247.122C172.7 245.55 174.303 244.771 176.386 244.784C178.445 244.797 180.016 245.601 181.098 247.195C182.181 248.781 182.707 251.05 182.677 254.004ZM173.241 253.944C173.22 255.978 173.461 257.53 173.963 258.6C174.464 259.669 175.212 260.207 176.205 260.213C178.206 260.226 179.229 258.149 179.271 253.983C179.314 249.816 178.342 247.727 176.356 247.714C175.347 247.707 174.581 248.236 174.057 249.298C173.534 250.353 173.262 251.901 173.241 253.944Z" fill="#523422"/>
<path fill-rule="evenodd" clip-rule="evenodd" d="M17.5578 5.73749L16.7777 39.6661L18.9767 5.74609C25.4058 5.77977 33.5737 5.75541 43.6793 5.72528H43.6795H43.6797H43.6799C52.5531 5.69882 62.9201 5.6679 74.9158 5.66791C112.388 -2.54593 181.147 0.187502 215.674 1.56006L215.674 1.56007C218.69 1.67995 221.444 1.78945 223.894 1.88036L222.986 39.8L226.837 1.98519C232.551 2.17806 236.051 2.21997 236.557 1.96403L237 111.261L236.557 226.209C235.192 225.518 212.273 224.687 182.978 223.987L183.136 210L179.949 223.916C145.525 223.116 103.237 222.505 76.6877 222.505C58.493 222.505 43.8128 222.792 32.3451 223.23L29.9124 203.519L30.1972 223.315C11.4141 224.091 1.84099 225.277 0 226.209L1.32562e-06 111.261L3.45707e-06 4.69526C1.40411 5.40585 6.91632 5.66386 17.5578 5.73749Z" fill="#E4CEA5"/>
<g clip-path="url(#clip0)">
<path d="M66.7639 38.4918C64.8399 41.2401 64.4645 44.7466 64.1361 48.111C61.6959 72.5617 59.3027 96.965 56.8626 121.416C56.1587 128.76 55.4079 136.153 55.1263 143.497C54.5632 157.192 55.4548 170.933 56.6749 184.628C56.7218 185.244 56.8157 185.86 57.1911 186.333C57.7073 186.949 58.5988 187.092 59.3966 187.186C69.2509 188.324 79.1053 189.508 89.0066 190.645C96.2331 191.498 103.46 192.351 110.686 192.73C129.175 193.726 147.851 191.783 166.058 194.91C167.044 195.1 168.264 195.147 168.827 194.294C169.109 193.82 169.062 193.252 169.062 192.73C166.528 157.997 163.947 123.169 157.189 89.0043C155.453 80.1907 153.435 71.3771 152.778 62.4213C152.356 56.972 152.45 51.4753 151.042 46.2155C149.634 40.9558 146.303 35.8856 141.282 33.9428C138.232 32.8055 134.9 32.9003 131.615 32.9951C119.79 33.3742 107.965 33.9428 96.1393 34.3693C90.1328 34.6062 84.0794 34.7483 78.0729 35.08C73.9904 35.317 69.4386 34.6062 66.7639 38.4918Z" fill="#F1E0BB" stroke="black" stroke-width="3"/>
<path d="M57.2741 135.207C64.4068 133.501 69.1507 123.927 71.0277 117.53C72.0601 114.024 74.2187 111.133 75.8611 107.911C77.8789 103.978 78.9582 103.457 83.3692 103.883C86.3255 104.168 89.0002 104.357 89.9387 107.721C91.1588 112.034 90.2203 117.72 90.2203 122.221C90.2203 127.576 90.1734 133.215 90.7365 138.427C91.2996 143.355 94.0682 147.383 94.3028 152.264C94.6313 159.419 91.4193 165.848 91.4193 172.908L56.6216 164.394L57.2741 135.207Z" fill="#D0BC99"/>
<path d="M86.9946 149.847C93.1888 147.43 97.5059 151.553 103.043 153.164C111.677 155.628 113.347 144.35 116.21 139.043C119.119 133.641 121.579 126.012 126.881 122.506C130.072 120.373 134.671 121.558 137.956 123.122C140.067 124.117 141.006 125.254 143.587 126.296C145.323 127.007 146.496 128.855 148.232 130.04C150.438 131.556 152.784 133.025 154.896 134.684C157.524 136.769 157.993 138.617 162.92 141.46L162.029 131.935C159.354 130.182 156.632 128.002 154.145 126.012C150.907 123.453 148.749 120.042 145.511 117.483C139.927 113.029 131.996 109.19 124.441 111.323C121.203 112.223 117.711 114.924 116.21 117.483C114.286 120.752 113.93 123.406 111.771 126.676C109.707 129.756 108.017 133.025 106.516 136.295C105.249 138.996 104.545 139.943 101.354 139.043C98.3975 138.19 96.1451 136.105 93.3296 135.205C89.7163 134.02 85.8215 134.02 82.0205 134.02" fill="#D0BC99"/>
<path d="M90.8894 172.781C93.9396 174.392 95.7137 174.546 98.4354 176.678C100.594 178.337 104.742 180.867 107.322 181.862C113.836 181.862 121.3 184.686 123.693 176.678C126.179 173.788 126.365 169.322 127.914 165.91C129.791 161.788 133.042 154.443 134.919 150.368C137.359 145.061 142.226 146.388 147.2 148.852C152.737 151.6 158.791 156.196 164.844 157.428L163.859 150.368C157.899 147.478 151.893 143.971 145.886 140.796C142.836 139.185 140.02 136.484 136.454 136.769C133.029 137.053 129.368 140.417 127.914 143.497C124.582 150.51 120.124 155.486 117.402 162.736C116.182 165.958 115.478 168.896 111.443 168.801C108.862 168.754 106.14 167.142 103.935 165.91C99.1483 163.162 95.3004 159.561 89.7632 158.566" fill="#D0BC99"/>
<path d="M83.4825 45.8838C78.8838 44.0358 71.5634 49.2008 74.8012 54.887C76.209 57.3984 80.0569 59.4834 82.9194 58.4883C85.4533 57.6354 86.1103 53.8446 86.2042 51.5227C86.3449 48.1109 84.9841 46.4051 83.4825 45.8838Z" fill="black"/>
<path d="M79.9095 48.0527C75.717 48.645 74.0019 54.4365 79.3378 54.963C84.9913 55.6212 85.8806 47.2629 79.9095 48.0527Z" fill="#E4CEA5"/>
<path d="M135.557 45.6469C132.506 44.2254 127.626 44.3675 126.125 47.7319C125.139 49.9116 125.28 53.2759 126.922 55.0766C128.846 57.2089 133.586 58.3935 136.307 57.4932C139.264 56.5455 139.029 52.2808 138.513 49.4377C138.325 48.3005 138.325 47.3528 136.917 46.4051L135.557 45.6469Z" fill="black"/>
<path d="M130.895 48.0631C127.375 49.0095 129.19 55.6975 132.819 54.9404C134.634 54.5618 135.459 53.2368 134.744 51.0285C133.809 48.2524 133.369 48.0631 131.06 48L130.895 48.0631Z" fill="#E4CEA5"/>
</g>
<defs>
<clipPath id="clip0">
<rect width="116" height="164" fill="white" transform="translate(54 32)"/>
</clipPath>
</defs>
</svg>
