<svg width="240" height="275" viewBox="0 0 240 275" fill="none" xmlns="http://www.w3.org/2000/svg">
<path fill-rule="evenodd" clip-rule="evenodd" d="M17.7801 234.045L16.9901 240.226L19.2169 234.047C25.7274 234.053 33.9987 234.048 44.2322 234.043H44.2324H44.2325H44.2327C53.2182 234.038 63.7166 234.033 75.8641 234.033C113.81 232.536 183.44 233.034 218.404 233.284L218.404 233.284C221.458 233.306 224.247 233.326 226.728 233.343L225.809 240.25L229.708 233.362C235.494 233.397 239.039 233.404 239.551 233.358L240 253.269L239.551 274.209C238.205 274.087 216.152 273.94 187.594 273.814L188.703 270.282L184.225 273.8C149.016 273.65 105.06 273.534 77.6585 273.534C59.2333 273.534 44.3671 273.587 32.7543 273.666L30.2908 270.076L30.5792 273.682C11.5585 273.823 1.86428 274.039 0 274.209L1.3424e-06 253.269L2.5869e-06 233.855C1.42189 233.985 7.00386 234.032 17.7801 234.045Z" fill="#D2B37C"/>
<path d="M108.881 246.053L111.958 246.072L107.925 262.466L104.039 262.441L100.368 245.999L103.445 246.018L105.487 256.06C105.673 256.915 105.851 258.14 106.022 259.736C106.193 258.382 106.404 257.159 106.655 256.068L108.881 246.053ZM120.234 262.543L119.333 258.394L115.055 258.367L114.069 262.505L111.014 262.485L115.249 246.026L119.393 246.052L123.3 262.563L120.234 262.543ZM118.789 255.684L117.952 251.86C117.902 251.628 117.788 251.047 117.611 250.117C117.441 249.18 117.338 248.554 117.304 248.24C117.2 248.883 117.069 249.593 116.912 250.371C116.754 251.141 116.346 252.906 115.689 255.664L118.789 255.684ZM131.815 258.091C131.799 259.625 131.397 260.798 130.61 261.609C129.831 262.421 128.711 262.822 127.251 262.812C125.821 262.803 124.607 262.515 123.61 261.947L123.641 258.926C124.861 259.735 125.983 260.143 127.009 260.149C127.593 260.153 128.033 259.995 128.328 259.675C128.631 259.355 128.785 258.918 128.791 258.364C128.796 257.817 128.625 257.318 128.278 256.867C127.931 256.408 127.356 255.899 126.553 255.34C125.854 254.849 125.324 254.381 124.962 253.937C124.607 253.486 124.331 252.982 124.135 252.427C123.946 251.872 123.855 251.227 123.863 250.493C123.877 249.086 124.278 247.973 125.065 247.154C125.86 246.336 126.916 245.931 128.234 245.939C129.492 245.947 130.697 246.306 131.85 247.017L130.814 249.459C130.457 249.247 130.081 249.058 129.686 248.891C129.298 248.723 128.88 248.638 128.431 248.636C127.936 248.632 127.553 248.795 127.28 249.122C127.015 249.443 126.879 249.884 126.873 250.445C126.868 250.999 127.02 251.483 127.33 251.897C127.648 252.311 128.201 252.782 128.989 253.311C130.052 254.037 130.789 254.775 131.201 255.526C131.62 256.278 131.824 257.132 131.815 258.091ZM144.712 254.466C144.684 257.184 144.153 259.269 143.12 260.723C142.087 262.176 140.623 262.897 138.729 262.885C136.827 262.873 135.375 262.137 134.371 260.679C133.368 259.212 132.881 257.109 132.909 254.369C132.937 251.651 133.468 249.573 134.501 248.135C135.534 246.689 137.009 245.972 138.926 245.984C140.82 245.996 142.265 246.735 143.26 248.201C144.256 249.66 144.74 251.748 144.712 254.466ZM136.031 254.411C136.012 256.283 136.233 257.71 136.694 258.694C137.156 259.678 137.843 260.173 138.757 260.178C140.598 260.19 141.539 258.279 141.579 254.446C141.618 250.613 140.725 248.691 138.898 248.679C137.969 248.673 137.264 249.159 136.783 250.137C136.301 251.107 136.05 252.532 136.031 254.411Z" fill="#523422"/>
<path fill-rule="evenodd" clip-rule="evenodd" d="M222.22 5.73749L223.01 39.6661L220.783 5.74609C214.273 5.77977 206.001 5.75541 195.768 5.72528H195.768H195.767C186.782 5.69882 176.283 5.6679 164.136 5.66791C126.19 -2.54593 56.5598 0.187502 21.5962 1.56006L21.5956 1.56008C18.5419 1.67995 15.7527 1.78945 13.2722 1.88036L14.1914 39.8L10.2917 1.98519C4.50571 2.17806 0.960739 2.21997 0.448593 1.96403L0 111.261L0.448593 226.209C1.83125 225.518 25.0398 224.687 54.7058 223.987L54.5457 210L57.773 223.916C92.6336 223.116 135.456 222.505 162.342 222.505C180.767 222.505 195.633 222.792 207.246 223.23L209.709 203.519L209.421 223.315C228.441 224.091 238.136 225.277 240 226.209L240 111.261L240 4.69526C238.578 5.40585 232.996 5.66386 222.22 5.73749Z" fill="#E4CEA5"/>
<path d="M85.2538 58.2848C80.3024 63.278 74.2017 67.0339 68.8083 71.541C53.2912 84.6205 44.0074 104.814 44.2285 125.052C44.2727 129.206 44.7148 133.359 45.82 137.336C46.9694 141.534 48.9145 145.466 50.8155 149.399C53.5122 154.923 56.2089 160.49 60.055 165.262C65.0948 171.537 71.8145 176.177 78.7994 180.154C85.4306 183.909 92.4155 187.179 99.7983 189.124C110.32 191.863 113.37 191.819 124.245 191.775C118.085 191.775 130.611 191.863 131.319 191.775C145.908 190.007 153.335 187.091 163.37 180.728C171.195 175.779 179.152 170.653 184.811 163.362C190.867 155.541 193.829 145.732 195.996 136.055C199.532 120.147 200.77 102.119 191.309 88.8183C189.497 86.2554 187.331 82.9576 185.165 80.7041C181.805 77.1691 180.36 75.535 177 72C175.011 69.9232 171.15 66.9013 168.852 65.178C165.138 62.4384 160.673 60.8035 157.269 57.7103C152.141 53.1149 152.141 38.1353 152.097 38.0028C150.284 34.4678 133.131 36.9865 123.361 37.119C114.918 37.2516 104.352 35.3515 96.3943 36.2353C92.0619 36.7213 93.6976 43.5262 92.3271 47.4589C90.9124 51.5683 88.3041 55.2359 85.2538 58.2848Z" fill="#F1E0BB" stroke="black" stroke-width="3"/>
<path d="M77.6226 63.8965C77.5342 64.3826 77.8879 65.3105 78.2415 65.7082C78.551 66.0617 78.9931 66.1501 79.391 66.371C79.7446 66.5919 80.0983 66.8571 80.452 67.078C80.8498 67.2989 81.3803 67.3431 81.5572 67.7408C81.6456 67.9618 81.5572 68.492 81.6014 68.7571C81.6456 68.8897 81.8666 68.9781 81.9108 69.1548C82.0435 69.6851 81.6898 70.3921 81.8666 70.9665C82.2203 72.0712 83.635 72.1596 84.5191 72.5131C85.4917 72.9107 86.6411 73.22 87.5253 73.7503C88.0558 74.0596 88.1 74.3689 88.5863 74.8108C89.0284 75.2527 89.5147 75.3852 89.8241 76.0039C90.0452 76.4457 90.2662 77.1085 90.3546 77.5946C90.443 78.2132 90.222 78.5667 90.5757 79.097C91.2388 80.0691 92.8303 80.2017 93.8471 80.4226C94.7755 80.6435 95.6154 80.6877 96.2343 81.5715C96.9417 82.5436 97.2511 83.8692 97.8258 84.9297C98.3563 85.9018 98.7984 86.1669 99.8594 86.6972C101.186 87.36 102.335 86.8739 103.75 87.1391C106.093 87.5809 108.303 88.5089 110.823 88.2438C111.53 88.1554 111.354 87.9344 111.928 87.5809C112.326 87.36 112.989 87.4926 113.431 87.4926C114.846 87.4926 116.128 87.6251 117.499 87.8461C118.56 88.0228 119.797 88.9066 120.682 89.4368C121.964 90.2764 123.069 90.4973 124.528 90.7624C126.075 91.0276 127.313 91.2043 128.772 90.6741C129.744 90.3206 130.805 90.2764 131.955 90.3206C132.574 90.3647 133.06 90.6299 133.723 90.6741C134.43 90.7182 135.138 90.6741 135.845 90.6741C137.083 90.6741 138.188 90.7182 139.382 90.4089C140.398 90.1438 141.946 90.2322 142.963 90.4089C144.775 90.7182 145.615 91.0717 146.543 92.7067C146.853 93.2811 146.632 93.5904 146.764 94.209C146.853 94.5625 147.251 95.0044 147.383 95.3579C147.914 96.4626 148.577 96.7277 149.594 97.3905C151.495 98.672 153.175 100.837 153.749 103.047C154.147 104.505 154.855 105.83 155.96 106.847C157.198 107.996 158.48 109.056 159.673 110.293C160.646 111.265 161.442 112.503 162.547 113.298C163.829 114.226 165.288 114.889 166.702 115.463C168.205 116.038 168.736 116.656 169.709 117.982C170.195 118.6 170.637 119.263 171.079 119.882C171.521 120.545 172.14 121.163 172.715 121.826C173.245 122.401 173.731 123.063 174.35 123.549C175.146 124.168 175.632 124.743 176.296 125.582C176.959 126.466 177.843 127.305 178.594 128.057C179.036 128.454 179.788 128.675 180.274 129.029C180.805 129.382 181.424 129.647 182.043 129.824C182.617 130.001 183.369 130.398 183.899 130.531C184.474 130.664 185.005 130.531 185.579 130.708C186.021 130.796 186.198 130.973 186.64 130.973C186.95 130.973 187.392 130.885 187.701 130.929C188.497 131.061 188.939 131.326 189.823 131.282C190.398 131.282 191.017 131.194 191.592 131.282C191.724 131.282 192.343 131.592 192.387 131.592C192.741 131.592 193.006 131.371 193.36 131.282C193.89 131.15 194.907 131.194 195.438 131.371C195.438 131.459 195.482 131.547 195.482 131.68" stroke="black"/>
<path d="M118.559 36.5446C119.222 37.119 119.266 38.2237 119.266 39.0191C119.266 40.0354 119.62 40.8308 119.62 41.8471C119.62 42.3331 119.664 45.4263 119.62 45.9123C119.576 46.4426 119.31 46.7961 119.222 47.3263C119.089 48.1659 119.001 48.9171 118.824 49.8008C118.647 50.552 118.161 51.259 117.852 51.9218C117.542 52.5404 117.277 53.2474 116.879 53.7777C116.437 54.3521 115.774 54.794 115.199 55.2359C114.536 55.7661 113.961 56.3847 113.254 56.8708C112.502 57.401 111.928 58.108 111.441 58.7708C110.778 59.6988 109.938 60.3616 109.01 61.1128C107.418 62.35 105.694 63.4105 104.147 64.7361C102.953 65.7525 102.379 67.0781 102.334 68.5363C102.334 69.0223 102.069 69.3316 101.981 69.7735C101.892 70.2154 101.981 70.7014 101.937 71.1875C101.937 71.6294 101.716 71.8061 101.671 72.1596C101.539 72.6899 101.627 73.2201 101.495 73.7504C101.495 73.8387 101.273 73.8829 101.229 74.0155C101.185 74.2806 101.273 74.5899 101.229 74.8992C101.141 75.2969 100.787 75.6946 100.61 76.0481C100.301 76.7109 100.036 77.7272 99.4609 78.2133C99.1957 78.4342 98.7978 78.611 98.4884 78.8319C98.0463 79.1412 97.6484 79.4947 97.2063 79.804C96.4548 80.3343 95.7032 80.7762 94.8633 81.218" stroke="black"/>
<path d="M117.012 54.7056C117.498 54.6172 117.807 54.8823 118.25 55.0591C119.399 55.501 120.593 55.8545 121.698 56.3405C122.626 56.7382 123.201 57.4894 123.378 58.4173C123.51 58.9918 123.422 59.2127 123.731 59.743C123.908 60.0965 124.262 60.5825 124.395 60.936C124.66 61.643 124.704 62.0849 125.234 62.7477C125.721 63.3663 126.295 63.764 126.914 64.2501C127.268 64.5594 127.666 65.0454 128.02 65.3106C128.594 65.7083 129.257 65.885 129.832 66.2827C130.539 66.7687 131.335 67.4757 132.175 67.6967C132.573 67.7851 132.883 67.7851 133.236 67.9176C133.546 68.0502 133.855 68.3153 134.165 68.4479C136.773 69.5084 139.646 70.3479 142.21 71.6294C143.492 72.248 143.625 73.3085 144.288 74.5015C144.598 75.1202 144.951 75.6504 145.261 76.2248C145.659 77.0202 145.747 77.904 146.012 78.8319C146.233 79.6715 146.41 80.511 146.72 81.3506C146.852 81.7483 146.985 82.1901 147.118 82.5878C147.294 83.1181 147.25 83.5158 147.383 84.0018C147.471 84.3553 147.648 84.6204 147.736 85.0181C147.869 85.5042 147.913 86.0344 148.09 86.4763C148.488 87.4484 148.842 88.4206 149.328 89.4369C150.124 91.1602 151.45 92.1323 152.688 93.5021C153.439 94.2975 153.705 94.9603 154.191 95.8882C155.075 97.479 155.959 105.123 156.003 106.935" stroke="black"/>
</svg>
