<svg width="237" height="275" viewBox="0 0 237 275" fill="none" xmlns="http://www.w3.org/2000/svg">
<path fill-rule="evenodd" clip-rule="evenodd" d="M17.5578 234.045L16.7777 240.226L18.9767 234.047C25.4058 234.053 33.5737 234.048 43.6793 234.043H43.6795H43.6796H43.6798C52.553 234.038 62.9201 234.033 74.9158 234.033C112.388 232.536 181.147 233.034 215.674 233.284L215.674 233.284C218.69 233.306 221.444 233.326 223.894 233.343L222.986 240.25L226.837 233.362C232.551 233.397 236.051 233.404 236.557 233.358L237 253.269L236.557 274.209C235.227 274.087 213.45 273.94 185.249 273.814L186.345 270.282L181.922 273.8C147.153 273.65 103.747 273.534 76.6877 273.534C58.493 273.534 43.8128 273.587 32.3451 273.666L29.9124 270.076L30.1972 273.682C11.4141 273.823 1.84099 274.039 0 274.209L1.32562e-06 253.269L3.45707e-06 233.855C1.40411 233.985 6.91632 234.032 17.5578 234.045Z" fill="#FFA14A"/>
<path d="M70.5141 249.882C70.4948 251.778 69.9998 253.231 69.0292 254.242C68.0668 255.245 66.6823 255.741 64.8757 255.73L64.0456 255.724L63.9797 262.194L60.6594 262.172L60.8413 244.327L65.37 244.356C68.8367 244.378 70.5514 246.22 70.5141 249.882ZM64.075 252.844L64.7097 252.848C65.5235 252.853 66.132 252.633 66.5354 252.188C66.9387 251.743 67.1455 251.012 67.1559 249.995C67.1654 249.059 66.9894 248.366 66.6277 247.916C66.2662 247.458 65.7029 247.226 64.9379 247.222L64.1323 247.216L64.075 252.844ZM72.1465 262.246L72.3284 244.4L75.6486 244.421L75.4963 259.362L80.0983 259.391L80.0687 262.296L72.1465 262.246ZM90.152 262.361L89.1725 257.85L84.5217 257.82L83.4505 262.318L80.1302 262.297L84.7317 244.406L89.236 244.435L93.4844 262.382L90.152 262.361ZM88.58 254.904L87.6701 250.748C87.6157 250.496 87.4919 249.864 87.2988 248.854C87.1138 247.835 87.0028 247.155 86.9656 246.813C86.8526 247.512 86.7105 248.284 86.5391 249.13C86.3678 249.967 85.9251 251.885 85.2109 254.883L88.58 254.904ZM100.634 247.23C99.6822 247.224 98.9237 247.776 98.359 248.888C97.8024 249.999 97.514 251.548 97.4937 253.533C97.4516 257.667 98.5088 259.741 100.665 259.755C101.609 259.761 102.601 259.466 103.641 258.87L103.611 261.824C102.734 262.397 101.616 262.678 100.257 262.67C98.2471 262.657 96.7091 261.849 95.643 260.248C94.5851 258.638 94.071 256.384 94.1005 253.487C94.13 250.59 94.7064 248.335 95.8297 246.723C96.9611 245.111 98.5155 244.311 100.493 244.324C101.144 244.328 101.766 244.421 102.358 244.604C102.958 244.787 103.598 245.104 104.277 245.556L103.151 248.247C102.787 247.992 102.399 247.762 101.986 247.556C101.573 247.342 101.123 247.233 100.634 247.23ZM114.078 262.514L113.099 258.003L108.448 257.973L107.377 262.471L104.056 262.45L108.658 244.559L113.162 244.588L117.411 262.535L114.078 262.514ZM112.506 255.057L111.596 250.901C111.542 250.648 111.418 250.017 111.225 249.007C111.04 247.988 110.929 247.308 110.892 246.966C110.779 247.665 110.637 248.437 110.465 249.283C110.294 250.12 109.851 252.037 109.137 255.036L112.506 255.057ZM117.843 257.264L117.872 254.408L124.012 254.447L123.983 257.304L117.843 257.264ZM126.494 262.593L126.675 244.747L129.8 244.767L129.618 262.613L126.494 262.593ZM126.556 243.318L126.559 242.989C126.897 242.56 127.29 241.948 127.737 241.153C128.185 240.358 128.505 239.75 128.696 239.328L132.578 239.353L132.575 239.609C132.376 239.958 131.886 240.52 131.105 241.297C130.324 242.065 129.569 242.744 128.838 243.333L126.556 243.318ZM144.335 253.613C144.305 256.559 143.68 258.809 142.46 260.364C141.248 261.91 139.515 262.676 137.26 262.662L132.89 262.634L133.072 244.788L137.845 244.819C139.92 244.832 141.528 245.611 142.668 247.157C143.808 248.694 144.364 250.846 144.335 253.613ZM140.929 253.689C140.969 249.701 139.891 247.701 137.694 247.686L136.363 247.678L136.24 259.75L137.314 259.757C138.527 259.765 139.427 259.266 140.015 258.261C140.603 257.247 140.908 255.723 140.929 253.689ZM158.726 253.851C158.696 256.805 158.12 259.072 156.997 260.652C155.874 262.232 154.283 263.015 152.224 263.002C150.157 262.988 148.578 262.189 147.487 260.603C146.397 259.009 145.867 256.723 145.897 253.745C145.927 250.791 146.504 248.532 147.626 246.969C148.749 245.397 150.352 244.618 152.436 244.631C154.494 244.644 156.065 245.448 157.148 247.042C158.23 248.627 158.756 250.897 158.726 253.851ZM149.29 253.791C149.27 255.825 149.51 257.377 150.012 258.446C150.514 259.516 151.261 260.054 152.254 260.06C154.256 260.073 155.278 257.996 155.32 253.829C155.363 249.663 154.391 247.573 152.406 247.561C151.397 247.554 150.63 248.082 150.107 249.145C149.583 250.2 149.311 251.748 149.29 253.791ZM160.747 262.812L160.929 244.966L164.249 244.987L164.097 259.928L168.699 259.958L168.669 262.863L160.747 262.812ZM182.677 254.004C182.647 256.958 182.07 259.225 180.947 260.805C179.824 262.385 178.233 263.168 176.175 263.155C174.108 263.142 172.529 262.342 171.438 260.756C170.348 259.162 169.817 256.876 169.848 253.898C169.878 250.944 170.454 248.685 171.577 247.122C172.7 245.55 174.303 244.771 176.386 244.784C178.445 244.797 180.016 245.601 181.098 247.195C182.181 248.781 182.707 251.05 182.677 254.004ZM173.241 253.944C173.22 255.978 173.461 257.53 173.963 258.6C174.464 259.669 175.212 260.207 176.205 260.213C178.206 260.226 179.229 258.149 179.271 253.983C179.314 249.816 178.342 247.727 176.356 247.714C175.347 247.707 174.581 248.236 174.057 249.298C173.534 250.353 173.262 251.901 173.241 253.944Z" fill="#523422"/>
<path fill-rule="evenodd" clip-rule="evenodd" d="M17.5578 5.73749L16.7777 39.6661L18.9767 5.74609C25.4058 5.77977 33.5737 5.75541 43.6793 5.72528H43.6795H43.6797H43.6799C52.5531 5.69882 62.9201 5.6679 74.9158 5.66791C112.388 -2.54593 181.147 0.187502 215.674 1.56006L215.674 1.56007C218.69 1.67995 221.444 1.78945 223.894 1.88036L222.986 39.8L226.837 1.98519C232.551 2.17806 236.051 2.21997 236.557 1.96403L237 111.261L236.557 226.209C235.192 225.518 212.273 224.687 182.978 223.987L183.136 210L179.949 223.916C145.525 223.116 103.237 222.505 76.6877 222.505C58.493 222.505 43.8128 222.792 32.3451 223.23L29.9124 203.519L30.1972 223.315C11.4141 224.091 1.84099 225.277 0 226.209L1.32562e-06 111.261L3.45707e-06 4.69526C1.40411 5.40585 6.91632 5.66386 17.5578 5.73749Z" fill="#FAC58C"/>
<g clip-path="url(#clip0)">
<path d="M65.6441 38.8876C63.5874 41.8035 63.1861 45.5238 62.835 49.0933C60.2266 75.035 57.6683 100.926 55.0599 126.868C54.3075 134.661 53.5049 142.503 53.2039 150.296C52.602 164.825 53.5551 179.405 54.8593 193.934C54.9094 194.588 55.0098 195.241 55.4111 195.744C55.9628 196.398 56.9159 196.548 57.7687 196.649C68.3026 197.856 78.8366 199.112 89.4208 200.319C97.1457 201.224 104.871 202.129 112.596 202.531C132.359 203.587 152.324 201.526 171.786 204.844C172.84 205.045 174.144 205.095 174.746 204.19C175.047 203.687 174.997 203.084 174.997 202.531C172.288 165.68 169.529 128.728 162.306 92.4802C160.45 83.1292 158.293 73.7781 157.591 64.2762C157.139 58.4947 157.24 52.6628 155.735 47.0824C154.23 41.5019 150.668 36.1225 145.301 34.0613C142.04 32.8547 138.479 32.9552 134.968 33.0558C122.327 33.458 109.686 34.0613 97.0454 34.5137C90.6246 34.7651 84.1538 34.9159 77.7331 35.2679C73.369 35.5192 68.5033 34.7651 65.6441 38.8876Z" fill="#F1E0BB" stroke="black" stroke-width="4"/>
<path d="M55.5 141.5C63.1246 139.69 68.1957 129.532 70.2022 122.745C71.3057 119.025 73.6132 115.958 75.3688 112.54C77.5258 108.367 78.6795 107.814 83.3947 108.266C86.5549 108.568 89.4141 108.769 90.4174 112.339C91.7216 116.914 90.7183 122.947 90.7183 127.723C90.7183 133.404 90.6682 139.386 91.2701 144.916C91.8721 150.145 94.8316 154.418 95.0824 159.597C95.4336 167.188 92 174.009 92 181.5L54.8025 172.467L55.5 141.5Z" fill="#CD353B"/>
<path d="M87.27 157.033C93.8914 154.469 98.5063 158.843 104.425 160.552C113.655 163.166 113.555 151.251 116.615 145.62C119.725 139.889 124.239 131.745 129.908 128.024C133.319 125.762 138.234 127.019 141.746 128.678C144.003 129.734 145.006 130.94 147.765 132.046C149.621 132.8 150.875 134.761 152.731 136.018C155.089 137.627 157.597 139.185 159.854 140.945C162.663 143.157 163.165 145.118 168.432 148.134L167.479 138.029C164.62 136.169 161.71 133.856 159.052 131.745C155.59 129.03 153.283 125.41 149.822 122.695C143.853 117.969 135.375 113.897 127.299 116.159C123.838 117.115 122.734 119.83 121.129 122.544C119.073 126.013 116.063 128.979 113.755 132.448C111.548 135.716 109.743 139.185 108.137 142.654C106.783 145.52 106.031 146.525 102.62 145.57C99.4594 144.665 97.0516 142.453 94.0419 141.498C90.1794 140.241 86.016 140.241 81.9529 140.241" fill="#CD353B"/>
<path d="M91.4336 181.365C94.6941 183.075 98.055 185.337 100.964 187.6C103.272 189.359 105.278 191.471 108.037 192.526C116.515 195.845 122.785 192.929 125.343 184.432C126.497 180.611 128.503 176.891 130.159 173.271C132.165 168.897 135.225 163.116 137.231 158.792C139.84 153.161 146.311 153.363 151.628 155.977C157.547 158.893 164.018 163.769 170.489 165.077L169.435 157.586C163.065 154.519 156.644 150.799 150.223 147.43C146.963 145.721 143.953 142.855 140.141 143.157C136.479 143.459 132.566 147.028 131.011 150.296C127.45 157.736 122.684 163.015 119.775 170.707C118.471 174.126 117.718 177.243 113.404 177.142C110.646 177.092 107.736 175.383 105.379 174.076C100.262 171.16 96.1488 167.339 90.2297 166.283" fill="#CD353B"/>
<path d="M79.288 46.7304C74.3722 44.7697 66.547 50.2496 70.0081 56.2826C71.513 58.9471 75.6262 61.1592 78.6861 60.1034C81.3948 59.1985 82.0971 55.1765 82.1974 52.7131C82.3479 49.0933 80.8932 47.2834 79.288 46.7304Z" fill="black"/>
<path d="M75.877 50.8026C72.5663 51.2551 71.212 55.6793 75.4256 56.0815C79.89 56.5842 80.5922 50.1994 75.877 50.8026Z" fill="#FAC58C"/>
<path d="M139.181 46.479C135.921 44.9708 130.704 45.1216 129.099 48.6911C128.045 51.0037 128.196 54.5732 129.951 56.4837C132.008 58.746 137.074 60.0029 139.984 59.0477C143.144 58.0422 142.893 53.5175 142.341 50.501C142.141 49.2944 142.141 48.2889 140.636 47.2834L139.181 46.479Z" fill="black"/>
<path d="M134.968 48.842C131.757 49.5961 133.413 54.9252 136.723 54.3219C138.379 54.0202 139.131 52.9645 138.479 51.2049C137.626 48.9928 137.225 48.842 135.118 48.7917L134.968 48.842Z" fill="#FAC58C"/>
</g>
<defs>
<clipPath id="clip0">
<rect width="124" height="174" fill="white" transform="translate(52 32)"/>
</clipPath>
</defs>
</svg>
