<svg width="386" height="73" viewBox="0 0 386 73" fill="none" xmlns="http://www.w3.org/2000/svg">
<path fill-rule="evenodd" clip-rule="evenodd" d="M346.41 10.9666L352.25 6.18574L344.934 0.288757C341.028 0.607968 313.125 0.959406 268.457 1.52201C235.195 1.94095 192.637 2.47698 143.768 3.20399C106.526 3.75801 79.1114 4.21403 58.8354 4.56502V10.5391L54.4124 4.64187C48.2805 4.7488 42.8544 4.845 38.047 4.93023L38.0468 4.93023C12.7124 5.37937 4.55926 5.52391 0.825928 5.33041L25.4344 38.6729L1.82864 72.7326C5.5542 72.4282 13.7068 72.3302 39.0375 72.0256L39.0418 72.0256L39.0533 72.0254C49.3431 71.9017 62.4664 71.7439 79.2773 71.5244L82.3104 66.1066L83.0294 71.4751C99.835 71.2537 120.157 70.9724 144.77 70.6062C186.77 69.9814 224.107 69.3751 254.887 68.8752H254.888C280.354 68.4617 301.331 68.121 316.749 67.9031L315.721 58.4787L324.441 67.7987C336.621 67.6418 344.054 67.5934 345.937 67.691L385.998 33.3864L354.213 7.76805L346.41 10.9666Z" fill="#FFA14A"/>
<path d="M81.7711 52.809L81.3463 24.2575L86.3458 24.1831L86.7705 52.7346L81.7711 52.809ZM112.003 52.3593L105.519 52.4557L96.3844 31.9057L96.1305 31.9095C96.4795 33.48 96.6674 35.1701 96.6943 36.9798L96.9264 52.5836L92.0051 52.6568L91.5803 24.1052L98.1031 24.0082L107.157 44.3445L107.371 44.3413C107.104 42.978 106.956 41.3524 106.928 39.4646L106.696 23.8804L111.578 23.8077L112.003 52.3593ZM117.198 52.282L116.774 23.7304L121.773 23.6561L122.198 52.2076L117.198 52.282ZM136.542 27.6751C135.019 27.6978 133.828 28.6075 132.969 30.4043C132.123 32.201 131.724 34.6877 131.771 37.8644C131.87 44.4782 133.644 47.7595 137.094 47.7082C138.605 47.6857 140.179 47.1805 141.818 46.1924L141.889 50.9185C140.509 51.8636 138.733 52.3523 136.558 52.3846C133.343 52.4325 130.85 51.1934 129.08 48.6673C127.324 46.1281 126.411 42.541 126.342 37.9061C126.273 33.2712 127.104 29.6451 128.837 27.0279C130.582 24.4105 133.036 23.0783 136.2 23.0313C137.241 23.0158 138.239 23.1442 139.194 23.4164C140.162 23.6885 141.198 24.1745 142.302 24.8743L140.609 29.2164C140.017 28.8215 139.386 28.4662 138.718 28.1506C138.049 27.822 137.323 27.6635 136.542 27.6751ZM146.103 51.852L145.678 23.3004L150.678 23.2261L151.102 51.7776L146.103 51.852ZM169.851 51.4987L168.104 44.3169L160.663 44.4275L159.13 51.6582L153.818 51.7372L160.461 22.9633L167.667 22.8561L175.183 51.4194L169.851 51.4987ZM167.038 39.6252L165.415 33.0079C165.318 32.6057 165.095 31.5998 164.746 29.9902C164.409 28.3674 164.204 27.2831 164.131 26.7373C163.978 27.8595 163.782 29.0995 163.541 30.4574C163.301 31.8023 162.67 34.8849 161.647 39.7053L167.038 39.6252ZM182.049 40.2027L182.214 51.3148L176.902 51.3938L176.477 22.8423L183.43 22.7388C186.372 22.6951 188.55 23.3593 189.964 24.7317C191.391 26.1039 192.125 28.2221 192.168 31.0863C192.222 34.6927 191.042 37.2301 188.628 38.6984L194.302 51.1349L188.619 51.2195L183.943 40.1745L182.049 40.2027ZM181.981 35.6329L183.348 35.6126C184.597 35.594 185.491 35.2291 186.027 34.5179C186.563 33.7937 186.821 32.7286 186.8 31.3225C186.778 29.8643 186.47 28.8336 185.875 28.2304C185.293 27.614 184.396 27.3148 183.185 27.3328L181.857 27.3526L181.981 35.6329ZM224.615 36.366C224.685 41.092 223.854 44.7376 222.121 47.3027C220.388 49.8679 217.875 51.1749 214.581 51.2239C211.274 51.2731 208.716 50.048 206.908 47.5486C205.1 45.0361 204.16 41.3974 204.089 36.6323C204.019 31.9062 204.85 28.2737 206.584 25.7346C208.317 23.1825 210.85 21.8816 214.183 21.8321C217.477 21.7831 220.021 23.0149 221.817 25.5275C223.612 28.0271 224.545 31.64 224.615 36.366ZM209.519 36.5906C209.567 39.8454 210.014 42.3195 210.86 44.0128C211.706 45.7062 212.923 46.541 214.511 46.5174C217.714 46.4698 219.265 43.113 219.166 36.447C219.067 29.7811 217.429 26.4718 214.252 26.519C212.638 26.5431 211.433 27.4139 210.639 29.1317C209.844 30.8364 209.47 33.3227 209.519 36.5906ZM235.166 58.7701C233.786 58.7907 232.69 58.6442 231.878 58.3307L231.809 53.7023C232.659 53.9501 233.462 54.0684 234.217 54.0572C235.297 54.0411 236.08 53.6843 236.564 52.987C237.062 52.2894 237.3 51.2571 237.28 49.89L236.864 21.9439L242.176 21.8649L242.588 49.5376C242.616 51.4124 242.321 53.0446 241.704 54.4341C241.099 55.8235 240.223 56.8848 239.075 57.6181C237.94 58.3642 236.637 58.7482 235.166 58.7701ZM266.273 35.7463C266.343 40.4723 265.512 44.1179 263.779 46.683C262.046 49.2481 259.533 50.5552 256.239 50.6042C252.932 50.6534 250.374 49.4283 248.566 46.9289C246.758 44.4164 245.818 40.7776 245.747 36.0125C245.677 31.2865 246.508 27.6539 248.242 25.1149C249.975 22.5628 252.508 21.2619 255.841 21.2123C259.135 21.1633 261.679 22.3951 263.475 24.9078C265.27 27.4074 266.203 31.0202 266.273 35.7463ZM251.177 35.9708C251.225 39.2257 251.672 41.6998 252.518 43.3931C253.363 45.0865 254.58 45.9213 256.169 45.8977C259.372 45.85 260.923 42.4932 260.824 35.8273C260.725 29.1614 259.087 25.8521 255.91 25.8993C254.296 25.9233 253.091 26.7942 252.296 28.512C251.501 30.2167 251.128 32.703 251.177 35.9708ZM278.261 34.0443L286.991 33.9144L287.209 48.5613C284.751 49.6526 282.129 50.219 279.343 50.2605C276.023 50.3099 273.445 49.0851 271.611 46.586C269.79 44.0868 268.844 40.4611 268.773 35.7091C268.705 31.1262 269.674 27.5242 271.679 24.9029C273.698 22.2815 276.549 20.9433 280.234 20.8885C282.512 20.8546 284.695 21.4081 286.783 22.5491L285.168 26.9095C283.539 25.9962 282.022 25.5499 280.616 25.5708C278.598 25.6009 277.01 26.5295 275.852 28.3569C274.707 30.171 274.158 32.6338 274.204 35.7455C274.252 38.9482 274.711 41.3961 275.583 43.0891C276.468 44.7818 277.724 45.6161 279.351 45.5919C280.21 45.5791 281.081 45.4554 281.963 45.2209L281.866 38.6787L278.331 38.7313L278.261 34.0443ZM310.215 35.0926C310.285 39.8186 309.454 43.4642 307.721 46.0293C305.988 48.5944 303.475 49.9015 300.181 49.9505C296.874 49.9997 294.316 48.7746 292.508 46.2751C290.7 43.7627 289.76 40.1239 289.689 35.3588C289.619 30.6328 290.45 27.0002 292.184 24.4612C293.917 21.9091 296.45 20.6082 299.783 20.5586C303.077 20.5096 305.621 21.7414 307.417 24.2541C309.212 26.7537 310.145 30.3665 310.215 35.0926ZM295.119 35.3171C295.167 38.572 295.614 41.0461 296.46 42.7394C297.305 44.4327 298.522 45.2676 300.111 45.244C303.314 45.1963 304.865 41.8395 304.766 35.1736C304.667 28.5077 303.029 25.1983 299.852 25.2456C298.238 25.2696 297.033 26.1405 296.239 27.8582C295.443 29.563 295.07 32.0493 295.119 35.3171Z" fill="#010101"/>
</svg>
