<svg width="228" height="72" viewBox="0 0 228 72" fill="none" xmlns="http://www.w3.org/2000/svg">
<path fill-rule="evenodd" clip-rule="evenodd" d="M182.803 3.70165L178.79 13.631L190.492 3.90968C195.14 4.03976 199.433 4.16706 203.326 4.28248C215.709 4.64964 224.038 4.8966 226.821 4.73062L203.288 37.1406L226.359 69.8812C219.768 69.3943 182.004 68.3479 132.961 68C113.879 67.8646 96.5794 67.6752 82.175 67.5175L82.1746 67.5175L82.1737 67.5175C59.5581 67.2699 44.0803 67.1005 40.0502 67.3408L26.0522 55.5419L30.6618 45.3527L20.5536 50.907L1.07366 34.4873L40.5124 2.19017C44.5382 2.48763 60.0133 2.5378 82.6255 2.6111C97.0326 2.6578 114.337 2.71389 133.423 2.84933C151.821 2.97988 168.631 3.3326 182.803 3.70165Z" fill="#FFA14A"/>
<path d="M89.2434 43.0664C89.255 45.7357 88.5867 47.7828 87.2387 49.2079C85.9037 50.633 83.9666 51.351 81.4276 51.362C78.9407 51.3727 76.8227 50.8935 75.0737 49.9245L75.051 44.6707C77.1924 46.0547 79.155 46.7428 80.9389 46.7351C81.9545 46.7307 82.715 46.4475 83.2204 45.8854C83.7388 45.3233 83.9959 44.5604 83.9918 43.5969C83.9877 42.6464 83.6779 41.7818 83.0626 41.0032C82.4472 40.2116 81.4343 39.3371 80.0239 38.3796C78.7963 37.5386 77.8618 36.7353 77.2205 35.9698C76.5921 35.1913 76.1001 34.321 75.7444 33.359C75.4017 32.3969 75.2276 31.2779 75.2221 30.0018C75.2115 27.5539 75.8802 25.6109 77.2282 24.1728C78.5892 22.7346 80.4155 22.0106 82.7071 22.0007C84.8946 21.9912 87.0001 22.5941 89.0236 23.8094L87.2842 28.0747C86.6576 27.7129 85.9986 27.3902 85.3073 27.1067C84.629 26.8232 83.8992 26.6831 83.118 26.6865C82.2586 26.6902 81.5958 26.9795 81.1295 27.5544C80.6762 28.1163 80.4517 28.8855 80.4559 29.862C80.46 30.8256 80.7371 31.6642 81.2871 32.378C81.85 33.0917 82.8236 33.9013 84.2077 34.8068C86.0751 36.0488 87.3762 37.3192 88.1109 38.6181C88.8587 39.917 89.2362 41.3998 89.2434 43.0664ZM111.579 36.5246C111.6 41.2511 110.73 44.8877 108.97 47.4344C107.21 49.9811 104.683 51.2616 101.389 51.2758C98.0819 51.2901 95.5374 50.038 93.7557 47.5196C91.9739 44.9882 91.0727 41.3398 91.0521 36.5742C91.0317 31.8477 91.9015 28.2241 93.6615 25.7034C95.4214 23.1698 97.968 21.8957 101.301 21.8814C104.596 21.8671 107.127 23.1258 108.896 25.6572C110.665 28.1756 111.559 31.7981 111.579 36.5246ZM96.482 36.5898C96.496 39.845 96.9169 42.3237 97.7445 44.0258C98.5722 45.728 99.7803 46.5757 101.369 46.5688C104.572 46.555 106.159 43.2148 106.13 36.5481C106.102 29.8815 104.499 26.5551 101.322 26.5688C99.707 26.5758 98.4932 27.4339 97.6803 29.1432C96.8673 30.8394 96.4678 33.3216 96.482 36.5898ZM114.898 22.2719L122.183 22.2404C125.151 22.2276 127.315 22.7977 128.675 23.9507C130.034 25.0907 130.719 26.9172 130.729 29.4302C130.737 31.0838 130.385 32.4721 129.673 33.5949C128.962 34.7048 127.988 35.3796 126.752 35.6193L126.753 35.8146C128.369 36.2113 129.538 36.9614 130.259 38.0651C130.98 39.1688 131.344 40.6386 131.352 42.4745C131.363 45.0656 130.676 47.0998 129.289 48.5772C127.915 50.0415 126.023 50.7788 123.615 50.7892L115.021 50.8263L114.898 22.2719ZM119.947 33.7346L122.389 33.724C123.508 33.7192 124.295 33.4163 124.748 32.8154C125.201 32.2145 125.425 31.3216 125.42 30.1367C125.415 28.9518 125.151 28.1066 124.628 27.601C124.105 27.0824 123.283 26.8256 122.163 26.8304L119.917 26.8401L119.947 33.7346ZM119.966 38.1681L120.001 46.1563L122.677 46.1448C123.783 46.14 124.602 45.7979 125.133 45.1185C125.677 44.4391 125.946 43.3898 125.94 41.9705C125.929 39.4184 124.804 38.1472 122.564 38.1569L119.966 38.1681ZM139.759 39.6061L139.807 50.7193L134.494 50.7422L134.371 22.1878L141.324 22.1578C144.267 22.1451 146.438 22.8324 147.837 24.2196C149.249 25.6067 149.961 27.7326 149.974 30.5971C149.989 34.2038 148.783 36.7286 146.354 38.1714L151.896 50.6671L146.213 50.6917L141.653 39.598L139.759 39.6061ZM139.739 35.0359L141.106 35.03C142.356 35.0246 143.253 34.6691 143.797 33.9636C144.341 33.2451 144.609 32.1828 144.603 30.7765C144.597 29.3182 144.3 28.2843 143.711 27.6749C143.135 27.0524 142.242 26.7437 141.031 26.749L139.703 26.7547L139.739 35.0359ZM166.565 50.6038L153.694 50.6594L153.571 22.1049L166.442 22.0494L166.462 26.6392L158.903 26.6718L158.932 33.4686L165.944 33.4383L165.964 38.0477L158.952 38.0779L158.986 45.988L166.545 45.9554L166.565 50.6038Z" fill="#010101"/>
</svg>
