<svg width="638" height="77" viewBox="0 0 638 77" fill="none" xmlns="http://www.w3.org/2000/svg">
<path fill-rule="evenodd" clip-rule="evenodd" d="M128.206 0.900045L121.399 15.245L134.453 0.949355C177.694 1.28875 231.23 1.67056 283.613 2.04415L283.614 2.04416L283.615 2.04416L283.615 2.04417C339.11 2.43995 393.311 2.8265 432.604 3.1436C502.32 3.70623 557.263 4.60824 592.641 5.18905L597.486 5.26854L593.946 14.5632L604.553 5.38361C623.277 5.68585 634.459 5.83806 637.002 5.68889L611.289 41.0296L636.429 76.7807C630.164 76.3117 571.351 75.4679 476.468 74.614L480.962 64.1217L464.575 73.5611L465.123 74.5133C454.504 74.4205 443.466 74.3277 432.03 74.2354C392.739 73.9183 338.542 73.4301 283.051 72.9302L283.042 72.9301L283.01 72.9298L282.972 72.9295L282.941 72.9292C224.032 72.3985 163.674 71.8548 118.148 71.4888L110.925 63.7685L111.762 71.4379C71.8607 71.1223 44.7469 70.9598 42.4961 71.0918L0 35.2006L43.0699 0C45.6051 0.18981 79.7555 0.515356 128.206 0.900045Z" fill="#FFA14A"/>
<path d="M74.3742 26.9146C72.8508 26.9023 71.6392 27.7845 70.7394 29.5611C69.8527 31.3379 69.3965 33.8147 69.3708 36.9917C69.3175 43.6061 71.016 46.9272 74.4664 46.955C75.9768 46.9672 77.5626 46.4982 79.224 45.5481L79.1858 50.2745C77.7852 51.1877 75.9977 51.6355 73.8233 51.618C70.6072 51.592 68.1436 50.2961 66.4325 47.7301C64.7345 45.1512 63.9042 41.5441 63.9416 36.9088C63.9791 32.2736 64.8936 28.6676 66.6853 26.0908C68.49 23.5141 70.9743 22.2386 74.1383 22.2641C75.1799 22.2725 76.1748 22.4238 77.123 22.7179C78.0842 23.0121 79.1088 23.5217 80.1967 24.2466L78.4041 28.5487C77.8215 28.1404 77.1994 27.7707 76.538 27.4399C75.8767 27.096 75.1554 26.9209 74.3742 26.9146ZM95.9359 51.4058L94.3534 44.1858L86.9123 44.1257L85.2136 51.3193L79.9012 51.2764L87.2027 22.6625L94.4095 22.7207L101.268 51.4488L95.9359 51.4058ZM93.3954 39.4708L91.9256 32.8181C91.8377 32.4138 91.6375 31.403 91.325 29.7858C91.0257 28.1558 90.8456 27.067 90.785 26.5197C90.6067 27.638 90.3818 28.8733 90.1105 30.2253C89.8393 31.5643 89.1374 34.6316 88.0049 39.4273L93.3954 39.4708ZM121.268 37.059C121.23 41.7724 120.237 45.3712 118.29 47.8556C116.356 50.3271 113.586 51.5482 109.979 51.5191L102.987 51.4627L103.218 22.9089L110.854 22.9706C114.174 22.9974 116.749 24.2486 118.578 26.7244C120.407 29.1872 121.304 32.632 121.268 37.059ZM115.818 37.1712C115.869 30.7912 114.137 27.5871 110.622 27.5587L108.493 27.5415L108.337 46.8573L110.056 46.8711C111.996 46.8868 113.435 46.0911 114.372 44.484C115.31 42.8639 115.792 40.4263 115.818 37.1712ZM137.401 51.7404L124.53 51.6365L124.761 23.0828L137.631 23.1867L137.594 27.7764L130.036 27.7154L129.981 34.512L136.993 34.5686L136.955 39.1778L129.944 39.1212L129.88 47.0311L137.438 47.0921L137.401 51.7404ZM146.163 40.6975L146.073 51.8104L140.761 51.7675L140.991 23.2138L147.944 23.2699C150.887 23.2936 153.049 24.0077 154.431 25.4121C155.826 26.8167 156.512 28.9512 156.489 31.8157C156.46 35.4223 155.222 37.932 152.776 39.3446L158.163 51.908L152.479 51.8621L148.057 40.7128L146.163 40.6975ZM146.2 36.1273L147.567 36.1384C148.817 36.1484 149.718 35.8041 150.271 35.1055C150.823 34.3937 151.105 33.3348 151.117 31.9286C151.128 30.4703 150.844 29.4328 150.263 28.8161C149.695 28.1865 148.806 27.8668 147.595 27.8571L146.267 27.8463L146.2 36.1273ZM179.96 52.0839L173.476 52.0315L164.815 31.2774L164.561 31.2753C164.873 32.8534 165.023 34.5474 165.008 36.3572L164.882 51.9622L159.96 51.9225L160.191 23.3687L166.714 23.4214L175.299 43.9601L175.513 43.9618C175.277 42.5927 175.166 40.9641 175.182 39.0761L175.307 23.4907L180.19 23.5301L179.96 52.0839ZM203.962 37.9607C203.924 42.6871 203.009 46.3127 201.218 48.8373C199.427 51.362 196.884 52.6111 193.59 52.5845C190.282 52.5578 187.754 51.2743 186.003 48.7341C184.253 46.1808 183.397 42.5215 183.436 37.756C183.474 33.0296 184.388 29.4171 186.179 26.9184C187.971 24.4067 190.533 23.1643 193.866 23.1912C197.16 23.2178 199.676 24.5077 201.413 27.0609C203.15 29.601 204 33.2343 203.962 37.9607ZM188.865 37.8389C188.839 41.094 189.229 43.5777 190.035 45.29C190.842 47.0023 192.039 47.8648 193.628 47.8776C196.831 47.9035 198.459 44.5832 198.513 37.9167C198.567 31.2503 197.005 27.9042 193.828 27.8786C192.214 27.8656 190.989 28.7086 190.155 30.4076C189.321 32.0937 188.891 34.5707 188.865 37.8389ZM220.297 44.5381C220.275 47.2072 219.582 49.246 218.216 50.6543C216.864 52.0627 214.918 52.7566 212.379 52.7361C209.892 52.7161 207.78 52.2107 206.043 51.2201L206.086 45.9664C208.21 47.3768 210.164 48.0892 211.948 48.1036C212.963 48.1118 213.727 47.838 214.239 47.2822C214.765 46.7266 215.031 45.967 215.039 45.0034C215.047 44.053 214.748 43.1846 214.142 42.3985C213.537 41.5993 212.535 40.7123 211.136 39.7374C209.919 38.8812 208.995 38.0664 208.363 37.2931C207.744 36.5068 207.263 35.6305 206.919 34.6641C206.588 33.6979 206.428 32.5768 206.438 31.3008C206.458 28.8529 207.151 26.9184 208.517 25.4971C209.895 24.0758 211.73 23.3745 214.022 23.393C216.209 23.4106 218.307 24.0396 220.316 25.2798L218.523 29.5233C217.901 29.1536 217.247 28.8228 216.559 28.5308C215.884 28.2389 215.156 28.0898 214.375 28.0835C213.515 28.0765 212.849 28.3576 212.376 28.9267C211.916 29.4829 211.681 30.2493 211.674 31.2258C211.666 32.1894 211.932 33.0314 212.474 33.7519C213.028 34.4726 213.991 35.2942 215.364 36.2167C217.216 37.4817 218.501 38.7682 219.22 40.0761C219.951 41.3841 220.31 42.8714 220.297 44.5381ZM252.031 52.6655L245.547 52.6132L236.886 31.859L236.632 31.857C236.945 33.4351 237.094 35.129 237.079 36.9389L236.953 52.5438L232.031 52.5041L232.262 23.9503L238.785 24.003L247.37 44.5417L247.584 44.5434C247.348 43.1743 247.238 41.5457 247.253 39.6578L247.379 24.0723L252.261 24.1117L252.031 52.6655ZM276.033 38.5423C275.995 43.2687 275.08 46.8943 273.289 49.419C271.498 51.9437 268.955 53.1927 265.661 53.1661C262.354 53.1394 259.825 51.856 258.074 49.3157C256.324 46.7625 255.468 43.1031 255.507 38.3376C255.545 33.6112 256.459 29.9987 258.25 27.5C260.042 24.9884 262.604 23.746 265.937 23.7729C269.231 23.7995 271.747 25.0893 273.484 27.6425C275.222 30.1826 276.071 33.8159 276.033 38.5423ZM260.936 38.4205C260.91 41.6756 261.3 44.1593 262.106 45.8716C262.913 47.5839 264.11 48.4464 265.699 48.4593C268.902 48.4851 270.53 45.1648 270.584 38.4984C270.638 31.8319 269.076 28.4859 265.899 28.4602C264.285 28.4472 263.06 29.2902 262.226 30.9893C261.392 32.6753 260.962 35.1524 260.936 38.4205ZM287.519 52.9519L282.227 52.9092L282.419 29.0232L276.951 28.9791L276.989 24.3113L293.218 24.4423L293.181 29.1101L287.712 29.066L287.519 52.9519ZM307.402 53.1124L305.82 45.8923L298.379 45.8323L296.68 53.0258L291.368 52.983L298.669 24.3691L305.876 24.4272L312.734 53.1554L307.402 53.1124ZM304.862 41.1774L303.392 34.5247C303.304 34.1203 303.104 33.1096 302.792 31.4924C302.492 29.8623 302.312 28.7736 302.252 28.2262C302.073 29.3446 301.848 30.5798 301.577 31.9318C301.306 33.2708 300.604 36.3382 299.471 41.1339L304.862 41.1774ZM327.525 45.4034C327.503 48.0726 326.81 50.1113 325.444 51.5196C324.091 52.928 322.146 53.622 319.607 53.6015C317.12 53.5814 315.008 53.0761 313.271 52.0855L313.313 46.8317C315.438 48.2421 317.392 48.9546 319.175 48.9689C320.191 48.9771 320.955 48.7034 321.467 48.1476C321.992 47.5919 322.259 46.8323 322.267 45.8688C322.274 44.9183 321.976 44.05 321.37 43.2638C320.764 42.4646 319.762 41.5776 318.364 40.6028C317.147 39.7465 316.222 38.9318 315.591 38.1584C314.972 37.3721 314.491 36.4958 314.147 35.5295C313.816 34.5632 313.656 33.4421 313.666 32.1661C313.686 29.7183 314.379 27.7837 315.744 26.3624C317.123 24.9412 318.958 24.2398 321.25 24.2583C323.437 24.276 325.535 24.9049 327.543 26.1451L325.751 30.3886C325.129 30.019 324.474 29.6882 323.787 29.3961C323.112 29.1042 322.384 28.9551 321.603 28.9488C320.743 28.9419 320.077 29.223 319.604 29.7921C319.143 30.3483 318.909 31.1147 318.901 32.0912C318.894 33.0547 319.16 33.8967 319.701 34.6173C320.255 35.3379 321.219 36.1595 322.592 37.0821C324.443 38.3471 325.729 39.6335 326.447 40.9414C327.179 42.2495 327.538 43.7368 327.525 45.4034ZM352.774 53.4785L351.192 46.2585L343.751 46.1984L342.052 53.392L336.74 53.3491L344.041 24.7352L351.248 24.7934L358.106 53.5215L352.774 53.4785ZM350.234 41.5436L348.764 34.8909C348.676 34.4865 348.476 33.4757 348.164 31.8586C347.864 30.2285 347.684 29.1398 347.623 28.5924C347.445 29.7108 347.22 30.946 346.949 32.298C346.678 33.637 345.976 36.7044 344.843 41.5001L350.234 41.5436ZM365.228 42.4654L365.138 53.5783L359.826 53.5354L360.056 24.9817L367.009 25.0378C369.952 25.0615 372.114 25.7756 373.496 27.18C374.891 28.5846 375.577 30.7191 375.554 33.5836C375.525 37.1902 374.287 39.6998 371.84 41.1124L377.227 53.6759L371.544 53.63L367.122 42.4807L365.228 42.4654ZM365.265 37.8952L366.632 37.9062C367.882 37.9163 368.783 37.572 369.335 36.8733C369.888 36.1616 370.17 35.1027 370.181 33.6965C370.193 32.2382 369.909 31.2007 369.328 30.584C368.76 29.9544 367.87 29.6347 366.66 29.6249L365.331 29.6142L365.265 37.8952ZM398.788 39.533C398.762 42.8011 398.304 45.5579 397.413 47.8034C396.536 50.049 395.246 51.7183 393.544 52.8114L398.735 60.6465L392.603 60.597L388.709 54.1592L388.416 54.1568C385.109 54.1301 382.58 52.8466 380.83 50.3064C379.08 47.7531 378.224 44.0937 378.262 39.3283C378.3 34.6019 379.215 30.9893 381.006 28.4907C382.797 25.979 385.359 24.7366 388.692 24.7635C391.987 24.7901 394.502 26.08 396.24 28.6332C397.977 31.1733 398.827 34.8066 398.788 39.533ZM383.691 39.4111C383.665 42.6662 384.055 45.1499 384.862 46.8622C385.668 48.5745 386.866 49.4371 388.454 49.4499C391.657 49.4758 393.286 46.1555 393.339 39.489C393.393 32.8226 391.832 29.4765 388.655 29.4509C387.04 29.4378 385.816 30.2809 384.982 31.9799C384.148 33.6659 383.718 36.143 383.691 39.4111ZM419.841 25.4641L419.692 43.9401C419.664 47.3384 418.875 49.9298 417.324 51.7142C415.774 53.4856 413.546 54.3596 410.643 54.3362C407.804 54.3133 405.65 53.4104 404.18 51.6277C402.71 49.8319 401.989 47.1958 402.017 43.7193L402.166 25.3215L407.439 25.3641L407.287 44.1525C407.258 47.7852 408.448 49.6113 410.857 49.6307C411.976 49.6397 412.846 49.1845 413.465 48.265C414.085 47.3455 414.401 46.0329 414.415 44.3272L414.568 25.4216L419.841 25.4641ZM436.622 54.1552L423.752 54.0513L423.982 25.4976L436.853 25.6014L436.816 30.1911L429.257 30.1301L429.203 36.9268L436.214 36.9834L436.177 41.5926L429.165 41.536L429.102 49.4459L436.66 49.5069L436.622 54.1552ZM459.746 40.0249C459.708 44.7513 458.793 48.3769 457.002 50.9016C455.21 53.4263 452.668 54.6753 449.374 54.6487C446.066 54.622 443.538 53.3386 441.787 50.7983C440.037 48.245 439.181 44.5857 439.219 39.8202C439.258 35.0938 440.172 31.4813 441.963 28.9826C443.754 26.471 446.317 25.2286 449.65 25.2555C452.944 25.282 455.46 26.5719 457.197 29.1251C458.934 31.6652 459.784 35.2985 459.746 40.0249ZM444.649 39.9031C444.622 43.1582 445.012 45.6419 445.819 47.3542C446.626 49.0665 447.823 49.929 449.412 49.9418C452.615 49.9677 454.243 46.6474 454.297 39.9809C454.351 33.3145 452.789 29.9685 449.612 29.9428C447.997 29.9298 446.773 30.7728 445.939 32.4718C445.105 34.1579 444.675 36.635 444.649 39.9031ZM463.01 54.3681L463.24 25.8144L468.553 25.8572L468.36 49.7627L475.723 49.8221L475.685 54.4704L463.01 54.3681ZM498.066 40.3342C498.028 45.0606 497.114 48.6861 495.322 51.2108C493.531 53.7355 490.988 54.9846 487.694 54.958C484.387 54.9313 481.858 53.6478 480.108 51.1076C478.358 48.5543 477.502 44.8949 477.54 40.1295C477.578 35.4031 478.493 31.7905 480.284 29.2919C482.075 26.7802 484.637 25.5378 487.97 25.5647C491.265 25.5913 493.78 26.8812 495.518 29.4343C497.255 31.9745 498.105 35.6078 498.066 40.3342ZM482.969 40.2123C482.943 43.4674 483.333 45.9511 484.14 47.6634C484.946 49.3757 486.144 50.2383 487.732 50.2511C490.935 50.2769 492.564 46.9566 492.617 40.2902C492.671 33.6237 491.11 30.2777 487.933 30.2521C486.318 30.239 485.094 31.082 484.26 32.7811C483.426 34.4671 482.996 36.9442 482.969 40.2123ZM485.349 23.7076L485.353 23.1802C485.892 22.4945 486.519 21.5164 487.232 20.2461C487.945 18.9758 488.455 18.0033 488.76 17.3286L494.97 17.3788L494.967 17.7889C494.65 18.3463 493.868 19.2449 492.621 20.4849C491.374 21.7119 490.167 22.7959 489.001 23.737L485.349 23.7076ZM510.091 38.9077L518.821 38.9782L518.703 53.6261C516.22 54.6608 513.586 55.1669 510.8 55.1444C507.479 55.1176 504.931 53.834 503.155 51.2936C501.391 48.7532 500.529 45.1068 500.567 40.3544C500.604 35.7712 501.655 32.1923 503.72 29.6177C505.798 27.0433 508.68 25.7709 512.365 25.8006C514.643 25.819 516.813 26.4225 518.874 27.611L517.159 31.9333C515.552 30.9828 514.046 30.5019 512.639 30.4905C510.621 30.4742 509.012 31.3662 507.813 33.1665C506.627 34.9539 506.021 37.4035 505.996 40.5154C505.97 43.7184 506.373 46.1761 507.206 47.8886C508.051 49.6013 509.288 50.4641 510.915 50.4773C511.775 50.4842 512.648 50.3806 513.535 50.1664L513.588 43.6236L510.053 43.5951L510.091 38.9077ZM523.206 54.8539L523.436 26.3002L528.436 26.3405L528.205 54.8943L523.206 54.8539ZM543.109 30.6973C541.586 30.6851 540.374 31.5672 539.474 33.3439C538.587 35.1206 538.131 37.5975 538.106 40.7745C538.052 47.3889 539.751 50.71 543.201 50.7378C544.712 50.75 546.297 50.281 547.959 49.3308L547.921 54.0573C546.52 54.9705 544.732 55.4183 542.558 55.4007C539.342 55.3748 536.878 54.0788 535.167 51.5128C533.469 48.934 532.639 45.3269 532.676 40.6916C532.714 36.0563 533.628 32.4503 535.42 29.8736C537.225 27.2969 539.709 26.0213 542.873 26.0469C543.915 26.0553 544.91 26.2065 545.858 26.5006C546.819 26.7949 547.844 27.3045 548.931 28.0294L547.139 32.3315C546.556 31.9231 545.934 31.5535 545.273 31.2226C544.611 30.8788 543.89 30.7037 543.109 30.6973ZM564.671 55.1886L563.088 47.9685L555.647 47.9085L553.948 55.102L548.636 55.0592L555.937 26.4453L563.144 26.5034L570.002 55.2316L564.671 55.1886ZM562.13 43.2536L560.66 36.6009C560.572 36.1965 560.372 35.1858 560.06 33.5686C559.76 31.9385 559.58 30.8498 559.52 30.3024C559.341 31.4208 559.117 32.656 558.845 34.008C558.574 35.347 557.872 38.4144 556.74 43.2101L562.13 43.2536ZM584.793 47.4796C584.771 50.1488 584.078 52.1875 582.712 53.5958C581.36 55.0042 579.414 55.6982 576.875 55.6777C574.388 55.6576 572.276 55.1523 570.539 54.1617L570.582 48.9079C572.706 50.3183 574.66 51.0307 576.443 51.0451C577.459 51.0533 578.223 50.7795 578.735 50.2238C579.261 49.6681 579.527 48.9085 579.535 47.945C579.543 46.9945 579.244 46.1262 578.638 45.34C578.032 44.5408 577.03 43.6538 575.632 42.6789C574.415 41.8227 573.49 41.008 572.859 40.2346C572.24 39.4483 571.759 38.572 571.415 37.6057C571.084 36.6394 570.924 35.5183 570.934 34.2423C570.954 31.7945 571.647 29.8599 573.012 28.4386C574.391 27.0174 576.226 26.316 578.518 26.3345C580.705 26.3522 582.803 26.9811 584.812 28.2213L583.019 32.4648C582.397 32.0952 581.742 31.7644 581.055 31.4723C580.38 31.1804 579.652 31.0313 578.871 31.025C578.011 31.0181 577.345 31.2992 576.872 31.8683C576.411 32.4245 576.177 33.1909 576.169 34.1674C576.162 35.1309 576.428 35.9729 576.969 36.6935C577.524 37.4141 578.487 38.2357 579.86 39.1583C581.712 40.4232 582.997 41.7097 583.715 43.0176C584.447 44.3257 584.806 45.813 584.793 47.4796Z" fill="#010101"/>
</svg>
