<svg width="284" height="77" viewBox="0 0 284 77" fill="none" xmlns="http://www.w3.org/2000/svg">
<path fill-rule="evenodd" clip-rule="evenodd" d="M257.999 12.4087L252.934 25.7074L263.443 16.6131L283.998 32.4885L244.352 67.8891C240.145 67.7585 224.02 68.3954 200.459 69.326L200.456 69.3261L200.456 69.3261C185.447 69.9189 167.421 70.6309 147.536 71.3395C102.35 72.9499 71.4479 73.9807 50.1605 74.6812L53.2819 67.3942L40.0551 75.013C15.0093 75.8345 6.78119 76.1072 3.07168 76.488L26.1432 41.6781L0.652222 8.59886C4.42182 8.71589 12.7938 8.39375 38.508 7.40429L43.8631 7.1983L51.1424 16.904V6.91898C72.2792 6.10958 102.276 4.97716 145.116 3.4504C165.002 2.7417 183.034 2.16863 198.047 1.69148C221.615 0.942436 237.745 0.429804 241.932 0L257.999 12.4087Z" fill="#76482E"/>
<path d="M107.654 39.3941C107.822 44.1177 107.067 47.7797 105.388 50.3803C103.708 52.9808 101.223 54.3397 97.9305 54.457C94.6253 54.5748 92.0429 53.403 90.1832 50.9417C88.323 48.4673 87.3081 44.8488 87.1384 40.0862C86.97 35.3626 87.726 31.7136 89.4062 29.1391C91.0859 26.5516 93.5914 25.1985 96.9226 25.0798C100.215 24.9624 102.784 26.1412 104.632 28.616C106.478 31.0779 107.486 34.6706 107.654 39.3941ZM92.566 39.9319C92.6819 43.185 93.1802 45.6493 94.0607 47.3247C94.9413 49.0001 96.1753 49.8096 97.7628 49.753C100.964 49.6389 102.446 46.2506 102.208 39.5882C101.971 32.9258 100.265 29.6511 97.0896 29.7643C95.476 29.8218 94.2897 30.7175 93.5307 32.4513C92.7712 34.1722 92.4496 36.6657 92.566 39.9319ZM126.394 33.2736C126.502 36.3055 125.817 38.6621 124.34 40.3434C122.875 42.0112 120.698 42.8966 117.809 42.9996L116.482 43.0469L116.851 53.3919L111.542 53.5811L110.525 25.0445L117.766 24.7864C123.309 24.5889 126.185 27.4179 126.394 33.2736ZM116.318 38.4404L117.333 38.4043C118.634 38.3579 119.591 37.9655 120.203 37.2271C120.815 36.4887 121.092 35.3062 121.034 33.6796C120.981 32.1831 120.649 31.0875 120.037 30.3927C119.426 29.6849 118.509 29.3527 117.285 29.3963L115.997 29.4422L116.318 38.4404ZM138.51 28.2881C136.988 28.3424 135.816 29.2766 134.994 31.0909C134.186 32.9047 133.839 35.3991 133.952 38.5742C134.187 45.1846 136.029 48.4283 139.478 48.3054C140.987 48.2516 142.551 47.7138 144.169 46.692L144.338 51.4156C142.978 52.3891 141.212 52.9146 139.039 52.992C135.825 53.1065 133.307 51.9194 131.485 49.4306C129.676 46.9284 128.689 43.361 128.524 38.7285C128.359 34.0961 129.115 30.4535 130.793 27.801C132.483 25.1479 134.909 23.7651 138.071 23.6524C139.112 23.6153 140.113 23.7229 141.073 23.9754C142.046 24.2273 143.092 24.6917 144.211 25.3684L142.608 29.7447C142.008 29.3622 141.37 29.0201 140.695 28.7184C140.019 28.4037 139.291 28.2603 138.51 28.2881ZM142.153 57.5715C142.203 58.9638 141.78 60.0799 140.885 60.9196C139.99 61.7723 138.573 62.2332 136.634 62.3023C135.685 62.3361 134.827 62.2299 134.063 61.9835L133.956 58.9776C134.757 59.1705 135.549 59.2531 136.329 59.2253C137.474 59.1845 138.032 58.7346 138.001 57.8758C137.962 56.7827 136.915 56.1035 134.86 55.8379L136.292 52.699L139.669 52.5787L139 54.0878C139.892 54.2775 140.629 54.6617 141.21 55.2403C141.804 55.8185 142.118 56.5955 142.153 57.5715ZM166.389 37.3009C166.557 42.0245 165.802 45.6865 164.122 48.287C162.443 50.8876 159.957 52.2465 156.665 52.3638C153.36 52.4816 150.777 51.3098 148.918 48.8485C147.058 46.3741 146.043 42.7556 145.873 37.993C145.705 33.2694 146.461 29.6204 148.141 27.0459C149.82 24.4584 152.326 23.1053 155.657 22.9865C158.949 22.8692 161.519 24.048 163.366 26.5228C165.213 28.9847 166.22 32.5774 166.389 37.3009ZM151.301 37.8386C151.417 41.0918 151.915 43.5561 152.795 45.2315C153.676 46.9069 154.91 47.7164 156.497 47.6598C159.699 47.5457 161.18 44.1574 160.943 37.495C160.705 30.8326 158.999 27.5579 155.824 27.6711C154.211 27.7286 153.024 28.6243 152.265 30.3581C151.506 32.079 151.184 34.5725 151.301 37.8386ZM153.156 19.1474C152.752 19.1618 152.432 19.3296 152.196 19.6507C151.973 19.9583 151.81 20.5178 151.709 21.3292L148.957 21.4273C149.029 19.4313 149.419 17.9386 150.126 16.9492C150.847 15.9594 151.812 15.4429 153.022 15.3998C153.582 15.3799 154.087 15.4726 154.537 15.6781C155 15.87 155.431 16.0892 155.831 16.3355C156.23 16.5819 156.616 16.8092 156.988 17.0174C157.36 17.2126 157.741 17.3032 158.132 17.2893C158.574 17.2736 158.887 17.093 159.07 16.7478C159.266 16.402 159.423 15.8622 159.54 15.1284L162.292 15.0304C162.219 17.0134 161.817 18.5065 161.084 19.5098C160.363 20.4997 159.411 21.0157 158.227 21.0579C157.654 21.0783 157.137 20.9925 156.674 20.8005C156.223 20.5951 155.798 20.3692 155.399 20.1228C155.012 19.863 154.639 19.6353 154.28 19.4396C153.921 19.2309 153.546 19.1335 153.156 19.1474ZM183.139 51.0295L170.276 51.4879L169.259 22.9513L182.122 22.4929L182.286 27.0798L174.732 27.349L174.974 34.1416L181.981 33.8919L182.145 38.4983L175.138 38.748L175.42 46.6532L182.973 46.384L183.139 51.0295ZM199.216 42.5804C199.311 45.248 198.707 47.3151 197.405 48.7817C196.115 50.2478 194.201 51.0261 191.664 51.1165C189.179 51.2051 187.047 50.7925 185.268 49.8787L185.081 44.6281C187.265 45.9444 189.248 46.5708 191.031 46.5072C192.046 46.4711 192.797 46.1642 193.284 45.5865C193.785 45.0085 194.018 44.2379 193.984 43.275C193.95 42.3251 193.613 41.4707 192.974 40.7117C192.334 39.9397 191.294 39.0973 189.855 38.1845C188.601 37.3822 187.642 36.6086 186.977 35.8636C186.325 35.1051 185.806 34.2507 185.42 33.3003C185.047 32.3494 184.838 31.2363 184.793 29.9611C184.706 27.5147 185.313 25.5517 186.615 24.0721C187.931 22.5921 189.734 21.8112 192.024 21.7296C194.21 21.6517 196.333 22.1884 198.394 23.3397L196.789 27.6574C196.151 27.3153 195.482 27.0134 194.783 26.7517C194.096 26.4895 193.362 26.3724 192.581 26.4002C191.722 26.4308 191.069 26.7407 190.621 27.33C190.185 27.9058 189.985 28.6816 190.02 29.6576C190.054 30.6205 190.357 31.4501 190.929 32.1463C191.514 32.842 192.513 33.6208 193.925 34.4825C195.83 35.6654 197.17 36.8945 197.945 38.1697C198.733 39.4446 199.157 40.9148 199.216 42.5804Z" fill="#F6E9CE"/>
</svg>
