<svg width="645" height="781" viewBox="0 0 645 781" fill="none" xmlns="http://www.w3.org/2000/svg">
<line x1="645" y1="0.500092" x2="-3.19658e-08" y2="0.500014" stroke="#C8C8C8"/>
<line x1="645" y1="312.5" x2="-3.19658e-08" y2="312.5" stroke="#C8C8C8"/>
<line x1="645" y1="156.5" x2="-3.19658e-08" y2="156.5" stroke="#C8C8C8"/>
<line x1="645" y1="468.5" x2="-3.19658e-08" y2="468.5" stroke="#C8C8C8"/>
<line x1="645" y1="663.5" x2="-3.19658e-08" y2="663.5" stroke="#C8C8C8"/>
<line x1="645" y1="78.5001" x2="-3.19658e-08" y2="78.5" stroke="#C8C8C8"/>
<line x1="645" y1="390.5" x2="-3.19658e-08" y2="390.5" stroke="#C8C8C8"/>
<line x1="645" y1="234.5" x2="-3.19658e-08" y2="234.5" stroke="#C8C8C8"/>
<line x1="645" y1="546.5" x2="-3.19658e-08" y2="546.5" stroke="#C8C8C8"/>
<line x1="645" y1="741.5" x2="-3.19658e-08" y2="741.5" stroke="#C8C8C8"/>
<line x1="645" y1="39.5001" x2="-3.19658e-08" y2="39.5" stroke="#C8C8C8"/>
<line x1="645" y1="351.5" x2="-3.19658e-08" y2="351.5" stroke="#C8C8C8"/>
<line x1="645" y1="195.5" x2="-3.19658e-08" y2="195.5" stroke="#C8C8C8"/>
<line x1="645" y1="507.5" x2="-3.19658e-08" y2="507.5" stroke="#C8C8C8"/>
<line x1="645" y1="702.5" x2="-3.19658e-08" y2="702.5" stroke="#C8C8C8"/>
<line x1="645" y1="117.5" x2="-3.19658e-08" y2="117.5" stroke="#C8C8C8"/>
<line x1="645" y1="429.5" x2="-3.19658e-08" y2="429.5" stroke="#C8C8C8"/>
<line x1="645" y1="624.5" x2="-3.19658e-08" y2="624.5" stroke="#C8C8C8"/>
<line x1="645" y1="273.5" x2="-3.19658e-08" y2="273.5" stroke="#C8C8C8"/>
<line x1="645" y1="585.5" x2="-3.19658e-08" y2="585.5" stroke="#C8C8C8"/>
<line x1="645" y1="780.5" x2="-3.19658e-08" y2="780.5" stroke="#C8C8C8"/>
</svg>
