<svg width="508" height="882" viewBox="0 0 508 882" fill="none" xmlns="http://www.w3.org/2000/svg">
<line x1="273.5" y1="2.18557e-08" x2="273.5" y2="882" stroke="#C8C8C8"/>
<line x1="117.5" y1="2.18557e-08" x2="117.5" y2="882" stroke="#C8C8C8"/>
<line x1="429.5" y1="2.18557e-08" x2="429.5" y2="882" stroke="#C8C8C8"/>
<line x1="39.5" y1="2.18557e-08" x2="39.5" y2="882" stroke="#C8C8C8"/>
<line x1="351.5" y1="2.18557e-08" x2="351.5" y2="882" stroke="#C8C8C8"/>
<line x1="195.5" y1="2.18557e-08" x2="195.5" y2="882" stroke="#C8C8C8"/>
<line x1="507.5" y1="2.18557e-08" x2="507.5" y2="882" stroke="#C8C8C8"/>
<line x1="0.5" y1="2.18557e-08" x2="0.499961" y2="882" stroke="#C8C8C8"/>
<line x1="312.5" y1="2.18557e-08" x2="312.5" y2="882" stroke="#C8C8C8"/>
<line x1="156.5" y1="2.18557e-08" x2="156.5" y2="882" stroke="#C8C8C8"/>
<line x1="468.5" y1="2.18557e-08" x2="468.5" y2="882" stroke="#C8C8C8"/>
<line x1="78.5" y1="2.18557e-08" x2="78.5" y2="882" stroke="#C8C8C8"/>
<line x1="390.5" y1="2.18557e-08" x2="390.5" y2="882" stroke="#C8C8C8"/>
<line x1="234.5" y1="2.18557e-08" x2="234.5" y2="882" stroke="#C8C8C8"/>
</svg>
