<svg width="540" height="78" viewBox="0 0 540 78" fill="none" xmlns="http://www.w3.org/2000/svg">
<path fill-rule="evenodd" clip-rule="evenodd" d="M40.0048 1.95435L38.2274 13.5114L43.2377 1.95728C57.8864 1.96875 76.4969 1.96045 99.5225 1.95019L99.523 1.95019H99.5231H99.5233C119.741 1.94118 143.362 1.93065 170.694 1.93065C256.073 -0.867216 412.74 0.0638684 491.409 0.531398C498.28 0.572235 504.556 0.609535 510.138 0.640505L508.07 13.557L516.844 0.676212C529.862 0.741909 537.838 0.756183 538.991 0.669003L540 37.8986L538.991 77.0531C535.961 76.8239 486.342 76.5494 422.086 76.315L424.583 69.7098L414.506 76.2878C335.286 76.0076 236.385 75.7914 174.732 75.7914C133.275 75.7914 99.8263 75.8892 73.6976 76.0384L68.1546 69.3242L68.8036 76.0674C26.0068 76.3316 4.19465 76.7358 0 77.0531L3.02039e-06 37.8986L5.82053e-06 1.59934C3.19923 1.84138 15.7586 1.92927 40.0048 1.95435Z" fill="#D2B37C"/>
<path d="M186.248 33.4589C186.226 36.5685 185.421 38.9503 183.834 40.6041C182.261 42.2448 179.993 43.0515 177.03 43.0244L175.669 43.012L175.594 53.6221L170.149 53.5723L170.357 24.3044L177.784 24.3724C183.469 24.4244 186.29 27.4532 186.248 33.4589ZM175.703 38.2875L176.744 38.297C178.078 38.3092 179.075 37.9513 179.734 37.2232C180.394 36.4952 180.729 35.297 180.741 33.6288C180.752 32.094 180.46 30.9568 179.864 30.2173C179.269 29.4644 178.344 29.0823 177.09 29.0708L175.769 29.0587L175.703 38.2875ZM188.987 53.7446L189.195 24.4767L194.64 24.5265L194.466 49.0298L202.013 49.0988L201.979 53.8634L188.987 53.7446ZM218.515 54.0146L216.886 46.6122L209.259 46.5425L207.525 53.9141L202.08 53.8643L209.536 24.5426L216.923 24.6102L223.98 54.0646L218.515 54.0146ZM215.9 41.7783L214.387 34.9575C214.296 34.543 214.09 33.5067 213.768 31.8487C213.46 30.1776 213.274 29.0614 213.211 28.5002C213.03 29.6464 212.801 30.9123 212.524 32.2978C212.247 33.67 211.531 36.8133 210.375 41.7278L215.9 41.7783ZM235.629 29.2458C234.068 29.2315 232.827 30.1345 231.906 31.9546C230.999 33.7748 230.534 36.3131 230.511 39.5695C230.463 46.3493 232.207 49.7554 235.743 49.7877C237.291 49.8019 238.917 49.3229 240.618 48.3508L240.584 53.1954C239.149 54.1299 237.317 54.587 235.089 54.5666C231.792 54.5365 229.266 53.2053 227.51 50.5733C225.767 47.928 224.912 44.2298 224.946 39.4786C224.98 34.7274 225.914 31.0322 227.748 28.393C229.595 25.7538 232.14 24.4491 235.383 24.4787C236.451 24.4885 237.471 24.6446 238.443 24.9472C239.428 25.2498 240.479 25.7733 241.595 26.5176L239.762 30.9253C239.164 30.5061 238.526 30.1265 237.848 29.7866C237.17 29.4334 236.43 29.2532 235.629 29.2458ZM257.754 54.3735L256.125 46.9711L248.497 46.9013L246.763 54.273L241.318 54.2232L248.774 24.9015L256.161 24.9691L263.219 54.4235L257.754 54.3735ZM255.138 42.1372L253.625 35.3164C253.535 34.9018 253.328 33.8656 253.006 32.2076C252.698 30.5364 252.512 29.4203 252.45 28.8591C252.268 30.0053 252.039 31.2711 251.762 32.6567C251.485 34.0289 250.769 37.1722 249.613 42.0866L255.138 42.1372ZM263.902 45.7809L263.935 41.0965L274.004 41.1886L273.971 45.873L263.902 45.7809ZM278.114 54.5597L278.323 25.2919L283.447 25.3388L283.239 54.6066L278.114 54.5597ZM278.119 22.9476L278.123 22.4071C278.675 21.7048 279.316 20.703 280.046 19.4017C280.776 18.1003 281.297 17.1041 281.609 16.4129L287.975 16.4711L287.972 16.8915C287.648 17.4625 286.847 18.3828 285.57 19.6524C284.293 20.9087 283.057 22.0185 281.863 22.9819L278.119 22.9476ZM307.328 39.9117C307.294 44.743 306.28 48.4308 304.287 50.9752C302.307 53.5063 299.468 54.755 295.771 54.7212L288.605 54.6556L288.813 25.3878L296.64 25.4594C300.044 25.4905 302.684 26.776 304.561 29.3157C306.438 31.8421 307.361 35.3741 307.328 39.9117ZM301.742 40.0208C301.789 33.4813 300.01 30.195 296.407 30.1621L294.225 30.1421L294.084 49.9409L295.845 49.957C297.834 49.9752 299.308 49.1612 300.267 47.5149C301.227 45.8554 301.718 43.3573 301.742 40.0208ZM330.929 40.3678C330.895 45.2124 329.961 48.9277 328.127 51.5136C326.294 54.0994 323.689 55.3769 320.312 55.346C316.922 55.315 314.329 53.9967 312.533 51.3909C310.736 48.7719 309.855 45.02 309.89 40.1354C309.925 35.2908 310.859 31.5889 312.692 29.0297C314.525 26.4572 317.15 25.1865 320.567 25.2178C323.943 25.2487 326.523 26.5736 328.306 29.1925C330.09 31.7981 330.964 35.5232 330.929 40.3678ZM315.455 40.2263C315.431 43.5628 315.834 46.1091 316.662 47.8651C317.49 49.6211 318.718 50.5066 320.347 50.5215C323.63 50.5515 325.296 47.1499 325.344 40.3168C325.393 33.4836 323.789 30.0521 320.533 30.0223C318.878 30.0072 317.624 30.87 316.771 32.6106C315.917 34.3379 315.479 36.8765 315.455 40.2263ZM334.289 55.0735L334.497 25.8057L339.942 25.8555L339.768 50.3587L347.315 50.4278L347.281 55.1923L334.289 55.0735ZM370.208 40.7271C370.173 45.5717 369.239 49.2869 367.406 51.8728C365.572 54.4587 362.967 55.7362 359.591 55.7053C356.201 55.6743 353.608 54.3559 351.811 51.7502C350.014 49.1311 349.134 45.3793 349.168 40.4946C349.203 35.65 350.137 31.9481 351.97 29.3889C353.804 26.8164 356.429 25.5458 359.845 25.577C363.222 25.6079 365.801 26.9328 367.585 29.5518C369.368 32.1574 370.242 35.8825 370.208 40.7271ZM354.733 40.5855C354.71 43.9221 355.112 46.4683 355.94 48.2243C356.769 49.9803 357.997 50.8658 359.625 50.8807C362.908 50.9107 364.574 47.5092 364.623 40.676C364.671 33.8428 363.067 30.4114 359.811 30.3816C358.156 30.3664 356.902 31.2292 356.049 32.9698C355.196 34.6971 354.757 37.2357 354.733 40.5855Z" fill="#523422"/>
</svg>
