<svg width="124" height="174" viewBox="0 0 124 174" fill="none" xmlns="http://www.w3.org/2000/svg">
<g clip-path="url(#clip0)">
<path d="M13.6441 6.88762C11.5874 9.80354 11.1861 13.5238 10.835 17.0933C8.22659 43.035 5.66833 68.9263 3.05992 94.868C2.30749 102.661 1.5049 110.503 1.20393 118.296C0.601991 132.825 1.55507 147.405 2.85927 161.934C2.90943 162.588 3.00976 163.241 3.41105 163.744C3.96283 164.398 4.91591 164.548 5.76866 164.649C16.3026 165.856 26.8366 167.112 37.4208 168.319C45.1457 169.224 52.8706 170.129 60.5955 170.531C80.3593 171.587 100.324 169.526 119.786 172.844C120.84 173.045 122.144 173.095 122.746 172.19C123.047 171.687 122.997 171.084 122.997 170.531C120.288 133.68 117.529 96.7281 110.306 60.4802C108.45 51.1292 106.293 41.7781 105.591 32.2762C105.139 26.4947 105.24 20.6628 103.735 15.0824C102.23 9.50189 98.6683 4.12252 93.301 2.06126C90.0405 0.854677 86.479 0.955226 82.9677 1.05577C70.3269 1.45797 57.6861 2.06126 45.0454 2.51373C38.6246 2.76511 32.1538 2.91593 25.7331 3.26785C21.369 3.51922 16.5033 2.76511 13.6441 6.88762Z" fill="#F1E0BB" stroke="black" stroke-width="4"/>
<path d="M3.5 109.5C11.1246 107.69 16.1957 97.5325 18.2022 90.7454C19.3057 87.0251 21.6132 83.9584 23.3688 80.5397C25.5258 76.3669 26.6795 75.8139 31.3947 76.2664C34.5549 76.568 37.4141 76.7691 38.4174 80.3386C39.7216 84.9136 38.7183 90.9465 38.7183 95.7226C38.7183 101.404 38.6682 107.386 39.2701 112.916C39.8721 118.145 42.8316 122.418 43.0824 127.597C43.4336 135.188 40 142.009 40 149.5L2.80249 140.467L3.5 109.5Z" fill="#CD353B"/>
<path d="M35.27 125.033C41.8914 122.469 46.5063 126.843 52.4254 128.552C61.6551 131.166 61.5548 119.251 64.6147 113.62C67.7247 107.889 72.2393 99.7446 77.9076 96.0243C81.3186 93.7619 86.2344 95.0188 89.7458 96.6778C92.003 97.7336 93.0063 98.9402 95.7652 100.046C97.6212 100.8 98.8752 102.761 100.731 104.018C103.089 105.627 105.597 107.185 107.854 108.945C110.663 111.157 111.165 113.118 116.432 116.134L115.479 106.029C112.62 104.169 109.71 101.856 107.052 99.7446C103.59 97.0297 101.283 93.41 97.8218 90.6952C91.8526 85.9694 83.3752 81.8971 75.2992 84.1595C71.838 85.1147 70.7344 87.8295 69.1293 90.5443C67.0726 94.0133 64.0629 96.9795 61.7555 100.448C59.5483 103.716 57.7425 107.185 56.1373 110.654C54.783 113.52 54.0306 114.525 50.6195 113.57C47.4594 112.665 45.0516 110.453 42.0419 109.498C38.1794 108.241 34.016 108.241 29.9529 108.241" fill="#CD353B"/>
<path d="M39.4336 149.365C42.6941 151.075 46.055 153.337 48.9644 155.6C51.2718 157.359 53.2783 159.471 56.0372 160.526C64.5145 163.845 70.7848 160.929 73.343 152.432C74.4967 148.611 76.5032 144.891 78.1585 141.271C80.165 136.897 83.2249 131.116 85.2313 126.792C87.8398 121.161 94.3106 121.363 99.6278 123.977C105.547 126.893 112.018 131.769 118.489 133.077L117.435 125.586C111.065 122.519 104.644 118.799 98.2233 115.43C94.9627 113.721 91.953 110.855 88.1407 111.157C84.4789 111.459 80.5663 115.028 79.0113 118.296C75.4498 125.736 70.6844 131.015 67.775 138.707C66.4708 142.126 65.7184 145.243 61.4045 145.142C58.6456 145.092 55.7362 143.383 53.3786 142.076C48.2621 139.16 44.1488 135.339 38.2297 134.283" fill="#CD353B"/>
<path d="M27.288 14.7304C22.3722 12.7697 14.547 18.2496 18.0081 24.2826C19.513 26.9471 23.6262 29.1592 26.6861 28.1034C29.3948 27.1985 30.0971 23.1765 30.1974 20.7131C30.3479 17.0933 28.8932 15.2834 27.288 14.7304Z" fill="black"/>
<path d="M23.877 18.8026C20.5663 19.2551 19.212 23.6793 23.4256 24.0815C27.89 24.5842 28.5922 18.1994 23.877 18.8026Z" fill="#FAC58C"/>
<path d="M87.1812 14.479C83.9207 12.9708 78.7038 13.1216 77.0986 16.6911C76.0453 19.0037 76.1957 22.5732 77.9514 24.4837C80.008 26.746 85.0744 28.0029 87.9838 27.0477C91.144 26.0422 90.8932 21.5175 90.3414 18.501C90.1407 17.2944 90.1407 16.2889 88.6359 15.2834L87.1812 14.479Z" fill="black"/>
<path d="M82.9678 16.842C79.7574 17.5961 81.4127 22.9252 84.7234 22.3219C86.3788 22.0202 87.1312 20.9645 86.4791 19.2049C85.6263 16.9928 85.225 16.842 83.1183 16.7917L82.9678 16.842Z" fill="#FAC58C"/>
</g>
<defs>
<clipPath id="clip0">
<rect width="124" height="174" fill="white"/>
</clipPath>
</defs>
</svg>
