<?xml version="1.0" encoding="UTF-8" standalone="no"?>
<svg
   xmlns:dc="http://purl.org/dc/elements/1.1/"
   xmlns:cc="http://creativecommons.org/ns#"
   xmlns:rdf="http://www.w3.org/1999/02/22-rdf-syntax-ns#"
   xmlns:svg="http://www.w3.org/2000/svg"
   xmlns="http://www.w3.org/2000/svg"
   xmlns:sodipodi="http://sodipodi.sourceforge.net/DTD/sodipodi-0.dtd"
   xmlns:inkscape="http://www.inkscape.org/namespaces/inkscape"
   inkscape:version="1.0 (6e3e5246a0, 2020-05-07)"
   sodipodi:docname="logopb2.svg"
   id="svg8"
   version="1.1"
   viewBox="0 0 117.89551 139.99987"
   height="139.99986mm"
   width="117.89551mm">
  <defs
     id="defs2">
    <clipPath
       clipPathUnits="userSpaceOnUse"
       id="clipPath28">
      <path
         d="M 0,0 H 1280 V 720 H 0 Z"
         id="path26" />
    </clipPath>
    <clipPath
       clipPathUnits="userSpaceOnUse"
       id="clipPath71">
      <path
         d="M 0,0 H 1280 V 720 H 0 Z"
         id="path69" />
    </clipPath>
    <clipPath
       clipPathUnits="userSpaceOnUse"
       id="clipPath285">
      <path
         d="M 0,0 H 1280 V 720 H 0 Z"
         id="path283" />
    </clipPath>
    <clipPath
       clipPathUnits="userSpaceOnUse"
       id="clipPath303">
      <path
         d="M 0,0 H 1280 V 720 H 0 Z"
         id="path301" />
    </clipPath>
    <clipPath
       clipPathUnits="userSpaceOnUse"
       id="clipPath992">
      <path
         d="M 0,0 H 1280 V 720 H 0 Z"
         id="path990" />
    </clipPath>
    <clipPath
       clipPathUnits="userSpaceOnUse"
       id="clipPath1204">
      <path
         d="M 0,0 H 1280 V 720 H 0 Z"
         id="path1202" />
    </clipPath>
    <clipPath
       clipPathUnits="userSpaceOnUse"
       id="clipPath1418">
      <path
         d="M 0,0 H 1280 V 720 H 0 Z"
         id="path1416" />
    </clipPath>
    <clipPath
       clipPathUnits="userSpaceOnUse"
       id="clipPath1436">
      <path
         d="M 0,0 H 1280 V 720 H 0 Z"
         id="path1434" />
    </clipPath>
  </defs>
  <sodipodi:namedview
     inkscape:window-maximized="0"
     inkscape:window-y="38"
     inkscape:window-x="674"
     inkscape:window-height="943"
     inkscape:window-width="1222"
     showgrid="false"
     inkscape:document-rotation="0"
     inkscape:current-layer="g974"
     inkscape:document-units="mm"
     inkscape:cy="322.83309"
     inkscape:cx="155.96729"
     inkscape:zoom="0.7"
     inkscape:pageshadow="2"
     inkscape:pageopacity="0.0"
     borderopacity="1.0"
     bordercolor="#666666"
     pagecolor="#ffffff"
     id="base" />
  <metadata
     id="metadata5">
    <rdf:RDF>
      <cc:Work
         rdf:about="">
        <dc:format>image/svg+xml</dc:format>
        <dc:type
           rdf:resource="http://purl.org/dc/dcmitype/StillImage" />
        <dc:title></dc:title>
      </cc:Work>
    </rdf:RDF>
  </metadata>
  <g
     transform="translate(40.900565,-11.065524)"
     id="layer1"
     inkscape:groupmode="layer"
     inkscape:label="Layer 1">
    <g
       id="g53"
       inkscape:label="1_ApID PAViseu MHCViseu"
       transform="matrix(0.35277777,0,0,-0.35277777,-82.14682,316.95214)">
      <g
         id="g974"
         inkscape:label="1_ApID PAViseu MHCViseu"
         transform="translate(-188.89008,278.75759)">
        <g
           id="g986">
          <g
             id="g988"
             clip-path="url(#clipPath992)">
            <g
               id="g994"
               transform="translate(398.6611,350.5936)">
              <path
                 d="m 0,0 h -8.9 c -1.849,0 -2.578,-0.922 -3.083,-2.56 l -9.926,-34.906 c -1.535,-5.432 -2.776,-14.745 -2.776,-14.745 0,0 -0.91,9.313 -2.461,14.846 L -37.06,-2.56 C -37.584,-0.922 -38.299,0 -40.039,0 h -9.719 c -1.846,0 -2.454,-0.922 -1.946,-2.56 l 19.143,-64.492 c 0.506,-1.742 1.325,-2.561 3.163,-2.561 h 8.911 c 1.851,0 2.776,0.819 3.284,2.561 L 1.826,-2.56 C 2.354,-0.922 1.726,0 0,0"
                 style="fill:#000000;fill-opacity:1;fill-rule:nonzero;stroke:none"
                 id="path996" />
            </g>
            <g
               id="g998"
               transform="translate(420.5869,350.5936)">
              <path
                 d="m 0,0 h -8.906 c -1.843,0 -2.447,-0.825 -2.447,-2.66 v -64.291 c 0,-1.843 0.604,-2.662 2.447,-2.662 H 0 c 1.841,0 2.455,0.819 2.455,2.662 V -2.66 C 2.455,-0.825 1.841,0 0,0"
                 style="fill:#000000;fill-opacity:1;fill-rule:nonzero;stroke:none"
                 id="path1000" />
            </g>
            <g
               id="g1002"
               transform="translate(471.9756,319.4674)">
              <path
                 d="m 0,0 -17.82,6.353 c -1.615,0.612 -4.198,1.944 -4.198,5.527 v 1.533 c 0,5.019 3.388,7.373 10.045,7.373 6.555,0 9.923,-2.354 9.923,-7.373 v -2.354 c 0,-1.742 0.62,-2.561 2.368,-2.561 h 8.579 c 1.846,0 2.582,0.819 2.582,2.561 v 4.198 c 0,8.597 -5.746,16.686 -23.653,16.686 -17.92,0 -23.254,-8.089 -23.254,-16.686 V 9.216 c 0,-6.141 4.407,-11.366 9.317,-13.204 l 15.882,-5.94 c 4.599,-1.74 8.696,-3.377 8.696,-7.58 v -3.275 c 0,-5.013 -3.988,-7.365 -10.847,-7.365 -6.954,0 -10.858,2.352 -10.858,7.365 v 4.608 c 0,1.848 -0.62,2.669 -2.449,2.669 h -8.605 c -1.734,0 -2.454,-0.821 -2.454,-2.669 v -6.443 c 0,-8.607 6.232,-16.692 24.464,-16.692 18.323,0 24.372,8.085 24.372,16.692 v 7.881 C 12.09,-7.169 6.974,-2.455 0,0"
                 style="fill:#000000;fill-opacity:1;fill-rule:nonzero;stroke:none"
                 id="path1004" />
            </g>
            <g
               id="g1006"
               transform="translate(534.3428,292.4422)">
              <path
                 d="m 0,0 h -24.69 v 19.041 h 21.912 c 1.85,0 2.68,0.715 2.68,2.457 v 6.147 c 0,1.838 -0.83,2.455 -2.68,2.455 H -24.69 v 16.583 h 23.663 c 1.747,0 2.551,0.721 2.551,2.562 v 6.447 c 0,1.844 -0.804,2.459 -2.551,2.459 h -35.016 c -1.843,0 -2.46,-0.825 -2.46,-2.66 V -8.8 c 0,-1.843 0.617,-2.661 2.46,-2.661 H 0 c 1.826,0 2.558,0.712 2.558,2.561 v 6.443 C 2.558,-0.612 1.826,0 0,0"
                 style="fill:#000000;fill-opacity:1;fill-rule:nonzero;stroke:none"
                 id="path1008" />
            </g>
            <g
               id="g1010"
               transform="translate(595.0586,350.5936)">
              <path
                 d="m 0,0 h -8.897 c -1.835,0 -2.46,-0.825 -2.46,-2.66 v -48.63 c 0,-5.122 -4.307,-7.677 -11.168,-7.677 -6.848,0 -10.943,2.555 -10.943,7.677 v 48.63 c 0,1.835 -0.712,2.66 -2.454,2.66 h -8.906 c -1.846,0 -2.564,-0.825 -2.564,-2.66 v -51.084 c 0,-8.608 6.351,-16.693 24.867,-16.693 18.554,0 24.896,8.085 24.896,16.693 V -2.66 C 2.371,-0.825 1.844,0 0,0"
                 style="fill:#000000;fill-opacity:1;fill-rule:nonzero;stroke:none"
                 id="path1012" />
            </g>
            <g
               id="g1014"
               transform="translate(350.1201,242.1434)">
              <path
                 d="m 0,0 v -7.003 c 0,-0.421 -0.12,-0.601 -0.541,-0.601 h -1.833 c -0.391,0 -0.541,0.18 -0.541,0.601 v 19.235 c 0,0.421 0.15,0.601 0.541,0.601 h 6.101 c 5.169,0 6.822,-2.164 6.822,-4.628 V 4.628 C 10.549,2.164 8.896,0 3.727,0 Z M 0,10.339 V 2.494 h 3.727 c 2.705,0 3.907,0.992 3.907,2.615 v 2.615 c 0,1.623 -1.202,2.615 -3.907,2.615 z"
                 style="fill:#000000;fill-opacity:1;fill-rule:nonzero;stroke:none"
                 id="path1016" />
            </g>
            <g
               id="g1018"
               transform="translate(363.0137,250.5888)">
              <path
                 d="m 0,0 c 0,2.464 1.684,4.628 6.822,4.628 5.17,0 6.853,-2.164 6.853,-4.628 v -11.661 c 0,-2.465 -1.683,-4.629 -6.853,-4.629 -5.138,0 -6.822,2.164 -6.822,4.629 z m 10.729,-0.481 c 0,1.623 -1.202,2.615 -3.907,2.615 -2.675,0 -3.877,-0.992 -3.877,-2.615 V -11.18 c 0,-1.623 1.202,-2.615 3.877,-2.615 2.705,0 3.907,0.992 3.907,2.615 z"
                 style="fill:#000000;fill-opacity:1;fill-rule:nonzero;stroke:none"
                 id="path1020" />
            </g>
            <g
               id="g1022"
               transform="translate(383.1787,237.034)">
              <path
                 d="m 0,0 h 7.694 c 0.391,0 0.572,-0.12 0.572,-0.541 v -1.382 c 0,-0.421 -0.181,-0.571 -0.572,-0.571 H -2.464 c -0.331,0 -0.481,0.21 -0.481,0.601 v 19.235 c 0,0.42 0.15,0.601 0.571,0.601 h 1.833 C -0.15,17.943 0,17.762 0,17.342 Z"
                 style="fill:#000000;fill-opacity:1;fill-rule:nonzero;stroke:none"
                 id="path1024" />
            </g>
            <g
               id="g1026"
               transform="translate(393.0371,250.5888)">
              <path
                 d="m 0,0 c 0,2.464 1.683,4.628 6.822,4.628 5.17,0 6.853,-2.164 6.853,-4.628 v -11.661 c 0,-2.465 -1.683,-4.629 -6.853,-4.629 -5.139,0 -6.822,2.164 -6.822,4.629 z m 10.729,-0.481 c 0,1.623 -1.202,2.615 -3.907,2.615 -2.675,0 -3.877,-0.992 -3.877,-2.615 V -11.18 c 0,-1.623 1.202,-2.615 3.877,-2.615 2.705,0 3.907,0.992 3.907,2.615 z"
                 style="fill:#000000;fill-opacity:1;fill-rule:nonzero;stroke:none"
                 id="path1028" />
            </g>
            <g
               id="g1030"
               transform="translate(423.3916,254.075)">
              <path
                 d="m 0,0 5.439,-18.634 c 0.181,-0.571 -0.03,-0.901 -0.661,-0.901 H 1.442 c -0.631,0 -0.901,0.33 -1.051,0.901 l -0.783,2.885 H -5.38 l -0.782,-2.885 c -0.15,-0.571 -0.42,-0.901 -1.052,-0.901 h -3.035 c -0.631,0 -0.842,0.33 -0.661,0.901 L -5.471,0 c 0.181,0.601 0.482,0.902 1.113,0.902 h 3.246 C -0.481,0.902 -0.181,0.601 0,0 m -1.894,-10.219 c -0.481,1.834 -0.902,6.011 -0.931,6.282 -0.061,-0.421 -0.541,-4.538 -1.023,-6.282 l -0.45,-1.622 h 2.824 z"
                 style="fill:#000000;fill-opacity:1;fill-rule:nonzero;stroke:none"
                 id="path1032" />
            </g>
            <g
               id="g1034"
               transform="translate(441.7842,242.8347)">
              <path
                 d="M 0,0 2.945,-7.393 C 3.156,-7.934 2.766,-8.295 2.104,-8.295 h -3.246 c -0.571,0 -0.691,0.481 -0.872,0.902 l -2.644,6.642 h -2.254 v -6.642 c 0,-0.632 -0.211,-0.902 -0.842,-0.902 H -11 c -0.631,0 -0.871,0.27 -0.871,0.902 V 11.24 c 0,0.632 0.24,0.902 0.871,0.902 h 6.492 c 5.651,0 7.634,-2.555 7.634,-5.139 V 4.388 C 3.126,2.675 2.255,0.962 0,0 M -6.912,8.085 V 3.306 h 2.404 c 1.473,0 2.736,0.571 2.736,1.954 v 0.871 c 0,1.383 -1.263,1.954 -2.736,1.954 z"
                 style="fill:#000000;fill-opacity:1;fill-rule:nonzero;stroke:none"
                 id="path1036" />
            </g>
            <g
               id="g1038"
               transform="translate(462.0703,239.4384)">
              <path
                 d="m 0,0 c 0,-1.954 -1.143,-3.847 -4.088,-4.689 l 2.856,-2.524 c 0.481,-0.421 0.51,-0.842 0.12,-1.232 l -1.623,-1.744 c -0.361,-0.39 -0.812,-0.42 -1.233,-0.06 l -5.679,5.23 c -4.178,0.511 -5.711,2.735 -5.711,5.019 v 10.639 c 0,2.585 2.013,5.14 7.664,5.14 5.65,0 7.694,-2.555 7.694,-5.14 z m -10.399,0.751 c 0,-1.382 1.232,-1.953 2.705,-1.953 1.472,0 2.735,0.571 2.735,1.953 v 9.137 c 0,1.383 -1.263,1.954 -2.735,1.954 -1.473,0 -2.705,-0.571 -2.705,-1.954 z"
                 style="fill:#000000;fill-opacity:1;fill-rule:nonzero;stroke:none"
                 id="path1040" />
            </g>
            <g
               id="g1042"
               transform="translate(469.1318,240.31)">
              <path
                 d="m 0,0 c 0,-1.382 1.232,-1.954 2.705,-1.954 1.473,0 2.735,0.572 2.735,1.954 v 13.765 c 0,0.631 0.241,0.902 0.872,0.902 h 3.246 c 0.63,0 0.841,-0.271 0.841,-0.902 V -0.872 c 0,-2.584 -2.044,-5.139 -7.694,-5.139 -5.65,0 -7.664,2.555 -7.664,5.139 v 14.637 c 0,0.631 0.24,0.902 0.872,0.902 h 3.245 C -0.21,14.667 0,14.396 0,13.765 Z"
                 style="fill:#000000;fill-opacity:1;fill-rule:nonzero;stroke:none"
                 id="path1044" />
            </g>
            <g
               id="g1046"
               transform="translate(482.8066,234.5396)">
              <path
                 d="m 0,0 c -0.631,0 -0.871,0.27 -0.871,0.902 v 18.633 c 0,0.632 0.24,0.902 0.871,0.902 h 10.279 c 0.631,0 0.902,-0.21 0.902,-0.841 v -2.345 c 0,-0.631 -0.271,-0.871 -0.902,-0.871 H 4.088 v -3.907 h 5.71 c 0.631,0 0.902,-0.211 0.902,-0.842 V 9.437 C 10.7,8.806 10.429,8.566 9.798,8.566 H 4.088 V 4.057 h 6.491 c 0.632,0 0.902,-0.21 0.902,-0.841 V 0.872 C 11.481,0.24 11.211,0 10.579,0 Z"
                 style="fill:#000000;fill-opacity:1;fill-rule:nonzero;stroke:none"
                 id="path1048" />
            </g>
            <g
               id="g1050"
               transform="translate(495.7891,250.0778)">
              <path
                 d="m 0,0 c 0,2.585 2.014,5.139 7.664,5.139 5.65,0 7.694,-2.554 7.694,-5.139 v -10.639 c 0,-2.585 -2.044,-5.14 -7.694,-5.14 -5.65,0 -7.664,2.555 -7.664,5.14 z m 10.399,-0.872 c 0,1.383 -1.262,1.954 -2.735,1.954 -1.473,0 -2.705,-0.571 -2.705,-1.954 v -8.896 c 0,-1.382 1.232,-1.953 2.705,-1.953 1.473,0 2.735,0.571 2.735,1.953 z"
                 style="fill:#000000;fill-opacity:1;fill-rule:nonzero;stroke:none"
                 id="path1052" />
            </g>
            <g
               id="g1054"
               transform="translate(518.3604,238.5968)">
              <path
                 d="m 0,0 h 5.891 c 0.63,0 0.901,-0.21 0.901,-0.841 v -2.345 c 0,-0.631 -0.271,-0.871 -0.901,-0.871 H -4.208 c -0.541,0 -0.751,0.3 -0.751,0.901 v 18.634 c 0,0.631 0.24,0.902 0.872,0.902 h 3.245 C -0.21,16.38 0,16.109 0,15.478 Z"
                 style="fill:#000000;fill-opacity:1;fill-rule:nonzero;stroke:none"
                 id="path1056" />
            </g>
            <g
               id="g1058"
               transform="translate(557.1602,245.6599)">
              <path
                 d="m 0,0 c 0.631,0 0.901,-0.21 0.901,-0.842 v -5.379 c 0,-2.585 -1.743,-5.14 -7.393,-5.14 -5.651,0 -7.394,2.555 -7.394,5.14 V 4.418 c 0,2.585 1.743,5.139 7.394,5.139 5.65,0 7.393,-2.554 7.393,-5.139 V 3.336 C 0.901,2.705 0.69,2.434 0.06,2.434 h -3.096 c -0.631,0 -0.871,0.271 -0.871,0.902 v 0.21 c 0,1.383 -1.052,1.954 -2.526,1.954 -1.471,0 -2.494,-0.571 -2.494,-1.954 V -5.35 c 0,-1.382 1.023,-1.953 2.494,-1.953 1.474,0 2.526,0.571 2.526,1.953 v 1.293 h -2.465 c -0.631,0 -0.901,0.24 -0.901,0.871 v 2.344 c 0,0.632 0.27,0.842 0.901,0.842 z"
                 style="fill:#000000;fill-opacity:1;fill-rule:nonzero;stroke:none"
                 id="path1060" />
            </g>
            <g
               id="g1062"
               transform="translate(565.124,235.4412)">
              <path
                 d="m 0,0 c 0,-0.631 -0.21,-0.902 -0.841,-0.902 h -3.246 c -0.632,0 -0.872,0.271 -0.872,0.902 v 18.634 c 0,0.631 0.24,0.902 0.872,0.902 h 3.246 C -0.21,19.536 0,19.265 0,18.634 Z"
                 style="fill:#000000;fill-opacity:1;fill-rule:nonzero;stroke:none"
                 id="path1064" />
            </g>
            <g
               id="g1066"
               transform="translate(582.1641,239.4384)">
              <path
                 d="m 0,0 c 0,-2.585 -1.743,-5.139 -7.394,-5.139 -5.65,0 -7.393,2.554 -7.393,5.139 v 10.639 c 0,2.585 1.743,5.14 7.393,5.14 5.651,0 7.394,-2.555 7.394,-5.14 L 0,9.257 C 0,8.626 -0.211,8.355 -0.842,8.355 h -3.096 c -0.63,0 -0.871,0.271 -0.871,0.902 v 0.511 c 0,1.382 -1.051,1.953 -2.524,1.953 -1.473,0 -2.495,-0.571 -2.495,-1.953 V 0.872 c 0,-1.383 1.022,-1.954 2.495,-1.954 1.473,0 2.524,0.571 2.524,1.954 v 0.961 c 0,0.632 0.241,0.902 0.871,0.902 h 3.096 C -0.211,2.735 0,2.465 0,1.833 Z"
                 style="fill:#000000;fill-opacity:1;fill-rule:nonzero;stroke:none"
                 id="path1068" />
            </g>
            <g
               id="g1070"
               transform="translate(583.667,250.0778)">
              <path
                 d="m 0,0 c 0,2.585 2.014,5.139 7.664,5.139 5.65,0 7.693,-2.554 7.693,-5.139 v -10.639 c 0,-2.585 -2.043,-5.14 -7.693,-5.14 -5.65,0 -7.664,2.555 -7.664,5.14 z m 10.398,-0.872 c 0,1.383 -1.261,1.954 -2.734,1.954 -1.473,0 -2.705,-0.571 -2.705,-1.954 v -8.896 c 0,-1.382 1.232,-1.953 2.705,-1.953 1.473,0 2.734,0.571 2.734,1.953 z"
                 style="fill:#000000;fill-opacity:1;fill-rule:nonzero;stroke:none"
                 id="path1072" />
            </g>
            <g
               id="g1074"
               transform="translate(538.2871,254.385)">
              <path
                 d="m 0,0 -2.585,-3.807 c 0.404,-0.314 0.661,-0.759 0.661,-1.372 v -8.896 c 0,-1.382 -1.263,-1.954 -2.735,-1.954 -1.473,0 -2.705,0.572 -2.705,1.954 v 8.896 c 0,0.751 0.371,1.255 0.938,1.566 l 1.967,4.439 c -0.068,0.001 -0.131,0.006 -0.2,0.006 -5.651,0 -7.664,-2.555 -7.664,-5.139 v -10.64 c 0,-2.584 2.013,-5.139 7.664,-5.139 5.65,0 7.694,2.555 7.694,5.139 v 10.64 C 3.035,-2.625 2.161,-0.961 0,0"
                 style="fill:#000000;fill-opacity:1;fill-rule:nonzero;stroke:none"
                 id="path1076" />
            </g>
            <g
               id="g1078"
               transform="translate(551.1348,505.8896)">
              <path
                 d="m 0,0 -36.136,36.136 c -4.598,4.598 -10.836,7.181 -17.34,7.181 h -51.102 c -6.505,0 -12.741,-2.583 -17.339,-7.181 L -158.053,0 c -4.6,-4.599 -7.183,-10.836 -7.183,-17.341 v -51.102 c 0,-6.504 2.583,-12.74 7.183,-17.339 l 36.136,-36.136 c 4.598,-4.599 10.834,-7.182 17.339,-7.182 h 51.101 c 6.505,0 12.743,2.583 17.341,7.182 L 0,-85.782 c 4.598,4.599 7.182,10.836 7.182,17.339 v 51.104 C 7.182,-10.836 4.598,-4.599 0,0 m 4.517,-67.653 c 0,-6.302 -2.503,-12.347 -6.96,-16.804 l -35.018,-35.019 c -4.457,-4.455 -10.502,-6.96 -16.806,-6.96 h -49.521 c -6.304,0 -12.348,2.505 -16.804,6.96 l -35.019,35.019 c -4.458,4.457 -6.961,10.501 -6.961,16.804 v 49.523 c 0,6.303 2.503,12.348 6.961,16.805 l 35.019,35.018 c 4.456,4.457 10.5,6.96 16.804,6.96 h 49.523 c 6.302,0 12.347,-2.503 16.804,-6.96 L -2.443,-1.325 c 4.457,-4.457 6.96,-10.502 6.96,-16.804 z"
                 style="fill:#000000;fill-opacity:1;fill-rule:nonzero;stroke:none"
                 id="path1080" />
            </g>
            <g
               id="g1082"
               transform="translate(465.7686,423.8452)">
              <path
                 d="m 0,0 c 1.193,-1.042 2.801,-1.571 4.775,-1.571 0.892,0 2.175,0.175 3.121,0.679 0.461,0.268 0.461,0.606 0.461,1.22 v 1.496 c 0,0.546 -10e-4,0.937 0.027,1.357 0.007,0.134 0.02,0.204 0.023,0.227 0.108,0.019 0.164,0.031 0.23,0.031 0.384,0 0.683,0.288 0.683,0.656 0,0.254 -0.167,0.683 -0.791,0.683 -0.29,0 -0.806,-0.02 -1.106,-0.032 L 7.226,4.738 7.062,4.744 C 6.764,4.756 6.169,4.778 5.71,4.778 5.086,4.778 4.92,4.349 4.92,4.095 4.92,3.727 5.22,3.439 5.603,3.439 5.711,3.439 5.872,3.426 5.904,3.419 5.983,3.397 6.024,3.382 6.039,3.385 6.082,3.238 6.082,2.761 6.082,2.599 L 6.104,0.359 C 5.905,0.245 5.363,0.155 4.868,0.155 3.675,0.155 2.633,0.581 1.771,1.422 1.341,1.839 0.528,3.063 0.528,4.709 c 0,1.294 0.413,2.394 1.105,2.942 0.885,0.699 1.756,0.758 2.501,0.758 1.543,0 2.45,-0.505 2.651,-0.811 C 6.918,7.385 6.969,7.109 6.98,6.957 7.055,6.296 7.511,6.245 7.647,6.245 c 0.164,0 0.697,0.061 0.697,0.857 0,0.942 0.047,1.387 0.072,1.626 0.014,0.121 0.022,0.205 0.022,0.271 0,0.31 -0.21,0.645 -0.713,0.695 C 7.405,9.707 6.979,9.759 6.735,9.817 6.618,9.841 5.554,10.055 4.574,10.055 3.473,10.055 2.038,9.95 0.714,9.125 -0.852,8.14 -1.787,6.314 -1.787,4.242 -1.787,2.258 -0.823,0.717 0,0"
                 style="fill:#000000;fill-opacity:1;fill-rule:nonzero;stroke:none"
                 id="path1084" />
            </g>
            <g
               id="g1086"
               transform="translate(499.1963,399.68)">
              <path
                 d="m 0,0 c -0.29,0 -0.807,-0.021 -1.108,-0.032 l -0.198,-0.008 -0.16,0.006 C -1.763,-0.023 -2.36,0 -2.819,0 -3.443,0 -3.61,-0.429 -3.61,-0.683 c 0,-0.368 0.299,-0.656 0.682,-0.656 0.11,0 0.272,-0.014 0.303,-0.02 0.079,-0.022 0.114,-0.044 0.134,-0.034 0.043,-0.147 0.043,-0.623 0.043,-0.786 l 0.022,-2.24 c -0.198,-0.115 -0.741,-0.204 -1.236,-0.204 -1.193,0 -2.235,0.426 -3.099,1.267 -0.429,0.417 -1.241,1.641 -1.241,3.287 0,1.293 0.413,2.393 1.105,2.942 0.884,0.699 1.754,0.758 2.501,0.758 1.542,0 2.45,-0.505 2.651,-0.812 0.134,-0.213 0.185,-0.489 0.196,-0.64 0.072,-0.644 0.49,-0.713 0.666,-0.713 0.164,0 0.698,0.062 0.698,0.857 0,0.942 0.046,1.387 0.073,1.626 0.013,0.122 0.02,0.206 0.02,0.271 0,0.311 -0.211,0.646 -0.714,0.695 -0.319,0.013 -0.745,0.066 -0.987,0.123 -0.046,0.01 -1.147,0.239 -2.161,0.239 -1.103,0 -2.537,-0.106 -3.863,-0.93 -1.565,-0.986 -2.5,-2.811 -2.5,-4.883 0,-1.985 0.963,-3.527 1.788,-4.242 1.193,-1.043 2.8,-1.572 4.774,-1.572 0.893,0 2.176,0.176 3.119,0.678 0.465,0.268 0.465,0.607 0.465,1.221 v 1.496 c 0,0.547 -0.002,0.937 0.025,1.358 0.007,0.133 0.021,0.204 0.022,0.226 0.109,0.019 0.166,0.032 0.23,0.032 0.383,0 0.684,0.288 0.684,0.656 C 0.79,-0.429 0.623,0 0,0"
                 style="fill:#000000;fill-opacity:1;fill-rule:nonzero;stroke:none"
                 id="path1088" />
            </g>
            <g
               id="g1090"
               transform="translate(487.7471,395.1152)">
              <path
                 d="M 0,0 C -0.103,-0.001 -0.352,0.022 -0.499,0.01 -0.506,0.022 -0.528,0.076 -0.55,0.281 -0.612,0.807 -0.612,1.875 -0.612,3.112 v 2.351 c 0,2.068 0,2.44 0.026,2.852 0.007,0.136 0.021,0.207 0.025,0.229 0.108,0.018 0.164,0.03 0.227,0.03 0.383,0 0.685,0.289 0.685,0.656 0,0.254 -0.167,0.684 -0.791,0.684 -0.29,0 -0.806,-0.021 -1.107,-0.032 L -1.746,9.874 -1.94,9.881 c -0.301,0.012 -0.835,0.033 -1.159,0.033 -0.624,0 -0.791,-0.43 -0.791,-0.684 0,-0.367 0.3,-0.656 0.684,-0.656 0.059,0 0.183,-0.01 0.248,-0.004 0.002,-0.002 0.034,-0.059 0.046,-0.258 0.025,-0.409 0.025,-0.781 0.025,-2.849 V 3.112 c 0,-1.237 0,-2.305 -0.061,-2.82 C -2.966,0.156 -2.983,0.072 -2.997,0.019 -3.077,0.006 -3.135,0 -3.166,0 c -0.383,0 -0.683,-0.288 -0.683,-0.656 0,-0.254 0.166,-0.683 0.791,-0.683 0.289,0 0.805,0.02 1.107,0.032 l 0.198,0.008 0.143,-0.005 c 0.296,-0.011 0.931,-0.035 1.504,-0.035 0.543,0 0.791,0.354 0.791,0.683 C 0.685,-0.288 0.384,0 0,0"
                 style="fill:#000000;fill-opacity:1;fill-rule:nonzero;stroke:none"
                 id="path1092" />
            </g>
            <g
               id="g1094"
               transform="translate(465.2451,446.5618)">
              <path
                 d="m 0,0 c 0.109,0 0.272,-0.014 0.42,-0.032 0.003,-0.005 0.023,-0.053 0.033,-0.23 0.026,-0.41 0.026,-0.782 0.026,-2.85 v -2.351 c 0,-1.236 0,-2.304 -0.061,-2.821 C 0.399,-8.419 0.384,-8.503 0.37,-8.555 0.294,-8.568 0.234,-8.574 0.201,-8.574 c -0.384,0 -0.684,-0.289 -0.684,-0.657 0,-0.253 0.167,-0.682 0.791,-0.682 0.101,0 0.226,0.006 0.361,0.012 0.135,0.007 0.279,0.014 0.442,0.015 0.265,0.013 0.481,0.013 0.504,0.013 0.061,-0.001 0.412,-0.014 0.797,-0.039 l 0.523,-0.024 c 0.204,-0.009 0.375,-0.017 0.46,-0.017 2.613,0 3.982,1.755 3.982,3.488 0,1.396 -0.876,2.447 -1.918,3.027 0.47,0.562 0.862,1.237 0.862,2.197 0,0.893 -0.679,2.58 -3.248,2.58 C 2.708,1.339 2.375,1.326 2.095,1.314 1.908,1.306 1.745,1.299 1.621,1.299 L 1.46,1.305 C 1.163,1.317 0.565,1.339 0.106,1.339 -0.517,1.339 -0.683,0.91 -0.683,0.656 -0.683,0.288 -0.383,0 0,0 m 2.701,-0.197 c 0.079,0.007 0.159,0.01 0.224,0.01 1.139,0 1.228,-1.318 1.228,-1.722 0,-0.365 -0.126,-0.728 -0.338,-0.969 -0.12,-0.138 -0.132,-0.152 -0.783,-0.152 -0.129,0 -0.239,0.003 -0.331,0.007 z m 0,-4.348 c 0.194,-0.002 0.387,-0.008 0.482,-0.02 0.287,-0.037 0.513,-0.065 0.846,-0.29 0.945,-0.651 1.046,-1.754 1.046,-2.197 0,-1.227 -1,-1.322 -1.307,-1.322 -0.303,0 -0.72,0.045 -1.003,0.174 -0.025,0.057 -0.037,0.279 -0.053,0.531 -0.011,0.185 -0.011,1.983 -0.011,2.847 z"
                 style="fill:#000000;fill-opacity:1;fill-rule:nonzero;stroke:none"
                 id="path1096" />
            </g>
            <g
               id="g1098"
               transform="translate(487.0918,411.0388)">
              <path
                 d="m 0,0 c 0,1.397 -0.875,2.447 -1.918,3.026 0.469,0.562 0.862,1.238 0.862,2.197 0,0.893 -0.679,2.581 -3.248,2.581 -0.366,0 -0.7,-0.014 -0.979,-0.026 C -5.471,7.77 -5.632,7.764 -5.756,7.764 L -5.921,7.77 c -0.299,0.011 -0.892,0.034 -1.349,0.034 -0.624,0 -0.79,-0.43 -0.79,-0.683 0,-0.369 0.3,-0.657 0.683,-0.657 0.108,0 0.271,-0.013 0.42,-0.032 0.003,-0.005 0.023,-0.052 0.033,-0.229 0.026,-0.41 0.026,-0.783 0.026,-2.85 V 1.001 c 0,-1.235 0,-2.303 -0.061,-2.82 -0.019,-0.135 -0.034,-0.219 -0.048,-0.272 -0.076,-0.013 -0.136,-0.019 -0.169,-0.019 -0.384,0 -0.684,-0.288 -0.684,-0.656 0,-0.254 0.167,-0.683 0.791,-0.683 0.101,0 0.226,0.006 0.361,0.012 0.135,0.007 0.279,0.014 0.439,0.015 0.268,0.013 0.484,0.013 0.508,0.013 0.062,-0.001 0.412,-0.014 0.796,-0.039 l 0.523,-0.023 c 0.203,-0.01 0.375,-0.018 0.459,-0.018 C -1.369,-3.489 0,-1.734 0,0 m -4.676,6.268 c 0.079,0.006 0.159,0.009 0.224,0.009 1.139,0 1.228,-1.317 1.228,-1.721 0,-0.366 -0.126,-0.728 -0.338,-0.971 -0.12,-0.136 -0.132,-0.15 -0.782,-0.15 -0.132,0 -0.243,0.003 -0.332,0.006 z m 1.067,-8.178 c -0.303,0 -0.722,0.045 -1.003,0.174 -0.025,0.058 -0.037,0.279 -0.053,0.531 -0.011,0.185 -0.011,1.984 -0.011,2.848 V 1.92 c 0.194,-0.002 0.386,-0.008 0.482,-0.021 0.287,-0.036 0.513,-0.065 0.845,-0.29 0.946,-0.65 1.047,-1.753 1.047,-2.197 0,-1.226 -1,-1.322 -1.307,-1.322"
                 style="fill:#000000;fill-opacity:1;fill-rule:nonzero;stroke:none"
                 id="path1100" />
            </g>
            <g
               id="g1102"
               transform="translate(459.6621,418.8172)">
              <path
                 d="m 0,0 c -0.187,-0.008 -0.349,-0.015 -0.472,-0.015 l -0.165,0.006 c -0.299,0.011 -0.892,0.034 -1.349,0.034 -0.623,0 -0.79,-0.429 -0.79,-0.682 0,-0.369 0.299,-0.657 0.683,-0.657 0.108,0 0.271,-0.014 0.42,-0.032 0.002,-0.005 0.024,-0.053 0.033,-0.23 0.026,-0.41 0.026,-0.782 0.026,-2.849 v -2.352 c 0,-1.236 0,-2.303 -0.062,-2.821 -0.017,-0.134 -0.034,-0.219 -0.048,-0.271 -0.075,-0.013 -0.135,-0.019 -0.169,-0.019 -0.382,0 -0.683,-0.288 -0.683,-0.656 0,-0.254 0.166,-0.683 0.791,-0.683 0.099,0 0.226,0.006 0.359,0.012 0.135,0.007 0.28,0.014 0.442,0.015 0.267,0.013 0.483,0.013 0.507,0.013 0.061,-0.001 0.413,-0.014 0.796,-0.04 l 0.523,-0.023 c 0.203,-0.01 0.374,-0.018 0.459,-0.018 2.614,0 3.982,1.755 3.982,3.49 0,1.397 -0.875,2.447 -1.917,3.025 0.468,0.563 0.863,1.239 0.863,2.198 0,0.892 -0.68,2.58 -3.249,2.58 C 0.614,0.025 0.28,0.012 0,0 m 2.981,-8.367 c 0,-1.226 -1,-1.321 -1.307,-1.321 -0.302,0 -0.721,0.045 -1.002,0.174 C 0.648,-9.457 0.635,-9.235 0.619,-8.983 0.607,-8.798 0.607,-7 0.607,-6.135 v 0.277 C 0.801,-5.861 0.994,-5.867 1.089,-5.88 1.377,-5.916 1.604,-5.944 1.935,-6.169 2.88,-6.82 2.981,-7.923 2.981,-8.367 m -0.922,5.144 c 0,-0.366 -0.125,-0.728 -0.337,-0.97 C 1.603,-4.33 1.59,-4.344 0.939,-4.344 c -0.13,0 -0.242,0.003 -0.332,0.007 v 2.826 c 0.08,0.007 0.16,0.01 0.225,0.01 1.139,0 1.227,-1.318 1.227,-1.722"
                 style="fill:#000000;fill-opacity:1;fill-rule:nonzero;stroke:none"
                 id="path1104" />
            </g>
            <g
               id="g1106"
               transform="translate(485.4922,446.5618)">
              <path
                 d="m 0,0 c 0.108,0 0.271,-0.014 0.42,-0.032 0.003,-0.005 0.023,-0.053 0.033,-0.23 0.026,-0.41 0.026,-0.782 0.026,-2.85 v -2.351 c 0,-1.236 0,-2.304 -0.061,-2.821 C 0.399,-8.419 0.384,-8.503 0.37,-8.555 0.291,-8.569 0.231,-8.574 0.201,-8.574 c -0.389,0 -0.684,-0.283 -0.684,-0.657 0,-0.253 0.167,-0.682 0.791,-0.682 0.1,0 0.225,0.006 0.359,0.012 0.135,0.007 0.281,0.014 0.443,0.015 0.266,0.013 0.481,0.013 0.505,0.013 0.061,-0.001 0.412,-0.014 0.797,-0.039 l 0.523,-0.024 c 0.203,-0.009 0.375,-0.017 0.459,-0.017 2.614,0 3.982,1.755 3.982,3.488 0,1.396 -0.875,2.447 -1.917,3.027 0.468,0.562 0.862,1.237 0.862,2.197 0,0.893 -0.679,2.58 -3.248,2.58 C 2.707,1.339 2.374,1.326 2.094,1.314 1.906,1.306 1.745,1.299 1.62,1.299 L 1.457,1.306 C 1.159,1.317 0.564,1.339 0.106,1.339 -0.517,1.339 -0.683,0.91 -0.683,0.656 -0.683,0.288 -0.383,0 0,0 m 2.701,-0.197 c 0.079,0.007 0.159,0.01 0.224,0.01 1.138,0 1.226,-1.318 1.226,-1.722 0,-0.366 -0.126,-0.729 -0.336,-0.969 -0.12,-0.138 -0.132,-0.152 -0.782,-0.152 -0.13,0 -0.24,0.003 -0.332,0.007 z m 0,-4.348 c 0.194,-0.002 0.387,-0.008 0.481,-0.02 0.288,-0.037 0.514,-0.065 0.846,-0.29 0.946,-0.651 1.047,-1.754 1.047,-2.197 0,-1.227 -1.001,-1.322 -1.307,-1.322 -0.303,0 -0.722,0.045 -1.003,0.173 -0.024,0.058 -0.037,0.28 -0.053,0.532 -0.011,0.185 -0.011,1.983 -0.011,2.847 z"
                 style="fill:#000000;fill-opacity:1;fill-rule:nonzero;stroke:none"
                 id="path1108" />
            </g>
            <g
               id="g1110"
               transform="translate(471.7871,437.3312)">
              <path
                 d="m 0,0 c 0,-0.07 0.024,-0.682 0.831,-0.682 0.431,0 0.91,0.018 1.224,0.03 l 0.286,0.009 c 0.055,0 0.174,-0.006 0.315,-0.013 0.237,-0.012 0.528,-0.026 0.726,-0.026 0.534,0 0.778,0.353 0.778,0.682 0,0.326 -0.245,0.656 -0.711,0.656 L 3.402,0.658 c 0.023,0.15 0.071,0.331 0.139,0.52 L 4.245,3.259 H 6.494 L 7.563,0.432 C 7.469,0.317 7.415,0.173 7.415,0.014 c 0,-0.622 0.667,-0.655 0.962,-0.67 0.929,-0.026 1.911,-0.026 2.113,-0.026 0.82,0 0.844,0.612 0.844,0.682 0,0.326 -0.245,0.656 -0.71,0.656 -0.092,0 -0.227,0.009 -0.376,0.058 C 10.016,0.781 9.755,1.166 9.476,1.858 8.902,3.287 7.693,6.445 6.958,8.363 6.648,9.171 6.422,9.761 6.364,9.906 6.212,10.305 6.038,10.757 5.533,10.757 5.025,10.757 4.858,10.299 4.699,9.856 L 1.665,1.559 C 1.41,0.853 1.245,0.709 1.014,0.679 0.927,0.668 0.773,0.656 0.697,0.656 0.307,0.656 0,0.368 0,0 M 5.331,6.518 5.904,4.892 H 4.801 Z"
                 style="fill:#000000;fill-opacity:1;fill-rule:nonzero;stroke:none"
                 id="path1112" />
            </g>
            <g
               id="g1114"
               transform="translate(500.2783,436.4614)">
              <path
                 d="m 0,0 c 3.366,0 5.907,2.597 5.907,6.041 0,3.289 -2.397,5.585 -5.828,5.585 -4.027,0 -5.84,-3.391 -5.84,-5.8 C -5.761,3.02 -3.957,0 0,0 m -0.014,10.02 c 1.679,0 3.486,-1.362 3.486,-4.354 0,-3.718 -2.383,-4.006 -3.113,-4.006 -2.177,0 -3.698,1.867 -3.698,4.54 0,2.392 1.242,3.82 3.325,3.82"
                 style="fill:#000000;fill-opacity:1;fill-rule:nonzero;stroke:none"
                 id="path1116" />
            </g>
            <g
               id="g1118"
               transform="translate(458.2861,446.5618)">
              <path
                 d="M 0,0 C 0.06,0 0.183,-0.011 0.249,-0.004 0.25,-0.007 0.283,-0.064 0.295,-0.262 0.32,-0.672 0.32,-1.044 0.32,-3.112 v -2.351 c 0,-1.236 0,-2.304 -0.061,-2.819 C 0.24,-8.418 0.224,-8.503 0.21,-8.555 0.13,-8.569 0.071,-8.574 0.041,-8.574 c -0.384,0 -0.684,-0.289 -0.684,-0.657 0,-0.253 0.167,-0.682 0.791,-0.682 0.29,0 0.806,0.02 1.108,0.032 l 0.198,0.008 0.143,-0.005 c 0.295,-0.011 0.931,-0.035 1.504,-0.035 0.544,0 0.79,0.354 0.79,0.682 0,0.368 -0.301,0.657 -0.684,0.657 -0.103,-10e-4 -0.352,0.022 -0.5,0.01 -0.006,0.012 -0.029,0.066 -0.05,0.271 -0.062,0.526 -0.062,1.594 -0.062,2.83 v 2.351 c 0,2.068 0,2.44 0.025,2.853 0.008,0.135 0.022,0.206 0.026,0.229 C 2.754,-0.012 2.809,0 2.872,0 3.256,0 3.557,0.288 3.557,0.656 3.557,0.91 3.391,1.339 2.767,1.339 2.476,1.339 1.96,1.319 1.659,1.307 L 1.461,1.299 1.267,1.307 C 0.965,1.318 0.432,1.339 0.108,1.339 -0.517,1.339 -0.683,0.91 -0.683,0.656 -0.683,0.288 -0.383,0 0,0"
                 style="fill:#000000;fill-opacity:1;fill-rule:nonzero;stroke:none"
                 id="path1120" />
            </g>
            <g
               id="g1122"
               transform="translate(507.4648,412.6488)">
              <path
                 d="m 0,0 -0.058,0.075 c 0.967,1.008 1.422,2.015 1.422,3.138 0,1.069 -0.626,1.899 -1.163,2.285 -0.853,0.613 -1.885,0.696 -2.78,0.696 -0.263,0 -0.768,-0.016 -1.143,-0.028 C -3.934,6.159 -4.103,6.154 -4.15,6.154 l -0.162,0.005 c -0.296,0.012 -0.894,0.035 -1.353,0.035 -0.623,0 -0.79,-0.43 -0.79,-0.683 0,-0.369 0.3,-0.657 0.684,-0.657 0.108,0 0.271,-0.013 0.419,-0.031 0.003,-0.005 0.024,-0.053 0.034,-0.23 0.025,-0.41 0.025,-0.783 0.025,-2.85 v -2.352 c 0,-1.235 0,-2.303 -0.061,-2.82 -0.018,-0.135 -0.035,-0.219 -0.048,-0.272 -0.076,-0.013 -0.137,-0.019 -0.168,-0.019 -0.384,0 -0.685,-0.288 -0.685,-0.656 0,-0.254 0.166,-0.683 0.791,-0.683 0.345,0 1.012,0.029 1.251,0.04 l 0.142,-0.005 c 0.294,-0.011 0.931,-0.035 1.506,-0.035 0.544,0 0.791,0.354 0.791,0.683 0,0.368 -0.3,0.656 -0.684,0.656 -0.104,0 -0.363,0.024 -0.499,0.01 -0.009,0.016 -0.03,0.072 -0.053,0.27 -0.058,0.505 -0.061,1.506 -0.061,2.675 l 0.984,-0.016 c 0.101,-0.135 0.227,-0.31 0.37,-0.507 0.291,-0.402 0.647,-0.892 0.977,-1.325 l 0.171,-0.225 c 0.71,-0.937 1.178,-1.556 1.819,-1.898 0.447,-0.241 0.878,-0.323 1.703,-0.323 h 0.948 c 0.81,0 0.898,0.478 0.898,0.683 0,0.362 -0.314,0.656 -0.697,0.656 -0.067,0 -0.22,0 -0.432,0.034 C 3.493,-3.658 3.019,-3.584 2.371,-2.9 1.705,-2.187 0.914,-1.174 0,0 M -1.479,0.933 C -1.804,0.704 -2.7,0.791 -3.071,0.865 v 3.733 c 0.119,0.009 0.264,0.016 0.425,0.016 1.51,0 1.736,-1.313 1.736,-2.096 0,-0.881 -0.291,-1.395 -0.569,-1.585"
                 style="fill:#000000;fill-opacity:1;fill-rule:nonzero;stroke:none"
                 id="path1124" />
            </g>
            <g
               id="g1126"
               transform="translate(494.5449,419.029)">
              <path
                 d="m 0,0 c -4.028,0 -5.841,-3.391 -5.841,-5.799 0,-2.807 1.803,-5.827 5.76,-5.827 3.368,0 5.908,2.596 5.908,6.04 C 5.827,-2.297 3.431,0 0,0 m 0.28,-9.966 c -2.177,0 -3.698,1.867 -3.698,4.541 0,2.391 1.242,3.819 3.324,3.819 1.679,0 3.485,-1.362 3.485,-4.354 0,-3.717 -2.381,-4.006 -3.111,-4.006"
                 style="fill:#000000;fill-opacity:1;fill-rule:nonzero;stroke:none"
                 id="path1128" />
            </g>
            <g
               id="g1130"
               transform="translate(506.3447,404.9566)">
              <path
                 d="m 0,0 c -4.028,0 -5.841,-3.391 -5.841,-5.799 0,-2.807 1.803,-5.827 5.761,-5.827 3.367,0 5.907,2.596 5.907,6.04 C 5.827,-2.297 3.431,0 0,0 m 0.28,-9.966 c -2.177,0 -3.698,1.867 -3.698,4.541 0,2.391 1.242,3.819 3.325,3.819 1.679,0 3.486,-1.362 3.486,-4.354 0,-3.717 -2.383,-4.006 -3.113,-4.006"
                 style="fill:#000000;fill-opacity:1;fill-rule:nonzero;stroke:none"
                 id="path1132" />
            </g>
            <g
               id="g1134"
               transform="translate(478.7295,428.101)">
              <path
                 d="m 0,0 c 0,-2.807 1.804,-5.827 5.762,-5.827 3.366,0 5.907,2.597 5.907,6.041 0,3.289 -2.398,5.585 -5.828,5.585 C 1.813,5.799 0,2.408 0,0 m 5.748,4.194 c 1.679,0 3.485,-1.363 3.485,-4.354 0,-3.718 -2.381,-4.007 -3.112,-4.007 -2.178,0 -3.698,1.867 -3.698,4.541 0,2.392 1.243,3.82 3.325,3.82"
                 style="fill:#000000;fill-opacity:1;fill-rule:nonzero;stroke:none"
                 id="path1136" />
            </g>
            <g
               id="g1138"
               transform="translate(507.1318,446.5618)">
              <path
                 d="m 0,0 c 0.059,0 0.179,-0.011 0.247,-0.004 0.001,-0.002 0.034,-0.059 0.045,-0.258 0.026,-0.41 0.026,-0.782 0.026,-2.85 v -2.351 c 0,-1.236 0,-2.304 -0.061,-2.821 C 0.238,-8.419 0.223,-8.503 0.209,-8.555 0.129,-8.569 0.07,-8.574 0.04,-8.574 c -0.383,0 -0.685,-0.289 -0.685,-0.657 0,-0.253 0.167,-0.682 0.791,-0.682 0.291,0 0.807,0.02 1.107,0.032 l 0.198,0.008 0.143,-0.005 c 0.294,-0.011 0.931,-0.035 1.504,-0.035 0.544,0 0.791,0.354 0.791,0.682 0,0.368 -0.3,0.657 -0.683,0.657 -0.106,0 -0.362,0.027 -0.5,0.01 -0.008,0.015 -0.03,0.071 -0.051,0.271 -0.062,0.526 -0.062,1.594 -0.062,2.83 v 2.351 c 0,2.068 0,2.44 0.025,2.853 0.008,0.136 0.023,0.206 0.028,0.229 C 2.752,-0.012 2.808,0 2.872,0 3.255,0 3.555,0.288 3.555,0.656 3.555,0.91 3.389,1.339 2.764,1.339 2.474,1.339 1.955,1.319 1.656,1.307 L 1.46,1.299 1.265,1.307 C 0.965,1.318 0.43,1.339 0.106,1.339 -0.519,1.339 -0.685,0.91 -0.685,0.656 -0.685,0.288 -0.384,0 0,0"
                 style="fill:#000000;fill-opacity:1;fill-rule:nonzero;stroke:none"
                 id="path1140" />
            </g>
            <g
               id="g1142"
               transform="translate(435.709,417.503)">
              <path
                 d="m 0,0 c 0.108,0 0.271,-0.013 0.419,-0.031 0.003,-0.005 0.023,-0.053 0.033,-0.23 0.027,-0.411 0.027,-0.783 0.027,-2.85 v -2.352 c 0,-1.236 0,-2.303 -0.062,-2.82 C 0.398,-8.418 0.383,-8.503 0.369,-8.555 0.293,-8.568 0.232,-8.574 0.2,-8.574 c -0.383,0 -0.682,-0.288 -0.682,-0.656 0,-0.254 0.166,-0.683 0.789,-0.683 0.101,0 0.228,0.006 0.362,0.012 0.135,0.007 0.279,0.014 0.441,0.015 0.266,0.013 0.481,0.013 0.498,0.013 0.043,-0.001 0.162,-0.011 0.333,-0.024 l 0.745,-0.055 c 0.587,-0.041 1.309,-0.081 1.896,-0.081 1.848,0 3.392,0.593 4.467,1.715 1.016,1.073 1.6,2.59 1.6,4.165 0,1.883 -0.793,3.102 -1.459,3.794 -1.665,1.721 -4.099,1.7 -5.519,1.7 L 3.42,1.339 C 2.858,1.339 2.276,1.32 1.918,1.308 L 1.62,1.3 1.458,1.306 C 1.159,1.317 0.564,1.339 0.107,1.339 -0.517,1.339 -0.684,0.91 -0.684,0.657 -0.684,0.288 -0.384,0 0,0 m 2.763,-0.293 c 0.14,0.014 0.321,0.026 0.457,0.026 1.658,0 2.898,-0.223 3.952,-1.33 0.512,-0.539 1.122,-1.493 1.122,-2.971 0,-1.155 -0.352,-2.247 -0.9,-2.785 -0.682,-0.683 -1.693,-1.074 -2.772,-1.074 -1.412,0 -1.743,0.238 -1.768,0.238 0,0 0,0 0,-10e-4 -0.02,0.058 -0.052,0.232 -0.074,0.767 -0.013,0.251 -0.026,1.467 -0.026,2.869 v 1.657 c 0,0.88 -10e-4,2.005 0.009,2.604"
                 style="fill:#000000;fill-opacity:1;fill-rule:nonzero;stroke:none"
                 id="path1144" />
            </g>
            <g
               id="g1146"
               transform="translate(434.6562,403.4306)">
              <path
                 d="M 0,0 C 0.058,0 0.232,0 0.35,-0.031 0.628,-0.111 0.702,-0.132 0.934,-0.72 L 4.243,-8.997 C 4.515,-9.685 4.68,-10.1 5.224,-10.1 c 0.473,0 0.638,0.367 0.866,0.875 l 0.216,0.471 c 0.313,0.668 0.908,2.095 1.735,4.072 l 0.345,0.835 c 0.551,1.327 1.032,2.486 1.153,2.794 0.285,0.719 0.444,0.938 0.507,0.981 C 10.16,0 10.325,0 10.38,0 c 0.485,0 0.738,0.337 0.738,0.67 0,0.248 -0.17,0.669 -0.804,0.669 -0.277,0 -0.645,-0.019 -0.875,-0.031 L 9.272,1.3 C 9.22,1.3 9.115,1.304 8.98,1.311 8.705,1.322 8.317,1.339 7.963,1.339 7.155,1.339 7.092,0.817 7.092,0.657 7.092,0.331 7.341,0 7.815,0 H 7.866 C 7.854,-0.036 7.841,-0.077 7.825,-0.125 7.604,-0.852 6.414,-3.989 5.545,-6.139 L 3.48,-0.635 C 3.399,-0.424 3.305,-0.181 3.241,0 3.709,-0.011 3.982,0.329 3.982,0.67 3.982,0.92 3.859,1.339 3.046,1.339 2.7,1.339 2.313,1.322 2.052,1.309 L 1.803,1.3 1.489,1.309 C 1.164,1.322 0.675,1.339 0.239,1.339 -0.563,1.339 -0.684,0.92 -0.684,0.67 -0.684,0.288 -0.39,0 0,0"
                 style="fill:#000000;fill-opacity:1;fill-rule:nonzero;stroke:none"
                 id="path1148" />
            </g>
            <g
               id="g1150"
               transform="translate(474.8359,394.8562)">
              <path
                 d="M 0,0 C -0.128,0 -0.253,0.018 -0.377,0.059 -0.608,0.125 -0.868,0.51 -1.146,1.202 -1.74,2.679 -3.012,6.001 -3.737,7.894 -4.009,8.606 -4.205,9.116 -4.258,9.252 -4.412,9.65 -4.587,10.1 -5.089,10.1 -5.597,10.1 -5.764,9.643 -5.924,9.2 L -8.959,0.902 C -9.21,0.202 -9.383,0.052 -9.61,0.023 -9.697,0.012 -9.851,0 -9.926,0 c -0.39,0 -0.697,-0.288 -0.697,-0.655 0,-0.07 0.024,-0.684 0.831,-0.684 0.431,0 0.909,0.019 1.223,0.03 l 0.287,0.01 c 0.054,0 0.173,-0.006 0.313,-0.013 0.237,-0.012 0.53,-0.027 0.729,-0.027 0.532,0 0.776,0.354 0.776,0.684 0,0.325 -0.245,0.655 -0.71,0.655 l -0.048,0.002 c 0.024,0.151 0.073,0.332 0.141,0.52 l 0.703,2.081 h 2.25 l 1.067,-2.828 c -0.092,-0.114 -0.146,-0.258 -0.146,-0.417 0,-0.622 0.667,-0.656 0.961,-0.67 0.929,-0.027 1.911,-0.027 2.114,-0.027 0.819,0 0.844,0.614 0.844,0.684 C 0.712,-0.33 0.467,0 0,0 m -5.822,4.236 0.53,1.626 0.572,-1.626 z"
                 style="fill:#000000;fill-opacity:1;fill-rule:nonzero;stroke:none"
                 id="path1152" />
            </g>
            <g
               id="g1154"
               transform="translate(546.1318,503.1746)">
              <path
                 d="m 0,0 -33.848,33.847 c -4.307,4.307 -10.15,6.727 -16.241,6.727 h -47.868 c -6.093,0 -11.935,-2.42 -16.241,-6.727 L -148.047,0 c -4.309,-4.308 -6.728,-10.151 -6.728,-16.244 V -64.11 c 0,-6.093 2.419,-11.934 6.728,-16.242 l 33.849,-33.848 c 4.306,-4.306 10.148,-6.727 16.241,-6.727 h 47.866 c 6.093,0 11.936,2.421 16.243,6.727 L 0,-80.352 c 4.308,4.308 6.727,10.15 6.727,16.242 v 47.868 C 6.727,-10.151 4.308,-4.308 0,0 m -80.366,24.019 17.796,-10.073 -10.093,3.103 c -1.343,0.466 -2.823,0.238 -3.963,-0.612 l -3.388,-2.528 -10.6,-3.129 -3.824,1.719 z M -6.824,-12.404 H -8.22 c -0.032,0 -0.062,-0.009 -0.095,-0.01 -0.033,10e-4 -0.063,0.01 -0.095,0.01 h -107.536 c -1.385,0 -2.507,-1.123 -2.507,-2.508 0,-1.384 1.122,-2.507 2.507,-2.507 h 104.514 v -1.695 c -5.661,-1.85 -11.387,-6.192 -12.465,-13.439 h -1.365 c -1.77,0 -3.211,-1.441 -3.211,-3.211 v -3.435 h -81.973 c -1.385,0 -2.508,-1.122 -2.508,-2.507 0,-1.385 1.123,-2.507 2.508,-2.507 h 78.865 v -63.023 l -3.919,-3.92 c -4.131,-4.128 -9.733,-6.449 -15.575,-6.449 h -45.898 c -5.841,0 -11.443,2.321 -15.573,6.449 l -1.976,1.977 v 63.661 c 0,1.651 -1.252,3.016 -2.858,3.192 v 4.311 c 0,1.77 -1.44,3.211 -3.212,3.211 h -0.839 c -1.096,4.421 -4.084,8.802 -9.632,9.818 v 3.332 c 0,1.772 -1.441,3.213 -3.211,3.213 h -1.039 v 11.883 h 0.456 c 1.128,0 2.187,0.603 2.764,1.573 0.583,0.982 0.606,2.167 0.06,3.168 -1.288,2.371 -3.85,8.322 0.182,12.355 2.426,2.424 5.642,3.32 8.401,2.336 2.359,-0.843 3.874,-2.917 4.151,-5.692 0.113,-1.13 0.825,-2.128 1.856,-2.602 1.022,-0.472 2.237,-0.365 3.161,0.276 l 9.691,6.709 12.277,-5.518 c 0.051,-0.024 0.104,-0.045 0.158,-0.065 0.86,-0.318 1.818,-0.35 2.692,-0.09 l 10.997,3.245 c 0.487,0.144 0.94,0.371 1.345,0.673 l 3.193,2.383 21.063,-6.474 c 0.455,-0.159 0.924,-0.239 1.4,-0.239 0.146,0 0.293,0.008 0.44,0.022 0.075,0.009 0.147,0.02 0.222,0.033 l 9.919,1.928 30.877,-8.417 h -105.938 c -1.385,0 -2.507,-1.123 -2.507,-2.508 0,-1.384 1.122,-2.507 2.507,-2.507 H -6.824 Z"
                 style="fill:#000000;fill-opacity:1;fill-rule:nonzero;stroke:none"
                 id="path1156" />
            </g>
            <g
               id="g1158"
               transform="translate(435.709,446.5618)">
              <path
                 d="m 0,0 c 0.108,0 0.271,-0.014 0.419,-0.032 0.003,-0.005 0.023,-0.053 0.033,-0.23 0.027,-0.41 0.027,-0.782 0.027,-2.85 v -2.351 c 0,-1.236 0,-2.304 -0.062,-2.821 C 0.398,-8.419 0.383,-8.503 0.369,-8.555 0.293,-8.568 0.233,-8.574 0.2,-8.574 c -0.383,0 -0.682,-0.289 -0.682,-0.657 0,-0.253 0.166,-0.682 0.789,-0.682 0.101,0 0.228,0.006 0.362,0.012 0.135,0.007 0.279,0.014 0.441,0.015 0.266,0.013 0.481,0.013 0.498,0.013 0.043,-0.001 0.162,-0.011 0.333,-0.024 l 0.744,-0.055 c 0.587,-0.041 1.31,-0.082 1.897,-0.082 1.849,0 3.393,0.593 4.467,1.716 1.016,1.071 1.6,2.589 1.6,4.165 0,1.882 -0.793,3.101 -1.459,3.793 C 7.526,1.36 5.117,1.341 3.671,1.341 L 3.42,1.339 C 2.858,1.339 2.276,1.32 1.918,1.308 L 1.62,1.299 1.458,1.306 C 1.159,1.317 0.564,1.339 0.107,1.339 -0.517,1.339 -0.684,0.91 -0.684,0.656 -0.684,0.288 -0.384,0 0,0 m 2.763,-0.293 c 0.142,0.014 0.321,0.025 0.457,0.025 1.658,0 2.898,-0.222 3.952,-1.329 0.512,-0.539 1.122,-1.493 1.122,-2.971 0,-1.156 -0.352,-2.247 -0.9,-2.786 -0.682,-0.682 -1.692,-1.073 -2.772,-1.073 -1.414,0 -1.744,0.238 -1.768,0.238 0,0 0,0 0,-10e-4 -0.02,0.058 -0.052,0.232 -0.074,0.767 -0.013,0.251 -0.026,1.467 -0.026,2.869 v 1.656 c 0,0.88 -10e-4,2.006 0.009,2.605"
                 style="fill:#000000;fill-opacity:1;fill-rule:nonzero;stroke:none"
                 id="path1160" />
            </g>
            <g
               id="g1162"
               transform="translate(462.3057,400.278)">
              <path
                 d="m 0,0 -0.374,0.295 c -1.271,0.992 -1.408,1.322 -1.408,1.791 0,0.718 0.551,0.974 1.066,0.974 C 0.18,3.06 0.413,2.718 0.447,2.657 0.481,2.584 0.545,2.323 0.558,2.188 0.637,1.559 1.096,1.51 1.235,1.51 c 0.158,0 0.67,0.063 0.67,0.883 0,0.69 0.032,1.1 0.045,1.276 l 0.009,0.14 c 0,0.322 -0.223,0.669 -0.71,0.669 -0.048,0 -0.11,0.005 -0.335,0.052 -0.426,0.101 -0.862,0.149 -1.375,0.149 -2,0 -3.343,-1.198 -3.343,-2.981 0,-1.239 0.565,-2.208 1.949,-3.345 l 0.599,-0.492 C -0.13,-3.069 0.07,-3.462 0.07,-4.1 c 0,-0.579 -0.417,-1.201 -1.334,-1.201 -0.459,0 -1.253,0.117 -1.414,0.908 -0.026,0.127 -0.026,0.269 -0.026,0.373 0,0.57 -0.421,0.722 -0.67,0.722 -0.142,0 -0.613,-0.052 -0.683,-0.753 l -0.01,-0.148 c -0.022,-0.276 -0.057,-0.745 -0.057,-1.304 0,-0.357 0,-0.762 0.518,-1.023 L -3.6,-6.529 c 0.579,-0.282 1.248,-0.419 2.042,-0.419 0.913,0 1.725,0.23 2.352,0.668 1.017,0.721 1.379,1.861 1.379,2.687 C 2.173,-2.221 1.584,-1.247 0,0"
                 style="fill:#000000;fill-opacity:1;fill-rule:nonzero;stroke:none"
                 id="path1164" />
            </g>
            <g
               id="g1166"
               transform="translate(482.2891,396.4412)">
              <path
                 d="m 0,0 c -0.169,0 -0.576,-0.066 -0.688,-0.68 -0.078,-0.451 -0.169,-0.49 -0.257,-0.528 -0.241,-0.101 -0.792,-0.101 -1.058,-0.101 -0.716,0 -0.878,0.064 -0.908,0.087 -0.013,0.017 -0.052,0.101 -0.068,0.46 -0.01,0.198 -0.005,1.042 -10e-4,1.666 l 0.002,1.276 c 0.481,-0.011 1.151,-0.031 1.369,-0.056 0.161,-0.016 0.21,-0.05 0.205,-0.065 0.026,-0.09 0.026,-0.158 0.026,-0.27 0,-0.397 0.288,-0.696 0.67,-0.696 0.111,0 0.671,0.039 0.671,0.829 0,0.092 0.025,0.551 0.05,0.803 0.022,0.251 0.055,0.427 0.076,0.541 0.023,0.125 0.033,0.21 0.033,0.259 0,0.444 -0.332,0.683 -0.643,0.683 -0.308,0 -0.487,-0.202 -0.572,-0.322 C -1.143,3.867 -1.327,3.851 -1.398,3.845 -1.54,3.833 -2.151,3.824 -2.978,3.821 v 2.798 c 0.489,-0.006 1.147,-0.018 1.271,-0.032 0.395,-0.044 0.488,-0.105 0.481,-0.108 0.019,-0.043 0.036,-0.167 0.036,-0.255 0,-0.492 0.343,-0.75 0.683,-0.75 0.258,0 0.567,0.16 0.66,0.628 0.021,0.113 0.04,0.42 0.055,0.664 l 0.017,0.251 c 0.02,0.191 0.048,0.316 0.07,0.404 0.02,0.095 0.041,0.184 0.041,0.286 0,0.457 -0.316,0.696 -0.629,0.696 -0.177,0 -0.305,-0.065 -0.332,-0.084 C -0.709,8.297 -0.882,8.28 -1.08,8.269 -1.385,8.256 -4.022,8.257 -4.087,8.256 l -0.55,0.027 c -0.301,0.014 -0.672,0.014 -0.988,0.014 -0.623,0 -0.789,-0.429 -0.789,-0.683 0,-0.368 0.3,-0.656 0.683,-0.656 0.108,0 0.27,-0.014 0.419,-0.032 0.003,-0.005 0.024,-0.054 0.034,-0.23 0.025,-0.41 0.025,-0.782 0.025,-2.85 V 1.495 c 0,-1.237 0,-2.304 -0.06,-2.822 -0.019,-0.134 -0.035,-0.218 -0.048,-0.271 -0.076,-0.013 -0.136,-0.019 -0.169,-0.019 -0.383,0 -0.685,-0.288 -0.685,-0.656 0,-0.253 0.167,-0.682 0.791,-0.682 0.102,0 0.227,0.006 0.362,0.012 0.134,0.007 0.279,0.014 0.441,0.014 0.266,0.013 0.481,0.013 0.506,0.013 0.195,0 0.507,-0.013 1.028,-0.039 l 0.294,-0.008 c 0.496,-0.015 1.146,-0.033 1.979,-0.033 0.526,0 1.07,0 1.282,0.791 0.072,0.306 0.189,1.26 0.189,1.429 C 0.657,-0.022 0.067,0 0,0 m -0.721,3.458 v 0 l -0.001,10e-4 z"
                 style="fill:#000000;fill-opacity:1;fill-rule:nonzero;stroke:none"
                 id="path1168" />
            </g>
            <g
               id="g1170"
               transform="translate(454.2041,410.5454)">
              <path
                 d="m 0,0 c -0.169,0 -0.576,-0.066 -0.688,-0.679 -0.077,-0.452 -0.169,-0.491 -0.259,-0.529 -0.24,-0.101 -0.79,-0.101 -1.057,-0.101 -0.715,0 -0.877,0.065 -0.908,0.087 -0.012,0.017 -0.051,0.101 -0.067,0.46 -0.01,0.199 -0.005,1.043 -10e-4,1.667 l 0.002,1.275 c 0.48,-0.01 1.15,-0.031 1.369,-0.055 0.161,-0.017 0.21,-0.05 0.205,-0.066 0.026,-0.09 0.026,-0.158 0.026,-0.27 0,-0.397 0.288,-0.696 0.67,-0.696 0.111,0 0.671,0.04 0.671,0.83 0,0.092 0.025,0.551 0.05,0.802 0.022,0.251 0.055,0.427 0.076,0.541 0.023,0.125 0.033,0.21 0.033,0.26 L 0.056,4.208 H -0.521 C -0.83,4.208 -1.011,4.003 -1.093,3.886 -1.143,3.867 -1.327,3.852 -1.398,3.845 -1.54,3.833 -2.151,3.824 -2.978,3.822 V 6.62 C -2.489,6.614 -1.832,6.601 -1.707,6.587 -1.312,6.544 -1.219,6.483 -1.226,6.48 -1.208,6.437 -1.19,6.313 -1.19,6.225 c 0,-0.492 0.343,-0.75 0.683,-0.75 0.259,0 0.568,0.16 0.66,0.627 0.021,0.114 0.04,0.42 0.055,0.665 l 0.017,0.251 c 0.02,0.191 0.048,0.317 0.07,0.404 0.02,0.094 0.041,0.183 0.041,0.285 0,0.458 -0.316,0.697 -0.629,0.697 C -0.47,8.404 -0.598,8.339 -0.625,8.32 -0.709,8.298 -0.882,8.28 -1.08,8.269 -1.385,8.256 -4.022,8.257 -4.087,8.256 l -0.55,0.027 c -0.301,0.014 -0.672,0.014 -0.988,0.014 -0.623,0 -0.789,-0.429 -0.789,-0.683 0,-0.368 0.3,-0.656 0.683,-0.656 0.108,0 0.27,-0.014 0.419,-0.032 0.003,-0.005 0.024,-0.053 0.034,-0.23 0.025,-0.41 0.025,-0.782 0.025,-2.849 V 1.495 c 0,-1.236 0,-2.304 -0.06,-2.821 -0.019,-0.135 -0.035,-0.219 -0.048,-0.272 -0.076,-0.013 -0.138,-0.019 -0.169,-0.019 -0.383,0 -0.685,-0.287 -0.685,-0.655 0,-0.254 0.167,-0.683 0.791,-0.683 0.102,0 0.227,0.006 0.362,0.012 0.134,0.007 0.278,0.014 0.441,0.015 0.266,0.012 0.481,0.012 0.506,0.012 0.195,0 0.507,-0.013 1.028,-0.039 l 0.294,-0.008 c 0.496,-0.014 1.146,-0.033 1.979,-0.033 0.526,0 1.07,0 1.281,0.792 0.073,0.306 0.19,1.259 0.19,1.428 C 0.657,-0.022 0.066,0 0,0 M -0.482,3.324 -0.208,3.169 C -0.211,3.166 -0.25,3.128 -0.321,3.097 l -0.171,0.155 z"
                 style="fill:#000000;fill-opacity:1;fill-rule:nonzero;stroke:none"
                 id="path1172" />
            </g>
            <g
               id="g1174"
               transform="translate(451.6943,401.9762)">
              <path
                 d="m 0,0 c 0,-1.24 0.564,-2.209 1.948,-3.345 l 0.6,-0.492 c 1.126,-0.93 1.326,-1.323 1.326,-1.961 0,-0.579 -0.417,-1.201 -1.334,-1.201 -0.458,0 -1.253,0.117 -1.414,0.907 C 1.1,-5.964 1.1,-5.822 1.1,-5.718 c 0,0.57 -0.421,0.722 -0.67,0.722 -0.103,0 -0.616,-0.035 -0.682,-0.753 l -0.011,-0.153 c -0.021,-0.276 -0.057,-0.743 -0.057,-1.299 0,-0.358 0,-0.764 0.519,-1.024 l 0.006,-0.002 c 0.578,-0.282 1.247,-0.419 2.042,-0.419 0.91,0 1.723,0.23 2.352,0.668 1.014,0.722 1.377,1.861 1.377,2.687 0,1.373 -0.588,2.346 -2.172,3.593 L 3.43,-1.404 c -1.269,0.992 -1.408,1.322 -1.408,1.791 0,0.718 0.55,0.974 1.066,0.974 0.897,0 1.126,-0.338 1.163,-0.406 C 4.286,0.883 4.35,0.623 4.361,0.49 4.44,-0.14 4.899,-0.189 5.039,-0.189 c 0.157,0 0.67,0.064 0.67,0.884 0,0.69 0.03,1.101 0.044,1.277 L 5.762,2.111 C 5.762,2.433 5.539,2.78 5.053,2.78 5.005,2.78 4.942,2.784 4.719,2.832 4.293,2.933 3.855,2.98 3.343,2.98 1.343,2.98 0,1.782 0,0"
                 style="fill:#000000;fill-opacity:1;fill-rule:nonzero;stroke:none"
                 id="path1176" />
            </g>
            <g
               id="g1178"
               transform="translate(478.2256,413.4434)">
              <path
                 d="m 0,0 c 0,3.289 -2.397,5.586 -5.828,5.586 -4.027,0 -5.841,-3.392 -5.841,-5.8 0,-2.806 1.803,-5.827 5.762,-5.827 C -2.541,-6.041 0,-3.444 0,0 m -9.246,0.16 c 0,2.392 1.242,3.82 3.325,3.82 1.679,0 3.484,-1.363 3.484,-4.354 0,-3.718 -2.38,-4.007 -3.111,-4.007 -2.178,0 -3.698,1.867 -3.698,4.541"
                 style="fill:#000000;fill-opacity:1;fill-rule:nonzero;stroke:none"
                 id="path1180" />
            </g>
            <g
               id="g1182"
               transform="translate(456.3369,432.3742)">
              <path
                 d="m 0,0 c 0.058,0 0.179,-0.01 0.247,-0.003 0.001,-0.002 0.034,-0.059 0.045,-0.258 0.025,-0.411 0.025,-0.783 0.025,-2.851 v -2.351 c 0,-1.236 0,-2.303 -0.06,-2.82 C 0.238,-8.418 0.223,-8.503 0.209,-8.555 0.133,-8.568 0.071,-8.574 0.04,-8.574 c -0.384,0 -0.684,-0.288 -0.684,-0.656 0,-0.254 0.167,-0.683 0.79,-0.683 0.291,0 0.807,0.02 1.107,0.032 l 0.198,0.008 0.143,-0.005 c 0.294,-0.011 0.931,-0.035 1.506,-0.035 0.542,0 0.789,0.354 0.789,0.683 0,0.368 -0.3,0.656 -0.683,0.656 -0.104,0 -0.359,0.027 -0.5,0.01 -0.009,0.015 -0.029,0.071 -0.05,0.271 -0.062,0.527 -0.062,1.594 -0.062,2.83 v 2.351 c 0,2.068 0,2.44 0.025,2.854 0.008,0.134 0.022,0.205 0.026,0.228 C 2.751,-0.012 2.807,0 2.872,0 3.255,0 3.555,0.288 3.555,0.657 3.555,0.91 3.389,1.339 2.765,1.339 2.474,1.339 1.954,1.319 1.654,1.307 L 1.46,1.3 1.264,1.307 C 0.964,1.319 0.43,1.339 0.105,1.339 -0.518,1.339 -0.684,0.91 -0.684,0.657 -0.684,0.288 -0.384,0 0,0"
                 style="fill:#000000;fill-opacity:1;fill-rule:nonzero;stroke:none"
                 id="path1184" />
            </g>
            <g
               id="g1186"
               transform="translate(445.9482,404.0874)">
              <path
                 d="m 0,0 c 0,-0.369 0.3,-0.657 0.684,-0.657 0.058,0.001 0.177,-0.01 0.249,-0.004 0.001,-0.003 0.033,-0.059 0.045,-0.257 0.025,-0.41 0.025,-0.783 0.025,-2.85 V -6.12 c 0,-1.235 0,-2.303 -0.061,-2.818 C 0.923,-9.074 0.906,-9.159 0.893,-9.212 0.817,-9.225 0.757,-9.231 0.725,-9.231 c -0.384,0 -0.684,-0.288 -0.684,-0.656 0,-0.254 0.166,-0.683 0.79,-0.683 0.291,0 0.806,0.02 1.107,0.032 l 0.199,0.008 0.143,-0.005 c 0.295,-0.011 0.932,-0.035 1.503,-0.035 0.544,0 0.791,0.354 0.791,0.683 0,0.368 -0.301,0.656 -0.684,0.656 C 3.786,-9.232 3.536,-9.205 3.391,-9.22 3.385,-9.208 3.361,-9.155 3.34,-8.949 3.277,-8.423 3.277,-7.355 3.277,-6.12 v 2.352 c 0,2.067 0,2.44 0.027,2.853 0.007,0.134 0.02,0.205 0.026,0.228 0.107,0.018 0.162,0.03 0.226,0.03 0.382,0 0.684,0.288 0.684,0.657 0,0.253 -0.167,0.682 -0.791,0.682 -0.29,0 -0.805,-0.02 -1.106,-0.031 L 2.145,0.643 1.949,0.65 C 1.648,0.662 1.114,0.682 0.791,0.682 0.167,0.682 0,0.253 0,0"
                 style="fill:#000000;fill-opacity:1;fill-rule:nonzero;stroke:none"
                 id="path1188" />
            </g>
            <g
               id="g1190"
               transform="translate(448.3281,446.271)">
              <path
                 d="m 0,0 c 0.107,0 0.271,-0.014 0.42,-0.032 0.003,-0.005 0.023,-0.053 0.033,-0.23 0.026,-0.41 0.026,-0.782 0.026,-2.85 v -2.351 c 0,-1.236 0,-2.304 -0.061,-2.821 C 0.399,-8.419 0.384,-8.503 0.37,-8.555 0.294,-8.568 0.234,-8.574 0.201,-8.574 c -0.384,0 -0.684,-0.289 -0.684,-0.656 0,-0.254 0.167,-0.683 0.791,-0.683 0.101,0 0.226,0.006 0.361,0.012 0.135,0.007 0.279,0.014 0.441,0.015 0.266,0.013 0.482,0.013 0.506,0.013 0.196,0 0.507,-0.014 1.029,-0.04 l 0.293,-0.008 c 0.497,-0.014 1.146,-0.032 1.979,-0.032 0.526,0 1.07,0 1.281,0.79 0.073,0.307 0.191,1.261 0.191,1.429 0,0.754 -0.591,0.776 -0.658,0.776 -0.169,0 -0.575,-0.065 -0.688,-0.679 C 4.966,-8.089 4.874,-8.128 4.786,-8.165 4.546,-8.267 3.994,-8.267 3.729,-8.267 c -0.716,0 -0.878,0.065 -0.909,0.087 -0.012,0.018 -0.051,0.102 -0.067,0.46 -0.011,0.199 -0.006,1.043 -0.002,1.667 l 0.003,1.276 c 0.48,-0.011 1.15,-0.032 1.368,-0.056 0.161,-0.017 0.21,-0.051 0.205,-0.065 0.027,-0.09 0.027,-0.158 0.027,-0.271 0,-0.397 0.288,-0.696 0.669,-0.696 0.112,0 0.671,0.04 0.671,0.83 0,0.091 0.026,0.55 0.05,0.802 0.023,0.252 0.056,0.427 0.076,0.541 0.024,0.125 0.034,0.21 0.034,0.26 0,0.443 -0.333,0.683 -0.643,0.683 -0.309,0 -0.487,-0.203 -0.572,-0.322 C 4.589,-3.09 4.404,-3.106 4.333,-3.112 4.191,-3.124 3.58,-3.134 2.754,-3.136 v 2.797 c 0.488,-0.006 1.146,-0.018 1.27,-0.031 0.395,-0.044 0.489,-0.105 0.482,-0.109 0.017,-0.043 0.035,-0.166 0.035,-0.254 0,-0.493 0.344,-0.75 0.683,-0.75 0.258,0 0.567,0.16 0.661,0.627 0.02,0.113 0.04,0.42 0.054,0.664 L 5.956,0.06 c 0.022,0.19 0.05,0.316 0.07,0.404 0.021,0.094 0.041,0.183 0.041,0.286 0,0.457 -0.316,0.696 -0.629,0.696 C 5.262,1.446 5.134,1.381 5.106,1.361 5.022,1.339 4.85,1.322 4.651,1.312 4.347,1.299 1.709,1.3 1.645,1.299 L 1.095,1.325 C 0.792,1.339 0.423,1.339 0.106,1.339 -0.517,1.339 -0.683,0.91 -0.683,0.656 -0.683,0.288 -0.383,0 0,0 m 5.01,-3.499 z"
                 style="fill:#000000;fill-opacity:1;fill-rule:nonzero;stroke:none"
                 id="path1192" />
            </g>
          </g>
        </g>
      </g>
    </g>
  </g>
</svg>
