<?xml version="1.0" encoding="UTF-8" standalone="no"?>
<svg
   xmlns:dc="http://purl.org/dc/elements/1.1/"
   xmlns:cc="http://creativecommons.org/ns#"
   xmlns:rdf="http://www.w3.org/1999/02/22-rdf-syntax-ns#"
   xmlns:svg="http://www.w3.org/2000/svg"
   xmlns="http://www.w3.org/2000/svg"
   xmlns:sodipodi="http://sodipodi.sourceforge.net/DTD/sodipodi-0.dtd"
   xmlns:inkscape="http://www.inkscape.org/namespaces/inkscape"
   inkscape:version="1.0 (6e3e5246a0, 2020-05-07)"
   sodipodi:docname="logocorhor.svg"
   id="svg8"
   version="1.1"
   viewBox="0 0 158.2535 60.747989"
   height="60.747986mm"
   width="158.25349mm">
  <defs
     id="defs2">
    <clipPath
       clipPathUnits="userSpaceOnUse"
       id="clipPath28">
      <path
         d="M 0,0 H 1280 V 720 H 0 Z"
         id="path26" />
    </clipPath>
    <clipPath
       clipPathUnits="userSpaceOnUse"
       id="clipPath71">
      <path
         d="M 0,0 H 1280 V 720 H 0 Z"
         id="path69" />
    </clipPath>
    <clipPath
       clipPathUnits="userSpaceOnUse"
       id="clipPath285">
      <path
         d="M 0,0 H 1280 V 720 H 0 Z"
         id="path283" />
    </clipPath>
    <clipPath
       clipPathUnits="userSpaceOnUse"
       id="clipPath303">
      <path
         d="M 0,0 H 1280 V 720 H 0 Z"
         id="path301" />
    </clipPath>
    <clipPath
       clipPathUnits="userSpaceOnUse"
       id="clipPath992">
      <path
         d="M 0,0 H 1280 V 720 H 0 Z"
         id="path990" />
    </clipPath>
    <clipPath
       clipPathUnits="userSpaceOnUse"
       id="clipPath1204">
      <path
         d="M 0,0 H 1280 V 720 H 0 Z"
         id="path1202" />
    </clipPath>
    <clipPath
       clipPathUnits="userSpaceOnUse"
       id="clipPath1418">
      <path
         d="M 0,0 H 1280 V 720 H 0 Z"
         id="path1416" />
    </clipPath>
    <clipPath
       clipPathUnits="userSpaceOnUse"
       id="clipPath1436">
      <path
         d="M 0,0 H 1280 V 720 H 0 Z"
         id="path1434" />
    </clipPath>
    <clipPath
       clipPathUnits="userSpaceOnUse"
       id="clipPath1738">
      <path
         d="M 0,0 H 1280 V 720 H 0 Z"
         id="path1736" />
    </clipPath>
    <clipPath
       clipPathUnits="userSpaceOnUse"
       id="clipPath1952">
      <path
         d="M 0,0 H 1280 V 720 H 0 Z"
         id="path1950" />
    </clipPath>
    <clipPath
       clipPathUnits="userSpaceOnUse"
       id="clipPath1970">
      <path
         d="M 0,0 H 1280 V 720 H 0 Z"
         id="path1968" />
    </clipPath>
    <clipPath
       clipPathUnits="userSpaceOnUse"
       id="clipPath2162">
      <path
         d="M 0,0 H 1280 V 720 H 0 Z"
         id="path2160" />
    </clipPath>
    <clipPath
       clipPathUnits="userSpaceOnUse"
       id="clipPath2376">
      <path
         d="M 0,0 H 1280 V 720 H 0 Z"
         id="path2374" />
    </clipPath>
    <clipPath
       clipPathUnits="userSpaceOnUse"
       id="clipPath2394">
      <path
         d="M 0,0 H 1280 V 720 H 0 Z"
         id="path2392" />
    </clipPath>
  </defs>
  <sodipodi:namedview
     inkscape:window-maximized="0"
     inkscape:window-y="38"
     inkscape:window-x="674"
     inkscape:window-height="943"
     inkscape:window-width="1222"
     showgrid="false"
     inkscape:document-rotation="0"
     inkscape:current-layer="g2158"
     inkscape:document-units="mm"
     inkscape:cy="97.329746"
     inkscape:cx="151.52464"
     inkscape:zoom="0.49497475"
     inkscape:pageshadow="2"
     inkscape:pageopacity="0.0"
     borderopacity="1.0"
     bordercolor="#666666"
     pagecolor="#ffffff"
     id="base" />
  <metadata
     id="metadata5">
    <rdf:RDF>
      <cc:Work
         rdf:about="">
        <dc:format>image/svg+xml</dc:format>
        <dc:type
           rdf:resource="http://purl.org/dc/dcmitype/StillImage" />
        <dc:title></dc:title>
      </cc:Work>
    </rdf:RDF>
  </metadata>
  <g
     transform="translate(7.0665489,-74.916212)"
     id="layer1"
     inkscape:groupmode="layer"
     inkscape:label="Layer 1">
    <g
       id="g53"
       inkscape:label="1_ApID PAViseu MHCViseu"
       transform="matrix(0.35277777,0,0,-0.35277777,-82.14682,316.95214)">
      <g
         id="g974"
         inkscape:label="1_ApID PAViseu MHCViseu"
         transform="translate(-188.89008,278.75759)">
        <g
           id="g1720"
           inkscape:label="1_ApID PAViseu MHCViseu"
           transform="translate(-168.11997,-26.19585)">
          <g
             id="g2148"
             inkscape:label="1_ApID PAViseu MHCViseu"
             transform="translate(154.13182,30.963269)">
            <g
               id="g2156">
              <g
                 id="g2158"
                 clip-path="url(#clipPath2162)">
                <g
                   id="g2164"
                   transform="translate(664.5757,351.6281)">
                  <path
                     d="m 0,0 h -8.872 c -1.842,0 -2.569,-0.919 -3.073,-2.551 l -9.893,-34.795 c -1.532,-5.414 -2.767,-14.698 -2.767,-14.698 0,0 -0.908,9.284 -2.453,14.799 L -36.94,-2.551 C -37.463,-0.919 -38.177,0 -39.911,0 h -9.687 c -1.84,0 -2.447,-0.919 -1.94,-2.551 l 19.082,-64.286 c 0.504,-1.737 1.32,-2.552 3.152,-2.552 h 8.882 c 1.846,0 2.768,0.815 3.275,2.552 L 1.821,-2.551 C 2.347,-0.919 1.72,0 0,0"
                     style="fill:#d39c0a;fill-opacity:1;fill-rule:nonzero;stroke:none"
                     id="path2166" />
                </g>
                <g
                   id="g2168"
                   transform="translate(686.4312,351.6281)">
                  <path
                     d="m 0,0 h -8.877 c -1.838,0 -2.439,-0.823 -2.439,-2.652 v -64.084 c 0,-1.838 0.601,-2.653 2.439,-2.653 H 0 c 1.834,0 2.447,0.815 2.447,2.653 V -2.652 C 2.447,-0.823 1.834,0 0,0"
                     style="fill:#d39c0a;fill-opacity:1;fill-rule:nonzero;stroke:none"
                     id="path2170" />
                </g>
                <g
                   id="g2172"
                   transform="translate(737.6548,320.6016)">
                  <path
                     d="m 0,0 -17.763,6.333 c -1.609,0.61 -4.184,1.938 -4.184,5.509 v 1.529 c 0,5.002 3.377,7.348 10.013,7.348 6.534,0 9.891,-2.346 9.891,-7.348 v -2.347 c 0,-1.737 0.618,-2.553 2.36,-2.553 h 8.552 c 1.84,0 2.572,0.816 2.572,2.553 v 4.184 c 0,8.57 -5.726,16.633 -23.575,16.633 -17.864,0 -23.18,-8.063 -23.18,-16.633 V 9.187 c 0,-6.122 4.392,-11.33 9.286,-13.162 l 15.831,-5.921 c 4.585,-1.734 8.669,-3.366 8.669,-7.555 v -3.266 c 0,-4.996 -3.975,-7.34 -10.812,-7.34 -6.931,0 -10.824,2.344 -10.824,7.34 v 4.594 c 0,1.843 -0.618,2.661 -2.441,2.661 h -8.577 c -1.728,0 -2.446,-0.818 -2.446,-2.661 v -6.422 c 0,-8.58 6.213,-16.639 24.385,-16.639 18.264,0 24.294,8.059 24.294,16.639 v 7.855 C 12.051,-7.146 6.951,-2.447 0,0"
                     style="fill:#d39c0a;fill-opacity:1;fill-rule:nonzero;stroke:none"
                     id="path2174" />
                </g>
                <g
                   id="g2176"
                   transform="translate(799.8213,293.6632)">
                  <path
                     d="m 0,0 h -24.611 v 18.98 h 21.842 c 1.845,0 2.672,0.712 2.672,2.449 v 6.128 c 0,1.831 -0.827,2.446 -2.672,2.446 h -21.842 v 16.53 h 23.587 c 1.743,0 2.544,0.719 2.544,2.554 v 6.427 c 0,1.837 -0.801,2.451 -2.544,2.451 h -34.903 c -1.837,0 -2.452,-0.823 -2.452,-2.652 V -8.772 c 0,-1.837 0.615,-2.652 2.452,-2.652 H 0 c 1.821,0 2.551,0.71 2.551,2.552 V -2.45 C 2.551,-0.609 1.821,0 0,0"
                     style="fill:#d39c0a;fill-opacity:1;fill-rule:nonzero;stroke:none"
                     id="path2178" />
                </g>
                <g
                   id="g2180"
                   transform="translate(860.3433,351.6281)">
                  <path
                     d="m 0,0 h -8.869 c -1.829,0 -2.452,-0.823 -2.452,-2.652 v -48.473 c 0,-5.106 -4.293,-7.653 -11.133,-7.653 -6.825,0 -10.906,2.547 -10.906,7.653 v 48.473 c 0,1.829 -0.71,2.652 -2.447,2.652 h -8.878 c -1.84,0 -2.555,-0.823 -2.555,-2.652 v -50.92 c 0,-8.58 6.33,-16.638 24.786,-16.638 18.496,0 24.818,8.058 24.818,16.638 v 50.92 C 2.364,-0.823 1.838,0 0,0"
                     style="fill:#d39c0a;fill-opacity:1;fill-rule:nonzero;stroke:none"
                     id="path2182" />
                </g>
                <g
                   id="g2184"
                   transform="translate(616.1904,243.5257)">
                  <path
                     d="M 0,0 V -6.98 C 0,-7.4 -0.12,-7.579 -0.54,-7.579 h -1.827 c -0.389,0 -0.539,0.179 -0.539,0.599 v 19.173 c 0,0.42 0.15,0.599 0.539,0.599 h 6.082 c 5.153,0 6.8,-2.157 6.8,-4.613 V 4.614 C 10.515,2.157 8.868,0 3.715,0 Z M 0,10.306 V 2.487 h 3.715 c 2.696,0 3.894,0.988 3.894,2.606 v 2.606 c 0,1.618 -1.198,2.607 -3.894,2.607 z"
                     style="fill:#d39c0a;fill-opacity:1;fill-rule:nonzero;stroke:none"
                     id="path2186" />
                </g>
                <g
                   id="g2188"
                   transform="translate(629.0425,251.944)">
                  <path
                     d="m 0,0 c 0,2.457 1.678,4.614 6.8,4.614 5.154,0 6.831,-2.157 6.831,-4.614 v -11.624 c 0,-2.456 -1.677,-4.613 -6.831,-4.613 -5.122,0 -6.8,2.157 -6.8,4.613 z m 10.695,-0.479 c 0,1.617 -1.198,2.606 -3.895,2.606 -2.666,0 -3.864,-0.989 -3.864,-2.606 v -10.665 c 0,-1.618 1.198,-2.607 3.864,-2.607 2.697,0 3.895,0.989 3.895,2.607 z"
                     style="fill:#d39c0a;fill-opacity:1;fill-rule:nonzero;stroke:none"
                     id="path2190" />
                </g>
                <g
                   id="g2192"
                   transform="translate(649.1436,238.4328)">
                  <path
                     d="m 0,0 h 7.669 c 0.39,0 0.569,-0.12 0.569,-0.539 v -1.378 c 0,-0.42 -0.179,-0.569 -0.569,-0.569 H -2.457 c -0.33,0 -0.479,0.209 -0.479,0.599 v 19.173 c 0,0.419 0.149,0.599 0.569,0.599 h 1.827 c 0.39,0 0.54,-0.18 0.54,-0.599 z"
                     style="fill:#d39c0a;fill-opacity:1;fill-rule:nonzero;stroke:none"
                     id="path2194" />
                </g>
                <g
                   id="g2196"
                   transform="translate(658.9697,251.944)">
                  <path
                     d="m 0,0 c 0,2.457 1.677,4.614 6.8,4.614 5.153,0 6.831,-2.157 6.831,-4.614 v -11.624 c 0,-2.456 -1.678,-4.613 -6.831,-4.613 -5.123,0 -6.8,2.157 -6.8,4.613 z m 10.695,-0.479 c 0,1.617 -1.198,2.606 -3.895,2.606 -2.666,0 -3.864,-0.989 -3.864,-2.606 v -10.665 c 0,-1.618 1.198,-2.607 3.864,-2.607 2.697,0 3.895,0.989 3.895,2.607 z"
                     style="fill:#d39c0a;fill-opacity:1;fill-rule:nonzero;stroke:none"
                     id="path2198" />
                </g>
                <g
                   id="g2200"
                   transform="translate(689.2266,255.4192)">
                  <path
                     d="m 0,0 5.422,-18.574 c 0.18,-0.569 -0.03,-0.899 -0.659,-0.899 H 1.437 c -0.628,0 -0.898,0.33 -1.048,0.899 l -0.779,2.876 h -4.973 l -0.779,-2.876 c -0.15,-0.569 -0.42,-0.899 -1.048,-0.899 h -3.026 c -0.629,0 -0.839,0.33 -0.659,0.899 L -5.453,0 c 0.18,0.599 0.479,0.899 1.109,0.899 h 3.235 C -0.479,0.899 -0.18,0.599 0,0 m -1.888,-10.186 c -0.479,1.828 -0.899,5.992 -0.928,6.262 -0.06,-0.42 -0.539,-4.524 -1.019,-6.262 l -0.45,-1.617 h 2.816 z"
                     style="fill:#d39c0a;fill-opacity:1;fill-rule:nonzero;stroke:none"
                     id="path2202" />
                </g>
                <g
                   id="g2204"
                   transform="translate(707.561,244.2149)">
                  <path
                     d="m 0,0 2.936,-7.37 c 0.21,-0.539 -0.18,-0.898 -0.839,-0.898 h -3.236 c -0.569,0 -0.689,0.479 -0.868,0.898 l -2.637,6.621 H -6.891 V -7.37 c 0,-0.629 -0.209,-0.898 -0.838,-0.898 h -3.236 c -0.629,0 -0.868,0.269 -0.868,0.898 v 18.574 c 0,0.629 0.239,0.899 0.868,0.899 h 6.471 c 5.632,0 7.609,-2.546 7.609,-5.123 V 4.374 C 3.115,2.666 2.247,0.958 0,0 M -6.891,8.059 V 3.295 h 2.397 c 1.468,0 2.726,0.569 2.726,1.948 v 0.868 c 0,1.378 -1.258,1.948 -2.726,1.948 z"
                     style="fill:#d39c0a;fill-opacity:1;fill-rule:nonzero;stroke:none"
                     id="path2206" />
                </g>
                <g
                   id="g2208"
                   transform="translate(727.7812,240.8296)">
                  <path
                     d="m 0,0 c 0,-1.947 -1.138,-3.835 -4.074,-4.674 l 2.846,-2.516 c 0.479,-0.419 0.509,-0.839 0.12,-1.228 l -1.618,-1.738 c -0.359,-0.389 -0.809,-0.419 -1.229,-0.06 l -5.661,5.213 c -4.165,0.509 -5.693,2.726 -5.693,5.003 v 10.605 c 0,2.577 2.008,5.123 7.64,5.123 5.632,0 7.669,-2.546 7.669,-5.123 z m -10.366,0.749 c 0,-1.378 1.229,-1.947 2.697,-1.947 1.468,0 2.726,0.569 2.726,1.947 v 9.107 c 0,1.378 -1.258,1.947 -2.726,1.947 -1.468,0 -2.697,-0.569 -2.697,-1.947 z"
                     style="fill:#d39c0a;fill-opacity:1;fill-rule:nonzero;stroke:none"
                     id="path2210" />
                </g>
                <g
                   id="g2212"
                   transform="translate(734.8203,241.6982)">
                  <path
                     d="m 0,0 c 0,-1.378 1.229,-1.947 2.696,-1.947 1.468,0 2.726,0.569 2.726,1.947 v 13.721 c 0,0.629 0.24,0.899 0.87,0.899 h 3.235 c 0.629,0 0.839,-0.27 0.839,-0.899 v -14.59 c 0,-2.576 -2.037,-5.123 -7.67,-5.123 -5.632,0 -7.639,2.547 -7.639,5.123 v 14.59 c 0,0.629 0.239,0.899 0.869,0.899 h 3.235 C -0.21,14.62 0,14.35 0,13.721 Z"
                     style="fill:#d39c0a;fill-opacity:1;fill-rule:nonzero;stroke:none"
                     id="path2214" />
                </g>
                <g
                   id="g2216"
                   transform="translate(748.4512,235.9464)">
                  <path
                     d="m 0,0 c -0.629,0 -0.869,0.269 -0.869,0.899 v 18.574 c 0,0.629 0.24,0.898 0.869,0.898 h 10.246 c 0.629,0 0.899,-0.209 0.899,-0.838 v -2.337 c 0,-0.629 -0.27,-0.869 -0.899,-0.869 H 4.074 v -3.894 h 5.693 c 0.629,0 0.899,-0.21 0.899,-0.839 V 9.407 c 0,-0.629 -0.27,-0.869 -0.899,-0.869 H 4.074 V 4.044 h 6.471 c 0.629,0 0.899,-0.209 0.899,-0.839 V 0.869 C 11.444,0.24 11.174,0 10.545,0 Z"
                     style="fill:#d39c0a;fill-opacity:1;fill-rule:nonzero;stroke:none"
                     id="path2218" />
                </g>
                <g
                   id="g2220"
                   transform="translate(761.3921,251.4346)">
                  <path
                     d="m 0,0 c 0,2.577 2.007,5.123 7.64,5.123 5.632,0 7.669,-2.546 7.669,-5.123 v -10.605 c 0,-2.576 -2.037,-5.123 -7.669,-5.123 -5.633,0 -7.64,2.547 -7.64,5.123 z m 10.366,-0.869 c 0,1.378 -1.259,1.948 -2.726,1.948 -1.468,0 -2.697,-0.57 -2.697,-1.948 v -8.867 c 0,-1.378 1.229,-1.948 2.697,-1.948 1.467,0 2.726,0.57 2.726,1.948 z"
                     style="fill:#d39c0a;fill-opacity:1;fill-rule:nonzero;stroke:none"
                     id="path2222" />
                </g>
                <g
                   id="g2224"
                   transform="translate(783.8906,239.9907)">
                  <path
                     d="m 0,0 h 5.872 c 0.629,0 0.899,-0.21 0.899,-0.839 v -2.337 c 0,-0.629 -0.27,-0.868 -0.899,-0.868 H -4.194 c -0.539,0 -0.749,0.299 -0.749,0.898 v 18.574 c 0,0.63 0.24,0.899 0.869,0.899 h 3.235 C -0.209,16.327 0,16.058 0,15.428 Z"
                     style="fill:#d39c0a;fill-opacity:1;fill-rule:nonzero;stroke:none"
                     id="path2226" />
                </g>
                <g
                   id="g2228"
                   transform="translate(822.5654,247.0308)">
                  <path
                     d="m 0,0 c 0.629,0 0.899,-0.21 0.899,-0.839 v -5.362 c 0,-2.577 -1.737,-5.123 -7.37,-5.123 -5.632,0 -7.37,2.546 -7.37,5.123 V 4.404 c 0,2.576 1.738,5.123 7.37,5.123 5.633,0 7.37,-2.547 7.37,-5.123 V 3.326 c 0,-0.63 -0.21,-0.899 -0.839,-0.899 h -3.085 c -0.63,0 -0.87,0.269 -0.87,0.899 v 0.209 c 0,1.378 -1.048,1.947 -2.516,1.947 -1.468,0 -2.486,-0.569 -2.486,-1.947 v -8.868 c 0,-1.378 1.018,-1.947 2.486,-1.947 1.468,0 2.516,0.569 2.516,1.947 v 1.289 h -2.456 c -0.629,0 -0.899,0.239 -0.899,0.869 v 2.336 C -7.25,-0.21 -6.98,0 -6.351,0 Z"
                     style="fill:#d39c0a;fill-opacity:1;fill-rule:nonzero;stroke:none"
                     id="path2230" />
                </g>
                <g
                   id="g2232"
                   transform="translate(830.5049,236.8451)">
                  <path
                     d="m 0,0 c 0,-0.629 -0.21,-0.899 -0.839,-0.899 h -3.236 c -0.629,0 -0.868,0.27 -0.868,0.899 v 18.574 c 0,0.629 0.239,0.899 0.868,0.899 h 3.236 C -0.21,19.473 0,19.203 0,18.574 Z"
                     style="fill:#d39c0a;fill-opacity:1;fill-rule:nonzero;stroke:none"
                     id="path2234" />
                </g>
                <g
                   id="g2236"
                   transform="translate(847.4897,240.8296)">
                  <path
                     d="m 0,0 c 0,-2.576 -1.737,-5.123 -7.37,-5.123 -5.631,0 -7.37,2.547 -7.37,5.123 v 10.605 c 0,2.577 1.739,5.123 7.37,5.123 5.633,0 7.37,-2.546 7.37,-5.123 V 9.227 C 0,8.598 -0.209,8.328 -0.839,8.328 h -3.086 c -0.629,0 -0.868,0.27 -0.868,0.899 v 0.509 c 0,1.378 -1.049,1.948 -2.517,1.948 -1.468,0 -2.486,-0.57 -2.486,-1.948 V 0.869 c 0,-1.378 1.018,-1.948 2.486,-1.948 1.468,0 2.517,0.57 2.517,1.948 v 0.958 c 0,0.63 0.239,0.899 0.868,0.899 h 3.086 C -0.209,2.726 0,2.457 0,1.827 Z"
                     style="fill:#d39c0a;fill-opacity:1;fill-rule:nonzero;stroke:none"
                     id="path2238" />
                </g>
                <g
                   id="g2240"
                   transform="translate(848.9878,251.4346)">
                  <path
                     d="m 0,0 c 0,2.577 2.007,5.123 7.639,5.123 5.632,0 7.67,-2.546 7.67,-5.123 v -10.605 c 0,-2.576 -2.038,-5.123 -7.67,-5.123 -5.632,0 -7.639,2.547 -7.639,5.123 z m 10.366,-0.869 c 0,1.378 -1.259,1.948 -2.727,1.948 -1.468,0 -2.696,-0.57 -2.696,-1.948 v -8.867 c 0,-1.378 1.228,-1.948 2.696,-1.948 1.468,0 2.727,0.57 2.727,1.948 z"
                     style="fill:#d39c0a;fill-opacity:1;fill-rule:nonzero;stroke:none"
                     id="path2242" />
                </g>
                <g
                   id="g2244"
                   transform="translate(803.7529,255.7281)">
                  <path
                     d="m 0,0 -2.576,-3.794 c 0.403,-0.314 0.659,-0.758 0.659,-1.368 v -8.868 c 0,-1.378 -1.258,-1.947 -2.726,-1.947 -1.468,0 -2.696,0.569 -2.696,1.947 v 8.868 c 0,0.748 0.369,1.251 0.934,1.56 l 1.961,4.426 c -0.068,0 -0.13,0.005 -0.199,0.005 -5.632,0 -7.64,-2.546 -7.64,-5.123 v -10.605 c 0,-2.576 2.008,-5.122 7.64,-5.122 5.632,0 7.669,2.546 7.669,5.122 V -4.294 C 3.026,-2.617 2.155,-0.958 0,0"
                     style="fill:#d39c0a;fill-opacity:1;fill-rule:nonzero;stroke:none"
                     id="path2246" />
                </g>
                <g
                   id="g2248"
                   transform="translate(580.4092,359.3831)">
                  <path
                     d="m 0,0 -36.019,36.02 c -4.584,4.583 -10.802,7.158 -17.284,7.158 h -50.939 c -6.483,0 -12.7,-2.575 -17.283,-7.158 L -157.545,0 c -4.585,-4.585 -7.16,-10.801 -7.16,-17.285 v -50.939 c 0,-6.482 2.575,-12.699 7.16,-17.283 l 36.02,-36.02 c 4.583,-4.584 10.8,-7.159 17.283,-7.159 h 50.937 c 6.484,0 12.702,2.575 17.286,7.159 L 0,-85.507 c 4.583,4.584 7.159,10.802 7.159,17.283 v 50.941 C 7.159,-10.801 4.583,-4.585 0,0 m 4.503,-67.436 c 0,-6.281 -2.495,-12.307 -6.938,-16.751 l -34.905,-34.906 c -4.443,-4.441 -10.468,-6.937 -16.751,-6.937 h -49.364 c -6.283,0 -12.307,2.496 -16.749,6.937 l -34.907,34.906 c -4.444,4.444 -6.939,10.468 -6.939,16.751 v 49.364 c 0,6.283 2.495,12.309 6.939,16.751 l 34.907,34.905 c 4.442,4.444 10.466,6.938 16.749,6.938 h 49.365 c 6.282,0 12.307,-2.494 16.75,-6.938 L -2.435,-1.321 C 2.008,-5.763 4.503,-11.789 4.503,-18.07 Z"
                     style="fill:#efd7a8;fill-opacity:1;fill-rule:nonzero;stroke:none"
                     id="path2250" />
                </g>
                <g
                   id="g2252"
                   transform="translate(495.3174,277.6021)">
                  <path
                     d="m 0,0 c 1.189,-1.039 2.792,-1.566 4.76,-1.566 0.889,0 2.168,0.175 3.111,0.677 0.46,0.267 0.46,0.603 0.46,1.215 v 1.492 c 0,0.545 -10e-4,0.934 0.025,1.353 0.008,0.133 0.021,0.203 0.024,0.226 0.107,0.019 0.164,0.031 0.229,0.031 0.382,0 0.682,0.287 0.682,0.654 0,0.253 -0.166,0.681 -0.79,0.681 -0.288,0 -0.803,-0.021 -1.102,-0.032 L 7.202,4.723 7.04,4.729 C 6.742,4.74 6.149,4.763 5.691,4.763 5.07,4.763 4.904,4.335 4.904,4.082 c 0,-0.367 0.3,-0.654 0.681,-0.654 0.108,0 0.269,-0.014 0.3,-0.02 C 5.965,3.386 6.005,3.371 6.02,3.374 6.062,3.228 6.062,2.752 6.062,2.59 L 6.084,0.358 C 5.887,0.244 5.346,0.154 4.853,0.154 3.663,0.154 2.625,0.579 1.764,1.417 1.336,1.833 0.527,3.053 0.527,4.694 c 0,1.289 0.411,2.386 1.101,2.933 0.882,0.696 1.75,0.755 2.493,0.755 1.538,0 2.442,-0.503 2.643,-0.809 C 6.896,7.361 6.947,7.086 6.958,6.935 7.033,6.276 7.486,6.224 7.624,6.224 c 0.162,0 0.693,0.062 0.693,0.855 0,0.939 0.047,1.382 0.073,1.621 0.013,0.121 0.02,0.204 0.02,0.269 0,0.31 -0.208,0.644 -0.71,0.694 C 7.382,9.676 6.957,9.728 6.714,9.785 6.597,9.809 5.537,10.023 4.56,10.023 3.462,10.023 2.031,9.918 0.711,9.096 -0.848,8.113 -1.781,6.294 -1.781,4.229 -1.781,2.251 -0.82,0.714 0,0"
                     style="fill:#efd7a8;fill-opacity:1;fill-rule:nonzero;stroke:none"
                     id="path2254" />
                </g>
                <g
                   id="g2256"
                   transform="translate(528.6377,253.5143)">
                  <path
                     d="M 0,0 C -0.289,0 -0.804,-0.021 -1.104,-0.033 L -1.301,-0.04 -1.46,-0.034 C -1.757,-0.023 -2.353,0 -2.81,0 c -0.623,0 -0.789,-0.428 -0.789,-0.681 0,-0.367 0.3,-0.654 0.682,-0.654 0.108,0 0.27,-0.014 0.301,-0.02 0.079,-0.022 0.114,-0.044 0.133,-0.034 0.043,-0.146 0.043,-0.621 0.043,-0.783 l 0.023,-2.233 c -0.198,-0.114 -0.739,-0.204 -1.233,-0.204 -1.19,0 -2.228,0.425 -3.088,1.263 -0.429,0.416 -1.238,1.636 -1.238,3.277 0,1.289 0.411,2.386 1.101,2.932 0.882,0.697 1.75,0.756 2.493,0.756 1.538,0 2.442,-0.503 2.643,-0.809 0.133,-0.213 0.184,-0.487 0.196,-0.639 0.072,-0.641 0.488,-0.71 0.664,-0.71 0.163,0 0.695,0.062 0.695,0.855 0,0.939 0.047,1.382 0.072,1.621 0.014,0.121 0.021,0.204 0.021,0.269 0,0.31 -0.21,0.644 -0.712,0.694 -0.318,0.012 -0.742,0.065 -0.984,0.122 -0.046,0.009 -1.144,0.238 -2.154,0.238 -1.099,0 -2.529,-0.106 -3.851,-0.927 -1.559,-0.983 -2.492,-2.802 -2.492,-4.868 0,-1.978 0.961,-3.515 1.783,-4.228 1.189,-1.039 2.79,-1.567 4.758,-1.567 0.89,0 2.169,0.176 3.11,0.677 0.463,0.266 0.463,0.604 0.463,1.216 v 1.492 c 0,0.544 -0.002,0.934 0.025,1.353 0.008,0.133 0.02,0.203 0.021,0.226 0.109,0.019 0.166,0.031 0.23,0.031 0.382,0 0.682,0.287 0.682,0.654 C 0.788,-0.428 0.622,0 0,0"
                     style="fill:#efd7a8;fill-opacity:1;fill-rule:nonzero;stroke:none"
                     id="path2258" />
                </g>
                <g
                   id="g2260"
                   transform="translate(517.2256,248.9641)">
                  <path
                     d="M 0,0 C -0.103,-0.001 -0.35,0.022 -0.498,0.01 -0.503,0.022 -0.527,0.076 -0.548,0.28 -0.61,0.805 -0.61,1.869 -0.61,3.102 v 2.343 c 0,2.062 0,2.432 0.026,2.844 0.007,0.135 0.02,0.205 0.025,0.228 0.107,0.018 0.163,0.03 0.226,0.03 0.382,0 0.682,0.287 0.682,0.654 0,0.253 -0.165,0.681 -0.788,0.681 -0.29,0 -0.803,-0.02 -1.103,-0.032 L -1.74,9.842 -1.935,9.849 c -0.299,0.012 -0.832,0.033 -1.154,0.033 -0.622,0 -0.788,-0.428 -0.788,-0.681 0,-0.367 0.299,-0.654 0.681,-0.654 0.058,0 0.182,-0.011 0.247,-0.004 0.002,-0.003 0.035,-0.06 0.046,-0.257 0.025,-0.409 0.025,-0.779 0.025,-2.841 V 3.102 c 0,-1.233 0,-2.297 -0.06,-2.811 C -2.957,0.156 -2.974,0.072 -2.987,0.019 -3.067,0.006 -3.125,0 -3.156,0 c -0.382,0 -0.681,-0.287 -0.681,-0.654 0,-0.253 0.166,-0.68 0.789,-0.68 0.289,0 0.802,0.02 1.103,0.031 l 0.198,0.008 0.143,-0.004 c 0.293,-0.012 0.928,-0.035 1.498,-0.035 0.542,0 0.788,0.352 0.788,0.68 C 0.682,-0.287 0.382,0 0,0"
                     style="fill:#efd7a8;fill-opacity:1;fill-rule:nonzero;stroke:none"
                     id="path2262" />
                </g>
                <g
                   id="g2264"
                   transform="translate(494.7964,300.2455)">
                  <path
                     d="m 0,0 c 0.108,0 0.271,-0.013 0.418,-0.032 0.003,-0.005 0.023,-0.052 0.033,-0.229 0.026,-0.408 0.026,-0.779 0.026,-2.84 v -2.344 c 0,-1.233 0,-2.297 -0.061,-2.812 C 0.397,-8.392 0.382,-8.475 0.368,-8.528 0.292,-8.541 0.233,-8.547 0.2,-8.547 c -0.382,0 -0.682,-0.287 -0.682,-0.654 0,-0.252 0.166,-0.68 0.788,-0.68 0.101,0 0.226,0.006 0.361,0.012 0.133,0.007 0.277,0.014 0.439,0.015 0.266,0.013 0.48,0.013 0.503,0.013 0.061,-0.001 0.412,-0.014 0.795,-0.039 l 0.521,-0.024 c 0.203,-0.01 0.373,-0.017 0.457,-0.017 2.606,0 3.971,1.749 3.971,3.477 0,1.392 -0.874,2.439 -1.912,3.017 0.468,0.56 0.86,1.234 0.86,2.19 0,0.89 -0.678,2.572 -3.238,2.572 C 2.699,1.335 2.367,1.322 2.087,1.31 1.901,1.302 1.739,1.295 1.616,1.295 L 1.454,1.301 C 1.159,1.313 0.563,1.335 0.106,1.335 -0.516,1.335 -0.681,0.907 -0.681,0.654 -0.681,0.287 -0.382,0 0,0 m 2.692,-0.196 c 0.079,0.007 0.159,0.01 0.223,0.01 1.136,0 1.224,-1.314 1.224,-1.716 0,-0.364 -0.125,-0.726 -0.337,-0.967 C 3.683,-3.006 3.67,-3.02 3.022,-3.02 c -0.129,0 -0.239,0.003 -0.33,0.007 z m 0,-4.334 c 0.192,-0.002 0.385,-0.008 0.479,-0.021 0.287,-0.036 0.513,-0.064 0.845,-0.288 0.941,-0.649 1.042,-1.748 1.042,-2.191 0,-1.222 -0.996,-1.317 -1.303,-1.317 -0.302,0 -0.718,0.045 -1,0.173 -0.024,0.057 -0.037,0.278 -0.052,0.53 -0.011,0.184 -0.011,1.976 -0.011,2.838 z"
                     style="fill:#efd7a8;fill-opacity:1;fill-rule:nonzero;stroke:none"
                     id="path2266" />
                </g>
                <g
                   id="g2268"
                   transform="translate(516.5718,264.8365)">
                  <path
                     d="m 0,0 c 0,1.392 -0.871,2.44 -1.911,3.016 0.467,0.56 0.859,1.234 0.859,2.191 0,0.889 -0.677,2.571 -3.238,2.571 -0.364,0 -0.697,-0.013 -0.976,-0.024 C -5.453,7.746 -5.613,7.739 -5.737,7.739 l -0.164,0.006 c -0.298,0.011 -0.89,0.033 -1.345,0.033 -0.621,0 -0.787,-0.427 -0.787,-0.68 0,-0.367 0.299,-0.655 0.68,-0.655 0.108,0 0.27,-0.013 0.419,-0.031 0.003,-0.005 0.024,-0.053 0.033,-0.229 0.026,-0.409 0.026,-0.78 0.026,-2.84 V 0.998 c 0,-1.232 0,-2.296 -0.062,-2.811 -0.018,-0.135 -0.034,-0.219 -0.047,-0.271 -0.076,-0.013 -0.135,-0.019 -0.168,-0.019 -0.382,0 -0.682,-0.287 -0.682,-0.654 0,-0.253 0.166,-0.681 0.788,-0.681 0.101,0 0.226,0.006 0.36,0.013 0.134,0.006 0.278,0.014 0.437,0.014 0.268,0.013 0.483,0.013 0.507,0.013 0.061,-10e-4 0.411,-0.013 0.793,-0.039 l 0.522,-0.023 c 0.202,-0.01 0.373,-0.018 0.458,-0.018 C -1.364,-3.478 0,-1.729 0,0 m -4.661,6.247 c 0.08,0.007 0.16,0.01 0.224,0.01 1.136,0 1.224,-1.313 1.224,-1.716 0,-0.364 -0.126,-0.726 -0.337,-0.967 -0.119,-0.136 -0.132,-0.15 -0.779,-0.15 -0.131,0 -0.242,0.003 -0.332,0.006 z m 1.063,-8.151 c -0.301,0 -0.718,0.045 -0.999,0.174 -0.025,0.057 -0.036,0.278 -0.052,0.529 -0.012,0.185 -0.012,1.977 -0.012,2.839 v 0.276 c 0.194,-0.002 0.386,-0.008 0.48,-0.021 0.287,-0.036 0.513,-0.065 0.844,-0.289 0.942,-0.648 1.043,-1.748 1.043,-2.19 0,-1.222 -0.997,-1.318 -1.304,-1.318"
                     style="fill:#efd7a8;fill-opacity:1;fill-rule:nonzero;stroke:none"
                     id="path2270" />
                </g>
                <g
                   id="g2272"
                   transform="translate(489.2314,272.5901)">
                  <path
                     d="m 0,0 c -0.187,-0.008 -0.348,-0.015 -0.471,-0.015 l -0.165,0.006 c -0.298,0.011 -0.89,0.034 -1.345,0.034 -0.621,0 -0.787,-0.428 -0.787,-0.681 0,-0.367 0.299,-0.654 0.681,-0.654 0.108,0 0.27,-0.014 0.419,-0.032 0.002,-0.005 0.023,-0.052 0.033,-0.229 0.025,-0.409 0.025,-0.78 0.025,-2.84 v -2.344 c 0,-1.232 0,-2.297 -0.061,-2.812 -0.018,-0.134 -0.034,-0.219 -0.047,-0.271 -0.076,-0.013 -0.136,-0.019 -0.169,-0.019 -0.382,0 -0.682,-0.287 -0.682,-0.653 0,-0.254 0.166,-0.681 0.788,-0.681 0.1,0 0.226,0.006 0.359,0.012 0.134,0.007 0.279,0.014 0.44,0.015 0.267,0.012 0.482,0.012 0.506,0.012 0.061,0 0.411,-0.013 0.793,-0.039 l 0.521,-0.023 c 0.203,-0.01 0.374,-0.018 0.457,-0.018 2.607,0 3.971,1.75 3.971,3.478 0,1.393 -0.873,2.44 -1.912,3.017 0.467,0.56 0.86,1.234 0.86,2.19 0,0.89 -0.678,2.572 -3.237,2.572 C 0.612,0.025 0.278,0.011 0,0 m 2.972,-8.34 c 0,-1.222 -0.997,-1.317 -1.304,-1.317 -0.302,0 -0.719,0.045 -0.999,0.173 -0.024,0.057 -0.037,0.278 -0.053,0.53 -0.011,0.184 -0.011,1.977 -0.011,2.838 v 0.277 C 0.798,-5.842 0.99,-5.848 1.085,-5.861 1.372,-5.897 1.597,-5.925 1.928,-6.149 2.871,-6.798 2.972,-7.898 2.972,-8.34 m -0.921,5.127 c 0,-0.365 -0.124,-0.726 -0.335,-0.967 -0.12,-0.136 -0.132,-0.15 -0.78,-0.15 -0.131,0 -0.242,0.003 -0.331,0.007 v 2.817 c 0.08,0.007 0.159,0.01 0.224,0.01 1.134,0 1.222,-1.314 1.222,-1.717"
                     style="fill:#efd7a8;fill-opacity:1;fill-rule:nonzero;stroke:none"
                     id="path2274" />
                </g>
                <g
                   id="g2276"
                   transform="translate(514.978,300.2455)">
                  <path
                     d="m 0,0 c 0.107,0 0.27,-0.013 0.419,-0.032 0.002,-0.005 0.023,-0.053 0.033,-0.229 0.025,-0.408 0.025,-0.779 0.025,-2.84 v -2.344 c 0,-1.233 0,-2.297 -0.061,-2.812 C 0.398,-8.392 0.382,-8.475 0.368,-8.528 0.29,-8.541 0.231,-8.547 0.2,-8.547 c -0.387,0 -0.682,-0.281 -0.682,-0.654 0,-0.252 0.167,-0.68 0.789,-0.68 0.1,0 0.224,0.006 0.358,0.012 0.134,0.007 0.28,0.014 0.442,0.015 0.265,0.013 0.478,0.013 0.503,0.013 0.061,-0.001 0.411,-0.014 0.794,-0.039 l 0.521,-0.024 c 0.203,-0.01 0.374,-0.017 0.458,-0.017 2.606,0 3.97,1.749 3.97,3.477 0,1.392 -0.873,2.439 -1.912,3.017 0.467,0.56 0.86,1.234 0.86,2.19 0,0.89 -0.678,2.572 -3.238,2.572 C 2.698,1.335 2.366,1.322 2.087,1.31 1.9,1.302 1.739,1.295 1.614,1.295 L 1.452,1.302 C 1.156,1.313 0.562,1.335 0.106,1.335 -0.515,1.335 -0.681,0.907 -0.681,0.654 -0.681,0.287 -0.382,0 0,0 m 2.692,-0.196 c 0.079,0.007 0.159,0.01 0.224,0.01 1.134,0 1.222,-1.314 1.222,-1.716 0,-0.365 -0.125,-0.727 -0.335,-0.967 -0.12,-0.137 -0.132,-0.151 -0.78,-0.151 -0.129,0 -0.239,0.003 -0.331,0.007 z m 0,-4.334 c 0.193,-0.002 0.386,-0.008 0.48,-0.021 0.287,-0.036 0.513,-0.064 0.843,-0.288 0.942,-0.649 1.044,-1.748 1.044,-2.191 0,-1.222 -0.997,-1.317 -1.304,-1.317 -0.301,0 -0.719,0.045 -0.999,0.172 -0.024,0.058 -0.037,0.279 -0.052,0.531 -0.012,0.184 -0.012,1.976 -0.012,2.838 z"
                     style="fill:#efd7a8;fill-opacity:1;fill-rule:nonzero;stroke:none"
                     id="path2278" />
                </g>
                <g
                   id="g2280"
                   transform="translate(501.3169,291.0448)">
                  <path
                     d="m 0,0 c 0,-0.07 0.024,-0.68 0.828,-0.68 0.43,0 0.908,0.018 1.22,0.029 l 0.285,0.01 c 0.055,0 0.173,-0.006 0.314,-0.013 0.236,-0.012 0.526,-0.026 0.724,-0.026 0.533,0 0.775,0.352 0.775,0.68 0,0.325 -0.244,0.654 -0.708,0.654 L 3.391,0.656 c 0.023,0.149 0.07,0.33 0.139,0.518 L 4.231,3.248 H 6.473 L 7.539,0.43 C 7.445,0.316 7.391,0.172 7.391,0.013 c 0,-0.619 0.665,-0.652 0.96,-0.667 0.924,-0.026 1.905,-0.026 2.106,-0.026 0.816,0 0.84,0.61 0.84,0.68 0,0.325 -0.244,0.654 -0.708,0.654 -0.091,0 -0.225,0.009 -0.374,0.057 C 9.983,0.778 9.723,1.162 9.445,1.852 8.874,3.276 7.668,6.424 6.936,8.336 6.627,9.142 6.401,9.729 6.344,9.874 6.192,10.272 6.018,10.722 5.516,10.722 5.009,10.722 4.843,10.266 4.684,9.824 L 1.659,1.553 C 1.405,0.85 1.241,0.706 1.01,0.677 0.923,0.666 0.771,0.654 0.695,0.654 0.306,0.654 0,0.367 0,0 M 5.314,6.496 5.885,4.876 H 4.786 Z"
                     style="fill:#efd7a8;fill-opacity:1;fill-rule:nonzero;stroke:none"
                     id="path2282" />
                </g>
                <g
                   id="g2284"
                   transform="translate(529.7163,290.1777)">
                  <path
                     d="m 0,0 c 3.356,0 5.888,2.588 5.888,6.021 0,3.279 -2.389,5.568 -5.809,5.568 -4.015,0 -5.821,-3.381 -5.821,-5.781 C -5.742,3.011 -3.944,0 0,0 m -0.014,9.988 c 1.674,0 3.475,-1.358 3.475,-4.34 0,-3.706 -2.375,-3.994 -3.102,-3.994 -2.171,0 -3.687,1.861 -3.687,4.526 0,2.384 1.239,3.808 3.314,3.808"
                     style="fill:#efd7a8;fill-opacity:1;fill-rule:nonzero;stroke:none"
                     id="path2286" />
                </g>
                <g
                   id="g2288"
                   transform="translate(487.8599,300.2455)">
                  <path
                     d="m 0,0 c 0.058,0 0.182,-0.01 0.247,-0.004 0.002,-0.003 0.035,-0.059 0.046,-0.257 0.025,-0.408 0.025,-0.779 0.025,-2.84 v -2.344 c 0,-1.233 0,-2.297 -0.061,-2.811 C 0.239,-8.391 0.222,-8.475 0.208,-8.528 0.129,-8.541 0.071,-8.547 0.04,-8.547 c -0.382,0 -0.681,-0.287 -0.681,-0.654 0,-0.252 0.166,-0.68 0.788,-0.68 0.29,0 0.803,0.02 1.103,0.032 l 0.199,0.008 0.142,-0.005 c 0.294,-0.011 0.929,-0.035 1.499,-0.035 0.542,0 0.788,0.353 0.788,0.68 0,0.367 -0.3,0.654 -0.682,0.654 -0.103,0 -0.35,0.022 -0.498,0.011 -0.006,0.011 -0.03,0.065 -0.05,0.269 -0.063,0.525 -0.063,1.589 -0.063,2.822 v 2.344 c 0,2.061 0,2.432 0.026,2.843 0.008,0.135 0.021,0.206 0.026,0.228 C 2.745,-0.012 2.799,0 2.862,0 3.245,0 3.545,0.287 3.545,0.654 3.545,0.907 3.379,1.335 2.756,1.335 2.467,1.335 1.954,1.315 1.653,1.303 L 1.456,1.295 1.262,1.303 C 0.961,1.314 0.43,1.335 0.107,1.335 -0.515,1.335 -0.681,0.907 -0.681,0.654 -0.681,0.287 -0.382,0 0,0"
                     style="fill:#efd7a8;fill-opacity:1;fill-rule:nonzero;stroke:none"
                     id="path2290" />
                </g>
                <g
                   id="g2292"
                   transform="translate(536.8799,266.4413)">
                  <path
                     d="m 0,0 -0.058,0.075 c 0.965,1.004 1.419,2.009 1.419,3.128 0,1.065 -0.626,1.893 -1.16,2.278 -0.851,0.61 -1.879,0.693 -2.771,0.693 -0.262,0 -0.765,-0.016 -1.14,-0.028 C -3.921,6.14 -4.09,6.134 -4.137,6.134 L -4.298,6.14 c -0.295,0.011 -0.891,0.034 -1.348,0.034 -0.622,0 -0.788,-0.428 -0.788,-0.681 0,-0.367 0.299,-0.654 0.681,-0.654 0.109,0 0.271,-0.014 0.419,-0.031 0.002,-0.005 0.023,-0.053 0.032,-0.23 0.026,-0.409 0.026,-0.78 0.026,-2.84 v -2.345 c 0,-1.232 0,-2.296 -0.061,-2.811 -0.018,-0.134 -0.034,-0.219 -0.048,-0.271 -0.075,-0.013 -0.136,-0.019 -0.168,-0.019 -0.382,0 -0.682,-0.287 -0.682,-0.654 0,-0.253 0.166,-0.68 0.789,-0.68 0.343,0 1.009,0.028 1.246,0.039 l 0.142,-0.005 c 0.293,-0.011 0.929,-0.034 1.501,-0.034 0.542,0 0.789,0.352 0.789,0.68 0,0.367 -0.299,0.654 -0.681,0.654 -0.104,0 -0.363,0.024 -0.498,0.01 -0.009,0.016 -0.031,0.072 -0.053,0.269 -0.059,0.504 -0.061,1.501 -0.061,2.667 l 0.981,-0.016 c 0.101,-0.136 0.226,-0.31 0.369,-0.506 0.291,-0.401 0.645,-0.889 0.974,-1.321 l 0.17,-0.224 C 0.14,-3.763 0.607,-4.38 1.246,-4.72 1.692,-4.961 2.121,-5.042 2.944,-5.042 h 0.945 c 0.807,0 0.895,0.475 0.895,0.68 0,0.361 -0.313,0.654 -0.696,0.654 -0.066,0 -0.218,0 -0.43,0.034 C 3.481,-3.646 3.009,-3.572 2.363,-2.891 1.7,-2.18 0.912,-1.17 0,0 M -1.474,0.931 C -1.798,0.702 -2.691,0.789 -3.061,0.862 v 3.721 c 0.119,0.009 0.264,0.017 0.424,0.017 1.506,0 1.73,-1.309 1.73,-2.09 0,-0.879 -0.29,-1.391 -0.567,-1.579"
                     style="fill:#efd7a8;fill-opacity:1;fill-rule:nonzero;stroke:none"
                     id="path2294" />
                </g>
                <g
                   id="g2296"
                   transform="translate(524.002,272.8013)">
                  <path
                     d="m 0,0 c -4.016,0 -5.823,-3.38 -5.823,-5.781 0,-2.798 1.798,-5.808 5.742,-5.808 3.357,0 5.889,2.588 5.889,6.021 C 5.808,-2.289 3.419,0 0,0 m 0.279,-9.934 c -2.171,0 -3.687,1.861 -3.687,4.526 0,2.384 1.239,3.808 3.314,3.808 1.674,0 3.474,-1.359 3.474,-4.341 0,-3.705 -2.374,-3.993 -3.101,-3.993"
                     style="fill:#efd7a8;fill-opacity:1;fill-rule:nonzero;stroke:none"
                     id="path2298" />
                </g>
                <g
                   id="g2300"
                   transform="translate(535.7637,258.7739)">
                  <path
                     d="m 0,0 c -4.015,0 -5.823,-3.38 -5.823,-5.781 0,-2.797 1.798,-5.808 5.743,-5.808 3.356,0 5.888,2.588 5.888,6.021 C 5.808,-2.289 3.419,0 0,0 m 0.279,-9.934 c -2.171,0 -3.687,1.861 -3.687,4.526 0,2.384 1.24,3.808 3.315,3.808 1.673,0 3.474,-1.359 3.474,-4.341 0,-3.705 -2.375,-3.993 -3.102,-3.993"
                     style="fill:#efd7a8;fill-opacity:1;fill-rule:nonzero;stroke:none"
                     id="path2302" />
                </g>
                <g
                   id="g2304"
                   transform="translate(508.2373,281.8439)">
                  <path
                     d="m 0,0 c 0,-2.798 1.797,-5.808 5.743,-5.808 3.356,0 5.888,2.588 5.888,6.021 0,3.278 -2.39,5.568 -5.809,5.568 C 1.807,5.781 0,2.401 0,0 m 5.729,4.18 c 1.673,0 3.474,-1.358 3.474,-4.34 0,-3.705 -2.374,-3.993 -3.101,-3.993 -2.172,0 -3.687,1.861 -3.687,4.526 0,2.384 1.238,3.807 3.314,3.807"
                     style="fill:#efd7a8;fill-opacity:1;fill-rule:nonzero;stroke:none"
                     id="path2306" />
                </g>
                <g
                   id="g2308"
                   transform="translate(536.5479,300.2455)">
                  <path
                     d="m 0,0 c 0.058,0 0.178,-0.01 0.247,-0.004 0.001,-0.002 0.034,-0.059 0.045,-0.257 0.025,-0.408 0.025,-0.779 0.025,-2.84 v -2.344 c 0,-1.233 0,-2.297 -0.061,-2.812 C 0.238,-8.392 0.222,-8.475 0.209,-8.528 0.129,-8.541 0.071,-8.547 0.04,-8.547 c -0.382,0 -0.682,-0.287 -0.682,-0.654 0,-0.252 0.166,-0.68 0.788,-0.68 0.29,0 0.805,0.02 1.104,0.032 l 0.197,0.008 0.142,-0.005 c 0.292,-0.011 0.929,-0.035 1.499,-0.035 0.542,0 0.789,0.353 0.789,0.68 0,0.367 -0.299,0.654 -0.681,0.654 -0.106,0.001 -0.362,0.027 -0.498,0.01 -0.009,0.015 -0.031,0.071 -0.051,0.27 -0.063,0.525 -0.063,1.589 -0.063,2.822 v 2.344 c 0,2.061 0,2.432 0.026,2.843 0.008,0.135 0.022,0.206 0.027,0.228 C 2.743,-0.012 2.798,0 2.863,0 c 0.382,0 0.681,0.287 0.681,0.654 0,0.253 -0.166,0.681 -0.788,0.681 -0.29,0 -0.807,-0.02 -1.105,-0.032 L 1.456,1.295 1.261,1.303 C 0.961,1.314 0.429,1.335 0.106,1.335 -0.516,1.335 -0.683,0.907 -0.683,0.654 -0.683,0.287 -0.382,0 0,0"
                     style="fill:#efd7a8;fill-opacity:1;fill-rule:nonzero;stroke:none"
                     id="path2310" />
                </g>
                <g
                   id="g2312"
                   transform="translate(465.354,271.28)">
                  <path
                     d="M 0,0 C 0.109,0 0.271,-0.013 0.418,-0.031 0.421,-0.036 0.442,-0.084 0.452,-0.26 0.477,-0.669 0.477,-1.04 0.477,-3.101 v -2.344 c 0,-1.232 0,-2.296 -0.06,-2.812 C 0.398,-8.391 0.382,-8.475 0.369,-8.528 0.293,-8.541 0.232,-8.547 0.2,-8.547 c -0.382,0 -0.681,-0.286 -0.681,-0.653 0,-0.253 0.166,-0.681 0.788,-0.681 0.1,0 0.226,0.006 0.36,0.012 0.135,0.007 0.279,0.014 0.44,0.015 0.265,0.013 0.48,0.013 0.497,0.013 0.042,-0.002 0.161,-0.011 0.332,-0.024 L 2.677,-9.92 c 0.586,-0.041 1.306,-0.081 1.891,-0.081 1.842,0 3.38,0.591 4.452,1.71 1.014,1.069 1.596,2.582 1.596,4.152 0,1.876 -0.791,3.091 -1.455,3.781 C 7.501,1.358 5.075,1.336 3.66,1.336 L 3.41,1.335 C 2.85,1.335 2.27,1.316 1.913,1.304 L 1.616,1.295 1.453,1.302 C 1.156,1.312 0.562,1.335 0.107,1.335 -0.515,1.335 -0.681,0.907 -0.681,0.655 -0.681,0.287 -0.382,0 0,0 m 2.754,-0.292 c 0.141,0.014 0.32,0.026 0.455,0.026 1.654,0 2.89,-0.222 3.94,-1.326 0.51,-0.538 1.119,-1.488 1.119,-2.961 0,-1.151 -0.35,-2.24 -0.897,-2.776 -0.68,-0.681 -1.688,-1.07 -2.763,-1.07 -1.408,0 -1.738,0.237 -1.762,0.237 -10e-4,0 -10e-4,-10e-4 -10e-4,-0.002 -0.02,0.058 -0.052,0.232 -0.074,0.765 -0.013,0.25 -0.025,1.463 -0.025,2.859 v 1.652 c 0,0.878 -10e-4,1.999 0.008,2.596"
                     style="fill:#efd7a8;fill-opacity:1;fill-rule:nonzero;stroke:none"
                     id="path2314" />
                </g>
                <g
                   id="g2316"
                   transform="translate(464.3047,257.2527)">
                  <path
                     d="M 0,0 C 0.058,0 0.232,0 0.349,-0.031 0.626,-0.11 0.701,-0.132 0.931,-0.718 l 3.299,-8.25 c 0.271,-0.686 0.436,-1.1 0.978,-1.1 0.472,0 0.636,0.366 0.863,0.873 l 0.215,0.47 c 0.313,0.665 0.905,2.088 1.729,4.058 l 0.345,0.832 c 0.549,1.323 1.028,2.478 1.149,2.785 0.284,0.717 0.443,0.935 0.505,0.979 C 10.127,0 10.293,0 10.348,0 c 0.483,0 0.735,0.336 0.735,0.667 0,0.248 -0.169,0.668 -0.801,0.668 -0.277,0 -0.644,-0.019 -0.872,-0.031 L 9.243,1.295 C 9.191,1.295 9.087,1.3 8.952,1.306 8.678,1.318 8.291,1.335 7.937,1.335 7.133,1.335 7.07,0.815 7.07,0.655 7.07,0.329 7.317,0 7.791,0 h 0.05 C 7.83,-0.036 7.816,-0.077 7.801,-0.125 7.579,-0.849 6.394,-3.977 5.527,-6.119 L 3.469,-0.633 C 3.389,-0.422 3.295,-0.18 3.232,0 3.698,-0.011 3.97,0.328 3.97,0.667 c 0,0.25 -0.122,0.668 -0.934,0.668 -0.344,0 -0.73,-0.018 -0.991,-0.03 L 1.798,1.295 1.485,1.305 c -0.324,0.012 -0.813,0.03 -1.246,0.03 -0.8,0 -0.92,-0.418 -0.92,-0.668 C -0.681,0.287 -0.388,0 0,0"
                     style="fill:#efd7a8;fill-opacity:1;fill-rule:nonzero;stroke:none"
                     id="path2318" />
                </g>
                <g
                   id="g2320"
                   transform="translate(504.356,248.7059)">
                  <path
                     d="m 0,0 c -0.128,0 -0.252,0.018 -0.375,0.059 -0.231,0.066 -0.49,0.449 -0.768,1.14 -0.592,1.471 -1.859,4.783 -2.583,6.67 -0.271,0.709 -0.466,1.218 -0.519,1.353 -0.152,0.397 -0.327,0.846 -0.828,0.846 -0.506,0 -0.672,-0.456 -0.832,-0.898 L -8.93,0.899 C -9.181,0.201 -9.353,0.052 -9.579,0.023 -9.666,0.012 -9.819,0 -9.895,0 c -0.389,0 -0.693,-0.287 -0.693,-0.653 0,-0.07 0.024,-0.681 0.828,-0.681 0.428,0 0.906,0.018 1.218,0.029 l 0.287,0.01 c 0.053,0 0.172,-0.006 0.312,-0.013 0.235,-0.012 0.527,-0.026 0.726,-0.026 0.531,0 0.774,0.352 0.774,0.681 0,0.324 -0.244,0.653 -0.708,0.653 l -0.048,0.002 c 0.024,0.15 0.072,0.331 0.14,0.519 l 0.701,2.073 h 2.243 l 1.064,-2.818 c -0.093,-0.114 -0.146,-0.257 -0.146,-0.416 0,-0.62 0.665,-0.653 0.958,-0.668 0.926,-0.026 1.905,-0.026 2.108,-0.026 0.816,0 0.84,0.611 0.84,0.681 C 0.709,-0.329 0.465,0 0,0 m -5.804,4.222 0.529,1.621 0.571,-1.621 z"
                     style="fill:#efd7a8;fill-opacity:1;fill-rule:nonzero;stroke:none"
                     id="path2322" />
                </g>
                <g
                   id="g2324"
                   transform="translate(575.4224,356.6768)">
                  <path
                     d="m 0,0 -33.738,33.738 c -4.294,4.294 -10.118,6.706 -16.19,6.706 h -47.714 c -6.073,0 -11.896,-2.412 -16.19,-6.706 L -147.571,0 c -4.296,-4.294 -6.707,-10.119 -6.707,-16.192 v -47.712 c 0,-6.073 2.411,-11.896 6.707,-16.19 l 33.739,-33.74 c 4.294,-4.292 10.117,-6.705 16.19,-6.705 h 47.712 c 6.074,0 11.898,2.413 16.192,6.705 L 0,-80.094 c 4.294,4.294 6.706,10.118 6.706,16.19 V -16.19 C 6.706,-10.119 4.294,-4.294 0,0 m -80.108,23.942 17.738,-10.041 -10.059,3.093 c -1.339,0.465 -2.814,0.238 -3.95,-0.61 l -3.377,-2.52 -10.567,-3.118 -3.811,1.713 z m 73.307,-36.306 h -1.391 c -0.033,0 -0.064,-0.009 -0.096,-0.01 -0.032,0.001 -0.062,0.01 -0.095,0.01 h -107.19 c -1.38,0 -2.499,-1.12 -2.499,-2.5 0,-1.38 1.119,-2.499 2.499,-2.499 h 104.178 v -1.69 c -5.643,-1.844 -11.35,-6.171 -12.425,-13.396 h -1.36 c -1.764,0 -3.201,-1.436 -3.201,-3.2 v -3.424 h -81.71 c -1.381,0 -2.5,-1.119 -2.5,-2.499 0,-1.38 1.119,-2.5 2.5,-2.5 h 78.612 v -62.82 l -3.907,-3.907 c -4.117,-4.115 -9.701,-6.429 -15.525,-6.429 h -45.75 c -5.823,0 -11.406,2.314 -15.523,6.429 l -1.97,1.97 v 63.457 c 0,1.646 -1.249,3.006 -2.848,3.182 v 4.297 c 0,1.765 -1.437,3.2 -3.203,3.2 h -0.836 c -1.093,4.408 -4.07,8.775 -9.601,9.788 v 3.321 c 0,1.766 -1.437,3.202 -3.201,3.202 h -1.036 v 11.845 h 0.455 c 1.125,0 2.181,0.601 2.756,1.568 0.581,0.979 0.604,2.16 0.059,3.157 -1.284,2.364 -3.838,8.296 0.182,12.316 2.418,2.416 5.624,3.31 8.373,2.329 2.353,-0.841 3.863,-2.908 4.138,-5.674 0.114,-1.127 0.823,-2.121 1.85,-2.594 1.019,-0.471 2.23,-0.363 3.151,0.275 l 9.661,6.688 12.236,-5.501 c 0.052,-0.023 0.105,-0.044 0.159,-0.064 0.856,-0.318 1.812,-0.349 2.683,-0.09 l 10.961,3.235 c 0.486,0.144 0.937,0.369 1.341,0.671 l 3.183,2.375 20.995,-6.453 c 0.454,-0.159 0.921,-0.238 1.396,-0.238 0.145,0 0.291,0.007 0.438,0.022 0.075,0.008 0.148,0.019 0.222,0.033 l 9.887,1.921 30.777,-8.39 h -105.597 c -1.38,0 -2.499,-1.119 -2.499,-2.5 0,-1.38 1.119,-2.499 2.499,-2.499 H -6.801 Z"
                     style="fill:#efd7a8;fill-opacity:1;fill-rule:nonzero;stroke:none"
                     id="path2326" />
                </g>
                <g
                   id="g2328"
                   transform="translate(465.354,300.2455)">
                  <path
                     d="m 0,0 c 0.109,0 0.271,-0.013 0.418,-0.032 0.003,-0.005 0.024,-0.052 0.034,-0.229 0.025,-0.408 0.025,-0.779 0.025,-2.84 v -2.344 c 0,-1.233 0,-2.297 -0.06,-2.812 C 0.398,-8.392 0.382,-8.475 0.369,-8.528 0.293,-8.541 0.233,-8.547 0.2,-8.547 c -0.382,0 -0.681,-0.287 -0.681,-0.654 0,-0.252 0.166,-0.68 0.788,-0.68 0.1,0 0.226,0.006 0.36,0.012 0.135,0.007 0.279,0.014 0.44,0.015 0.265,0.013 0.48,0.013 0.497,0.013 0.042,-0.002 0.161,-0.011 0.332,-0.024 l 0.74,-0.055 c 0.586,-0.041 1.307,-0.081 1.892,-0.081 1.843,0 3.382,0.59 4.452,1.71 1.014,1.068 1.596,2.581 1.596,4.151 0,1.876 -0.791,3.092 -1.455,3.781 C 7.503,1.356 5.101,1.337 3.66,1.336 L 3.41,1.335 C 2.85,1.335 2.27,1.316 1.913,1.304 L 1.616,1.295 1.453,1.302 C 1.156,1.313 0.562,1.335 0.107,1.335 -0.515,1.335 -0.681,0.907 -0.681,0.654 -0.681,0.287 -0.382,0 0,0 m 2.754,-0.292 c 0.142,0.014 0.32,0.025 0.455,0.025 1.654,0 2.89,-0.221 3.94,-1.325 0.51,-0.538 1.119,-1.488 1.119,-2.961 0,-1.152 -0.35,-2.24 -0.897,-2.777 -0.68,-0.68 -1.687,-1.07 -2.763,-1.07 -1.409,0 -1.739,0.238 -1.762,0.238 -10e-4,0 -10e-4,-10e-4 -10e-4,-10e-4 -0.02,0.057 -0.052,0.23 -0.074,0.763 -0.013,0.251 -0.025,1.464 -0.025,2.86 v 1.652 c 0,0.877 -10e-4,1.999 0.008,2.596"
                     style="fill:#efd7a8;fill-opacity:1;fill-rule:nonzero;stroke:none"
                     id="path2330" />
                </g>
                <g
                   id="g2332"
                   transform="translate(491.8662,254.1102)">
                  <path
                     d="m 0,0 -0.374,0.294 c -1.265,0.989 -1.403,1.318 -1.403,1.785 0,0.716 0.549,0.971 1.063,0.971 0.893,0 1.125,-0.341 1.159,-0.402 C 0.479,2.576 0.543,2.316 0.555,2.181 0.634,1.554 1.092,1.505 1.231,1.505 c 0.156,0 0.667,0.063 0.667,0.88 0,0.688 0.032,1.097 0.046,1.272 l 0.009,0.14 c 0,0.321 -0.223,0.667 -0.709,0.667 -0.047,0 -0.109,0.004 -0.333,0.051 -0.425,0.102 -0.86,0.149 -1.371,0.149 -1.993,0 -3.332,-1.194 -3.332,-2.971 0,-1.236 0.563,-2.202 1.941,-3.335 l 0.599,-0.49 c 1.122,-0.927 1.321,-1.318 1.321,-1.955 0,-0.576 -0.415,-1.197 -1.328,-1.197 -0.459,0 -1.25,0.117 -1.41,0.905 -0.027,0.127 -0.027,0.268 -0.027,0.372 0,0.568 -0.42,0.72 -0.668,0.72 -0.141,0 -0.611,-0.052 -0.68,-0.751 l -0.01,-0.147 c -0.022,-0.275 -0.057,-0.743 -0.057,-1.3 0,-0.356 0,-0.76 0.515,-1.02 l 0.008,-0.003 c 0.577,-0.281 1.244,-0.417 2.035,-0.417 0.91,0 1.719,0.229 2.344,0.665 1.013,0.719 1.375,1.855 1.375,2.679 C 2.166,-2.214 1.579,-1.243 0,0"
                     style="fill:#efd7a8;fill-opacity:1;fill-rule:nonzero;stroke:none"
                     id="path2334" />
                </g>
                <g
                   id="g2336"
                   transform="translate(511.7847,250.2858)">
                  <path
                     d="m 0,0 c -0.168,0 -0.573,-0.065 -0.686,-0.677 -0.077,-0.451 -0.168,-0.49 -0.256,-0.527 -0.239,-0.101 -0.79,-0.101 -1.055,-0.101 -0.712,0 -0.875,0.064 -0.904,0.086 -0.013,0.018 -0.052,0.102 -0.068,0.459 -0.01,0.198 -0.005,1.039 -0.001,1.661 l 0.002,1.272 c 0.48,-0.011 1.147,-0.031 1.364,-0.056 0.16,-0.016 0.209,-0.05 0.205,-0.065 0.026,-0.089 0.026,-0.157 0.026,-0.269 0,-0.395 0.287,-0.694 0.667,-0.694 0.112,0 0.669,0.04 0.669,0.827 0,0.091 0.026,0.549 0.05,0.8 0.023,0.251 0.055,0.426 0.076,0.539 0.023,0.125 0.033,0.209 0.033,0.259 0,0.442 -0.33,0.681 -0.641,0.681 -0.307,0 -0.485,-0.202 -0.569,-0.321 C -1.139,3.855 -1.323,3.839 -1.394,3.833 -1.535,3.821 -2.144,3.812 -2.968,3.809 v 2.789 c 0.487,-0.006 1.143,-0.019 1.267,-0.032 0.393,-0.044 0.487,-0.104 0.48,-0.108 0.018,-0.043 0.035,-0.166 0.035,-0.254 0,-0.49 0.343,-0.747 0.681,-0.747 0.257,0 0.565,0.159 0.659,0.625 0.019,0.113 0.039,0.419 0.054,0.662 l 0.017,0.251 c 0.02,0.19 0.048,0.315 0.069,0.403 0.021,0.094 0.042,0.182 0.042,0.285 0,0.455 -0.316,0.693 -0.628,0.693 -0.176,0 -0.304,-0.064 -0.33,-0.084 C -0.707,8.27 -0.878,8.253 -1.076,8.243 -1.38,8.23 -4.009,8.23 -4.073,8.23 l -0.549,0.026 c -0.3,0.014 -0.67,0.014 -0.984,0.014 -0.621,0 -0.788,-0.427 -0.788,-0.681 0,-0.366 0.3,-0.654 0.682,-0.654 0.107,0 0.269,-0.013 0.418,-0.032 0.002,-0.005 0.023,-0.053 0.033,-0.229 0.026,-0.408 0.026,-0.779 0.026,-2.84 V 1.49 c 0,-1.233 0,-2.297 -0.061,-2.812 -0.018,-0.135 -0.035,-0.218 -0.048,-0.271 -0.075,-0.012 -0.135,-0.019 -0.168,-0.019 -0.382,0 -0.682,-0.287 -0.682,-0.654 0,-0.252 0.166,-0.68 0.788,-0.68 0.101,0 0.225,0.006 0.36,0.012 0.134,0.007 0.278,0.014 0.44,0.015 0.265,0.013 0.48,0.013 0.504,0.013 0.195,0 0.505,-0.014 1.025,-0.04 l 0.293,-0.008 c 0.495,-0.014 1.142,-0.032 1.972,-0.032 0.525,0 1.067,0 1.278,0.788 0.073,0.305 0.19,1.256 0.19,1.424 C 0.656,-0.022 0.067,0 0,0 m -0.719,3.447 z"
                     style="fill:#efd7a8;fill-opacity:1;fill-rule:nonzero;stroke:none"
                     id="path2338" />
                </g>
                <g
                   id="g2340"
                   transform="translate(483.7896,264.3448)">
                  <path
                     d="m 0,0 c -0.168,0 -0.573,-0.065 -0.686,-0.677 -0.075,-0.45 -0.168,-0.489 -0.257,-0.527 -0.239,-0.101 -0.788,-0.101 -1.053,-0.101 -0.713,0 -0.876,0.064 -0.905,0.086 -0.013,0.018 -0.052,0.102 -0.068,0.459 -0.01,0.199 -0.005,1.04 -0.001,1.662 l 0.002,1.271 c 0.479,-0.01 1.147,-0.031 1.365,-0.055 0.16,-0.017 0.208,-0.05 0.204,-0.066 0.026,-0.089 0.026,-0.157 0.026,-0.269 0,-0.395 0.287,-0.694 0.667,-0.694 0.112,0 0.669,0.04 0.669,0.827 0,0.092 0.026,0.55 0.051,0.8 0.022,0.251 0.054,0.426 0.075,0.539 0.024,0.125 0.033,0.209 0.033,0.259 L 0.057,4.195 H -0.518 C -0.827,4.195 -1.006,3.99 -1.088,3.874 -1.139,3.855 -1.323,3.839 -1.394,3.833 -1.535,3.821 -2.144,3.812 -2.968,3.809 v 2.789 c 0.488,-0.006 1.142,-0.018 1.267,-0.032 0.393,-0.043 0.487,-0.104 0.48,-0.107 0.018,-0.043 0.035,-0.166 0.035,-0.254 0,-0.491 0.343,-0.748 0.681,-0.748 0.258,0 0.567,0.16 0.659,0.626 0.019,0.113 0.039,0.418 0.054,0.662 l 0.017,0.251 c 0.021,0.189 0.049,0.315 0.069,0.402 0.021,0.094 0.042,0.182 0.042,0.285 0,0.455 -0.316,0.694 -0.628,0.694 -0.175,0 -0.304,-0.065 -0.33,-0.084 C -0.707,8.271 -0.878,8.253 -1.076,8.243 -1.38,8.23 -4.009,8.23 -4.073,8.23 L -4.621,8.256 C -4.922,8.27 -5.292,8.27 -5.606,8.27 c -0.621,0 -0.788,-0.428 -0.788,-0.68 0,-0.368 0.3,-0.655 0.682,-0.655 0.107,0 0.27,-0.013 0.419,-0.032 0.001,-0.005 0.022,-0.052 0.032,-0.228 0.026,-0.409 0.026,-0.78 0.026,-2.841 V 1.49 c 0,-1.232 0,-2.296 -0.061,-2.812 -0.018,-0.134 -0.035,-0.218 -0.047,-0.271 -0.076,-0.012 -0.137,-0.019 -0.169,-0.019 -0.382,0 -0.682,-0.286 -0.682,-0.653 0,-0.253 0.166,-0.681 0.788,-0.681 0.101,0 0.226,0.006 0.36,0.012 0.135,0.007 0.278,0.014 0.441,0.015 0.264,0.013 0.48,0.013 0.503,0.013 0.195,0 0.506,-0.014 1.026,-0.04 l 0.293,-0.008 c 0.494,-0.014 1.142,-0.032 1.971,-0.032 0.526,0 1.067,0 1.278,0.789 0.073,0.305 0.19,1.255 0.19,1.423 C 0.656,-0.022 0.067,0 0,0 M -0.48,3.313 -0.207,3.159 C -0.209,3.156 -0.249,3.118 -0.319,3.087 l -0.172,0.155 z"
                     style="fill:#efd7a8;fill-opacity:1;fill-rule:nonzero;stroke:none"
                     id="path2342" />
                </g>
                <g
                   id="g2344"
                   transform="translate(481.2886,255.8029)">
                  <path
                     d="m 0,0 c 0,-1.236 0.562,-2.201 1.941,-3.335 l 0.599,-0.49 c 1.123,-0.927 1.321,-1.318 1.321,-1.955 0,-0.576 -0.415,-1.197 -1.329,-1.197 -0.457,0 -1.249,0.117 -1.409,0.905 -0.027,0.127 -0.027,0.269 -0.027,0.372 0,0.568 -0.42,0.72 -0.667,0.72 -0.103,0 -0.614,-0.035 -0.68,-0.751 l -0.011,-0.152 c -0.021,-0.275 -0.058,-0.74 -0.058,-1.295 0,-0.357 0,-0.762 0.519,-1.02 l 0.005,-0.003 c 0.577,-0.28 1.243,-0.417 2.036,-0.417 0.907,0 1.717,0.229 2.344,0.666 1.012,0.719 1.373,1.855 1.373,2.678 0,1.368 -0.587,2.339 -2.165,3.581 l -0.374,0.294 c -1.264,0.988 -1.401,1.317 -1.401,1.785 0,0.716 0.547,0.971 1.061,0.971 0.895,0 1.122,-0.337 1.159,-0.404 0.035,-0.073 0.099,-0.332 0.11,-0.465 0.079,-0.627 0.537,-0.676 0.676,-0.676 0.156,0 0.667,0.063 0.667,0.881 0,0.688 0.031,1.097 0.044,1.272 l 0.009,0.139 c 0,0.321 -0.222,0.667 -0.706,0.667 -0.048,0 -0.11,0.005 -0.334,0.052 C 4.279,2.924 3.843,2.971 3.332,2.971 1.339,2.971 0,1.777 0,0"
                     style="fill:#efd7a8;fill-opacity:1;fill-rule:nonzero;stroke:none"
                     id="path2346" />
                </g>
                <g
                   id="g2348"
                   transform="translate(507.7344,267.2333)">
                  <path
                     d="m 0,0 c 0,3.278 -2.39,5.568 -5.809,5.568 -4.015,0 -5.822,-3.38 -5.822,-5.781 0,-2.798 1.798,-5.808 5.743,-5.808 C -2.532,-6.021 0,-3.433 0,0 m -9.216,0.16 c 0,2.384 1.238,3.807 3.314,3.807 1.673,0 3.473,-1.358 3.473,-4.34 0,-3.705 -2.373,-3.993 -3.101,-3.993 -2.171,0 -3.686,1.861 -3.686,4.526"
                     style="fill:#efd7a8;fill-opacity:1;fill-rule:nonzero;stroke:none"
                     id="path2350" />
                </g>
                <g
                   id="g2352"
                   transform="translate(485.916,286.1036)">
                  <path
                     d="M 0,0 C 0.058,0 0.178,-0.01 0.246,-0.003 0.248,-0.006 0.28,-0.062 0.292,-0.261 0.317,-0.669 0.317,-1.04 0.317,-3.102 v -2.343 c 0,-1.232 0,-2.297 -0.061,-2.812 C 0.237,-8.391 0.222,-8.475 0.208,-8.528 0.132,-8.541 0.072,-8.547 0.04,-8.547 c -0.382,0 -0.681,-0.287 -0.681,-0.653 0,-0.254 0.166,-0.681 0.787,-0.681 0.289,0 0.804,0.02 1.103,0.032 l 0.198,0.007 0.141,-0.004 c 0.293,-0.011 0.929,-0.035 1.502,-0.035 0.54,0 0.787,0.352 0.787,0.681 0,0.366 -0.299,0.653 -0.681,0.653 -0.104,0 -0.358,0.028 -0.498,0.01 -0.009,0.015 -0.03,0.071 -0.05,0.271 -0.063,0.524 -0.063,1.589 -0.063,2.821 v 2.343 c 0,2.062 0,2.433 0.026,2.844 0.007,0.135 0.021,0.205 0.025,0.228 C 2.743,-0.012 2.798,0 2.863,0 c 0.382,0 0.68,0.287 0.68,0.655 0,0.252 -0.166,0.68 -0.786,0.68 -0.291,0 -0.808,-0.02 -1.108,-0.032 L 1.456,1.295 1.26,1.303 C 0.961,1.314 0.428,1.335 0.105,1.335 -0.515,1.335 -0.682,0.907 -0.682,0.655 -0.682,0.287 -0.382,0 0,0"
                     style="fill:#efd7a8;fill-opacity:1;fill-rule:nonzero;stroke:none"
                     id="path2354" />
                </g>
                <g
                   id="g2356"
                   transform="translate(475.561,257.9074)">
                  <path
                     d="M 0,0 C 0,-0.367 0.299,-0.655 0.681,-0.655 0.74,-0.654 0.858,-0.665 0.929,-0.659 0.93,-0.661 0.963,-0.718 0.974,-0.915 1,-1.324 1,-1.695 1,-3.756 V -6.1 C 1,-7.332 1,-8.396 0.939,-8.91 0.92,-9.045 0.903,-9.13 0.89,-9.183 0.814,-9.195 0.755,-9.201 0.722,-9.201 c -0.382,0 -0.681,-0.287 -0.681,-0.654 0,-0.253 0.166,-0.681 0.788,-0.681 0.289,0 0.803,0.02 1.103,0.032 l 0.198,0.008 0.142,-0.005 c 0.294,-0.011 0.929,-0.035 1.499,-0.035 0.542,0 0.788,0.353 0.788,0.681 0,0.367 -0.299,0.654 -0.682,0.654 C 3.774,-9.202 3.525,-9.175 3.379,-9.19 3.374,-9.179 3.35,-9.125 3.329,-8.921 3.267,-8.396 3.267,-7.332 3.267,-6.1 v 2.344 c 0,2.061 0,2.432 0.025,2.844 0.008,0.134 0.021,0.204 0.028,0.227 0.106,0.018 0.161,0.03 0.224,0.03 0.382,0 0.682,0.288 0.682,0.655 0,0.253 -0.165,0.68 -0.788,0.68 -0.29,0 -0.803,-0.02 -1.104,-0.031 L 2.137,0.641 1.943,0.648 C 1.643,0.66 1.111,0.68 0.789,0.68 0.166,0.68 0,0.253 0,0"
                     style="fill:#efd7a8;fill-opacity:1;fill-rule:nonzero;stroke:none"
                     id="path2358" />
                </g>
                <g
                   id="g2360"
                   transform="translate(477.9331,299.9557)">
                  <path
                     d="m 0,0 c 0.107,0 0.27,-0.013 0.418,-0.032 0.003,-0.005 0.024,-0.053 0.034,-0.229 0.026,-0.408 0.026,-0.779 0.026,-2.84 v -2.344 c 0,-1.233 0,-2.297 -0.061,-2.812 C 0.398,-8.392 0.382,-8.475 0.369,-8.528 0.293,-8.541 0.233,-8.547 0.2,-8.547 c -0.382,0 -0.681,-0.287 -0.681,-0.654 0,-0.252 0.166,-0.68 0.788,-0.68 0.101,0 0.226,0.006 0.36,0.012 0.134,0.007 0.277,0.014 0.44,0.015 0.265,0.013 0.479,0.013 0.504,0.013 0.194,0 0.505,-0.014 1.025,-0.04 l 0.293,-0.008 c 0.494,-0.014 1.143,-0.032 1.972,-0.032 0.525,0 1.067,0 1.278,0.788 0.072,0.305 0.189,1.256 0.189,1.424 0,0.752 -0.588,0.774 -0.656,0.774 C 5.544,-6.935 5.14,-7 5.026,-7.613 4.95,-8.063 4.858,-8.102 4.771,-8.139 4.531,-8.24 3.981,-8.24 3.716,-8.24 c -0.713,0 -0.875,0.064 -0.905,0.086 -0.013,0.018 -0.051,0.102 -0.067,0.459 -0.01,0.198 -0.005,1.039 -0.002,1.661 l 0.003,1.272 C 3.225,-4.773 3.892,-4.794 4.109,-4.818 4.27,-4.834 4.318,-4.868 4.313,-4.883 4.34,-4.972 4.34,-5.04 4.34,-5.152 c 0,-0.396 0.286,-0.694 0.667,-0.694 0.112,0 0.669,0.04 0.669,0.827 0,0.091 0.026,0.549 0.05,0.8 0.022,0.25 0.055,0.426 0.076,0.539 0.023,0.124 0.033,0.209 0.033,0.259 0,0.442 -0.331,0.681 -0.641,0.681 -0.307,0 -0.486,-0.202 -0.57,-0.321 C 4.574,-3.08 4.39,-3.096 4.319,-3.102 4.177,-3.114 3.569,-3.123 2.745,-3.126 v 2.789 c 0.487,-0.007 1.143,-0.019 1.266,-0.032 0.394,-0.044 0.487,-0.104 0.48,-0.108 0.018,-0.043 0.035,-0.166 0.035,-0.254 0,-0.491 0.344,-0.747 0.681,-0.747 0.258,0 0.565,0.159 0.659,0.625 0.02,0.113 0.039,0.419 0.054,0.662 L 5.937,0.06 c 0.021,0.19 0.049,0.315 0.07,0.403 0.02,0.093 0.041,0.182 0.041,0.284 0,0.456 -0.316,0.694 -0.627,0.694 C 5.245,1.441 5.118,1.377 5.09,1.357 5.006,1.335 4.834,1.318 4.637,1.308 4.333,1.295 1.704,1.295 1.639,1.295 L 1.091,1.321 C 0.79,1.335 0.421,1.335 0.106,1.335 -0.515,1.335 -0.681,0.907 -0.681,0.654 -0.681,0.287 -0.382,0 0,0 m 4.995,-3.488 v 0 H 4.994 Z"
                     style="fill:#efd7a8;fill-opacity:1;fill-rule:nonzero;stroke:none"
                     id="path2362" />
                </g>
              </g>
            </g>
          </g>
        </g>
      </g>
    </g>
  </g>
</svg>
