<?xml version="1.0" encoding="UTF-8" standalone="no"?>
<svg
   xmlns:dc="http://purl.org/dc/elements/1.1/"
   xmlns:cc="http://creativecommons.org/ns#"
   xmlns:rdf="http://www.w3.org/1999/02/22-rdf-syntax-ns#"
   xmlns:svg="http://www.w3.org/2000/svg"
   xmlns="http://www.w3.org/2000/svg"
   xmlns:sodipodi="http://sodipodi.sourceforge.net/DTD/sodipodi-0.dtd"
   xmlns:inkscape="http://www.inkscape.org/namespaces/inkscape"
   inkscape:version="1.0 (6e3e5246a0, 2020-05-07)"
   sodipodi:docname="logocor2.svg"
   id="svg8"
   version="1.1"
   viewBox="0 0 117.89551 139.99987"
   height="139.99986mm"
   width="117.89551mm">
  <defs
     id="defs2">
    <clipPath
       clipPathUnits="userSpaceOnUse"
       id="clipPath28">
      <path
         d="M 0,0 H 1280 V 720 H 0 Z"
         id="path26" />
    </clipPath>
    <clipPath
       clipPathUnits="userSpaceOnUse"
       id="clipPath71">
      <path
         d="M 0,0 H 1280 V 720 H 0 Z"
         id="path69" />
    </clipPath>
    <clipPath
       clipPathUnits="userSpaceOnUse"
       id="clipPath285">
      <path
         d="M 0,0 H 1280 V 720 H 0 Z"
         id="path283" />
    </clipPath>
    <clipPath
       clipPathUnits="userSpaceOnUse"
       id="clipPath303">
      <path
         d="M 0,0 H 1280 V 720 H 0 Z"
         id="path301" />
    </clipPath>
    <clipPath
       clipPathUnits="userSpaceOnUse"
       id="clipPath992">
      <path
         d="M 0,0 H 1280 V 720 H 0 Z"
         id="path990" />
    </clipPath>
    <clipPath
       clipPathUnits="userSpaceOnUse"
       id="clipPath1204">
      <path
         d="M 0,0 H 1280 V 720 H 0 Z"
         id="path1202" />
    </clipPath>
    <clipPath
       clipPathUnits="userSpaceOnUse"
       id="clipPath1418">
      <path
         d="M 0,0 H 1280 V 720 H 0 Z"
         id="path1416" />
    </clipPath>
    <clipPath
       clipPathUnits="userSpaceOnUse"
       id="clipPath1436">
      <path
         d="M 0,0 H 1280 V 720 H 0 Z"
         id="path1434" />
    </clipPath>
    <clipPath
       clipPathUnits="userSpaceOnUse"
       id="clipPath1738">
      <path
         d="M 0,0 H 1280 V 720 H 0 Z"
         id="path1736" />
    </clipPath>
    <clipPath
       clipPathUnits="userSpaceOnUse"
       id="clipPath1952">
      <path
         d="M 0,0 H 1280 V 720 H 0 Z"
         id="path1950" />
    </clipPath>
    <clipPath
       clipPathUnits="userSpaceOnUse"
       id="clipPath1970">
      <path
         d="M 0,0 H 1280 V 720 H 0 Z"
         id="path1968" />
    </clipPath>
  </defs>
  <sodipodi:namedview
     inkscape:window-maximized="0"
     inkscape:window-y="38"
     inkscape:window-x="674"
     inkscape:window-height="943"
     inkscape:window-width="1222"
     showgrid="false"
     inkscape:document-rotation="0"
     inkscape:current-layer="g1720"
     inkscape:document-units="mm"
     inkscape:cy="371.67087"
     inkscape:cx="270.81126"
     inkscape:zoom="0.49497475"
     inkscape:pageshadow="2"
     inkscape:pageopacity="0.0"
     borderopacity="1.0"
     bordercolor="#666666"
     pagecolor="#ffffff"
     id="base" />
  <metadata
     id="metadata5">
    <rdf:RDF>
      <cc:Work
         rdf:about="">
        <dc:format>image/svg+xml</dc:format>
        <dc:type
           rdf:resource="http://purl.org/dc/dcmitype/StillImage" />
        <dc:title></dc:title>
      </cc:Work>
    </rdf:RDF>
  </metadata>
  <g
     transform="translate(41.262258,-20.306838)"
     id="layer1"
     inkscape:groupmode="layer"
     inkscape:label="Layer 1">
    <g
       id="g53"
       inkscape:label="1_ApID PAViseu MHCViseu"
       transform="matrix(0.35277777,0,0,-0.35277777,-82.14682,316.95214)">
      <g
         id="g974"
         inkscape:label="1_ApID PAViseu MHCViseu"
         transform="translate(-188.89008,278.75759)">
        <g
           id="g1720"
           inkscape:label="1_ApID PAViseu MHCViseu"
           transform="translate(-168.11997,-26.19585)">
          <g
             id="g1732">
            <g
               id="g1734"
               clip-path="url(#clipPath1738)">
              <g
                 id="g1740"
                 transform="translate(565.7559,350.5936)">
                <path
                   d="m 0,0 h -8.9 c -1.849,0 -2.578,-0.922 -3.083,-2.56 l -9.925,-34.906 c -1.536,-5.432 -2.777,-14.745 -2.777,-14.745 0,0 -0.91,9.313 -2.46,14.846 l -9.914,34.805 c -0.525,1.638 -1.24,2.56 -2.98,2.56 h -9.719 c -1.846,0 -2.454,-0.922 -1.946,-2.56 l 19.144,-64.492 c 0.505,-1.742 1.324,-2.561 3.162,-2.561 h 8.911 c 1.851,0 2.776,0.819 3.285,2.561 L 1.827,-2.56 C 2.354,-0.922 1.727,0 0,0"
                   style="fill:#d39c0a;fill-opacity:1;fill-rule:nonzero;stroke:none"
                   id="path1742" />
              </g>
              <g
                 id="g1744"
                 transform="translate(587.6816,350.5936)">
                <path
                   d="m 0,0 h -8.906 c -1.843,0 -2.447,-0.825 -2.447,-2.66 v -64.291 c 0,-1.843 0.604,-2.662 2.447,-2.662 H 0 c 1.841,0 2.455,0.819 2.455,2.662 V -2.66 C 2.455,-0.825 1.841,0 0,0"
                   style="fill:#d39c0a;fill-opacity:1;fill-rule:nonzero;stroke:none"
                   id="path1746" />
              </g>
              <g
                 id="g1748"
                 transform="translate(639.0703,319.4674)">
                <path
                   d="m 0,0 -17.82,6.353 c -1.614,0.612 -4.198,1.944 -4.198,5.527 v 1.533 c 0,5.019 3.388,7.373 10.046,7.373 6.554,0 9.922,-2.354 9.922,-7.373 v -2.354 c 0,-1.742 0.62,-2.561 2.368,-2.561 h 8.58 c 1.846,0 2.581,0.819 2.581,2.561 v 4.198 c 0,8.597 -5.746,16.686 -23.652,16.686 -17.921,0 -23.255,-8.089 -23.255,-16.686 V 9.216 c 0,-6.141 4.407,-11.366 9.317,-13.204 l 15.882,-5.94 c 4.599,-1.74 8.696,-3.377 8.696,-7.58 v -3.275 c 0,-5.013 -3.988,-7.365 -10.847,-7.365 -6.954,0 -10.858,2.352 -10.858,7.365 v 4.608 c 0,1.848 -0.619,2.669 -2.449,2.669 h -8.604 c -1.734,0 -2.455,-0.821 -2.455,-2.669 v -6.443 c 0,-8.607 6.233,-16.692 24.464,-16.692 18.323,0 24.372,8.085 24.372,16.692 v 7.881 C 12.09,-7.169 6.974,-2.455 0,0"
                   style="fill:#d39c0a;fill-opacity:1;fill-rule:nonzero;stroke:none"
                   id="path1750" />
              </g>
              <g
                 id="g1752"
                 transform="translate(701.4375,292.4422)">
                <path
                   d="m 0,0 h -24.69 v 19.041 h 21.912 c 1.851,0 2.68,0.715 2.68,2.457 v 6.147 c 0,1.838 -0.829,2.455 -2.68,2.455 H -24.69 v 16.583 h 23.663 c 1.748,0 2.551,0.721 2.551,2.562 v 6.447 c 0,1.844 -0.803,2.459 -2.551,2.459 h -35.016 c -1.843,0 -2.46,-0.825 -2.46,-2.66 V -8.8 c 0,-1.843 0.617,-2.661 2.46,-2.661 H 0 c 1.826,0 2.559,0.712 2.559,2.561 v 6.443 C 2.559,-0.612 1.826,0 0,0"
                   style="fill:#d39c0a;fill-opacity:1;fill-rule:nonzero;stroke:none"
                   id="path1754" />
              </g>
              <g
                 id="g1756"
                 transform="translate(762.1543,350.5936)">
                <path
                   d="m 0,0 h -8.897 c -1.835,0 -2.461,-0.825 -2.461,-2.66 v -48.63 c 0,-5.122 -4.307,-7.677 -11.168,-7.677 -6.848,0 -10.942,2.555 -10.942,7.677 v 48.63 c 0,1.835 -0.713,2.66 -2.455,2.66 h -8.906 c -1.846,0 -2.564,-0.825 -2.564,-2.66 v -51.084 c 0,-8.608 6.351,-16.693 24.867,-16.693 18.554,0 24.896,8.085 24.896,16.693 V -2.66 C 2.37,-0.825 1.843,0 0,0"
                   style="fill:#d39c0a;fill-opacity:1;fill-rule:nonzero;stroke:none"
                   id="path1758" />
              </g>
              <g
                 id="g1760"
                 transform="translate(517.2148,242.1434)">
                <path
                   d="m 0,0 v -7.003 c 0,-0.421 -0.12,-0.601 -0.541,-0.601 h -1.833 c -0.391,0 -0.541,0.18 -0.541,0.601 v 19.235 c 0,0.421 0.15,0.601 0.541,0.601 h 6.101 c 5.169,0 6.823,-2.164 6.823,-4.628 V 4.628 C 10.55,2.164 8.896,0 3.727,0 Z M 0,10.339 V 2.494 h 3.727 c 2.705,0 3.907,0.992 3.907,2.615 v 2.615 c 0,1.623 -1.202,2.615 -3.907,2.615 z"
                   style="fill:#d39c0a;fill-opacity:1;fill-rule:nonzero;stroke:none"
                   id="path1762" />
              </g>
              <g
                 id="g1764"
                 transform="translate(530.1084,250.5888)">
                <path
                   d="m 0,0 c 0,2.464 1.684,4.628 6.822,4.628 5.17,0 6.853,-2.164 6.853,-4.628 v -11.661 c 0,-2.465 -1.683,-4.629 -6.853,-4.629 -5.138,0 -6.822,2.164 -6.822,4.629 z m 10.729,-0.481 c 0,1.623 -1.202,2.615 -3.907,2.615 -2.675,0 -3.877,-0.992 -3.877,-2.615 V -11.18 c 0,-1.623 1.202,-2.615 3.877,-2.615 2.705,0 3.907,0.992 3.907,2.615 z"
                   style="fill:#d39c0a;fill-opacity:1;fill-rule:nonzero;stroke:none"
                   id="path1766" />
              </g>
              <g
                 id="g1768"
                 transform="translate(550.2744,237.034)">
                <path
                   d="m 0,0 h 7.693 c 0.391,0 0.572,-0.12 0.572,-0.541 v -1.382 c 0,-0.421 -0.181,-0.571 -0.572,-0.571 H -2.465 c -0.331,0 -0.48,0.21 -0.48,0.601 v 19.235 c 0,0.42 0.149,0.601 0.57,0.601 h 1.834 C -0.15,17.943 0,17.762 0,17.342 Z"
                   style="fill:#d39c0a;fill-opacity:1;fill-rule:nonzero;stroke:none"
                   id="path1770" />
              </g>
              <g
                 id="g1772"
                 transform="translate(560.1318,250.5888)">
                <path
                   d="m 0,0 c 0,2.464 1.684,4.628 6.822,4.628 5.17,0 6.853,-2.164 6.853,-4.628 v -11.661 c 0,-2.465 -1.683,-4.629 -6.853,-4.629 -5.138,0 -6.822,2.164 -6.822,4.629 z m 10.729,-0.481 c 0,1.623 -1.202,2.615 -3.907,2.615 -2.675,0 -3.877,-0.992 -3.877,-2.615 V -11.18 c 0,-1.623 1.202,-2.615 3.877,-2.615 2.705,0 3.907,0.992 3.907,2.615 z"
                   style="fill:#d39c0a;fill-opacity:1;fill-rule:nonzero;stroke:none"
                   id="path1774" />
              </g>
              <g
                 id="g1776"
                 transform="translate(590.4863,254.075)">
                <path
                   d="m 0,0 5.439,-18.634 c 0.181,-0.571 -0.03,-0.901 -0.661,-0.901 H 1.442 c -0.63,0 -0.901,0.33 -1.051,0.901 l -0.782,2.885 H -5.38 l -0.781,-2.885 c -0.151,-0.571 -0.421,-0.901 -1.053,-0.901 h -3.035 c -0.631,0 -0.842,0.33 -0.661,0.901 L -5.471,0 c 0.181,0.601 0.482,0.902 1.113,0.902 h 3.246 C -0.481,0.902 -0.181,0.601 0,0 m -1.894,-10.219 c -0.481,1.834 -0.902,6.011 -0.931,6.282 -0.061,-0.421 -0.541,-4.538 -1.023,-6.282 l -0.45,-1.622 h 2.825 z"
                   style="fill:#d39c0a;fill-opacity:1;fill-rule:nonzero;stroke:none"
                   id="path1778" />
              </g>
              <g
                 id="g1780"
                 transform="translate(608.8799,242.8346)">
                <path
                   d="m 0,0 2.945,-7.393 c 0.21,-0.541 -0.18,-0.902 -0.841,-0.902 h -3.247 c -0.571,0 -0.691,0.481 -0.871,0.902 l -2.645,6.642 h -2.254 v -6.642 c 0,-0.632 -0.21,-0.902 -0.842,-0.902 H -11 c -0.632,0 -0.872,0.27 -0.872,0.902 V 11.24 c 0,0.632 0.24,0.902 0.872,0.902 h 6.491 c 5.651,0 7.634,-2.555 7.634,-5.139 V 4.388 C 3.125,2.675 2.254,0.962 0,0 M -6.913,8.085 V 3.306 h 2.404 c 1.473,0 2.736,0.571 2.736,1.954 v 0.871 c 0,1.383 -1.263,1.954 -2.736,1.954 z"
                   style="fill:#d39c0a;fill-opacity:1;fill-rule:nonzero;stroke:none"
                   id="path1782" />
              </g>
              <g
                 id="g1784"
                 transform="translate(629.165,239.4384)">
                <path
                   d="m 0,0 c 0,-1.954 -1.142,-3.847 -4.087,-4.689 l 2.855,-2.524 c 0.481,-0.421 0.511,-0.842 0.121,-1.232 l -1.623,-1.744 c -0.362,-0.39 -0.812,-0.42 -1.233,-0.06 l -5.68,5.23 c -4.178,0.511 -5.71,2.735 -5.71,5.019 v 10.639 c 0,2.585 2.013,5.14 7.664,5.14 5.649,0 7.693,-2.555 7.693,-5.14 z m -10.398,0.751 c 0,-1.382 1.231,-1.953 2.705,-1.953 1.472,0 2.734,0.571 2.734,1.953 v 9.137 c 0,1.383 -1.262,1.954 -2.734,1.954 -1.474,0 -2.705,-0.571 -2.705,-1.954 z"
                   style="fill:#d39c0a;fill-opacity:1;fill-rule:nonzero;stroke:none"
                   id="path1786" />
              </g>
              <g
                 id="g1788"
                 transform="translate(636.2266,240.31)">
                <path
                   d="m 0,0 c 0,-1.383 1.232,-1.954 2.705,-1.954 1.473,0 2.735,0.571 2.735,1.954 v 13.765 c 0,0.631 0.241,0.902 0.872,0.902 h 3.246 c 0.63,0 0.841,-0.271 0.841,-0.902 V -0.872 c 0,-2.584 -2.044,-5.139 -7.694,-5.139 -5.65,0 -7.664,2.555 -7.664,5.139 v 14.637 c 0,0.631 0.24,0.902 0.872,0.902 h 3.246 C -0.21,14.667 0,14.396 0,13.765 Z"
                   style="fill:#d39c0a;fill-opacity:1;fill-rule:nonzero;stroke:none"
                   id="path1790" />
              </g>
              <g
                 id="g1792"
                 transform="translate(649.9014,234.5396)">
                <path
                   d="m 0,0 c -0.631,0 -0.871,0.27 -0.871,0.902 v 18.633 c 0,0.632 0.24,0.902 0.871,0.902 h 10.279 c 0.631,0 0.902,-0.21 0.902,-0.841 v -2.345 c 0,-0.631 -0.271,-0.871 -0.902,-0.871 H 4.088 v -3.907 h 5.71 c 0.632,0 0.902,-0.211 0.902,-0.842 V 9.437 C 10.7,8.806 10.43,8.566 9.798,8.566 H 4.088 V 4.057 h 6.492 c 0.631,0 0.901,-0.21 0.901,-0.841 V 0.871 C 11.481,0.24 11.211,0 10.58,0 Z"
                   style="fill:#d39c0a;fill-opacity:1;fill-rule:nonzero;stroke:none"
                   id="path1794" />
              </g>
              <g
                 id="g1796"
                 transform="translate(662.8838,250.0778)">
                <path
                   d="m 0,0 c 0,2.585 2.014,5.139 7.664,5.139 5.65,0 7.694,-2.554 7.694,-5.139 v -10.639 c 0,-2.585 -2.044,-5.14 -7.694,-5.14 -5.65,0 -7.664,2.555 -7.664,5.14 z m 10.399,-0.872 c 0,1.383 -1.262,1.954 -2.735,1.954 -1.473,0 -2.704,-0.571 -2.704,-1.954 v -8.896 c 0,-1.382 1.231,-1.953 2.704,-1.953 1.473,0 2.735,0.571 2.735,1.953 z"
                   style="fill:#d39c0a;fill-opacity:1;fill-rule:nonzero;stroke:none"
                   id="path1798" />
              </g>
              <g
                 id="g1800"
                 transform="translate(685.4551,238.5968)">
                <path
                   d="m 0,0 h 5.891 c 0.631,0 0.902,-0.21 0.902,-0.841 v -2.345 c 0,-0.631 -0.271,-0.871 -0.902,-0.871 H -4.207 c -0.541,0 -0.752,0.3 -0.752,0.901 v 18.634 c 0,0.631 0.24,0.902 0.872,0.902 h 3.245 C -0.21,16.38 0,16.109 0,15.478 Z"
                   style="fill:#d39c0a;fill-opacity:1;fill-rule:nonzero;stroke:none"
                   id="path1802" />
              </g>
              <g
                 id="g1804"
                 transform="translate(724.2549,245.6598)">
                <path
                   d="m 0,0 c 0.631,0 0.901,-0.21 0.901,-0.842 v -5.379 c 0,-2.585 -1.743,-5.14 -7.393,-5.14 -5.651,0 -7.394,2.555 -7.394,5.14 V 4.418 c 0,2.585 1.743,5.139 7.394,5.139 5.65,0 7.393,-2.554 7.393,-5.139 V 3.336 C 0.901,2.705 0.691,2.434 0.06,2.434 h -3.096 c -0.631,0 -0.871,0.271 -0.871,0.902 v 0.21 c 0,1.383 -1.052,1.954 -2.525,1.954 -1.472,0 -2.495,-0.571 -2.495,-1.954 V -5.35 c 0,-1.382 1.023,-1.953 2.495,-1.953 1.473,0 2.525,0.571 2.525,1.953 v 1.293 h -2.465 c -0.631,0 -0.901,0.24 -0.901,0.871 v 2.344 c 0,0.632 0.27,0.842 0.901,0.842 z"
                   style="fill:#d39c0a;fill-opacity:1;fill-rule:nonzero;stroke:none"
                   id="path1806" />
              </g>
              <g
                 id="g1808"
                 transform="translate(732.2197,235.4412)">
                <path
                   d="m 0,0 c 0,-0.631 -0.211,-0.902 -0.842,-0.902 h -3.246 c -0.631,0 -0.872,0.271 -0.872,0.902 v 18.634 c 0,0.631 0.241,0.902 0.872,0.902 h 3.246 C -0.211,19.536 0,19.265 0,18.634 Z"
                   style="fill:#d39c0a;fill-opacity:1;fill-rule:nonzero;stroke:none"
                   id="path1810" />
              </g>
              <g
                 id="g1812"
                 transform="translate(749.2588,239.4384)">
                <path
                   d="m 0,0 c 0,-2.585 -1.743,-5.139 -7.394,-5.139 -5.65,0 -7.393,2.554 -7.393,5.139 v 10.639 c 0,2.585 1.743,5.14 7.393,5.14 5.651,0 7.394,-2.555 7.394,-5.14 L 0,9.257 C 0,8.626 -0.21,8.355 -0.842,8.355 h -3.095 c -0.631,0 -0.872,0.271 -0.872,0.902 v 0.511 c 0,1.382 -1.051,1.953 -2.524,1.953 -1.473,0 -2.495,-0.571 -2.495,-1.953 V 0.872 c 0,-1.383 1.022,-1.954 2.495,-1.954 1.473,0 2.524,0.571 2.524,1.954 v 0.961 c 0,0.632 0.241,0.902 0.872,0.902 h 3.095 C -0.21,2.735 0,2.465 0,1.833 Z"
                   style="fill:#d39c0a;fill-opacity:1;fill-rule:nonzero;stroke:none"
                   id="path1814" />
              </g>
              <g
                 id="g1816"
                 transform="translate(750.7617,250.0778)">
                <path
                   d="m 0,0 c 0,2.585 2.014,5.139 7.664,5.139 5.65,0 7.694,-2.554 7.694,-5.139 v -10.639 c 0,-2.585 -2.044,-5.14 -7.694,-5.14 -5.65,0 -7.664,2.555 -7.664,5.14 z m 10.399,-0.872 c 0,1.383 -1.262,1.954 -2.735,1.954 -1.473,0 -2.705,-0.571 -2.705,-1.954 v -8.896 c 0,-1.382 1.232,-1.953 2.705,-1.953 1.473,0 2.735,0.571 2.735,1.953 z"
                   style="fill:#d39c0a;fill-opacity:1;fill-rule:nonzero;stroke:none"
                   id="path1818" />
              </g>
              <g
                 id="g1820"
                 transform="translate(705.3818,254.3849)">
                <path
                   d="m 0,0 -2.585,-3.807 c 0.404,-0.314 0.661,-0.759 0.661,-1.372 v -8.896 c 0,-1.383 -1.263,-1.954 -2.735,-1.954 -1.473,0 -2.704,0.571 -2.704,1.954 v 8.896 c 0,0.751 0.37,1.255 0.937,1.566 l 1.967,4.439 c -0.068,0.001 -0.131,0.006 -0.2,0.006 -5.651,0 -7.664,-2.555 -7.664,-5.139 v -10.64 c 0,-2.584 2.013,-5.139 7.664,-5.139 5.65,0 7.694,2.555 7.694,5.139 v 10.64 C 3.035,-2.625 2.161,-0.961 0,0"
                   style="fill:#d39c0a;fill-opacity:1;fill-rule:nonzero;stroke:none"
                   id="path1822" />
              </g>
              <g
                 id="g1824"
                 transform="translate(718.2295,505.8896)">
                <path
                   d="m 0,0 -36.136,36.136 c -4.598,4.598 -10.836,7.181 -17.34,7.181 h -51.101 c -6.505,0 -12.741,-2.583 -17.34,-7.181 L -158.053,0 c -4.6,-4.599 -7.182,-10.836 -7.182,-17.341 v -51.102 c 0,-6.504 2.582,-12.74 7.182,-17.339 l 36.136,-36.136 c 4.599,-4.599 10.835,-7.182 17.34,-7.182 h 51.1 c 6.505,0 12.743,2.583 17.341,7.182 L 0,-85.782 c 4.598,4.599 7.182,10.836 7.182,17.339 v 51.104 C 7.182,-10.836 4.598,-4.599 0,0 m 4.518,-67.653 c 0,-6.302 -2.504,-12.347 -6.96,-16.804 l -35.019,-35.019 c -4.457,-4.455 -10.502,-6.96 -16.805,-6.96 h -49.522 c -6.304,0 -12.347,2.505 -16.804,6.96 l -35.019,35.019 c -4.458,4.457 -6.961,10.501 -6.961,16.804 v 49.523 c 0,6.303 2.503,12.348 6.961,16.805 l 35.019,35.018 c 4.457,4.457 10.5,6.96 16.804,6.96 h 49.523 c 6.302,0 12.347,-2.503 16.804,-6.96 L -2.442,-1.325 c 4.456,-4.457 6.96,-10.502 6.96,-16.804 z"
                   style="fill:#efd7a8;fill-opacity:1;fill-rule:nonzero;stroke:none"
                   id="path1826" />
              </g>
              <g
                 id="g1828"
                 transform="translate(632.8633,423.8452)">
                <path
                   d="m 0,0 c 1.193,-1.042 2.801,-1.571 4.775,-1.571 0.892,0 2.175,0.175 3.121,0.679 0.462,0.268 0.462,0.606 0.462,1.22 v 1.496 c 0,0.546 -0.002,0.937 0.026,1.357 0.008,0.134 0.02,0.204 0.023,0.227 0.108,0.019 0.164,0.031 0.23,0.031 0.384,0 0.683,0.288 0.683,0.656 0,0.254 -0.167,0.683 -0.791,0.683 -0.29,0 -0.806,-0.02 -1.106,-0.032 L 7.226,4.738 7.062,4.744 C 6.764,4.756 6.169,4.778 5.71,4.778 5.087,4.778 4.92,4.349 4.92,4.095 c 0,-0.368 0.3,-0.656 0.684,-0.656 0.107,0 0.269,-0.013 0.3,-0.02 C 5.984,3.397 6.024,3.382 6.039,3.385 6.082,3.238 6.082,2.761 6.082,2.599 L 6.104,0.359 C 5.906,0.245 5.363,0.155 4.869,0.155 3.675,0.155 2.633,0.581 1.771,1.422 1.341,1.839 0.528,3.063 0.528,4.709 c 0,1.294 0.413,2.394 1.105,2.942 0.886,0.699 1.756,0.758 2.501,0.758 1.543,0 2.45,-0.505 2.652,-0.811 C 6.918,7.385 6.97,7.109 6.98,6.957 7.056,6.296 7.511,6.245 7.648,6.245 c 0.163,0 0.697,0.061 0.697,0.857 0,0.942 0.047,1.387 0.072,1.626 0.014,0.121 0.021,0.205 0.021,0.271 0,0.31 -0.209,0.645 -0.713,0.695 C 7.405,9.707 6.979,9.759 6.735,9.817 6.618,9.841 5.555,10.055 4.575,10.055 3.473,10.055 2.038,9.95 0.714,9.125 -0.851,8.14 -1.786,6.314 -1.786,4.242 -1.786,2.258 -0.823,0.717 0,0"
                   style="fill:#efd7a8;fill-opacity:1;fill-rule:nonzero;stroke:none"
                   id="path1830" />
              </g>
              <g
                 id="g1832"
                 transform="translate(666.291,399.68)">
                <path
                   d="m 0,0 c -0.29,0 -0.807,-0.021 -1.107,-0.032 l -0.198,-0.008 -0.16,0.006 C -1.763,-0.023 -2.36,0 -2.819,0 -3.443,0 -3.61,-0.429 -3.61,-0.683 c 0,-0.368 0.299,-0.656 0.683,-0.656 0.109,0 0.271,-0.014 0.302,-0.02 0.08,-0.022 0.114,-0.044 0.134,-0.034 0.043,-0.147 0.043,-0.623 0.043,-0.786 l 0.023,-2.24 c -0.199,-0.115 -0.742,-0.205 -1.237,-0.205 -1.193,0 -2.235,0.427 -3.098,1.268 -0.43,0.416 -1.242,1.641 -1.242,3.287 0,1.293 0.413,2.393 1.105,2.942 0.885,0.699 1.755,0.758 2.501,0.758 1.542,0 2.45,-0.505 2.652,-0.812 0.133,-0.213 0.184,-0.489 0.195,-0.64 0.072,-0.644 0.49,-0.713 0.666,-0.713 0.164,0 0.698,0.062 0.698,0.857 0,0.942 0.047,1.387 0.073,1.626 0.013,0.122 0.02,0.206 0.02,0.271 0,0.311 -0.211,0.646 -0.714,0.695 -0.319,0.013 -0.745,0.066 -0.986,0.123 -0.047,0.01 -1.148,0.239 -2.162,0.239 -1.102,0 -2.537,-0.106 -3.862,-0.93 -1.565,-0.986 -2.501,-2.811 -2.501,-4.883 0,-1.985 0.963,-3.527 1.788,-4.242 1.193,-1.043 2.8,-1.572 4.774,-1.572 0.893,0 2.176,0.176 3.12,0.678 0.464,0.268 0.464,0.607 0.464,1.221 v 1.496 c 0,0.547 -0.002,0.937 0.025,1.358 0.008,0.133 0.021,0.204 0.022,0.226 0.109,0.019 0.166,0.032 0.23,0.032 0.384,0 0.684,0.288 0.684,0.656 C 0.79,-0.429 0.623,0 0,0"
                   style="fill:#efd7a8;fill-opacity:1;fill-rule:nonzero;stroke:none"
                   id="path1834" />
              </g>
              <g
                 id="g1836"
                 transform="translate(654.8418,395.1152)">
                <path
                   d="M 0,0 C -0.103,-0.001 -0.352,0.022 -0.499,0.01 -0.505,0.022 -0.528,0.076 -0.55,0.281 -0.612,0.807 -0.612,1.875 -0.612,3.112 v 2.351 c 0,2.068 0,2.44 0.026,2.852 0.007,0.136 0.021,0.207 0.025,0.229 0.109,0.018 0.164,0.03 0.227,0.03 0.383,0 0.685,0.289 0.685,0.656 0,0.254 -0.167,0.684 -0.791,0.684 -0.29,0 -0.806,-0.021 -1.107,-0.032 L -1.745,9.874 -1.94,9.881 c -0.301,0.012 -0.835,0.033 -1.159,0.033 -0.624,0 -0.791,-0.43 -0.791,-0.684 0,-0.367 0.301,-0.656 0.684,-0.656 0.059,0 0.183,-0.01 0.248,-0.004 0.002,-0.002 0.035,-0.059 0.046,-0.258 0.025,-0.409 0.025,-0.781 0.025,-2.849 V 3.112 c 0,-1.237 0,-2.305 -0.061,-2.82 C -2.966,0.156 -2.983,0.072 -2.997,0.019 -3.076,0.006 -3.135,0 -3.166,0 c -0.383,0 -0.683,-0.288 -0.683,-0.656 0,-0.254 0.166,-0.683 0.791,-0.683 0.29,0 0.805,0.02 1.107,0.032 l 0.198,0.008 0.144,-0.005 c 0.295,-0.011 0.931,-0.035 1.503,-0.035 0.543,0 0.791,0.354 0.791,0.683 C 0.685,-0.288 0.384,0 0,0"
                   style="fill:#efd7a8;fill-opacity:1;fill-rule:nonzero;stroke:none"
                   id="path1838" />
              </g>
              <g
                 id="g1840"
                 transform="translate(632.3408,446.5618)">
                <path
                   d="m 0,0 c 0.108,0 0.271,-0.014 0.42,-0.032 0.002,-0.005 0.022,-0.053 0.032,-0.23 0.027,-0.41 0.027,-0.782 0.027,-2.85 v -2.351 c 0,-1.236 0,-2.304 -0.062,-2.821 C 0.398,-8.419 0.383,-8.503 0.369,-8.555 0.293,-8.568 0.233,-8.574 0.2,-8.574 c -0.383,0 -0.684,-0.289 -0.684,-0.657 0,-0.253 0.167,-0.682 0.791,-0.682 0.101,0 0.226,0.006 0.361,0.012 0.135,0.007 0.279,0.014 0.442,0.015 0.266,0.013 0.481,0.013 0.504,0.013 0.062,-0.001 0.413,-0.014 0.797,-0.039 l 0.523,-0.024 c 0.204,-0.009 0.375,-0.017 0.46,-0.017 2.613,0 3.982,1.755 3.982,3.488 0,1.396 -0.876,2.447 -1.917,3.027 0.469,0.561 0.861,1.237 0.861,2.197 0,0.893 -0.679,2.58 -3.248,2.58 C 2.707,1.339 2.375,1.326 2.095,1.314 1.907,1.306 1.744,1.299 1.62,1.299 L 1.459,1.305 C 1.162,1.317 0.565,1.339 0.106,1.339 -0.518,1.339 -0.684,0.91 -0.684,0.656 -0.684,0.288 -0.384,0 0,0 m 2.7,-0.197 c 0.08,0.007 0.159,0.01 0.224,0.01 1.14,0 1.228,-1.318 1.228,-1.722 0,-0.365 -0.126,-0.728 -0.338,-0.969 -0.12,-0.138 -0.132,-0.152 -0.782,-0.152 -0.13,0 -0.24,0.003 -0.332,0.007 z m 0,-4.348 c 0.194,-0.002 0.387,-0.008 0.482,-0.02 0.288,-0.037 0.513,-0.065 0.846,-0.29 0.945,-0.651 1.046,-1.754 1.046,-2.197 0,-1.227 -1,-1.322 -1.307,-1.322 -0.303,0 -0.72,0.045 -1.003,0.174 C 2.739,-8.143 2.728,-7.921 2.711,-7.669 2.7,-7.484 2.7,-5.686 2.7,-4.822 Z"
                   style="fill:#efd7a8;fill-opacity:1;fill-rule:nonzero;stroke:none"
                   id="path1842" />
              </g>
              <g
                 id="g1844"
                 transform="translate(654.1865,411.0388)">
                <path
                   d="m 0,0 c 0,1.397 -0.874,2.447 -1.918,3.026 0.47,0.562 0.862,1.238 0.862,2.197 0,0.893 -0.679,2.581 -3.248,2.581 -0.366,0 -0.7,-0.014 -0.979,-0.026 C -5.471,7.77 -5.632,7.764 -5.756,7.764 L -5.921,7.77 c -0.299,0.011 -0.892,0.034 -1.349,0.034 -0.623,0 -0.79,-0.43 -0.79,-0.683 0,-0.369 0.3,-0.657 0.684,-0.657 0.107,0 0.271,-0.013 0.419,-0.032 0.003,-0.005 0.023,-0.052 0.033,-0.229 0.027,-0.41 0.027,-0.783 0.027,-2.85 V 1.001 c 0,-1.235 0,-2.303 -0.062,-2.82 -0.019,-0.135 -0.034,-0.219 -0.048,-0.272 -0.076,-0.013 -0.136,-0.019 -0.169,-0.019 -0.383,0 -0.684,-0.288 -0.684,-0.656 0,-0.254 0.167,-0.683 0.791,-0.683 0.101,0 0.226,0.006 0.361,0.012 0.135,0.007 0.279,0.014 0.439,0.015 0.269,0.013 0.484,0.013 0.508,0.013 0.062,-0.001 0.413,-0.014 0.796,-0.039 l 0.523,-0.023 c 0.204,-0.01 0.375,-0.018 0.46,-0.018 C -1.369,-3.489 0,-1.734 0,0 m -4.676,6.268 c 0.079,0.006 0.159,0.009 0.225,0.009 1.139,0 1.227,-1.317 1.227,-1.721 0,-0.366 -0.126,-0.728 -0.338,-0.971 -0.12,-0.136 -0.131,-0.15 -0.782,-0.15 -0.131,0 -0.242,0.003 -0.332,0.006 z m 1.067,-8.178 c -0.303,0 -0.721,0.045 -1.003,0.174 -0.025,0.058 -0.036,0.279 -0.053,0.531 -0.011,0.185 -0.011,1.984 -0.011,2.848 V 1.92 c 0.194,-0.002 0.386,-0.008 0.482,-0.021 0.287,-0.036 0.513,-0.065 0.845,-0.29 0.946,-0.65 1.047,-1.753 1.047,-2.197 0,-1.226 -1,-1.322 -1.307,-1.322"
                   style="fill:#efd7a8;fill-opacity:1;fill-rule:nonzero;stroke:none"
                   id="path1846" />
              </g>
              <g
                 id="g1848"
                 transform="translate(626.7578,418.8172)">
                <path
                   d="m 0,0 c -0.187,-0.008 -0.35,-0.015 -0.473,-0.015 l -0.165,0.006 c -0.299,0.011 -0.892,0.034 -1.349,0.034 -0.623,0 -0.789,-0.429 -0.789,-0.682 0,-0.369 0.299,-0.657 0.682,-0.657 0.108,0 0.271,-0.014 0.42,-0.032 0.003,-0.005 0.024,-0.053 0.033,-0.23 0.026,-0.41 0.026,-0.782 0.026,-2.849 v -2.352 c 0,-1.236 0,-2.303 -0.061,-2.821 -0.018,-0.134 -0.034,-0.219 -0.048,-0.271 -0.076,-0.013 -0.136,-0.019 -0.169,-0.019 -0.383,0 -0.684,-0.288 -0.684,-0.656 0,-0.254 0.167,-0.683 0.791,-0.683 0.099,0 0.226,0.006 0.359,0.012 0.135,0.007 0.281,0.014 0.442,0.015 0.267,0.013 0.483,0.013 0.507,0.013 0.062,-0.001 0.413,-0.014 0.796,-0.04 l 0.523,-0.023 c 0.203,-0.01 0.375,-0.018 0.459,-0.018 2.614,0 3.982,1.755 3.982,3.49 0,1.397 -0.875,2.447 -1.917,3.025 0.468,0.563 0.863,1.239 0.863,2.198 0,0.892 -0.68,2.58 -3.249,2.58 C 0.613,0.025 0.279,0.012 0,0 m 2.981,-8.367 c 0,-1.226 -1.001,-1.321 -1.307,-1.321 -0.303,0 -0.722,0.045 -1.003,0.174 C 0.647,-9.457 0.634,-9.235 0.618,-8.983 0.606,-8.798 0.606,-7 0.606,-6.135 v 0.277 C 0.801,-5.861 0.993,-5.867 1.088,-5.88 1.376,-5.916 1.603,-5.944 1.934,-6.169 2.88,-6.82 2.981,-7.923 2.981,-8.367 m -0.923,5.144 c 0,-0.366 -0.125,-0.728 -0.336,-0.97 -0.12,-0.137 -0.133,-0.151 -0.784,-0.151 -0.13,0 -0.242,0.003 -0.332,0.007 v 2.826 c 0.081,0.007 0.161,0.01 0.225,0.01 1.139,0 1.227,-1.318 1.227,-1.722"
                   style="fill:#efd7a8;fill-opacity:1;fill-rule:nonzero;stroke:none"
                   id="path1850" />
              </g>
              <g
                 id="g1852"
                 transform="translate(652.5879,446.5618)">
                <path
                   d="m 0,0 c 0.107,0 0.27,-0.014 0.42,-0.032 0.002,-0.005 0.022,-0.053 0.032,-0.23 0.026,-0.41 0.026,-0.782 0.026,-2.85 v -2.351 c 0,-1.236 0,-2.304 -0.061,-2.821 C 0.398,-8.419 0.383,-8.503 0.369,-8.555 0.29,-8.569 0.231,-8.574 0.2,-8.574 c -0.389,0 -0.684,-0.283 -0.684,-0.657 0,-0.253 0.167,-0.682 0.791,-0.682 0.1,0 0.225,0.006 0.36,0.012 0.135,0.007 0.28,0.014 0.443,0.015 0.266,0.013 0.48,0.013 0.504,0.013 0.062,-0.001 0.412,-0.014 0.797,-0.039 l 0.524,-0.024 c 0.202,-0.009 0.374,-0.017 0.458,-0.017 2.614,0 3.983,1.755 3.983,3.488 0,1.396 -0.876,2.447 -1.917,3.027 0.467,0.561 0.861,1.237 0.861,2.197 0,0.893 -0.679,2.58 -3.248,2.58 C 2.706,1.339 2.373,1.326 2.093,1.314 1.906,1.306 1.744,1.299 1.619,1.299 L 1.456,1.306 C 1.159,1.317 0.563,1.339 0.106,1.339 -0.517,1.339 -0.684,0.91 -0.684,0.656 -0.684,0.288 -0.384,0 0,0 m 2.7,-0.197 c 0.079,0.007 0.159,0.01 0.225,0.01 1.137,0 1.226,-1.318 1.226,-1.722 0,-0.366 -0.126,-0.729 -0.337,-0.969 -0.12,-0.138 -0.131,-0.152 -0.782,-0.152 -0.13,0 -0.24,0.003 -0.332,0.007 z m 0,-4.348 c 0.194,-0.002 0.387,-0.008 0.482,-0.02 0.287,-0.037 0.513,-0.065 0.845,-0.29 0.946,-0.651 1.047,-1.754 1.047,-2.197 0,-1.227 -1,-1.322 -1.307,-1.322 -0.302,0 -0.722,0.045 -1.003,0.173 C 2.74,-8.143 2.727,-7.921 2.711,-7.669 2.7,-7.484 2.7,-5.686 2.7,-4.822 Z"
                   style="fill:#efd7a8;fill-opacity:1;fill-rule:nonzero;stroke:none"
                   id="path1854" />
              </g>
              <g
                 id="g1856"
                 transform="translate(638.8818,437.3312)">
                <path
                   d="m 0,0 c 0,-0.07 0.024,-0.682 0.831,-0.682 0.431,0 0.911,0.018 1.225,0.03 l 0.285,0.009 c 0.055,0 0.174,-0.006 0.315,-0.013 0.237,-0.012 0.528,-0.026 0.727,-0.026 0.533,0 0.777,0.353 0.777,0.682 0,0.326 -0.245,0.656 -0.711,0.656 L 3.402,0.658 c 0.023,0.15 0.072,0.331 0.139,0.52 L 4.245,3.259 H 6.494 L 7.563,0.432 C 7.469,0.317 7.415,0.173 7.415,0.014 c 0,-0.622 0.667,-0.655 0.963,-0.67 0.928,-0.026 1.911,-0.026 2.112,-0.026 0.82,0 0.844,0.612 0.844,0.682 0,0.326 -0.245,0.656 -0.71,0.656 -0.092,0 -0.227,0.009 -0.376,0.058 C 10.016,0.781 9.755,1.166 9.476,1.858 8.903,3.287 7.693,6.445 6.959,8.363 6.648,9.171 6.423,9.761 6.364,9.906 6.212,10.305 6.038,10.757 5.533,10.757 5.025,10.757 4.859,10.299 4.699,9.856 L 1.665,1.559 C 1.41,0.853 1.245,0.709 1.014,0.679 0.927,0.668 0.773,0.656 0.698,0.656 0.308,0.656 0,0.368 0,0 M 5.332,6.518 5.904,4.892 H 4.802 Z"
                   style="fill:#efd7a8;fill-opacity:1;fill-rule:nonzero;stroke:none"
                   id="path1858" />
              </g>
              <g
                 id="g1860"
                 transform="translate(667.373,436.4614)">
                <path
                   d="m 0,0 c 3.366,0 5.907,2.597 5.907,6.041 0,3.289 -2.397,5.585 -5.828,5.585 -4.027,0 -5.839,-3.391 -5.839,-5.8 C -5.76,3.02 -3.957,0 0,0 m -0.014,10.02 c 1.679,0 3.486,-1.362 3.486,-4.354 0,-3.718 -2.382,-4.006 -3.113,-4.006 -2.177,0 -3.698,1.867 -3.698,4.54 0,2.392 1.243,3.82 3.325,3.82"
                   style="fill:#efd7a8;fill-opacity:1;fill-rule:nonzero;stroke:none"
                   id="path1862" />
              </g>
              <g
                 id="g1864"
                 transform="translate(625.3818,446.5618)">
                <path
                   d="m 0,0 c 0.059,0 0.182,-0.011 0.248,-0.004 0.002,-0.003 0.034,-0.06 0.046,-0.258 0.025,-0.41 0.025,-0.782 0.025,-2.85 v -2.351 c 0,-1.236 0,-2.304 -0.061,-2.819 C 0.24,-8.418 0.223,-8.503 0.209,-8.555 0.13,-8.569 0.071,-8.574 0.04,-8.574 c -0.383,0 -0.683,-0.289 -0.683,-0.657 0,-0.253 0.166,-0.682 0.791,-0.682 0.289,0 0.805,0.02 1.107,0.032 l 0.198,0.008 0.144,-0.005 c 0.295,-0.011 0.931,-0.035 1.503,-0.035 0.544,0 0.791,0.354 0.791,0.682 0,0.368 -0.301,0.657 -0.685,0.657 -0.102,-10e-4 -0.352,0.022 -0.499,0.01 -0.007,0.012 -0.029,0.066 -0.051,0.271 -0.062,0.526 -0.062,1.594 -0.062,2.83 v 2.351 c 0,2.068 0,2.44 0.026,2.853 0.007,0.135 0.021,0.206 0.026,0.229 C 2.753,-0.012 2.809,0 2.872,0 3.255,0 3.557,0.288 3.557,0.656 3.557,0.91 3.39,1.339 2.766,1.339 2.475,1.339 1.96,1.319 1.659,1.307 L 1.46,1.299 1.266,1.307 C 0.964,1.318 0.431,1.339 0.107,1.339 -0.517,1.339 -0.684,0.91 -0.684,0.656 -0.684,0.288 -0.384,0 0,0"
                   style="fill:#efd7a8;fill-opacity:1;fill-rule:nonzero;stroke:none"
                   id="path1866" />
              </g>
              <g
                 id="g1868"
                 transform="translate(674.5596,412.6488)">
                <path
                   d="m 0,0 -0.058,0.075 c 0.967,1.008 1.423,2.015 1.423,3.138 0,1.069 -0.627,1.899 -1.163,2.285 -0.854,0.613 -1.886,0.696 -2.78,0.696 -0.264,0 -0.768,-0.016 -1.144,-0.028 C -3.934,6.159 -4.103,6.154 -4.15,6.154 l -0.162,0.005 c -0.296,0.012 -0.894,0.035 -1.353,0.035 -0.623,0 -0.789,-0.43 -0.789,-0.683 0,-0.369 0.3,-0.657 0.683,-0.657 0.109,0 0.272,-0.013 0.419,-0.031 0.003,-0.005 0.024,-0.053 0.034,-0.23 0.025,-0.41 0.025,-0.783 0.025,-2.85 v -2.352 c 0,-1.235 0,-2.303 -0.061,-2.82 -0.018,-0.135 -0.034,-0.219 -0.047,-0.272 -0.077,-0.013 -0.138,-0.019 -0.169,-0.019 -0.384,0 -0.685,-0.288 -0.685,-0.656 0,-0.254 0.166,-0.683 0.791,-0.683 0.345,0 1.012,0.029 1.251,0.04 l 0.143,-0.005 c 0.293,-0.011 0.931,-0.035 1.506,-0.035 0.543,0 0.791,0.354 0.791,0.683 0,0.368 -0.301,0.656 -0.684,0.656 -0.105,0 -0.364,0.024 -0.5,0.01 -0.008,0.016 -0.03,0.072 -0.053,0.27 -0.058,0.505 -0.06,1.506 -0.06,2.675 l 0.984,-0.016 c 0.1,-0.135 0.227,-0.31 0.369,-0.507 0.292,-0.402 0.647,-0.892 0.978,-1.325 l 0.17,-0.225 c 0.71,-0.937 1.178,-1.556 1.819,-1.898 0.448,-0.241 0.878,-0.323 1.703,-0.323 h 0.948 c 0.81,0 0.898,0.478 0.898,0.683 0,0.362 -0.314,0.656 -0.697,0.656 -0.067,0 -0.22,0 -0.432,0.034 C 3.493,-3.658 3.019,-3.584 2.371,-2.9 1.705,-2.187 0.914,-1.174 0,0 M -1.479,0.933 C -1.804,0.704 -2.699,0.791 -3.07,0.865 v 3.733 c 0.118,0.009 0.264,0.016 0.424,0.016 1.511,0 1.736,-1.313 1.736,-2.096 0,-0.881 -0.291,-1.395 -0.569,-1.585"
                   style="fill:#efd7a8;fill-opacity:1;fill-rule:nonzero;stroke:none"
                   id="path1870" />
              </g>
              <g
                 id="g1872"
                 transform="translate(661.6396,419.029)">
                <path
                   d="m 0,0 c -4.028,0 -5.841,-3.391 -5.841,-5.799 0,-2.807 1.804,-5.827 5.76,-5.827 3.368,0 5.908,2.596 5.908,6.04 C 5.827,-2.297 3.431,0 0,0 m 0.28,-9.966 c -2.177,0 -3.698,1.867 -3.698,4.541 0,2.391 1.242,3.819 3.325,3.819 1.678,0 3.485,-1.362 3.485,-4.354 0,-3.717 -2.382,-4.006 -3.112,-4.006"
                   style="fill:#efd7a8;fill-opacity:1;fill-rule:nonzero;stroke:none"
                   id="path1874" />
              </g>
              <g
                 id="g1876"
                 transform="translate(673.4395,404.9566)">
                <path
                   d="m 0,0 c -4.027,0 -5.841,-3.391 -5.841,-5.799 0,-2.807 1.804,-5.827 5.762,-5.827 3.366,0 5.906,2.596 5.906,6.04 C 5.827,-2.297 3.431,0 0,0 m 0.28,-9.966 c -2.177,0 -3.698,1.867 -3.698,4.541 0,2.391 1.242,3.819 3.325,3.819 1.679,0 3.486,-1.362 3.486,-4.354 0,-3.717 -2.383,-4.006 -3.113,-4.006"
                   style="fill:#efd7a8;fill-opacity:1;fill-rule:nonzero;stroke:none"
                   id="path1878" />
              </g>
              <g
                 id="g1880"
                 transform="translate(645.8242,428.101)">
                <path
                   d="m 0,0 c 0,-2.807 1.804,-5.827 5.762,-5.827 3.367,0 5.907,2.597 5.907,6.04 0,3.29 -2.398,5.586 -5.828,5.586 C 1.813,5.799 0,2.408 0,0 m 5.748,4.194 c 1.679,0 3.485,-1.363 3.485,-4.354 0,-3.718 -2.381,-4.007 -3.111,-4.007 -2.179,0 -3.699,1.867 -3.699,4.541 0,2.392 1.243,3.82 3.325,3.82"
                   style="fill:#efd7a8;fill-opacity:1;fill-rule:nonzero;stroke:none"
                   id="path1882" />
              </g>
              <g
                 id="g1884"
                 transform="translate(674.2266,446.5618)">
                <path
                   d="m 0,0 c 0.059,0 0.179,-0.011 0.247,-0.004 0.001,-0.002 0.034,-0.059 0.045,-0.258 0.026,-0.41 0.026,-0.782 0.026,-2.85 v -2.351 c 0,-1.236 0,-2.304 -0.061,-2.821 C 0.238,-8.419 0.223,-8.503 0.209,-8.555 0.13,-8.569 0.071,-8.574 0.04,-8.574 c -0.383,0 -0.684,-0.289 -0.684,-0.657 0,-0.253 0.166,-0.682 0.79,-0.682 0.291,0 0.807,0.02 1.108,0.032 l 0.198,0.008 0.142,-0.005 c 0.294,-0.011 0.931,-0.035 1.505,-0.035 0.544,0 0.791,0.354 0.791,0.682 0,0.368 -0.3,0.657 -0.684,0.657 -0.106,0 -0.362,0.027 -0.499,0.01 -0.009,0.015 -0.031,0.07 -0.052,0.271 -0.062,0.526 -0.062,1.594 -0.062,2.83 v 2.351 c 0,2.068 0,2.44 0.026,2.853 0.007,0.136 0.022,0.206 0.027,0.229 C 2.752,-0.012 2.808,0 2.872,0 3.255,0 3.556,0.288 3.556,0.656 3.556,0.91 3.389,1.339 2.765,1.339 2.474,1.339 1.955,1.319 1.656,1.307 L 1.46,1.299 1.265,1.307 C 0.965,1.318 0.43,1.339 0.106,1.339 -0.518,1.339 -0.685,0.91 -0.685,0.656 -0.685,0.288 -0.383,0 0,0"
                   style="fill:#efd7a8;fill-opacity:1;fill-rule:nonzero;stroke:none"
                   id="path1886" />
              </g>
              <g
                 id="g1888"
                 transform="translate(602.8037,417.503)">
                <path
                   d="m 0,0 c 0.108,0 0.271,-0.013 0.42,-0.031 0.002,-0.005 0.023,-0.053 0.033,-0.23 0.026,-0.411 0.026,-0.783 0.026,-2.85 v -2.352 c 0,-1.236 0,-2.303 -0.062,-2.82 C 0.398,-8.418 0.383,-8.503 0.369,-8.555 0.294,-8.568 0.232,-8.574 0.2,-8.574 c -0.383,0 -0.682,-0.288 -0.682,-0.656 0,-0.254 0.167,-0.683 0.79,-0.683 0.1,0 0.227,0.006 0.361,0.012 0.135,0.007 0.279,0.014 0.441,0.015 0.266,0.013 0.482,0.013 0.498,0.013 0.043,-0.001 0.163,-0.011 0.333,-0.024 l 0.745,-0.055 c 0.587,-0.041 1.31,-0.081 1.896,-0.081 1.848,0 3.392,0.593 4.467,1.715 1.016,1.073 1.6,2.59 1.6,4.165 0,1.883 -0.793,3.102 -1.459,3.794 -1.665,1.721 -4.098,1.7 -5.519,1.7 L 3.42,1.339 C 2.858,1.339 2.277,1.32 1.918,1.308 L 1.621,1.3 1.458,1.306 C 1.159,1.317 0.564,1.339 0.107,1.339 -0.517,1.339 -0.684,0.91 -0.684,0.657 -0.684,0.288 -0.384,0 0,0 m 2.763,-0.293 c 0.141,0.014 0.321,0.026 0.457,0.026 1.659,0 2.899,-0.223 3.952,-1.33 0.512,-0.539 1.122,-1.493 1.122,-2.971 0,-1.155 -0.351,-2.247 -0.899,-2.785 -0.682,-0.683 -1.694,-1.074 -2.772,-1.074 -1.413,0 -1.744,0.238 -1.769,0.238 0,0 0,0 0,-10e-4 -0.02,0.058 -0.052,0.232 -0.074,0.767 -0.013,0.251 -0.026,1.467 -0.026,2.869 v 1.657 c 0,0.88 -10e-4,2.005 0.009,2.604"
                   style="fill:#efd7a8;fill-opacity:1;fill-rule:nonzero;stroke:none"
                   id="path1890" />
              </g>
              <g
                 id="g1892"
                 transform="translate(601.751,403.4306)">
                <path
                   d="m 0,0 c 0.058,0 0.232,0 0.35,-0.031 0.278,-0.08 0.353,-0.101 0.584,-0.689 l 3.309,-8.277 c 0.273,-0.688 0.438,-1.103 0.981,-1.103 0.473,0 0.639,0.367 0.867,0.875 l 0.215,0.471 c 0.313,0.668 0.908,2.095 1.735,4.072 l 0.346,0.835 c 0.551,1.327 1.031,2.486 1.152,2.794 0.285,0.719 0.445,0.938 0.507,0.981 C 10.16,0 10.325,0 10.381,0 c 0.484,0 0.738,0.337 0.738,0.67 0,0.248 -0.171,0.669 -0.805,0.669 C 10.037,1.339 9.669,1.32 9.44,1.308 L 9.272,1.3 C 9.22,1.3 9.115,1.304 8.98,1.311 8.706,1.322 8.317,1.339 7.963,1.339 7.156,1.339 7.092,0.817 7.092,0.657 7.092,0.331 7.341,0 7.815,0 H 7.866 C 7.854,-0.036 7.841,-0.077 7.825,-0.125 7.604,-0.852 6.414,-3.989 5.545,-6.139 L 3.48,-0.635 C 3.399,-0.424 3.306,-0.181 3.241,0 3.71,-0.011 3.982,0.329 3.982,0.67 3.982,0.92 3.86,1.339 3.046,1.339 2.7,1.339 2.313,1.322 2.052,1.309 L 1.804,1.3 1.49,1.309 C 1.164,1.322 0.675,1.339 0.239,1.339 -0.563,1.339 -0.684,0.92 -0.684,0.67 -0.684,0.288 -0.39,0 0,0"
                   style="fill:#efd7a8;fill-opacity:1;fill-rule:nonzero;stroke:none"
                   id="path1894" />
              </g>
              <g
                 id="g1896"
                 transform="translate(641.9307,394.8562)">
                <path
                   d="M 0,0 C -0.128,0 -0.253,0.018 -0.376,0.059 -0.608,0.125 -0.867,0.51 -1.146,1.202 -1.74,2.679 -3.012,6.001 -3.737,7.894 -4.009,8.606 -4.205,9.116 -4.258,9.252 -4.412,9.65 -4.587,10.1 -5.089,10.1 -5.597,10.1 -5.764,9.643 -5.924,9.2 L -8.959,0.902 C -9.21,0.202 -9.382,0.052 -9.61,0.023 -9.697,0.012 -9.851,0 -9.926,0 c -0.39,0 -0.696,-0.288 -0.696,-0.655 0,-0.07 0.023,-0.684 0.831,-0.684 0.43,0 0.908,0.019 1.222,0.03 l 0.288,0.01 c 0.053,0 0.172,-0.006 0.313,-0.013 0.236,-0.012 0.529,-0.027 0.728,-0.027 0.533,0 0.776,0.354 0.776,0.684 0,0.325 -0.245,0.655 -0.71,0.655 l -0.048,0.002 c 0.024,0.151 0.073,0.332 0.141,0.52 l 0.703,2.081 h 2.25 l 1.067,-2.828 c -0.092,-0.114 -0.146,-0.258 -0.146,-0.417 0,-0.622 0.667,-0.656 0.961,-0.67 0.93,-0.027 1.911,-0.027 2.114,-0.027 0.819,0 0.844,0.614 0.844,0.684 C 0.712,-0.33 0.467,0 0,0 m -5.822,4.236 0.53,1.626 0.573,-1.626 z"
                   style="fill:#efd7a8;fill-opacity:1;fill-rule:nonzero;stroke:none"
                   id="path1898" />
              </g>
              <g
                 id="g1900"
                 transform="translate(713.2266,503.1746)">
                <path
                   d="m 0,0 -33.848,33.847 c -4.307,4.307 -10.15,6.727 -16.241,6.727 h -47.867 c -6.094,0 -11.935,-2.42 -16.242,-6.727 L -148.047,0 c -4.309,-4.308 -6.728,-10.151 -6.728,-16.244 V -64.11 c 0,-6.093 2.419,-11.934 6.728,-16.242 l 33.849,-33.848 c 4.307,-4.306 10.148,-6.727 16.242,-6.727 h 47.865 c 6.093,0 11.936,2.421 16.243,6.727 L 0,-80.352 c 4.308,4.308 6.727,10.15 6.727,16.242 v 47.868 C 6.727,-10.151 4.308,-4.308 0,0 m -80.366,24.019 17.796,-10.073 -10.093,3.103 c -1.343,0.466 -2.823,0.238 -3.963,-0.612 l -3.388,-2.528 -10.6,-3.129 -3.824,1.719 z M -6.824,-12.404 H -8.22 c -0.032,0 -0.062,-0.009 -0.094,-0.01 -0.034,10e-4 -0.064,0.01 -0.096,0.01 h -107.535 c -1.385,0 -2.508,-1.123 -2.508,-2.508 0,-1.384 1.123,-2.507 2.508,-2.507 h 104.513 v -1.695 c -5.661,-1.85 -11.386,-6.192 -12.465,-13.439 h -1.365 c -1.769,0 -3.211,-1.441 -3.211,-3.211 v -3.435 h -81.973 c -1.385,0 -2.507,-1.122 -2.507,-2.507 0,-1.385 1.122,-2.507 2.507,-2.507 h 78.865 v -63.023 l -3.919,-3.92 c -4.13,-4.128 -9.732,-6.449 -15.575,-6.449 h -45.897 c -5.842,0 -11.444,2.321 -15.574,6.449 l -1.976,1.977 v 63.661 c 0,1.651 -1.252,3.015 -2.858,3.192 v 4.311 c 0,1.77 -1.44,3.211 -3.212,3.211 h -0.839 c -1.096,4.421 -4.084,8.802 -9.632,9.818 v 3.332 c 0,1.772 -1.441,3.213 -3.211,3.213 h -1.039 v 11.883 h 0.456 c 1.128,0 2.188,0.603 2.764,1.573 0.583,0.982 0.607,2.167 0.061,3.168 -1.288,2.371 -3.851,8.322 0.182,12.355 2.425,2.424 5.641,3.32 8.4,2.336 2.36,-0.843 3.874,-2.917 4.151,-5.692 0.113,-1.13 0.825,-2.128 1.856,-2.602 1.022,-0.472 2.237,-0.365 3.161,0.276 l 9.692,6.709 12.276,-5.518 c 0.051,-0.024 0.104,-0.045 0.159,-0.065 0.859,-0.318 1.817,-0.35 2.691,-0.09 l 10.997,3.245 c 0.488,0.144 0.941,0.371 1.345,0.673 l 3.193,2.383 21.063,-6.474 c 0.455,-0.159 0.925,-0.239 1.4,-0.239 0.146,0 0.293,0.008 0.44,0.022 0.075,0.009 0.148,0.02 0.222,0.033 l 9.919,1.928 30.877,-8.417 h -105.937 c -1.385,0 -2.508,-1.123 -2.508,-2.508 0,-1.384 1.123,-2.507 2.508,-2.507 H -6.824 Z"
                   style="fill:#efd7a8;fill-opacity:1;fill-rule:nonzero;stroke:none"
                   id="path1902" />
              </g>
              <g
                 id="g1904"
                 transform="translate(602.8037,446.5618)">
                <path
                   d="m 0,0 c 0.108,0 0.271,-0.014 0.42,-0.032 0.002,-0.005 0.023,-0.053 0.033,-0.23 0.026,-0.41 0.026,-0.782 0.026,-2.85 v -2.351 c 0,-1.236 0,-2.304 -0.062,-2.821 C 0.398,-8.419 0.383,-8.503 0.369,-8.555 0.294,-8.568 0.233,-8.574 0.2,-8.574 c -0.383,0 -0.682,-0.289 -0.682,-0.657 0,-0.253 0.167,-0.682 0.79,-0.682 0.1,0 0.227,0.006 0.361,0.012 0.135,0.007 0.279,0.014 0.441,0.015 0.266,0.013 0.482,0.013 0.498,0.013 0.043,-0.001 0.163,-0.011 0.333,-0.024 l 0.744,-0.055 c 0.587,-0.041 1.311,-0.082 1.897,-0.082 1.849,0 3.393,0.593 4.467,1.716 1.016,1.071 1.6,2.589 1.6,4.165 0,1.882 -0.793,3.101 -1.459,3.793 C 7.526,1.36 5.117,1.341 3.671,1.341 L 3.42,1.339 C 2.858,1.339 2.277,1.32 1.918,1.308 L 1.621,1.299 1.458,1.306 C 1.159,1.317 0.564,1.339 0.107,1.339 -0.517,1.339 -0.684,0.91 -0.684,0.656 -0.684,0.288 -0.384,0 0,0 m 2.763,-0.293 c 0.142,0.014 0.321,0.025 0.457,0.025 1.659,0 2.899,-0.222 3.952,-1.329 0.512,-0.539 1.122,-1.493 1.122,-2.971 0,-1.156 -0.351,-2.247 -0.899,-2.786 -0.682,-0.682 -1.693,-1.073 -2.772,-1.073 -1.414,0 -1.745,0.238 -1.769,0.238 0,0 0,0 0,-10e-4 -0.02,0.058 -0.052,0.232 -0.074,0.767 -0.013,0.251 -0.026,1.467 -0.026,2.869 v 1.656 c 0,0.88 -10e-4,2.006 0.009,2.605"
                   style="fill:#efd7a8;fill-opacity:1;fill-rule:nonzero;stroke:none"
                   id="path1906" />
              </g>
              <g
                 id="g1908"
                 transform="translate(629.4004,400.278)">
                <path
                   d="m 0,0 -0.374,0.295 c -1.27,0.992 -1.408,1.322 -1.408,1.791 0,0.718 0.551,0.974 1.066,0.974 0.897,0 1.129,-0.342 1.163,-0.403 C 0.481,2.584 0.545,2.323 0.558,2.188 0.637,1.559 1.096,1.51 1.235,1.51 c 0.158,0 0.67,0.063 0.67,0.883 0,0.69 0.032,1.1 0.045,1.276 l 0.009,0.14 c 0,0.322 -0.223,0.669 -0.71,0.669 -0.048,0 -0.11,0.005 -0.334,0.052 -0.426,0.101 -0.863,0.149 -1.376,0.149 -1.999,0 -3.343,-1.198 -3.343,-2.981 0,-1.239 0.565,-2.208 1.949,-3.345 l 0.599,-0.492 c 1.127,-0.93 1.326,-1.323 1.326,-1.961 0,-0.579 -0.416,-1.201 -1.333,-1.201 -0.459,0 -1.254,0.117 -1.414,0.908 -0.027,0.127 -0.027,0.269 -0.027,0.373 0,0.57 -0.421,0.722 -0.67,0.722 -0.142,0 -0.613,-0.052 -0.683,-0.753 l -0.009,-0.148 c -0.023,-0.276 -0.058,-0.745 -0.058,-1.304 0,-0.357 0,-0.762 0.518,-1.023 L -3.6,-6.529 c 0.579,-0.282 1.248,-0.419 2.043,-0.419 0.912,0 1.724,0.23 2.351,0.668 1.018,0.721 1.38,1.861 1.38,2.687 C 2.174,-2.221 1.585,-1.247 0,0"
                   style="fill:#efd7a8;fill-opacity:1;fill-rule:nonzero;stroke:none"
                   id="path1910" />
              </g>
              <g
                 id="g1912"
                 transform="translate(649.3838,396.4412)">
                <path
                   d="m 0,0 c -0.169,0 -0.575,-0.066 -0.688,-0.68 -0.078,-0.451 -0.169,-0.49 -0.257,-0.528 -0.241,-0.101 -0.792,-0.101 -1.058,-0.101 -0.715,0 -0.878,0.064 -0.908,0.087 -0.013,0.017 -0.052,0.101 -0.068,0.46 -0.009,0.198 -0.004,1.042 -10e-4,1.666 l 0.002,1.276 c 0.482,-0.011 1.151,-0.031 1.369,-0.056 0.161,-0.016 0.21,-0.05 0.205,-0.065 0.026,-0.09 0.026,-0.158 0.026,-0.27 0,-0.397 0.288,-0.696 0.67,-0.696 0.111,0 0.671,0.039 0.671,0.829 0,0.092 0.026,0.551 0.051,0.803 0.021,0.251 0.054,0.427 0.075,0.541 0.023,0.125 0.033,0.21 0.033,0.259 0,0.444 -0.332,0.683 -0.643,0.683 -0.308,0 -0.487,-0.202 -0.572,-0.322 C -1.143,3.867 -1.327,3.851 -1.398,3.845 -1.54,3.833 -2.151,3.824 -2.978,3.821 V 6.619 C -2.489,6.613 -1.83,6.601 -1.707,6.587 -1.312,6.543 -1.219,6.482 -1.226,6.479 -1.207,6.436 -1.19,6.312 -1.19,6.224 c 0,-0.492 0.344,-0.75 0.683,-0.75 0.258,0 0.567,0.16 0.661,0.628 0.02,0.113 0.039,0.42 0.054,0.664 l 0.018,0.251 c 0.02,0.191 0.048,0.316 0.069,0.404 0.02,0.095 0.042,0.184 0.042,0.286 0,0.457 -0.317,0.696 -0.63,0.696 -0.176,0 -0.305,-0.065 -0.332,-0.084 C -0.709,8.297 -0.882,8.28 -1.08,8.269 -1.385,8.256 -4.021,8.257 -4.087,8.256 l -0.55,0.027 c -0.301,0.014 -0.672,0.014 -0.988,0.014 -0.623,0 -0.789,-0.429 -0.789,-0.683 0,-0.368 0.3,-0.656 0.683,-0.656 0.108,0 0.27,-0.014 0.419,-0.032 0.003,-0.005 0.024,-0.054 0.034,-0.23 0.026,-0.41 0.026,-0.782 0.026,-2.85 V 1.495 c 0,-1.237 0,-2.304 -0.061,-2.822 -0.019,-0.134 -0.035,-0.218 -0.048,-0.271 -0.076,-0.013 -0.136,-0.019 -0.169,-0.019 -0.383,0 -0.685,-0.288 -0.685,-0.656 0,-0.253 0.167,-0.682 0.791,-0.682 0.102,0 0.227,0.006 0.362,0.012 0.134,0.006 0.279,0.014 0.441,0.014 0.267,0.013 0.481,0.013 0.506,0.013 0.195,0 0.507,-0.013 1.028,-0.039 l 0.294,-0.008 c 0.496,-0.015 1.147,-0.033 1.979,-0.033 0.526,0 1.07,0 1.282,0.791 0.072,0.306 0.189,1.26 0.189,1.429 C 0.657,-0.022 0.067,0 0,0 m -0.721,3.458 v 0 l -0.001,10e-4 z"
                   style="fill:#efd7a8;fill-opacity:1;fill-rule:nonzero;stroke:none"
                   id="path1914" />
              </g>
              <g
                 id="g1916"
                 transform="translate(621.2988,410.5454)">
                <path
                   d="m 0,0 c -0.169,0 -0.575,-0.066 -0.688,-0.679 -0.076,-0.452 -0.169,-0.491 -0.258,-0.529 -0.241,-0.101 -0.791,-0.101 -1.057,-0.101 -0.715,0 -0.878,0.065 -0.908,0.087 -0.013,0.017 -0.052,0.101 -0.068,0.46 -0.009,0.199 -0.005,1.043 -10e-4,1.667 l 0.002,1.275 c 0.48,-0.01 1.15,-0.031 1.369,-0.055 0.161,-0.017 0.21,-0.05 0.205,-0.066 0.027,-0.09 0.027,-0.158 0.027,-0.27 0,-0.397 0.287,-0.696 0.669,-0.696 0.111,0 0.671,0.04 0.671,0.83 0,0.092 0.026,0.551 0.05,0.802 0.022,0.251 0.055,0.427 0.076,0.541 0.023,0.125 0.033,0.21 0.033,0.26 L 0.056,4.208 H -0.521 C -0.83,4.208 -1.01,4.003 -1.093,3.886 -1.143,3.867 -1.327,3.852 -1.398,3.845 -1.54,3.833 -2.151,3.824 -2.978,3.822 V 6.62 C -2.489,6.614 -1.832,6.601 -1.707,6.587 -1.312,6.544 -1.219,6.483 -1.226,6.48 -1.207,6.437 -1.19,6.313 -1.19,6.225 c 0,-0.492 0.344,-0.75 0.683,-0.75 0.259,0 0.568,0.16 0.661,0.627 0.02,0.114 0.039,0.42 0.054,0.665 l 0.018,0.251 c 0.02,0.191 0.048,0.317 0.069,0.404 0.02,0.094 0.042,0.183 0.042,0.285 0,0.458 -0.317,0.697 -0.63,0.697 -0.176,0 -0.305,-0.065 -0.332,-0.084 C -0.709,8.298 -0.882,8.28 -1.08,8.269 -1.385,8.256 -4.021,8.257 -4.087,8.256 l -0.55,0.027 c -0.301,0.014 -0.672,0.014 -0.988,0.014 -0.623,0 -0.789,-0.429 -0.789,-0.683 0,-0.368 0.3,-0.656 0.683,-0.656 0.108,0 0.27,-0.014 0.419,-0.032 0.003,-0.005 0.024,-0.053 0.034,-0.23 0.026,-0.41 0.026,-0.782 0.026,-2.849 V 1.495 c 0,-1.236 0,-2.304 -0.061,-2.821 -0.019,-0.135 -0.035,-0.219 -0.048,-0.272 -0.076,-0.013 -0.138,-0.019 -0.169,-0.019 -0.383,0 -0.685,-0.287 -0.685,-0.655 0,-0.254 0.167,-0.683 0.791,-0.683 0.102,0 0.227,0.006 0.362,0.012 0.134,0.007 0.279,0.014 0.441,0.015 0.267,0.012 0.481,0.012 0.506,0.012 0.195,0 0.507,-0.013 1.028,-0.039 l 0.294,-0.008 c 0.496,-0.014 1.147,-0.033 1.979,-0.033 0.526,0 1.07,0 1.282,0.792 0.072,0.306 0.189,1.259 0.189,1.428 C 0.657,-0.022 0.067,0 0,0 M -0.482,3.324 -0.208,3.169 C -0.211,3.166 -0.25,3.128 -0.321,3.097 l -0.171,0.155 z"
                   style="fill:#efd7a8;fill-opacity:1;fill-rule:nonzero;stroke:none"
                   id="path1918" />
              </g>
              <g
                 id="g1920"
                 transform="translate(618.7891,401.9762)">
                <path
                   d="m 0,0 c 0,-1.24 0.565,-2.209 1.948,-3.345 l 0.6,-0.492 c 1.127,-0.93 1.326,-1.323 1.326,-1.961 0,-0.579 -0.416,-1.201 -1.333,-1.201 -0.459,0 -1.254,0.117 -1.414,0.907 C 1.1,-5.964 1.1,-5.822 1.1,-5.718 c 0,0.57 -0.421,0.722 -0.669,0.722 -0.104,0 -0.617,-0.035 -0.683,-0.753 l -0.011,-0.153 c -0.02,-0.276 -0.057,-0.743 -0.057,-1.299 0,-0.358 0,-0.764 0.52,-1.024 l 0.005,-0.002 c 0.579,-0.282 1.247,-0.419 2.042,-0.419 0.911,0 1.723,0.23 2.352,0.668 1.014,0.722 1.377,1.861 1.377,2.687 0,1.373 -0.588,2.346 -2.171,3.593 L 3.43,-1.404 c -1.269,0.992 -1.407,1.322 -1.407,1.791 0,0.718 0.549,0.974 1.065,0.974 0.897,0 1.127,-0.338 1.163,-0.406 0.035,-0.072 0.1,-0.332 0.11,-0.465 0.079,-0.63 0.539,-0.679 0.678,-0.679 0.157,0 0.67,0.064 0.67,0.884 0,0.69 0.031,1.101 0.044,1.277 L 5.762,2.111 C 5.762,2.433 5.539,2.78 5.053,2.78 5.005,2.78 4.943,2.784 4.719,2.832 4.293,2.933 3.855,2.98 3.343,2.98 1.344,2.98 0,1.782 0,0"
                   style="fill:#efd7a8;fill-opacity:1;fill-rule:nonzero;stroke:none"
                   id="path1922" />
              </g>
              <g
                 id="g1924"
                 transform="translate(645.3203,413.4434)">
                <path
                   d="m 0,0 c 0,3.289 -2.397,5.586 -5.828,5.586 -4.027,0 -5.841,-3.392 -5.841,-5.8 0,-2.806 1.804,-5.827 5.762,-5.827 C -2.541,-6.041 0,-3.444 0,0 m -9.246,0.16 c 0,2.392 1.243,3.82 3.325,3.82 1.679,0 3.484,-1.363 3.484,-4.354 0,-3.718 -2.38,-4.007 -3.111,-4.007 -2.178,0 -3.698,1.867 -3.698,4.541"
                   style="fill:#efd7a8;fill-opacity:1;fill-rule:nonzero;stroke:none"
                   id="path1926" />
              </g>
              <g
                 id="g1928"
                 transform="translate(623.4316,432.3742)">
                <path
                   d="m 0,0 c 0.059,0 0.179,-0.01 0.247,-0.003 0.001,-0.002 0.034,-0.059 0.045,-0.258 0.025,-0.411 0.025,-0.783 0.025,-2.851 v -2.351 c 0,-1.236 0,-2.303 -0.06,-2.82 C 0.238,-8.418 0.223,-8.503 0.209,-8.555 0.133,-8.568 0.072,-8.574 0.04,-8.574 c -0.383,0 -0.684,-0.288 -0.684,-0.656 0,-0.254 0.167,-0.683 0.79,-0.683 0.291,0 0.807,0.02 1.108,0.032 l 0.197,0.008 0.143,-0.005 c 0.294,-0.011 0.931,-0.035 1.506,-0.035 0.542,0 0.789,0.354 0.789,0.683 0,0.368 -0.3,0.656 -0.683,0.656 -0.104,0 -0.358,0.027 -0.5,0.01 -0.008,0.015 -0.029,0.071 -0.05,0.271 -0.062,0.527 -0.062,1.594 -0.062,2.83 v 2.351 c 0,2.068 0,2.44 0.025,2.854 0.008,0.134 0.022,0.205 0.026,0.228 C 2.752,-0.012 2.807,0 2.872,0 3.255,0 3.555,0.288 3.555,0.657 3.555,0.91 3.389,1.339 2.766,1.339 2.474,1.339 1.955,1.319 1.655,1.307 L 1.46,1.3 1.265,1.307 C 0.965,1.319 0.43,1.339 0.106,1.339 -0.517,1.339 -0.684,0.91 -0.684,0.657 -0.684,0.288 -0.384,0 0,0"
                   style="fill:#efd7a8;fill-opacity:1;fill-rule:nonzero;stroke:none"
                   id="path1930" />
              </g>
              <g
                 id="g1932"
                 transform="translate(613.0439,404.0874)">
                <path
                   d="m 0,0 c 0,-0.369 0.3,-0.657 0.683,-0.657 0.058,0.001 0.177,-0.01 0.249,-0.004 0.001,-0.003 0.034,-0.059 0.045,-0.257 0.025,-0.41 0.025,-0.783 0.025,-2.85 V -6.12 c 0,-1.235 0,-2.303 -0.061,-2.818 C 0.923,-9.074 0.905,-9.159 0.893,-9.212 0.816,-9.225 0.756,-9.231 0.724,-9.231 0.34,-9.231 0.04,-9.519 0.04,-9.887 c 0,-0.254 0.166,-0.683 0.791,-0.683 0.29,0 0.806,0.02 1.106,0.032 l 0.199,0.008 0.143,-0.005 c 0.295,-0.011 0.932,-0.035 1.503,-0.035 0.544,0 0.791,0.354 0.791,0.683 0,0.368 -0.301,0.656 -0.684,0.656 C 3.785,-9.232 3.535,-9.205 3.39,-9.22 3.384,-9.208 3.36,-9.155 3.339,-8.949 3.277,-8.423 3.277,-7.355 3.277,-6.12 v 2.352 c 0,2.067 0,2.44 0.026,2.853 0.008,0.134 0.02,0.205 0.027,0.228 0.107,0.018 0.161,0.03 0.225,0.03 0.383,0 0.684,0.288 0.684,0.657 0,0.253 -0.166,0.682 -0.791,0.682 -0.29,0 -0.805,-0.02 -1.106,-0.031 L 2.144,0.643 1.948,0.65 C 1.647,0.662 1.113,0.682 0.79,0.682 0.166,0.682 0,0.253 0,0"
                   style="fill:#efd7a8;fill-opacity:1;fill-rule:nonzero;stroke:none"
                   id="path1934" />
              </g>
              <g
                 id="g1936"
                 transform="translate(615.4229,446.271)">
                <path
                   d="m 0,0 c 0.108,0 0.271,-0.014 0.421,-0.032 0.002,-0.005 0.022,-0.053 0.032,-0.23 0.026,-0.41 0.026,-0.782 0.026,-2.85 v -2.351 c 0,-1.236 0,-2.304 -0.061,-2.821 C 0.399,-8.419 0.384,-8.503 0.37,-8.555 0.294,-8.568 0.234,-8.574 0.201,-8.574 c -0.383,0 -0.684,-0.289 -0.684,-0.656 0,-0.254 0.167,-0.683 0.791,-0.683 0.101,0 0.226,0.006 0.361,0.012 0.135,0.007 0.279,0.014 0.441,0.015 0.266,0.013 0.482,0.013 0.506,0.013 0.196,0 0.507,-0.014 1.029,-0.04 l 0.293,-0.008 c 0.497,-0.014 1.147,-0.032 1.979,-0.032 0.526,0 1.07,0 1.282,0.79 0.072,0.307 0.19,1.261 0.19,1.429 0,0.754 -0.59,0.776 -0.658,0.776 -0.169,0 -0.575,-0.065 -0.688,-0.679 C 4.966,-8.089 4.874,-8.128 4.786,-8.165 4.546,-8.267 3.994,-8.267 3.729,-8.267 c -0.715,0 -0.878,0.065 -0.909,0.087 -0.012,0.018 -0.051,0.102 -0.067,0.46 -0.01,0.199 -0.005,1.043 -0.002,1.667 l 0.003,1.276 c 0.481,-0.011 1.151,-0.032 1.369,-0.056 0.16,-0.017 0.209,-0.051 0.204,-0.065 0.027,-0.09 0.027,-0.158 0.027,-0.271 0,-0.397 0.288,-0.696 0.669,-0.696 0.112,0 0.671,0.04 0.671,0.83 0,0.091 0.027,0.55 0.05,0.802 0.023,0.252 0.056,0.427 0.076,0.541 0.024,0.125 0.034,0.21 0.034,0.26 0,0.443 -0.333,0.683 -0.643,0.683 -0.309,0 -0.487,-0.203 -0.571,-0.322 C 4.589,-3.09 4.404,-3.106 4.333,-3.112 4.191,-3.124 3.58,-3.134 2.754,-3.136 v 2.797 c 0.488,-0.006 1.147,-0.018 1.27,-0.031 0.395,-0.044 0.489,-0.105 0.482,-0.109 0.018,-0.043 0.035,-0.166 0.035,-0.254 0,-0.493 0.345,-0.75 0.684,-0.75 0.257,0 0.566,0.16 0.661,0.627 0.019,0.113 0.039,0.42 0.053,0.664 L 5.957,0.06 C 5.978,0.25 6.006,0.376 6.026,0.464 6.047,0.558 6.068,0.647 6.068,0.75 6.068,1.207 5.751,1.446 5.438,1.446 5.263,1.446 5.134,1.381 5.107,1.361 5.022,1.339 4.85,1.322 4.651,1.312 4.347,1.299 1.71,1.3 1.645,1.299 L 1.095,1.325 C 0.793,1.339 0.423,1.339 0.107,1.339 -0.517,1.339 -0.683,0.91 -0.683,0.656 -0.683,0.288 -0.383,0 0,0 m 5.011,-3.499 v 0 H 5.01 Z"
                   style="fill:#efd7a8;fill-opacity:1;fill-rule:nonzero;stroke:none"
                   id="path1938" />
              </g>
            </g>
          </g>
        </g>
      </g>
    </g>
  </g>
</svg>
