<svg width="675" height="78" viewBox="0 0 675 78" fill="none" xmlns="http://www.w3.org/2000/svg">
<path fill-rule="evenodd" clip-rule="evenodd" d="M50.0065 1.95435L47.7847 13.5114L54.0476 1.95728C72.3583 1.96875 95.6213 1.96045 124.403 1.95019L124.404 1.95019H124.404H124.404C149.676 1.94118 179.203 1.93065 213.368 1.93065C320.091 -0.867216 515.925 0.0638683 614.261 0.531398L614.265 0.531418C622.853 0.572248 630.697 0.609542 637.673 0.640508L635.088 13.557L646.055 0.676215C662.328 0.74191 672.298 0.756182 673.738 0.669003L675 37.8986L673.738 77.0531C669.951 76.8239 607.927 76.5494 527.608 76.315L530.728 69.7098L518.133 76.2878C419.107 76.0076 295.481 75.7914 218.414 75.7914C166.594 75.7914 124.783 75.8892 92.1217 76.0384L85.1929 69.3242L86.0042 76.0675C32.5084 76.3316 5.2433 76.7358 0 77.0531L3.77549e-06 37.8986L7.27566e-06 1.59934C3.99906 1.84138 19.6984 1.92927 50.0065 1.95435Z" fill="#D2B37C"/>
<path d="M81.3056 27.6856C79.7441 27.6742 78.5015 28.5794 77.5777 30.4011C76.6672 32.2229 76.1975 34.762 76.1685 38.0184C76.1081 44.7981 77.8463 48.2009 81.383 48.2268C82.9311 48.2381 84.5571 47.7562 86.2608 46.781L86.2177 51.6255C84.7812 52.5626 82.9486 53.023 80.7198 53.0067C77.4234 52.9826 74.8993 51.6561 73.1475 49.0274C71.4093 46.3854 70.5613 42.6888 70.6036 37.9377C70.6459 33.1866 71.5863 29.4897 73.425 26.8472C75.2771 24.2047 77.8246 22.8954 81.0677 22.9191C82.1354 22.9269 83.1551 23.0812 84.1267 23.3819C85.1117 23.6828 86.1615 24.2043 87.276 24.9465L85.4349 29.3575C84.838 28.9394 84.2007 28.561 83.5231 28.2224C82.8455 27.8704 82.1063 27.6915 81.3056 27.6856ZM103.386 52.7721L101.77 45.3729L94.1426 45.3171L92.3953 52.6917L86.9501 52.6519L94.4586 23.3174L101.846 23.3714L108.851 52.8121L103.386 52.7721ZM100.792 40.5409L99.2909 33.7231C99.2012 33.3087 98.9969 32.2729 98.6779 30.6155C98.3725 28.945 98.1889 27.8292 98.1271 27.2682C97.9434 28.4146 97.7119 29.6809 97.4327 31.0669C97.1535 32.4396 96.4315 35.5841 95.2666 40.5005L100.792 40.5409ZM129.364 38.0473C129.321 42.8785 128.3 46.568 126.302 49.116C124.318 51.6507 121.477 52.9045 117.78 52.8775L110.613 52.825L110.874 23.5576L118.701 23.6149C122.105 23.6398 124.742 24.9204 126.615 27.4566C128.488 29.9795 129.404 33.5097 129.364 38.0473ZM123.777 38.1666C123.835 31.6271 122.063 28.3442 118.459 28.3178L116.277 28.3019L116.101 48.1004L117.863 48.1133C119.851 48.1278 121.327 47.3111 122.289 45.6632C123.251 44.0019 123.747 41.503 123.777 38.1666ZM145.888 53.0831L132.695 52.9866L132.956 23.7192L146.148 23.8157L146.106 28.5201L138.359 28.4634L138.297 35.43L145.484 35.4825L145.442 40.207L138.255 40.1544L138.183 48.262L145.93 48.3187L145.888 53.0831ZM154.878 41.7575L154.777 53.1482L149.332 53.1083L149.592 23.8409L156.719 23.8931C159.735 23.9151 161.951 24.6454 163.366 26.0838C164.795 27.5224 165.496 29.7097 165.47 32.6458C165.437 36.3426 164.166 38.9159 161.657 40.3656L167.169 53.2388L161.343 53.1962L156.82 41.7717L154.878 41.7575ZM154.92 37.0731L156.321 37.0834C157.602 37.0927 158.527 36.7391 159.094 36.0226C159.661 35.2926 159.951 34.207 159.963 32.7657C159.977 31.2709 159.686 30.2077 159.091 29.5761C158.509 28.9312 157.598 28.6042 156.357 28.5951L154.995 28.5852L154.92 37.0731ZM189.511 53.4023L182.864 53.3537L174.004 32.0876L173.744 32.0857C174.063 33.703 174.215 35.4392 174.198 37.2942L174.056 53.2892L169.011 53.2523L169.272 23.9849L175.958 24.0338L184.74 45.0791L184.96 45.0807C184.719 43.6775 184.607 42.0084 184.624 40.0732L184.766 24.0983L189.771 24.1349L189.511 53.4023ZM214.125 38.9077C214.082 43.7522 213.141 47.4691 211.303 50.0582C209.465 52.6474 206.858 53.9296 203.481 53.9049C200.091 53.8801 197.5 52.5665 195.708 49.9641C193.916 47.3484 193.042 43.5983 193.086 38.7137C193.129 33.8692 194.069 30.1657 195.907 27.6032C197.745 25.0274 200.373 23.752 203.789 23.777C207.166 23.8017 209.743 25.1219 211.522 27.7375C213.301 30.3398 214.168 34.0632 214.125 38.9077ZM198.651 38.7945C198.621 42.1309 199.019 44.6764 199.844 46.4308C200.669 48.1853 201.896 49.0685 203.524 49.0804C206.807 49.1044 208.479 45.6999 208.54 38.8668C208.601 32.0338 207.003 28.6053 203.747 28.5815C202.092 28.5694 200.836 29.4344 199.98 31.1766C199.123 32.9054 198.68 35.4447 198.651 38.7945ZM230.863 45.6368C230.839 48.3727 230.126 50.4629 228.725 51.9074C227.338 53.3521 225.343 54.0649 222.74 54.0458C220.191 54.0272 218.027 53.5108 216.247 52.4968L216.295 47.1118C218.471 48.5558 220.474 49.2845 222.302 49.2979C223.343 49.3055 224.126 49.0243 224.652 48.4542C225.191 47.8842 225.465 47.1055 225.473 46.1179C225.482 45.1436 225.176 44.2538 224.556 43.4485C223.936 42.6298 222.91 41.7214 221.477 40.7233C220.231 39.8466 219.284 39.0122 218.637 38.22C218.003 37.4145 217.511 36.5167 217.159 35.5265C216.821 34.5364 216.658 33.3873 216.669 32.0795C216.692 29.5704 217.403 27.587 218.804 26.1291C220.219 24.6713 222.1 23.951 224.449 23.9682C226.691 23.9846 228.841 24.6276 230.899 25.8973L229.058 30.2482C228.421 29.8698 227.75 29.5312 227.045 29.2324C226.354 28.9338 225.608 28.7815 224.807 28.7756C223.926 28.7692 223.243 29.0578 222.757 29.6415C222.285 30.212 222.044 30.9977 222.036 31.9986C222.027 32.9862 222.299 33.849 222.853 34.5872C223.421 35.3254 224.408 36.1668 225.814 37.1113C227.711 38.4065 229.027 39.7241 229.763 41.0642C230.512 42.4043 230.878 43.9285 230.863 45.6368ZM263.384 53.9428L256.738 53.8942L247.878 32.6281L247.617 32.6262C247.937 34.2435 248.088 35.9797 248.072 37.8347L247.929 53.8297L242.884 53.7928L243.145 24.5254L249.831 24.5743L258.613 45.6196L258.833 45.6212C258.592 44.218 258.48 42.5489 258.497 40.6137L258.64 24.6388L263.644 24.6754L263.384 53.9428ZM287.999 39.4482C287.955 44.2927 287.015 48.0096 285.177 50.5987C283.338 53.1879 280.731 54.4701 277.354 54.4454C273.965 54.4206 271.374 53.107 269.582 50.5047C267.79 47.8889 266.915 44.1388 266.959 39.2542C267.002 34.4097 267.943 30.7062 269.781 28.1437C271.619 25.5679 274.246 24.2925 277.663 24.3175C281.039 24.3422 283.617 25.6624 285.395 28.278C287.174 30.8803 288.042 34.6037 287.999 39.4482ZM272.524 39.335C272.494 42.6714 272.892 45.2169 273.717 46.9713C274.542 48.7258 275.769 49.609 277.397 49.6209C280.68 49.6449 282.352 46.2404 282.413 39.4073C282.474 32.5743 280.876 29.1458 277.62 29.122C275.965 29.1099 274.709 29.9749 273.853 31.7171C272.997 33.4459 272.554 35.9852 272.524 39.335ZM299.76 54.209L294.335 54.1693L294.553 29.6863L288.947 29.6453L288.99 24.8608L305.626 24.9826L305.583 29.767L299.978 29.726L299.76 54.209ZM320.14 54.3581L318.524 46.9588L310.897 46.903L309.15 54.2777L303.705 54.2378L311.213 24.9033L318.6 24.9574L325.605 54.3981L320.14 54.3581ZM317.546 42.1269L316.045 35.3091C315.956 34.8947 315.751 33.8588 315.432 32.2015C315.127 30.5309 314.943 29.4151 314.882 28.8541C314.698 30.0006 314.466 31.2668 314.187 32.6528C313.908 34.0255 313.186 37.17 312.021 42.0864L317.546 42.1269ZM340.772 46.4409C340.748 49.1768 340.035 51.2671 338.634 52.7116C337.247 54.1562 335.252 54.869 332.649 54.85C330.1 54.8313 327.936 54.315 326.156 53.301L326.204 47.9159C328.38 49.36 330.383 50.0887 332.211 50.102C333.252 50.1097 334.035 49.8284 334.561 49.2584C335.1 48.6884 335.374 47.9096 335.383 46.922C335.391 45.9478 335.085 45.058 334.465 44.2527C333.845 43.434 332.819 42.5256 331.386 41.5274C330.14 40.6508 329.193 39.8163 328.546 39.0242C327.912 38.2187 327.42 37.3209 327.068 36.3307C326.73 35.3405 326.567 34.1915 326.578 32.8836C326.601 30.3746 327.312 28.3912 328.714 26.9333C330.128 25.4755 332.01 24.7552 334.358 24.7724C336.601 24.7888 338.75 25.4318 340.808 26.7014L338.967 31.0523C338.33 30.674 337.659 30.3354 336.954 30.0366C336.263 29.7379 335.517 29.5857 334.716 29.5798C333.835 29.5734 333.152 29.862 332.666 30.4457C332.194 31.0161 331.954 31.8018 331.945 32.8028C331.936 33.7904 332.208 34.6532 332.762 35.3913C333.33 36.1296 334.317 36.9709 335.723 37.9155C337.62 39.2107 338.936 40.5283 339.672 41.8683C340.421 43.2085 340.787 44.7327 340.772 46.4409ZM366.647 54.6983L365.031 47.2991L357.404 47.2433L355.656 54.6179L350.211 54.5781L357.72 25.2436L365.107 25.2976L372.112 54.7383L366.647 54.6983ZM364.053 42.4671L362.552 35.6493C362.462 35.2349 362.258 34.1991 361.939 32.5417C361.633 30.8712 361.45 29.7554 361.388 29.1944C361.204 30.3408 360.973 31.6071 360.694 32.9931C360.415 34.3658 359.692 37.5103 358.528 42.4267L364.053 42.4671ZM379.421 43.4004L379.32 54.7911L373.874 54.7512L374.135 25.4838L381.262 25.536C384.278 25.558 386.494 26.2883 387.909 27.7268C389.338 29.1653 390.039 31.3526 390.013 34.2887C389.98 37.9855 388.709 40.5588 386.2 42.0086L391.711 54.8817L385.886 54.8391L381.363 43.4146L379.421 43.4004ZM379.463 38.716L380.864 38.7263C382.145 38.7356 383.069 38.382 383.636 37.6655C384.203 36.9356 384.493 35.8499 384.506 34.4086C384.519 32.9138 384.228 31.8506 383.634 31.219C383.052 30.5741 382.141 30.2471 380.899 30.238L379.538 30.2281L379.463 38.716ZM413.824 40.3688C413.794 43.7186 413.321 46.5447 412.407 48.847C411.505 51.1493 410.182 52.8614 408.437 53.9831L413.751 62.01L407.465 61.964L403.48 55.3682L403.179 55.366C399.79 55.3412 397.199 54.0277 395.407 51.4253C393.615 48.8096 392.74 45.0594 392.784 40.1748C392.827 35.3303 393.768 31.6268 395.606 29.0643C397.444 26.4885 400.071 25.2131 403.488 25.2381C406.864 25.2628 409.442 26.583 411.22 29.1986C412.999 31.8009 413.867 35.5243 413.824 40.3688ZM398.349 40.2556C398.319 43.5921 398.717 46.1375 399.542 47.892C400.367 49.6464 401.594 50.5296 403.222 50.5415C406.505 50.5655 408.177 47.161 408.238 40.328C408.299 33.4949 406.701 30.0665 403.445 30.0426C401.79 30.0305 400.534 30.8955 399.678 32.6377C398.822 34.3665 398.379 36.9058 398.349 40.2556ZM435.415 25.9322L435.246 44.8699C435.215 48.3532 434.404 51.0099 432.813 52.8401C431.222 54.657 428.938 55.5545 425.962 55.5327C423.052 55.5114 420.845 54.5877 419.34 52.7616C417.835 50.922 417.098 48.2206 417.13 44.6573L417.297 25.7996L422.703 25.8392L422.531 45.0972C422.498 48.8207 423.716 50.6915 426.185 50.7095C427.333 50.7179 428.224 50.2506 428.86 49.3077C429.496 48.3647 429.821 47.0191 429.837 45.2708L430.009 25.8926L435.415 25.9322ZM452.591 55.3272L439.399 55.2306L439.659 25.9633L452.852 26.0598L452.81 30.7642L445.063 30.7075L445.001 37.674L452.188 37.7266L452.146 42.451L444.959 42.3984L444.887 50.506L452.634 50.5627L452.591 55.3272ZM476.305 40.826C476.262 45.6705 475.321 49.3874 473.483 51.9765C471.645 54.5657 469.038 55.8479 465.661 55.8232C462.271 55.7984 459.68 54.4848 457.888 51.8824C456.096 49.2667 455.222 45.5166 455.266 40.632C455.309 35.7875 456.249 32.084 458.087 29.5215C459.925 26.9457 462.553 25.6703 465.969 25.6953C469.346 25.72 471.923 27.0402 473.702 29.6558C475.481 32.258 476.348 35.9815 476.305 40.826ZM460.831 40.7128C460.801 44.0492 461.199 46.5947 462.024 48.3491C462.849 50.1036 464.076 50.9868 465.704 50.9987C468.987 51.0227 470.659 47.6182 470.72 40.7851C470.781 33.9521 469.183 30.5236 465.927 30.4998C464.272 30.4877 463.016 31.3527 462.16 33.0949C461.303 34.8237 460.86 37.363 460.831 40.7128ZM479.639 55.5251L479.899 26.2577L485.344 26.2975L485.126 50.8005L492.673 50.8557L492.631 55.6201L479.639 55.5251ZM515.584 41.1134C515.541 45.9579 514.6 49.6748 512.762 52.2639C510.924 54.8531 508.316 56.1353 504.94 56.1106C501.55 56.0858 498.959 54.7722 497.167 52.1698C495.375 49.5541 494.501 45.804 494.544 40.9194C494.588 36.0749 495.528 32.3714 497.366 29.8089C499.204 27.2331 501.832 25.9577 505.248 25.9827C508.625 26.0074 511.202 27.3275 512.981 29.9432C514.759 32.5454 515.627 36.2688 515.584 41.1134ZM500.109 41.0002C500.08 44.3366 500.477 46.8821 501.303 48.6365C502.128 50.391 503.355 51.2742 504.983 51.2861C508.266 51.3101 509.938 47.9056 509.999 41.0725C510.06 34.2395 508.462 30.811 505.205 30.7872C503.55 30.7751 502.295 31.6401 501.439 33.3822C500.582 35.1111 500.139 37.6504 500.109 41.0002ZM502.562 24.0811L502.567 23.5406C503.121 22.8373 503.764 21.8343 504.496 20.5317C505.228 19.2291 505.751 18.2319 506.064 17.5402L512.43 17.5868L512.426 18.0072C512.101 18.5787 511.299 19.5004 510.019 20.7723C508.74 22.0309 507.502 23.143 506.306 24.1085L502.562 24.0811ZM527.911 39.642L536.859 39.7075L536.725 54.7215C534.18 55.784 531.479 56.3048 528.623 56.2839C525.22 56.259 522.609 54.9452 520.79 52.3427C518.985 49.7402 518.104 46.0034 518.147 41.1321C518.189 36.4344 519.27 32.7653 521.389 30.1248C523.521 27.4844 526.475 26.178 530.252 26.2057C532.588 26.2228 534.811 26.8396 536.923 28.0563L535.161 32.4878C533.515 31.5148 531.971 31.0231 530.53 31.0125C528.461 30.9974 526.811 31.9129 525.58 33.7591C524.363 35.592 523.74 38.1033 523.712 41.293C523.682 44.576 524.094 47.0949 524.946 48.8496C525.811 50.6043 527.078 51.4878 528.746 51.5C529.627 51.5064 530.522 51.3995 531.431 51.1793L531.491 44.473L527.868 44.4465L527.911 39.642ZM541.34 55.9765L541.6 26.7091L546.725 26.7466L546.465 56.014L541.34 55.9765ZM561.762 31.201C560.2 31.1896 558.957 32.0947 558.034 33.9165C557.123 35.7383 556.653 38.2774 556.624 41.5338C556.564 48.3135 558.302 51.7162 561.839 51.7421C563.387 51.7534 565.013 51.2715 566.717 50.2963L566.674 55.1409C565.237 56.078 563.405 56.5384 561.176 56.5221C557.879 56.4979 555.355 55.1715 553.603 52.5427C551.865 49.9007 551.017 46.2041 551.059 41.453C551.102 36.7019 552.042 33.0051 553.881 30.3625C555.733 27.7201 558.281 26.4107 561.524 26.4345C562.591 26.4423 563.611 26.5966 564.583 26.8973C565.568 27.1981 566.617 27.7197 567.732 28.4619L565.891 32.8728C565.294 32.4547 564.657 32.0764 563.979 31.7377C563.301 31.3858 562.562 31.2068 561.762 31.201ZM583.842 56.2875L582.226 48.8883L574.598 48.8325L572.851 56.2071L567.406 56.1672L574.914 26.8328L582.301 26.8868L589.307 56.3275L583.842 56.2875ZM581.248 44.0563L579.747 37.2385C579.657 36.8241 579.453 35.7882 579.134 34.1309C578.828 32.4603 578.645 31.3445 578.583 30.7835C578.399 31.93 578.168 33.1962 577.889 34.5822C577.609 35.9549 576.887 39.0995 575.722 44.0159L581.248 44.0563ZM604.474 48.3704C604.449 51.1063 603.737 53.1965 602.336 54.641C600.948 56.0857 598.953 56.7985 596.351 56.7794C593.802 56.7608 591.637 56.2444 589.858 55.2304L589.906 49.8454C592.082 51.2894 594.084 52.0181 595.912 52.0315C596.953 52.0391 597.737 51.7579 598.262 51.1878C598.801 50.6178 599.075 49.839 599.084 48.8515C599.093 47.8772 598.787 46.9874 598.167 46.1821C597.547 45.3634 596.52 44.455 595.088 43.4568C593.841 42.5802 592.894 41.7458 592.247 40.9536C591.614 40.1481 591.121 39.2503 590.77 38.2601C590.432 37.27 590.268 36.1209 590.28 34.8131C590.302 32.304 591.014 30.3206 592.415 28.8627C593.829 27.4049 595.711 26.6846 598.06 26.7018C600.302 26.7182 602.452 27.3612 604.509 28.6309L602.669 32.9818C602.031 32.6034 601.36 32.2648 600.656 31.966C599.964 31.6674 599.218 31.5151 598.418 31.5092C597.537 31.5028 596.853 31.7914 596.368 32.3751C595.896 32.9456 595.655 33.7313 595.646 34.7322C595.637 35.7198 595.91 36.5826 596.464 37.3208C597.031 38.059 598.018 38.9004 599.424 39.8449C601.321 41.1401 602.638 42.4577 603.373 43.7978C604.122 45.1379 604.489 46.6621 604.474 48.3704Z" fill="#523422"/>
</svg>
