<svg width="161" height="119" viewBox="0 0 161 119" fill="none" xmlns="http://www.w3.org/2000/svg">
<path d="M72.7083 33.3712C66.2009 34.6456 55.3236 32.3624 48.603 30.2383C50.8641 29.4666 53.3181 29.2602 55.7721 29.0537C67.1047 28.9726 78.1276 25.2104 86.8556 17.498C88.0758 16.4504 89.6752 15.5889 91.371 15.0101C88.1096 21.1723 81.1942 31.4216 72.7083 33.3712Z" fill="#A4503E"/>
<path d="M45.4878 74.7661C42.2773 61.6616 39.9216 49.212 41.0115 43.1598C41.3568 38.6241 42.4671 35.4051 45.4729 33.1169C53.6135 35.7031 67.7098 39.0965 75.6236 36.3954C85.2333 33.1156 92.142 21.9219 95.1207 15.8562C102.4 16.8429 106.7 23.8954 110.532 31.4234L119.622 47.8858C121.24 62.7962 53.9583 83.8665 45.4878 74.7661Z" fill="#A4503E"/>
<path d="M153.601 58.6819C137.81 95.6277 -16.6588 127.522 25.9402 88.6844C31.8485 82.8811 38.7148 78.9597 45.7739 75.6037C45.7739 75.6037 45.8704 75.8863 45.7739 75.6037L48.3921 85.1237C54.4357 98.208 134.05 71.6661 123.836 56.534L120.197 49.5712C130 46.8566 143.787 46.569 150.804 50.4854C153.933 52.2574 154.808 55.7455 153.601 58.6819Z" fill="#A4503E"/>
</svg>
