<svg width="1030" height="239" viewBox="0 0 1030 239" fill="none" xmlns="http://www.w3.org/2000/svg">
<path d="M359.661 37C359.86 36.0361 359.96 35.2712 359.96 34.7051C359.96 34.1237 359.944 33.6877 359.914 33.397C359.898 33.1063 359.868 32.8003 359.822 32.479C359.791 32.1424 359.745 31.7752 359.684 31.3774C359.638 30.9644 359.592 30.4901 359.547 29.9546C359.195 26.298 357.948 23.2917 355.806 20.9355C354.857 19.8952 353.832 19.1073 352.731 18.5718C351.629 18.021 350.719 17.7456 350 17.7456C349.296 17.7456 348.753 17.7915 348.37 17.8833C347.513 20.4536 347.085 23.1387 347.085 25.9385C347.085 28.417 347.215 30.2682 347.475 31.4922C347.888 33.3281 348.523 35.1717 349.38 37.0229H342.518C342.885 36.105 343.069 34.1772 343.069 31.2397C343.069 28.2869 343.291 25.533 343.734 22.978C344.178 20.4077 344.752 18.1204 345.456 16.1162C346.175 14.112 346.97 12.3602 347.842 10.8608C348.73 9.34619 349.609 8.03044 350.482 6.91357C351.369 5.78141 352.203 4.81755 352.983 4.02197C353.763 3.2111 354.414 2.49967 354.934 1.8877H362.163C361.505 2.63737 361.176 3.68538 361.176 5.03174C361.176 5.64372 361.275 6.64583 361.474 8.03809L362.048 12.2148C364.144 26.6576 366.018 34.9193 367.671 37H359.661ZM349.311 15.4507C349.908 15.2212 350.535 15.1064 351.193 15.1064C351.851 15.1064 352.44 15.1523 352.96 15.2441C353.496 15.3359 354.023 15.4889 354.544 15.7031C355.66 16.1315 356.594 16.8123 357.343 17.7456C356.594 13.8136 356.135 11.4116 355.966 10.5396L355.163 6.52344L353.855 8.08398C352.019 10.2871 350.505 12.7427 349.311 15.4507ZM374.625 24.8369C374.426 26.4281 374.327 27.6979 374.327 28.6465C374.327 29.5798 374.441 30.4442 374.671 31.2397C374.9 32.0353 375.229 32.7238 375.658 33.3052C376.576 34.5444 377.739 35.1641 379.146 35.1641C381.839 35.1641 383.185 33.68 383.185 30.7119C383.185 28.3252 381.801 25.7931 379.031 23.1157L376.645 20.7979C374.549 18.7783 373.118 17.1566 372.353 15.9326C370.838 13.5153 370.081 11.1133 370.081 8.72656C370.081 6.78353 370.708 5.15413 371.963 3.83838C373.478 2.23193 375.658 1.42871 378.503 1.42871C379.62 1.42871 380.462 1.48226 381.028 1.58936C382.084 1.78825 382.787 1.8877 383.139 1.8877C384.027 1.8877 384.715 1.6123 385.205 1.06152C385.388 0.86263 385.587 0.602539 385.801 0.28125C386.918 0.908529 387.477 3.2111 387.477 7.18896C387.477 9.72868 387.224 11.6029 386.719 12.8115C386.551 13.2246 386.36 13.4847 386.146 13.5918C385.901 11.2816 385.151 9.21615 383.897 7.39551C382.428 5.25358 380.73 4.18262 378.802 4.18262C377.149 4.18262 376.132 4.93994 375.75 6.45459C375.642 6.88298 375.589 7.41846 375.589 8.06104C375.589 8.68831 375.78 9.40739 376.163 10.2183C376.545 11.0291 377.042 11.84 377.654 12.6509C378.282 13.4465 379.001 14.2497 379.812 15.0605C382.26 17.5697 383.881 19.2679 384.677 20.1553C385.488 21.0426 386.207 21.9606 386.834 22.9092C388.211 25.0358 388.899 27.0936 388.899 29.0825C388.899 31.4845 387.966 33.4735 386.1 35.0493C384.172 36.6558 381.693 37.459 378.664 37.459C376.155 37.459 373.998 36.8317 372.192 35.5771C370.204 34.2002 369.209 32.3796 369.209 30.1152C369.806 27.9886 371.106 26.4281 373.11 25.4336C373.646 25.1582 374.151 24.9593 374.625 24.8369ZM422.706 37C422.904 36.0361 423.004 35.2712 423.004 34.7051C423.004 34.1237 422.989 33.6877 422.958 33.397C422.943 33.1063 422.912 32.8003 422.866 32.479C422.836 32.1424 422.79 31.7752 422.728 31.3774C422.683 30.9644 422.637 30.4901 422.591 29.9546C422.239 26.298 420.992 23.2917 418.85 20.9355C417.901 19.8952 416.876 19.1073 415.775 18.5718C414.673 18.021 413.763 17.7456 413.044 17.7456C412.34 17.7456 411.797 17.7915 411.415 17.8833C410.558 20.4536 410.129 23.1387 410.129 25.9385C410.129 28.417 410.259 30.2682 410.519 31.4922C410.933 33.3281 411.567 35.1717 412.424 37.0229H405.562C405.93 36.105 406.113 34.1772 406.113 31.2397C406.113 28.2869 406.335 25.533 406.779 22.978C407.222 20.4077 407.796 18.1204 408.5 16.1162C409.219 14.112 410.015 12.3602 410.887 10.8608C411.774 9.34619 412.654 8.03044 413.526 6.91357C414.413 5.78141 415.247 4.81755 416.027 4.02197C416.808 3.2111 417.458 2.49967 417.978 1.8877H425.207C424.549 2.63737 424.22 3.68538 424.22 5.03174C424.22 5.64372 424.32 6.64583 424.519 8.03809L425.092 12.2148C427.188 26.6576 429.062 34.9193 430.715 37H422.706ZM412.355 15.4507C412.952 15.2212 413.579 15.1064 414.237 15.1064C414.895 15.1064 415.484 15.1523 416.004 15.2441C416.54 15.3359 417.068 15.4889 417.588 15.7031C418.705 16.1315 419.638 16.8123 420.388 17.7456C419.638 13.8136 419.179 11.4116 419.011 10.5396L418.207 6.52344L416.899 8.08398C415.063 10.2871 413.549 12.7427 412.355 15.4507ZM437.761 1.8877C437.501 2.72917 437.371 3.52474 437.371 4.27441C437.371 5.54427 437.593 7.38021 438.037 9.78223C439.903 19.1608 440.989 24.5768 441.295 26.0303C441.938 29.029 442.328 30.8496 442.466 31.4922C442.619 32.1195 442.756 32.7238 442.879 33.3052C445.725 29.924 447.69 25.3112 448.777 19.4668C449.175 17.3249 449.373 15.3053 449.373 13.4082C449.373 11.5111 449.335 10.0423 449.259 9.00195C449.182 7.96159 449.052 7.01302 448.869 6.15625C448.501 4.44271 447.92 3.01221 447.124 1.86475H455.134C454.812 2.78271 454.644 3.70068 454.629 4.61865C454.613 5.53662 454.583 6.93652 454.537 8.81836C454.491 10.6849 454.254 12.911 453.826 15.4966C453.397 18.0822 452.862 20.3924 452.219 22.4272C451.577 24.4621 450.865 26.2521 450.085 27.7974C449.305 29.3426 448.524 30.6966 447.744 31.8594C446.964 33.0221 446.222 34.0166 445.518 34.8428L443.728 37H436.499C436.728 36.4186 436.843 35.8525 436.843 35.3018C436.843 34.3991 436.721 33.0757 436.476 31.3315C433.86 13.8595 431.618 4.04492 429.752 1.8877H437.761ZM475.651 28.5088C476.064 29.0749 476.271 29.8934 476.271 30.9644C476.271 32.0353 476.225 32.8921 476.133 33.5347C476.041 34.1619 475.896 34.7357 475.697 35.2559C475.238 36.4186 474.634 37 473.884 37H455.295C456.473 36.3727 457.254 35.7684 457.636 35.187C458.355 34.1007 458.715 32.7238 458.715 31.0562C458.699 26.9712 458.692 23.2764 458.692 19.9717V7.90039C458.692 5.62077 458.332 3.96842 457.613 2.94336C457.338 2.57617 457.009 2.22428 456.626 1.8877H473.884C474.924 2.25488 475.636 3.54004 476.018 5.74316C476.125 6.35514 476.179 6.95182 476.179 7.5332C476.179 8.72656 476.003 9.67513 475.651 10.3789L474.412 7.90039C473.586 6.27865 472.4 5.19238 470.855 4.6416C469.998 4.33561 469.034 4.18262 467.963 4.18262C466.892 4.18262 466.127 4.22087 465.668 4.29736C465.209 4.35856 464.857 4.51921 464.613 4.7793C464.215 5.22298 464.016 6.0721 464.016 7.32666C464.016 8.56592 464.047 9.43034 464.108 9.91992C464.169 10.3942 464.314 10.7843 464.544 11.0903C465.018 11.687 466.02 11.9854 467.55 11.9854H474.756C474.404 12.8727 474.045 13.5 473.678 13.8672C472.943 14.6016 471.949 14.9688 470.694 14.9688C470.205 14.9688 469.738 14.9152 469.294 14.8081C468.468 14.6092 467.741 14.5098 467.114 14.5098C466.487 14.5098 465.967 14.571 465.554 14.6934C465.156 14.8005 464.842 14.9764 464.613 15.2212C464.215 15.6496 464.016 16.4222 464.016 17.5391V28.4858C464.016 31.3621 464.177 33.068 464.498 33.6035C464.819 34.139 465.209 34.4603 465.668 34.5674C466.127 34.6592 466.892 34.7051 467.963 34.7051C469.034 34.7051 470.006 34.5521 470.878 34.2461C471.75 33.9401 472.477 33.5117 473.058 32.9609C473.655 32.4102 474.144 31.7599 474.527 31.0103C474.909 30.2453 475.284 29.4115 475.651 28.5088ZM484.694 12.0083C484.664 13.5994 484.648 15.4124 484.648 17.4473C484.648 20.3389 484.702 23.6512 484.809 27.3843C484.916 31.1021 485 33.221 485.061 33.7412C485.122 34.2461 485.199 34.6898 485.291 35.0723C485.444 35.6995 485.681 36.3421 486.002 37H479.852C480.311 36.0667 480.586 35.1564 480.678 34.269C480.785 33.3664 480.869 32.4714 480.93 31.584C481.053 29.7786 481.114 27.3537 481.114 24.3091C481.114 20.6219 481.053 17.256 480.93 14.2114L480.678 7.90039C480.586 5.57487 480.219 3.92253 479.576 2.94336C479.316 2.57617 478.995 2.22428 478.613 1.8877H485.75C486.652 3.96842 487.609 6.03385 488.618 8.08398L491.74 14.1885L498.441 26.5122C498.456 25.5483 498.464 24.5156 498.464 23.4141V19.834C498.464 12.1842 497.997 6.66113 497.064 3.26465C496.88 2.63737 496.681 2.17839 496.467 1.8877L503.375 1.86475C502.61 3.39469 502.128 7.7015 501.929 14.7852C501.898 15.8867 501.883 16.9424 501.883 17.9521L501.906 19.8799V29.2432C501.906 33.2057 501.937 35.7913 501.998 37H498.28L491.625 24.6074L484.694 12.0083ZM505.395 12.2148C505.028 11.3275 504.844 10.2795 504.844 9.0708C504.844 7.86214 504.89 6.87533 504.982 6.11035C505.074 5.33008 505.196 4.6263 505.349 3.99902C505.717 2.59147 506.168 1.8877 506.703 1.8877H526.922C527.809 1.8877 528.406 3.20345 528.712 5.83496C528.788 6.56934 528.826 7.32666 528.826 8.10693C528.826 9.94287 528.627 11.3122 528.23 12.2148C526.914 8.12988 525.208 5.51367 523.112 4.36621C522.638 4.09082 522.171 3.95312 521.712 3.95312C521.253 3.95312 520.894 4.07552 520.633 4.32031C520.373 4.5498 520.159 4.92464 519.991 5.44482C519.716 6.36279 519.578 7.46436 519.578 8.74951V17.3555L519.601 24.3779V31.0332C519.601 32.5326 519.792 33.6418 520.175 34.3608C520.572 35.0646 520.97 35.6001 521.368 35.9673C521.781 36.3345 522.263 36.6787 522.814 37H511.087C512.188 36.0973 512.892 35.3553 513.198 34.7739C513.764 33.7183 514.047 32.4714 514.047 31.0332V10.356C514.047 7.95394 513.955 6.40869 513.772 5.72021C513.588 5.01644 513.366 4.5498 513.106 4.32031C512.846 4.07552 512.487 3.95312 512.028 3.95312C511.569 3.95312 511.102 4.09082 510.628 4.36621C510.153 4.6263 509.687 4.97819 509.228 5.42188C508.784 5.85026 508.356 6.35514 507.943 6.93652C507.545 7.5026 507.178 8.09163 506.841 8.70361C506.183 9.91227 505.701 11.0827 505.395 12.2148ZM549 25.2271L549.114 16.4146C549.114 10.2489 548.885 6.30924 548.426 4.5957C548.212 3.76953 547.952 3.1652 547.646 2.78271C547.355 2.40023 547.118 2.10189 546.934 1.8877H554.462L553.98 2.53027C553.291 3.54004 552.909 4.67985 552.832 5.94971C552.756 7.21956 552.694 8.50472 552.649 9.80518C552.618 11.1056 552.587 12.3984 552.557 13.6836C552.526 15.8408 552.511 18.2505 552.511 20.9126V23.7124C552.511 28.6541 551.715 32.196 550.124 34.3379C548.548 36.4186 545.978 37.459 542.413 37.459C535.513 37.459 532.078 33.0298 532.109 24.1714L532.132 6.98242C532.132 4.5651 531.704 2.86686 530.847 1.8877H539.545C538.642 2.97396 538.191 4.51921 538.191 6.52344C538.191 7.6862 538.183 8.87956 538.168 10.1035L538.076 17.4473C538.061 18.6559 538.053 19.9028 538.053 21.188C538.053 25.7931 538.191 28.7153 538.466 29.9546C538.741 31.1785 539.078 32.1348 539.476 32.8232C540.394 34.3838 541.755 35.1641 543.561 35.1641C546.345 35.1641 548.059 33.1292 548.701 29.0596C548.9 27.8509 549 26.5734 549 25.2271ZM567.291 15.1982C565.516 15.1982 564.629 16.2463 564.629 18.3423C564.629 27.0324 564.774 32.1501 565.065 33.6953C565.233 34.6286 565.448 35.3247 565.708 35.7837L566.396 37H558.249C558.739 35.8372 559.022 34.8657 559.098 34.0854C559.19 33.3052 559.267 32.4714 559.328 31.584C559.45 29.7786 559.511 27.3537 559.511 24.3091C559.511 20.6219 559.45 17.256 559.328 14.2114L559.075 7.90039C559.014 6.30924 558.876 5.20003 558.662 4.57275C558.326 3.57829 557.775 2.68327 557.01 1.8877H569.15C572.852 1.8877 575.53 2.25488 577.182 2.98926C578.926 3.75423 579.798 5.06234 579.798 6.91357C579.798 8.53532 579.194 10.0576 577.985 11.4805C576.853 12.7962 575.369 13.8442 573.533 14.6245C573.763 20.4995 575.606 26.1374 579.064 31.5381C580.548 33.8789 582.063 35.6995 583.608 37H575.002C573.503 34.9499 572.118 30.7961 570.848 24.5386C570.42 22.366 570.137 20.5607 569.999 19.1226C569.877 17.6844 569.77 16.82 569.678 16.5293C569.601 16.2233 569.471 15.9785 569.288 15.7949C568.92 15.3971 568.255 15.1982 567.291 15.1982ZM572.569 11.1133C572.998 10.6543 573.296 10.1647 573.464 9.64453C573.648 9.12435 573.74 8.62712 573.74 8.15283C573.74 7.66325 573.671 7.18132 573.533 6.70703C573.411 6.21745 573.158 5.78906 572.776 5.42188C571.934 4.5957 570.466 4.18262 568.37 4.18262C567.589 4.18262 566.955 4.21322 566.465 4.27441C565.991 4.33561 565.616 4.50391 565.34 4.7793C564.866 5.23828 564.629 6.40869 564.629 8.29053C564.629 9.94287 564.805 10.9985 565.157 11.4575C565.784 12.2684 566.733 12.6738 568.003 12.6738C569.272 12.6738 570.244 12.5285 570.917 12.2378C571.606 11.9318 572.156 11.557 572.569 11.1133ZM599.673 37C599.872 36.0361 599.972 35.2712 599.972 34.7051C599.972 34.1237 599.956 33.6877 599.926 33.397C599.91 33.1063 599.88 32.8003 599.834 32.479C599.803 32.1424 599.758 31.7752 599.696 31.3774C599.65 30.9644 599.605 30.4901 599.559 29.9546C599.207 26.298 597.96 23.2917 595.818 20.9355C594.869 19.8952 593.844 19.1073 592.743 18.5718C591.641 18.021 590.731 17.7456 590.012 17.7456C589.308 17.7456 588.765 17.7915 588.382 17.8833C587.526 20.4536 587.097 23.1387 587.097 25.9385C587.097 28.417 587.227 30.2682 587.487 31.4922C587.9 33.3281 588.535 35.1717 589.392 37.0229H582.53C582.897 36.105 583.081 34.1772 583.081 31.2397C583.081 28.2869 583.303 25.533 583.747 22.978C584.19 20.4077 584.764 18.1204 585.468 16.1162C586.187 14.112 586.982 12.3602 587.855 10.8608C588.742 9.34619 589.622 8.03044 590.494 6.91357C591.381 5.78141 592.215 4.81755 592.995 4.02197C593.775 3.2111 594.426 2.49967 594.946 1.8877H602.175C601.517 2.63737 601.188 3.68538 601.188 5.03174C601.188 5.64372 601.287 6.64583 601.486 8.03809L602.06 12.2148C604.156 26.6576 606.03 34.9193 607.683 37H599.673ZM589.323 15.4507C589.92 15.2212 590.547 15.1064 591.205 15.1064C591.863 15.1064 592.452 15.1523 592.972 15.2441C593.508 15.3359 594.035 15.4889 594.556 15.7031C595.673 16.1315 596.606 16.8123 597.355 17.7456C596.606 13.8136 596.147 11.4116 595.979 10.5396L595.175 6.52344L593.867 8.08398C592.031 10.2871 590.517 12.7427 589.323 15.4507ZM614.637 24.8369C614.438 26.4281 614.339 27.6979 614.339 28.6465C614.339 29.5798 614.454 30.4442 614.683 31.2397C614.913 32.0353 615.241 32.7238 615.67 33.3052C616.588 34.5444 617.751 35.1641 619.158 35.1641C621.851 35.1641 623.197 33.68 623.197 30.7119C623.197 28.3252 621.813 25.7931 619.043 23.1157L616.657 20.7979C614.561 18.7783 613.13 17.1566 612.365 15.9326C610.851 13.5153 610.093 11.1133 610.093 8.72656C610.093 6.78353 610.72 5.15413 611.975 3.83838C613.49 2.23193 615.67 1.42871 618.516 1.42871C619.632 1.42871 620.474 1.48226 621.04 1.58936C622.096 1.78825 622.799 1.8877 623.151 1.8877C624.039 1.8877 624.727 1.6123 625.217 1.06152C625.4 0.86263 625.599 0.602539 625.813 0.28125C626.93 0.908529 627.489 3.2111 627.489 7.18896C627.489 9.72868 627.236 11.6029 626.731 12.8115C626.563 13.2246 626.372 13.4847 626.158 13.5918C625.913 11.2816 625.163 9.21615 623.909 7.39551C622.44 5.25358 620.742 4.18262 618.814 4.18262C617.162 4.18262 616.144 4.93994 615.762 6.45459C615.655 6.88298 615.601 7.41846 615.601 8.06104C615.601 8.68831 615.792 9.40739 616.175 10.2183C616.557 11.0291 617.054 11.84 617.666 12.6509C618.294 13.4465 619.013 14.2497 619.824 15.0605C622.272 17.5697 623.893 19.2679 624.689 20.1553C625.5 21.0426 626.219 21.9606 626.846 22.9092C628.223 25.0358 628.912 27.0936 628.912 29.0825C628.912 31.4845 627.978 33.4735 626.112 35.0493C624.184 36.6558 621.706 37.459 618.676 37.459C616.167 37.459 614.01 36.8317 612.205 35.5771C610.216 34.2002 609.221 32.3796 609.221 30.1152C609.818 27.9886 611.118 26.4281 613.123 25.4336C613.658 25.1582 614.163 24.9593 614.637 24.8369ZM653.125 8.06104L653.148 30.9185C653.163 31.7905 653.263 32.4484 653.446 32.8921C653.63 33.3358 654.012 33.5576 654.594 33.5576C657.317 33.5576 659.436 31.8288 660.951 28.3711C662.419 25.0052 663.154 20.3389 663.154 14.3721C663.154 11.2357 662.786 8.85661 662.052 7.23486C661.058 5.04704 659.329 3.95312 656.866 3.95312C655.29 3.95312 654.318 4.13672 653.951 4.50391C653.599 4.87109 653.37 5.33008 653.263 5.88086C653.171 6.41634 653.125 7.14307 653.125 8.06104ZM646.745 37C647.235 35.8372 647.518 34.8657 647.594 34.0854C647.686 33.3052 647.762 32.4714 647.824 31.584C647.946 29.7786 648.007 27.3537 648.007 24.3091C648.007 20.6219 647.946 17.256 647.824 14.2114L647.571 7.90039C647.51 6.30924 647.372 5.20003 647.158 4.57275C646.821 3.57829 646.271 2.68327 645.506 1.8877H658.105C663.337 1.8877 666.757 3.94548 668.363 8.06104C668.929 9.51449 669.212 11.2739 669.212 13.3394C669.212 24.8905 665.296 32.2495 657.462 35.4165C654.815 36.4875 651.702 37.0229 648.122 37.0229C647.892 37.0229 647.663 37.0229 647.433 37.0229C647.204 37.0229 646.974 37.0153 646.745 37ZM691.405 28.5088C691.818 29.0749 692.025 29.8934 692.025 30.9644C692.025 32.0353 691.979 32.8921 691.887 33.5347C691.795 34.1619 691.65 34.7357 691.451 35.2559C690.992 36.4186 690.388 37 689.638 37H671.049C672.227 36.3727 673.007 35.7684 673.39 35.187C674.109 34.1007 674.469 32.7238 674.469 31.0562C674.453 26.9712 674.446 23.2764 674.446 19.9717V7.90039C674.446 5.62077 674.086 3.96842 673.367 2.94336C673.092 2.57617 672.763 2.22428 672.38 1.8877H689.638C690.678 2.25488 691.39 3.54004 691.772 5.74316C691.879 6.35514 691.933 6.95182 691.933 7.5332C691.933 8.72656 691.757 9.67513 691.405 10.3789L690.166 7.90039C689.34 6.27865 688.154 5.19238 686.609 4.6416C685.752 4.33561 684.788 4.18262 683.717 4.18262C682.646 4.18262 681.881 4.22087 681.422 4.29736C680.963 4.35856 680.611 4.51921 680.366 4.7793C679.969 5.22298 679.77 6.0721 679.77 7.32666C679.77 8.56592 679.8 9.43034 679.862 9.91992C679.923 10.3942 680.068 10.7843 680.298 11.0903C680.772 11.687 681.774 11.9854 683.304 11.9854H690.51C690.158 12.8727 689.799 13.5 689.431 13.8672C688.697 14.6016 687.703 14.9688 686.448 14.9688C685.958 14.9688 685.492 14.9152 685.048 14.8081C684.222 14.6092 683.495 14.5098 682.868 14.5098C682.241 14.5098 681.72 14.571 681.307 14.6934C680.91 14.8005 680.596 14.9764 680.366 15.2212C679.969 15.6496 679.77 16.4222 679.77 17.5391V28.4858C679.77 31.3621 679.93 33.068 680.252 33.6035C680.573 34.139 680.963 34.4603 681.422 34.5674C681.881 34.6592 682.646 34.7051 683.717 34.7051C684.788 34.7051 685.76 34.5521 686.632 34.2461C687.504 33.9401 688.23 33.5117 688.812 32.9609C689.408 32.4102 689.898 31.7599 690.281 31.0103C690.663 30.2453 691.038 29.4115 691.405 28.5088Z" fill="#F6E9CE"/>
<path d="M109.923 162.324L110.006 193.517C110.006 203.474 107.503 211.891 102.497 218.768C96.6103 226.689 88.4133 230.65 77.9059 230.65C69.6539 230.65 63.0523 227.9 58.1012 222.398C53.5901 217.392 51.3346 211.341 51.3346 204.244C53.8102 198.523 56.4508 194.149 59.2564 191.124C63.8775 186.117 67.7284 183.339 70.8092 182.789C69.929 187.795 69.4889 192.389 69.4889 196.57C69.4889 200.751 69.6539 204.299 69.984 207.215C70.3691 210.076 70.9742 212.634 71.7994 214.889C73.6148 219.895 76.4755 222.398 80.3814 222.398C83.7922 222.398 86.3779 220.198 88.1383 215.797C89.6236 212.166 90.3663 207.297 90.3663 201.191V181.386C90.3663 157.511 90.2013 137.403 89.8712 121.064C89.7612 116.718 89.101 113.143 87.8907 110.337C86.7354 107.476 84.755 104.946 81.9493 102.745H114.545C112.894 105.716 111.876 108.907 111.491 112.317C111.161 115.728 110.859 119.469 110.584 123.54C110.143 131.297 109.923 144.225 109.923 162.324ZM172.477 222.398C183.039 222.398 189.861 209.525 192.941 183.779C193.987 175.087 194.509 164.855 194.509 153.082C194.509 123.925 187.11 109.347 172.312 109.347C157.513 109.347 150.114 123.925 150.114 153.082C150.114 187.465 154.542 209.168 163.399 218.19C166.15 220.996 169.176 222.398 172.477 222.398ZM172.312 230.65C157.678 230.65 146.648 223.774 139.221 210.021C132.069 196.762 128.494 177.783 128.494 153.082C128.494 127.391 136.388 111.217 152.177 104.561C157.733 102.25 164.445 101.095 172.312 101.095C194.867 101.095 208.648 111.107 213.654 131.132C215.304 137.568 216.129 145.848 216.129 155.97C216.129 166.093 215.249 175.967 213.489 185.595C211.728 195.167 209.033 203.309 205.402 210.021C197.975 223.774 186.945 230.65 172.312 230.65ZM251.699 185.265C250.983 190.986 250.626 195.552 250.626 198.963C250.626 202.319 251.038 205.427 251.864 208.288C252.689 211.148 253.872 213.624 255.412 215.714C258.713 220.17 262.894 222.398 267.955 222.398C277.637 222.398 282.478 217.062 282.478 206.39C282.478 197.808 277.5 188.703 267.542 179.076L258.96 170.741C251.424 163.479 246.28 157.648 243.529 153.247C238.083 144.555 235.36 135.918 235.36 127.336C235.36 120.349 237.615 114.49 242.126 109.759C247.573 103.983 255.412 101.095 265.644 101.095C269.66 101.095 272.686 101.287 274.722 101.672C278.517 102.388 281.048 102.745 282.313 102.745C285.504 102.745 287.98 101.755 289.74 99.7744C290.4 99.0592 291.115 98.124 291.886 96.9688C295.902 99.2243 297.91 107.504 297.91 121.807C297.91 130.939 297.002 137.678 295.186 142.024C294.581 143.51 293.894 144.445 293.123 144.83C292.243 136.523 289.548 129.096 285.036 122.55C279.755 114.848 273.649 110.997 266.717 110.997C260.776 110.997 257.117 113.72 255.742 119.167C255.357 120.707 255.164 122.632 255.164 124.943C255.164 127.198 255.852 129.784 257.227 132.7C258.603 135.615 260.391 138.531 262.591 141.447C264.847 144.307 267.432 147.196 270.348 150.111C279.15 159.133 284.981 165.24 287.842 168.431C290.758 171.621 293.343 174.922 295.599 178.333C300.55 185.98 303.026 193.379 303.026 200.531C303.026 209.168 299.67 216.319 292.958 221.986C286.027 227.762 277.115 230.65 266.222 230.65C257.2 230.65 249.443 228.395 242.952 223.884C235.8 218.933 232.224 212.386 232.224 204.244C234.369 196.597 239.046 190.986 246.252 187.41C248.178 186.42 249.993 185.705 251.699 185.265ZM380.185 198.468C381.67 200.503 382.413 203.446 382.413 207.297C382.413 211.148 382.248 214.229 381.918 216.54C381.588 218.795 381.065 220.858 380.35 222.729C378.699 226.91 376.526 229 373.831 229H306.99C311.226 226.744 314.032 224.571 315.407 222.481C317.993 218.575 319.285 213.624 319.285 207.627C319.23 192.939 319.203 179.653 319.203 167.771V124.365C319.203 116.168 317.91 110.227 315.324 106.541C314.334 105.221 313.151 103.955 311.776 102.745H373.831C377.572 104.065 380.13 108.687 381.505 116.608C381.89 118.809 382.083 120.954 382.083 123.045C382.083 127.336 381.45 130.747 380.185 133.277L375.729 124.365C372.758 118.534 368.495 114.628 362.938 112.647C359.858 111.547 356.392 110.997 352.541 110.997C348.69 110.997 345.939 111.135 344.289 111.41C342.638 111.63 341.373 112.207 340.493 113.143C339.063 114.738 338.347 117.791 338.347 122.302C338.347 126.758 338.457 129.867 338.677 131.627C338.898 133.332 339.42 134.735 340.245 135.835C341.951 137.981 345.554 139.054 351.055 139.054H376.967C375.701 142.244 374.408 144.5 373.088 145.82C370.448 148.461 366.872 149.781 362.361 149.781C360.6 149.781 358.922 149.589 357.327 149.204C354.356 148.488 351.743 148.131 349.488 148.131C347.232 148.131 345.362 148.351 343.876 148.791C342.446 149.176 341.318 149.809 340.493 150.689C339.063 152.229 338.347 155.007 338.347 159.023V198.385C338.347 208.728 338.925 214.862 340.08 216.787C341.236 218.713 342.638 219.868 344.289 220.253C345.939 220.583 348.69 220.748 352.541 220.748C356.392 220.748 359.885 220.198 363.021 219.098C366.156 217.997 368.77 216.457 370.86 214.477C373.006 212.496 374.766 210.158 376.141 207.462C377.517 204.712 378.865 201.714 380.185 198.468ZM384.311 64.6211C378.975 72.543 371.575 79.6396 362.113 85.9111C359.747 87.4515 357.822 88.6068 356.337 89.377H344.124C345.059 88.4967 346.159 87.2865 347.425 85.7461C347.425 85.7461 350.175 82.3353 355.677 75.5137C360.628 69.1322 363.103 65.5013 363.103 64.6211H384.311ZM512.883 96.9688C514.478 99.2243 515.276 102.69 515.276 107.366C515.276 111.987 515.111 115.756 514.781 118.671C514.506 121.532 514.066 124.31 513.46 127.006C512.14 133.057 510.297 137.623 507.932 140.704C505.896 130.087 503.256 122.495 500.01 117.929C496.599 113.308 492.143 110.997 486.642 110.997C481.195 110.997 476.932 112.042 473.851 114.133C470.77 116.223 468.405 118.974 466.754 122.385C464.004 128.051 462.628 136.413 462.628 147.471C462.628 158.473 463.866 168.568 466.342 177.755C468.872 186.888 472.448 194.754 477.069 201.356C486.807 215.384 499.487 222.398 515.111 222.398C514.891 224.874 513.598 227.02 511.232 228.835C510.517 229.385 509.747 229.715 508.922 229.825C488.952 229.825 472.668 222.481 460.07 207.792C446.702 192.169 440.018 170.879 440.018 143.922C440.018 129.839 444.144 119.249 452.396 112.152C459.713 105.881 469.725 102.745 482.433 102.745L496.214 102.91C502.705 102.91 507.271 101.975 509.912 100.104C511.012 99.2793 512.003 98.234 512.883 96.9688ZM571.31 222.398C581.872 222.398 588.694 209.525 591.775 183.779C592.82 175.087 593.343 164.855 593.343 153.082C593.343 123.925 585.943 109.347 571.145 109.347C556.346 109.347 548.947 123.925 548.947 153.082C548.947 187.465 553.376 209.168 562.233 218.19C564.983 220.996 568.009 222.398 571.31 222.398ZM571.145 230.65C556.511 230.65 545.481 223.774 538.055 210.021C530.903 196.762 527.327 177.783 527.327 153.082C527.327 127.391 535.221 111.217 551.01 104.561C556.566 102.25 563.278 101.095 571.145 101.095C593.7 101.095 607.481 111.107 612.487 131.132C614.138 137.568 614.963 145.848 614.963 155.97C614.963 166.093 614.083 175.967 612.322 185.595C610.562 195.167 607.866 203.309 604.235 210.021C596.808 223.774 585.778 230.65 571.145 230.65ZM697.238 198.468C698.723 200.503 699.466 203.446 699.466 207.297C699.466 211.148 699.301 214.229 698.971 216.54C698.641 218.795 698.118 220.858 697.403 222.729C695.753 226.91 693.58 229 690.884 229H624.043C628.279 226.744 631.085 224.571 632.46 222.481C635.046 218.575 636.339 213.624 636.339 207.627C636.284 192.939 636.256 179.653 636.256 167.771V124.365C636.256 116.168 634.963 110.227 632.378 106.541C631.387 105.221 630.205 103.955 628.829 102.745H690.884C694.625 104.065 697.183 108.687 698.558 116.608C698.943 118.809 699.136 120.954 699.136 123.045C699.136 127.336 698.503 130.747 697.238 133.277L692.782 124.365C689.811 118.534 685.548 114.628 679.991 112.647C676.911 111.547 673.445 110.997 669.594 110.997C665.743 110.997 662.992 111.135 661.342 111.41C659.692 111.63 658.426 112.207 657.546 113.143C656.116 114.738 655.401 117.791 655.401 122.302C655.401 126.758 655.511 129.867 655.731 131.627C655.951 133.332 656.473 134.735 657.299 135.835C659.004 137.981 662.607 139.054 668.109 139.054H694.02C692.754 142.244 691.462 144.5 690.141 145.82C687.501 148.461 683.925 149.781 679.414 149.781C677.653 149.781 675.976 149.589 674.38 149.204C671.409 148.488 668.796 148.131 666.541 148.131C664.285 148.131 662.415 148.351 660.929 148.791C659.499 149.176 658.371 149.809 657.546 150.689C656.116 152.229 655.401 155.007 655.401 159.023V198.385C655.401 208.728 655.978 214.862 657.134 216.787C658.289 218.713 659.692 219.868 661.342 220.253C662.992 220.583 665.743 220.748 669.594 220.748C673.445 220.748 676.938 220.198 680.074 219.098C683.21 217.997 685.823 216.457 687.913 214.477C690.059 212.496 691.819 210.158 693.195 207.462C694.57 204.712 695.918 201.714 697.238 198.468ZM775.305 198.468C776.79 200.613 777.533 203.199 777.533 206.225C777.533 209.25 777.313 211.863 776.873 214.064C776.488 216.264 775.937 218.355 775.222 220.335C773.572 224.681 771.481 227.57 768.951 229H702.605C706.951 226.304 709.784 223.966 711.105 221.986C713.635 218.245 714.901 213.404 714.901 207.462C714.845 192.829 714.818 179.598 714.818 167.771V124.53C714.818 116.553 713.498 110.694 710.857 106.954C709.922 105.578 708.767 104.175 707.391 102.745H741.307C738.061 107.421 736.218 112.235 735.778 117.186C735.668 118.836 735.613 120.652 735.613 122.632V198.22C735.613 208.508 736.163 214.669 737.263 216.705C738.364 218.685 739.684 219.868 741.224 220.253C742.765 220.583 745.103 220.748 748.238 220.748C751.374 220.748 754.345 220.198 757.151 219.098C759.956 217.997 762.459 216.457 764.66 214.477C768.401 211.066 771.949 205.729 775.305 198.468ZM842.066 179.901L841.984 157.291C841.984 154.21 841.489 152.119 840.499 151.019C838.683 148.984 835.327 147.966 830.431 147.966H817.393C810.571 147.966 806.831 149.891 806.17 153.742C806.005 154.842 805.923 156.025 805.923 157.291L805.84 182.046C805.84 203.391 806.941 216.76 809.141 222.151C810.021 224.241 811.397 226.524 813.267 229H782.322C784.083 224.819 785.1 221.326 785.375 218.52C785.706 215.714 786.036 212.249 786.366 208.123C786.971 199.486 787.273 189.611 787.273 178.498C787.273 167.385 787.246 159.739 787.191 155.558C787.136 151.322 787.081 147.196 787.026 143.18C786.641 126.511 786.118 116.526 785.458 113.225C784.798 109.869 784.248 107.614 783.808 106.458L782.322 102.745H813.267C809.306 107.146 807.106 113.088 806.666 120.569C806.5 122.825 806.418 125.19 806.418 127.666C806.418 130.142 806.638 132.095 807.078 133.525C807.573 134.9 808.371 135.918 809.471 136.578C810.957 137.568 814.45 138.063 819.951 138.063H827.791C833.402 138.063 836.868 137.651 838.188 136.826C840.389 135.395 841.489 132.287 841.489 127.501C841.489 115.783 839.178 107.531 834.557 102.745H865.502C863.852 106.376 862.834 109.732 862.449 112.812C862.119 115.893 861.871 118.864 861.706 121.725C861.541 124.53 861.376 127.804 861.211 131.544C861.046 135.285 860.908 139.164 860.798 143.18C860.633 152.532 860.551 161.004 860.551 168.596C860.551 199.458 861.706 218.355 864.017 225.287C864.402 226.442 864.897 227.68 865.502 229H834.557C837.308 225.314 838.986 222.151 839.591 219.51C840.196 216.815 840.664 213.651 840.994 210.021C841.709 203.034 842.066 192.994 842.066 179.901ZM926.157 222.398C936.72 222.398 943.541 209.525 946.622 183.779C947.667 175.087 948.19 164.855 948.19 153.082C948.19 123.925 940.791 109.347 925.992 109.347C911.194 109.347 903.794 123.925 903.794 153.082C903.794 187.465 908.223 209.168 917.08 218.19C919.831 220.996 922.856 222.398 926.157 222.398ZM925.992 230.65C911.359 230.65 900.328 223.774 892.902 210.021C885.75 196.762 882.174 177.783 882.174 153.082C882.174 127.391 890.069 111.217 905.857 104.561C911.414 102.25 918.125 101.095 925.992 101.095C948.547 101.095 962.328 111.107 967.334 131.132C968.985 137.568 969.81 145.848 969.81 155.97C969.81 166.093 968.93 175.967 967.169 185.595C965.409 195.167 962.713 203.309 959.082 210.021C951.656 223.774 940.626 230.65 925.992 230.65Z" fill="#F6E9CE"/>
</svg>
