<?xml version="1.0" encoding="UTF-8" standalone="no"?>
<svg
   xmlns:dc="http://purl.org/dc/elements/1.1/"
   xmlns:cc="http://creativecommons.org/ns#"
   xmlns:rdf="http://www.w3.org/1999/02/22-rdf-syntax-ns#"
   xmlns:svg="http://www.w3.org/2000/svg"
   xmlns="http://www.w3.org/2000/svg"
   xmlns:sodipodi="http://sodipodi.sourceforge.net/DTD/sodipodi-0.dtd"
   xmlns:inkscape="http://www.inkscape.org/namespaces/inkscape"
   width="143"
   height="67"
   viewBox="0 0 143 67"
   fill="none"
   version="1.1"
   id="svg6"
   sodipodi:docname="sair.svg"
   inkscape:version="1.0.1 (0767f8302a, 2020-10-17)">
  <metadata
     id="metadata12">
    <rdf:RDF>
      <cc:Work
         rdf:about="">
        <dc:format>image/svg+xml</dc:format>
        <dc:type
           rdf:resource="http://purl.org/dc/dcmitype/StillImage" />
        <dc:title></dc:title>
      </cc:Work>
    </rdf:RDF>
  </metadata>
  <defs
     id="defs10" />
  <sodipodi:namedview
     pagecolor="#ffffff"
     bordercolor="#666666"
     borderopacity="1"
     objecttolerance="10"
     gridtolerance="10"
     guidetolerance="10"
     inkscape:pageopacity="0"
     inkscape:pageshadow="2"
     inkscape:window-width="640"
     inkscape:window-height="480"
     id="namedview8"
     showgrid="false"
     inkscape:zoom="9.5104895"
     inkscape:cx="71.5"
     inkscape:cy="33.5"
     inkscape:current-layer="svg6" />
  <path
     d="M66.6749 7.42281C33.704 10.0451 31.3887 11.0645 26.9267 11.0661L2.70671 39.1301L31.2047 63.0012C35.6089 62.2977 37.982 61.9801 70.9529 59.3579C123.235 55.1998 137.573 53.7063 142.035 53.7046L124.231 28.983L137.757 1.76947C133.353 2.47296 118.957 3.26468 66.6749 7.42281Z"
     fill="#A05A2F"
     id="path2"
     style="fill:#cc7e4e;fill-opacity:1" />
  <path
     d="M55.7323 38.5324C55.9045 40.3929 55.5644 41.8615 54.712 42.9381C53.8688 44.0139 52.5623 44.6336 50.7925 44.7974C49.059 44.9578 47.5527 44.7539 46.2735 44.1858L45.9346 40.5237C47.5129 41.3571 48.9238 41.7162 50.1672 41.6012C50.8751 41.5357 51.388 41.2914 51.7058 40.8684C52.0327 40.4445 52.1651 39.8968 52.103 39.2252C52.0417 38.5627 51.7725 37.9789 51.2956 37.4738C50.8178 36.9596 50.0577 36.4121 49.0154 35.8312C48.1077 35.3202 47.4067 34.8176 46.9124 34.3232C46.4264 33.819 46.0298 33.2424 45.7226 32.5935C45.4244 31.9437 45.2342 31.1741 45.1519 30.2847C44.994 28.5784 45.3408 27.1825 46.1923 26.0968C47.0529 25.0103 48.2819 24.3931 49.8792 24.2453C51.404 24.1042 52.9092 24.3951 54.3949 25.1181L53.4443 28.1992C52.9851 27.9854 52.5058 27.8009 52.0063 27.6458C51.5159 27.4898 50.9984 27.437 50.4538 27.4874C49.8548 27.5428 49.4104 27.7853 49.1207 28.2149C48.8391 28.6345 48.7299 29.1847 48.7928 29.8654C48.855 30.537 49.0998 31.1047 49.5271 31.5686C49.9636 32.0317 50.6922 32.5364 51.713 33.0827C53.0915 33.8338 54.0769 34.6397 54.6691 35.5002C55.2704 36.36 55.6248 37.3707 55.7323 38.5324ZM67.5535 42.9718L65.9451 38.0541L60.7583 38.5341L60.0796 43.6634L56.3767 44.006L59.4555 23.5651L64.4789 23.1002L71.2701 42.6279L67.5535 42.9718ZM64.9472 34.8375L63.457 30.3071C63.3675 30.0316 63.1572 29.3417 62.8261 28.2373C62.5033 27.1229 62.3016 26.3773 62.2209 26.0003C62.1752 26.7917 62.1052 27.6678 62.011 28.6285C61.916 29.5801 61.6423 31.7657 61.1898 35.1852L64.9472 34.8375ZM73.1357 42.4552L71.2939 22.552L74.779 22.2295L76.6208 42.1327L73.1357 42.4552ZM70.9968 20.973L70.9627 20.6054C71.2903 20.09 71.658 19.3649 72.0658 18.4301C72.4736 17.4953 72.76 16.7823 72.9251 16.291L77.2543 15.8904L77.2807 16.1763C77.099 16.5867 76.6174 17.2675 75.8358 18.2185C75.0534 19.1605 74.289 20.0002 73.5425 20.7374L70.9968 20.973ZM91.992 30.4812C92.2961 33.7667 91.8571 36.3428 90.6751 38.2097C89.5014 40.0666 87.6575 41.1114 85.1435 41.344L80.2698 41.795L78.428 21.8918L83.751 21.3992C86.0653 21.1851 87.9462 21.876 89.3937 23.4721C90.8404 25.0591 91.7065 27.3955 91.992 30.4812ZM88.2039 30.9416C87.7924 26.4945 86.3614 24.3843 83.9109 24.611L82.427 24.7484L83.6729 38.2123L84.8709 38.1015C86.2232 37.9763 87.1695 37.3212 87.7097 36.1362C88.2491 34.9421 88.4139 33.2106 88.2039 30.9416ZM104.707 39.5337L103.099 34.6161L97.9117 35.096L97.233 40.2253L93.5301 40.568L96.6089 20.127L101.632 19.6622L108.424 39.1898L104.707 39.5337ZM102.101 31.3994L100.61 26.869C100.521 26.5935 100.311 25.9036 99.9796 24.7992C99.6568 23.6849 99.455 22.9392 99.3744 22.5622C99.3286 23.3537 99.2587 24.2297 99.1645 25.1904C99.0695 26.142 98.7957 28.3276 98.3433 31.7471L102.101 31.3994Z"
     fill="#F6E9CE"
     id="path4" />
</svg>
