<svg width="39" height="39" viewBox="0 0 39 39" fill="none" xmlns="http://www.w3.org/2000/svg">
<mask id="mask0" mask-type="alpha" maskUnits="userSpaceOnUse" x="3" y="3" width="33" height="33">
<path fill-rule="evenodd" clip-rule="evenodd" d="M19.5 3.25C10.53 3.25 3.25 10.53 3.25 19.5C3.25 28.47 10.53 35.75 19.5 35.75C28.47 35.75 35.75 28.47 35.75 19.5C35.75 10.53 28.47 3.25 19.5 3.25ZM19.5 32.5C12.3175 32.5 6.5 26.6825 6.5 19.5C6.5 12.3175 12.3175 6.5 19.5 6.5C26.6825 6.5 32.5 12.3175 32.5 19.5C32.5 26.6825 26.6825 32.5 19.5 32.5ZM27.625 19.5C27.625 23.9873 23.9873 27.625 19.5 27.625C15.0127 27.625 11.375 23.9873 11.375 19.5C11.375 15.0127 15.0127 11.375 19.5 11.375C23.9873 11.375 27.625 15.0127 27.625 19.5Z" fill="white"/>
</mask>
<g mask="url(#mask0)">
<rect width="39" height="39" fill="#311F14"/>
</g>
</svg>
