<svg width="675" height="78" viewBox="0 0 675 78" fill="none" xmlns="http://www.w3.org/2000/svg">
<path fill-rule="evenodd" clip-rule="evenodd" d="M50.0065 1.95435L47.7847 13.5114L54.0476 1.95728C72.3583 1.96875 95.6213 1.96045 124.403 1.95019L124.404 1.95019H124.404H124.404C149.676 1.94118 179.203 1.93065 213.368 1.93065C320.091 -0.867216 515.925 0.0638683 614.261 0.531398L614.265 0.531418C622.853 0.572248 630.697 0.609542 637.673 0.640508L635.088 13.557L646.055 0.676215C662.328 0.74191 672.298 0.756182 673.738 0.669003L675 37.8986L673.738 77.0531C669.951 76.8239 607.927 76.5494 527.608 76.315L530.728 69.7098L518.133 76.2878C419.107 76.0076 295.481 75.7914 218.414 75.7914C166.594 75.7914 124.783 75.8892 92.1217 76.0384L85.1929 69.3242L86.0042 76.0675C32.5084 76.3316 5.2433 76.7358 0 77.0531L3.77549e-06 37.8986L7.27566e-06 1.59934C3.99906 1.84138 19.6984 1.92927 50.0065 1.95435Z" fill="#D2B37C"/>
<path d="M301.252 39.5452C301.209 44.3897 300.268 48.1066 298.43 50.6957C296.592 53.2849 293.984 54.5671 290.608 54.5424C287.218 54.5176 284.627 53.204 282.835 50.6016C281.043 47.9859 280.169 44.2358 280.212 39.3512C280.255 34.5067 281.196 30.8032 283.034 28.2407C284.872 25.6649 287.499 24.3895 290.916 24.4145C294.293 24.4392 296.87 25.7593 298.649 28.375C300.427 30.9772 301.295 34.7006 301.252 39.5452ZM285.777 39.432C285.748 42.7684 286.145 45.3139 286.971 47.0683C287.796 48.8228 289.023 49.706 290.651 49.7179C293.934 49.7419 295.606 46.3374 295.667 39.5043C295.727 32.6712 294.13 29.2428 290.873 29.219C289.218 29.2069 287.963 30.0719 287.106 31.814C286.25 33.5428 285.807 36.0821 285.777 39.432ZM320.721 34.102C320.693 37.2116 319.885 39.5948 318.295 41.2515C316.719 42.8949 314.449 43.7058 311.486 43.6841L310.125 43.6742L310.031 54.2841L304.585 54.2443L304.846 24.9769L312.273 25.0312C317.958 25.0728 320.774 28.0964 320.721 34.102ZM310.167 38.9497L311.208 38.9574C312.543 38.9671 313.54 38.6074 314.201 37.8782C314.861 37.1489 315.199 35.9502 315.214 34.282C315.227 32.7472 314.937 31.6106 314.343 30.8722C313.749 30.1204 312.825 29.74 311.57 29.7308L310.249 29.7211L310.167 38.9497ZM333.355 29.5298C331.794 29.5184 330.551 30.4235 329.627 32.2453C328.717 34.0671 328.247 36.6062 328.218 39.8626C328.158 46.6423 329.896 50.0451 333.433 50.0709C334.981 50.0823 336.607 49.6003 338.31 48.6251L338.267 53.4697C336.831 54.4068 334.998 54.8672 332.769 54.8509C329.473 54.8268 326.949 53.5003 325.197 50.8715C323.459 48.2295 322.611 44.533 322.653 39.7818C322.695 35.0307 323.636 31.3339 325.475 28.6914C327.327 26.0489 329.874 24.7396 333.117 24.7633C334.185 24.7711 335.205 24.9254 336.176 25.2261C337.161 25.5269 338.211 26.0485 339.326 26.7907L337.484 31.2017C336.888 30.7835 336.25 30.4052 335.573 30.0665C334.895 29.7146 334.156 29.5357 333.355 29.5298ZM335.749 59.6775C335.737 61.1055 335.253 62.2297 334.298 63.0503C333.343 63.8841 331.871 64.2938 329.883 64.2792C328.908 64.2721 328.035 64.1256 327.264 63.8396L327.291 60.7567C328.103 60.9896 328.91 61.1089 329.711 61.1148C330.885 61.1234 331.476 60.6873 331.484 59.8064C331.494 58.6854 330.453 57.9437 328.361 57.5814L329.97 54.43L333.434 54.4553L332.679 55.9713C333.585 56.2049 334.322 56.6307 334.89 57.2488C335.472 57.867 335.758 58.6765 335.749 59.6775ZM361.491 39.9859C361.448 44.8305 360.508 48.5473 358.669 51.1365C356.831 53.7256 354.224 55.0078 350.847 54.9831C347.457 54.9583 344.867 53.6448 343.074 51.0424C341.283 48.4267 340.408 44.6765 340.452 39.7919C340.495 34.9474 341.436 31.2439 343.274 28.6815C345.112 26.1056 347.739 24.8302 351.156 24.8552C354.532 24.8799 357.11 26.2001 358.888 28.8157C360.667 31.418 361.535 35.1414 361.491 39.9859ZM346.017 39.8727C345.987 43.2092 346.385 45.7546 347.21 47.5091C348.035 49.2635 349.262 50.1467 350.89 50.1586C354.173 50.1826 355.845 46.7781 355.906 39.9451C355.967 33.112 354.369 29.6836 351.113 29.6597C349.458 29.6476 348.202 30.5126 347.346 32.2548C346.49 33.9836 346.047 36.5229 346.017 39.8727ZM348.769 20.8137C348.355 20.8107 348.02 20.9684 347.764 21.2869C347.521 21.5921 347.329 22.1579 347.188 22.9844L344.365 22.9637C344.53 20.9229 344.998 19.4114 345.767 18.4294C346.55 17.4475 347.562 16.9611 348.803 16.9701C349.377 16.9743 349.89 17.0915 350.342 17.3217C350.807 17.5387 351.239 17.7821 351.637 18.0519C352.035 18.3218 352.419 18.5715 352.791 18.8011C353.163 19.0174 353.549 19.127 353.949 19.1299C354.403 19.1332 354.732 18.9621 354.935 18.6166C355.151 18.2712 355.337 17.7253 355.49 16.979L358.313 16.9997C358.148 19.0272 357.667 20.5385 356.871 21.5337C356.088 22.5156 355.089 23.0021 353.875 22.9932C353.288 22.9889 352.761 22.8783 352.296 22.6614C351.844 22.4312 351.42 22.1812 351.022 21.9113C350.637 21.6282 350.266 21.3786 349.907 21.1624C349.549 20.9329 349.169 20.8167 348.769 20.8137ZM378.017 54.7815L364.825 54.685L365.085 25.4176L378.278 25.5141L378.236 30.2185L370.489 30.1619L370.427 37.1284L377.614 37.181L377.572 41.9054L370.385 41.8528L370.313 49.9604L378.06 50.0171L378.017 54.7815ZM394.866 46.8367C394.842 49.5726 394.129 51.6628 392.728 53.1074C391.341 54.552 389.345 55.2648 386.743 55.2458C384.194 55.2271 382.03 54.7108 380.25 53.6968L380.298 48.3117C382.474 49.7557 384.476 50.4844 386.305 50.4978C387.346 50.5054 388.129 50.2242 388.655 49.6542C389.194 49.0842 389.467 48.3054 389.476 47.3178C389.485 46.3436 389.179 45.4538 388.559 44.6484C387.939 43.8298 386.913 42.9213 385.48 41.9232C384.233 41.0466 383.287 40.2121 382.64 39.4199C382.006 38.6145 381.514 37.7167 381.162 36.7264C380.824 35.7363 380.661 34.5873 380.672 33.2794C380.695 30.7704 381.406 28.7869 382.807 27.3291C384.222 25.8713 386.103 25.151 388.452 25.1682C390.694 25.1846 392.844 25.8276 394.902 27.0972L393.061 31.4481C392.424 31.0698 391.753 30.7312 391.048 30.4324C390.357 30.1337 389.611 29.9814 388.81 29.9756C387.929 29.9691 387.246 30.2578 386.76 30.8415C386.288 31.4119 386.047 32.1976 386.038 33.1986C386.03 34.1861 386.302 35.049 386.856 35.7871C387.423 36.5253 388.41 37.3667 389.817 38.3113C391.714 39.6065 393.03 40.9241 393.766 42.2641C394.514 43.6043 394.881 45.1285 394.866 46.8367Z" fill="#523422"/>
</svg>
