<svg width="50" height="92" viewBox="0 0 50 92" fill="none" xmlns="http://www.w3.org/2000/svg">
<g clip-path="url(#clip0)">
<path d="M44.8277 1.68C39.5733 -1.28 36.125 9.44 33.8261 16C28.5716 24.8 19.5404 26.96 17.2415 39.04C16.5026 42.8 14.7785 43.04 10.6734 47.04C9.27767 48.4 6.0757 52.16 4.92627 54.24C1.05656 67.0978 -0.3518 80.48 7.71773 80.48C13.4649 84.64 21.4287 81.84 27.8327 85.28C32.102 87.6 43.5962 93.44 46.0593 89.44C51.8885 79.92 46.7161 62.4 47.5371 48.72C48.3581 33.28 50.0823 4.64 44.8277 1.68Z" fill="#F1E0BB" stroke="black" stroke-width="3" stroke-miterlimit="10"/>
<path d="M24.302 26.32C24.2199 26.8 23.8915 27.12 23.8094 27.6C23.7273 28.16 23.8094 28.8 23.8094 29.36C23.8094 30.48 23.9736 31.28 24.3842 32.32C24.7126 33.28 24.9589 34.24 25.1231 35.2C25.2873 36.08 25.6157 36.8 25.9441 37.68C26.6009 39.92 27.504 42.16 27.7503 44.56C27.8324 45.44 27.7503 46.32 27.9145 47.2C28.0787 47.92 28.1608 48.4 28.1608 49.12C28.1608 49.76 28.0787 50.4 28.1608 51.04C28.2429 51.6 28.6534 52.08 28.5713 52.72C28.5713 53.28 28.1608 53.84 28.0787 54.48C27.9966 54.96 28.0787 55.6 28.0787 56.08C28.0787 57.04 28.0787 58 28.0787 58.96C28.0787 59.84 28.2429 60.8 27.9966 61.6C27.9145 61.92 27.6682 62.08 27.6682 62.56C27.5861 63.04 27.6682 63.6 27.6682 64.08C27.6682 65.76 27.9966 67.76 27.6682 69.44C27.504 70.4 27.1756 71.12 27.1756 72.24C27.1756 73.2 27.0114 74.16 27.1756 75.12C27.2577 75.76 27.5861 76.32 27.6682 76.96C27.7503 77.44 27.6682 78 27.6682 78.48C27.6682 79.44 27.5861 80.48 27.6682 81.44C27.7503 82 27.8324 82.24 28.0787 82.72C28.325 83.2 28.6534 83.36 28.9819 83.84C29.3924 84.32 29.2282 84.8 29.3924 85.28C29.5566 85.76 30.0492 85.92 29.8029 86.56" stroke="black" stroke-miterlimit="10"/>
</g>
<defs>
<clipPath id="clip0">
<rect width="50" height="92" fill="white"/>
</clipPath>
</defs>
</svg>
