<svg width="159" height="160" viewBox="0 0 159 160" fill="none" xmlns="http://www.w3.org/2000/svg">
<path d="M43.2538 24.2848C38.3024 29.278 32.2017 33.0339 26.8083 37.541C11.2912 50.6205 2.00743 70.8141 2.22847 91.0519C2.27268 95.2055 2.71476 99.3591 3.81997 103.336C4.96938 107.534 6.91455 111.466 8.81551 115.399C11.5122 120.923 14.2089 126.49 18.055 131.262C23.0948 137.537 29.8145 142.177 36.7994 146.154C43.4306 149.909 50.4155 153.179 57.7983 155.124C68.3199 157.863 71.3702 157.819 82.2455 157.775C76.0849 157.775 88.6115 157.863 89.3188 157.775C103.908 156.007 111.335 153.091 121.37 146.728C129.195 141.779 137.152 136.653 142.811 129.362C148.867 121.541 151.829 111.732 153.996 102.055C157.532 86.1471 158.77 68.1187 149.309 54.8183C147.497 52.2554 145.331 48.9576 143.165 46.7041C139.805 43.1691 138.36 41.535 135 38C133.011 35.9232 129.15 32.9013 126.852 31.178C123.138 28.4384 118.673 26.8035 115.269 23.7103C110.141 19.1149 110.141 4.13534 110.097 4.00278C108.284 0.467791 91.1314 2.98647 81.3613 3.11903C72.9175 3.2516 62.3518 1.35154 54.3943 2.23529C50.0619 2.72135 51.6976 9.5262 50.3271 13.4589C48.9124 17.5683 46.3041 21.2359 43.2538 24.2848Z" fill="#F1E0BB" stroke="black" stroke-width="3"/>
<path d="M35.6226 29.8965C35.5342 30.3826 35.8879 31.3105 36.2415 31.7082C36.551 32.0617 36.9931 32.1501 37.391 32.371C37.7446 32.5919 38.0983 32.8571 38.452 33.078C38.8498 33.2989 39.3803 33.3431 39.5572 33.7408C39.6456 33.9618 39.5572 34.492 39.6014 34.7571C39.6456 34.8897 39.8666 34.9781 39.9108 35.1548C40.0435 35.6851 39.6898 36.3921 39.8666 36.9665C40.2203 38.0712 41.635 38.1596 42.5191 38.5131C43.4917 38.9107 44.6411 39.22 45.5253 39.7503C46.0558 40.0596 46.1 40.3689 46.5863 40.8108C47.0284 41.2527 47.5147 41.3852 47.8241 42.0039C48.0452 42.4457 48.2662 43.1085 48.3546 43.5946C48.443 44.2132 48.222 44.5667 48.5757 45.097C49.2388 46.0691 50.8303 46.2017 51.8471 46.4226C52.7755 46.6435 53.6154 46.6877 54.2343 47.5715C54.9417 48.5436 55.2511 49.8692 55.8258 50.9297C56.3563 51.9018 56.7984 52.1669 57.8594 52.6972C59.1857 53.36 60.3351 52.8739 61.7497 53.1391C64.0928 53.5809 66.3032 54.5089 68.8231 54.2438C69.5304 54.1554 69.3536 53.9344 69.9283 53.5809C70.3261 53.36 70.9893 53.4926 71.4314 53.4926C72.846 53.4926 74.1281 53.6251 75.4985 53.8461C76.5595 54.0228 77.7974 54.9066 78.6815 55.4368C79.9636 56.2764 81.0688 56.4973 82.5276 56.7624C84.0749 57.0276 85.3128 57.2043 86.7716 56.6741C87.7442 56.3206 88.8052 56.2764 89.9546 56.3206C90.5736 56.3647 91.0598 56.6299 91.723 56.6741C92.4303 56.7182 93.1376 56.6741 93.845 56.6741C95.0828 56.6741 96.188 56.7182 97.3816 56.4089C98.3984 56.1438 99.9457 56.2322 100.963 56.4089C102.775 56.7182 103.615 57.0717 104.543 58.7067C104.853 59.2811 104.632 59.5904 104.764 60.209C104.853 60.5625 105.251 61.0044 105.383 61.3579C105.914 62.4626 106.577 62.7277 107.594 63.3905C109.495 64.672 111.175 66.8372 111.749 69.0465C112.147 70.5047 112.855 71.8303 113.96 72.8466C115.198 73.9955 116.48 75.056 117.673 76.2933C118.646 77.2654 119.442 78.5026 120.547 79.298C121.829 80.2259 123.288 80.8887 124.702 81.4632C126.205 82.0376 126.736 82.6562 127.709 83.9819C128.195 84.6005 128.637 85.2633 129.079 85.8819C129.521 86.5447 130.14 87.1633 130.715 87.8262C131.245 88.4006 131.731 89.0634 132.35 89.5495C133.146 90.1681 133.632 90.7425 134.296 91.5821C134.959 92.4658 135.843 93.3054 136.594 94.0566C137.036 94.4543 137.788 94.6752 138.274 95.0287C138.805 95.3822 139.424 95.6473 140.043 95.8241C140.617 96.0008 141.369 96.3985 141.899 96.5311C142.474 96.6636 143.005 96.5311 143.579 96.7078C144.021 96.7962 144.198 96.9729 144.64 96.9729C144.95 96.9729 145.392 96.8846 145.701 96.9288C146.497 97.0613 146.939 97.3264 147.823 97.2823C148.398 97.2823 149.017 97.1939 149.592 97.2823C149.724 97.2823 150.343 97.5916 150.387 97.5916C150.741 97.5916 151.006 97.3706 151.36 97.2823C151.89 97.1497 152.907 97.1939 153.438 97.3706C153.438 97.459 153.482 97.5474 153.482 97.6799" stroke="black"/>
<path d="M76.5589 2.5446C77.2221 3.11904 77.2663 4.22372 77.2663 5.01909C77.2663 6.0354 77.6199 6.83077 77.6199 7.84708C77.6199 8.33315 77.6642 11.4263 77.6199 11.9123C77.5757 12.4426 77.3105 12.7961 77.2221 13.3263C77.0894 14.1659 77.001 14.9171 76.8242 15.8008C76.6474 16.552 76.1611 17.259 75.8516 17.9218C75.5422 18.5404 75.2769 19.2474 74.879 19.7777C74.4369 20.3521 73.7738 20.794 73.1991 21.2359C72.536 21.7661 71.9613 22.3847 71.2539 22.8708C70.5024 23.401 69.9277 24.108 69.4414 24.7708C68.7783 25.6988 67.9383 26.3616 67.0099 27.1128C65.4184 28.35 63.6943 29.4105 62.147 30.7361C60.9534 31.7525 60.3787 33.0781 60.3345 34.5363C60.3345 35.0223 60.0692 35.3316 59.9808 35.7735C59.8924 36.2154 59.9808 36.7014 59.9366 37.1875C59.9366 37.6294 59.7156 37.8061 59.6714 38.1596C59.5387 38.6899 59.6272 39.2201 59.4945 39.7504C59.4945 39.8387 59.2735 39.8829 59.2293 40.0155C59.1851 40.2806 59.2735 40.5899 59.2293 40.8992C59.1409 41.2969 58.7872 41.6946 58.6104 42.0481C58.3009 42.7109 58.0357 43.7272 57.4609 44.2133C57.1957 44.4342 56.7978 44.611 56.4884 44.8319C56.0463 45.1412 55.6484 45.4947 55.2063 45.804C54.4548 46.3343 53.7032 46.7762 52.8633 47.218" stroke="black"/>
<path d="M75.0117 20.7056C75.498 20.6172 75.8075 20.8823 76.2496 21.0591C77.399 21.501 78.5926 21.8545 79.6978 22.3405C80.6262 22.7382 81.2009 23.4894 81.3777 24.4173C81.5103 24.9918 81.4219 25.2127 81.7314 25.743C81.9082 26.0965 82.2619 26.5825 82.3945 26.936C82.6598 27.643 82.704 28.0849 83.2345 28.7477C83.7208 29.3663 84.2955 29.764 84.9144 30.2501C85.2681 30.5594 85.6659 31.0454 86.0196 31.3106C86.5943 31.7083 87.2574 31.885 87.8321 32.2827C88.5395 32.7687 89.3352 33.4757 90.1752 33.6967C90.573 33.7851 90.8825 33.7851 91.2362 33.9176C91.5456 34.0502 91.8551 34.3153 92.1645 34.4479C94.7728 35.5084 97.6464 36.3479 100.21 37.6294C101.492 38.248 101.625 39.3085 102.288 40.5015C102.598 41.1202 102.951 41.6504 103.261 42.2248C103.659 43.0202 103.747 43.904 104.012 44.8319C104.233 45.6715 104.41 46.511 104.72 47.3506C104.852 47.7483 104.985 48.1901 105.118 48.5878C105.294 49.1181 105.25 49.5158 105.383 50.0018C105.471 50.3553 105.648 50.6204 105.736 51.0181C105.869 51.5042 105.913 52.0344 106.09 52.4763C106.488 53.4484 106.842 54.4206 107.328 55.4369C108.124 57.1602 109.45 58.1323 110.688 59.5021C111.439 60.2975 111.705 60.9603 112.191 61.8882C113.075 63.479 113.959 71.1234 114.003 72.9351" stroke="black"/>
</svg>
