<svg width="58" height="77" viewBox="0 0 58 77" fill="none" xmlns="http://www.w3.org/2000/svg">
<path d="M15.3014 8.13574L50.8371 17.6575C53.5044 18.3722 55.0873 21.1139 54.3726 23.7812L41.6594 71.2274C40.9447 73.8947 38.203 75.4776 35.5357 74.7629L4.16124e-05 65.2412L15.3014 8.13574Z" fill="#232323"/>
<rect x="20.1049" y="19.5662" width="27.3258" height="16.3286" transform="rotate(15 20.1049 19.5662)" fill="#E9E9E9" stroke="#E20C08" stroke-width="2"/>
<path d="M25.8543 27.6392C25.3591 27.5065 24.9256 27.5906 24.5539 27.8913C24.1829 28.1892 23.9083 28.6707 23.7301 29.3357C23.3593 30.7195 23.6932 31.5506 24.7317 31.8288C25.1675 31.9456 25.7245 31.9781 26.4026 31.9262L26.1069 33.0299C25.5407 33.1056 24.9434 33.0593 24.3152 32.891C23.4125 32.6491 22.7952 32.191 22.4633 31.5167C22.1321 30.8396 22.1038 29.9888 22.3783 28.9644C22.5512 28.3192 22.8199 27.7861 23.1844 27.3651C23.5497 26.9413 23.9862 26.6594 24.4938 26.5194C25.005 26.3774 25.5563 26.3856 26.1478 26.5441C26.7505 26.7056 27.3171 27.0136 27.8474 27.4681L27.1363 28.424C26.9338 28.2515 26.7261 28.0927 26.5133 27.9477C26.3004 27.8027 26.0807 27.6999 25.8543 27.6392ZM32.7004 35.0468L31.0279 34.5987L29.5862 29.1806L29.548 29.1703C29.3796 30.0139 29.248 30.6125 29.1532 30.9663L28.3707 33.8867L27.1949 33.5716L28.8577 27.3657L30.5174 27.8104L31.9674 33.1807L31.9971 33.1887C32.1708 32.3708 32.3024 31.7949 32.3918 31.461L33.1789 28.5236L34.3632 28.8409L32.7004 35.0468ZM37.8919 36.4379L37.8378 34.8401L35.5753 34.2339L34.7295 35.5905L33.3118 35.2106L37.1718 29.5662L38.7805 29.9972L39.3097 36.8178L37.8919 36.4379ZM37.8194 33.6523C37.762 32.2023 37.73 31.3824 37.7232 31.1925C37.7193 31.0034 37.7197 30.8549 37.7243 30.747C37.5339 31.0842 37.0265 31.9082 36.2021 33.219L37.8194 33.6523Z" fill="black"/>
</svg>
