<svg width="60" height="82" viewBox="0 0 60 82" fill="none" xmlns="http://www.w3.org/2000/svg">
<path d="M9.09854 4.76117C8.14668 6.05828 7.93425 7.73204 7.74571 9.33823C6.35 21.0109 4.97734 32.6614 3.58163 44.3341C3.1764 47.8406 2.74814 51.3695 2.54643 54.8799C2.15196 61.4248 2.45809 68.0055 2.92293 74.5666C2.94001 74.8616 2.9797 75.1571 3.15634 75.3872C3.39956 75.6865 3.82793 75.7625 4.21151 75.8151C8.95013 76.4483 13.6883 77.1041 18.4495 77.7378C21.9244 78.2112 25.3992 78.6846 28.8783 78.9314C37.779 79.5748 46.7967 78.8147 55.5426 80.4754C56.0158 80.575 56.6033 80.6087 56.8824 80.2059C57.0223 79.9818 57.0048 79.7094 57.0095 79.4601C56.1006 62.8242 55.1699 46.1425 52.2207 29.7404C51.4632 25.5091 50.5701 21.2752 50.334 16.9857C50.1795 14.3755 50.2741 11.7473 49.643 9.21879C49.0119 6.6903 47.4519 4.23504 45.0497 3.26033C43.59 2.68876 41.9836 2.70391 40.3998 2.71949C34.6978 2.7937 28.9941 2.95857 23.2917 3.05544C20.395 3.11436 17.4766 3.12752 14.5791 3.23177C12.6096 3.30812 10.4224 2.92693 9.09854 4.76117Z" fill="#F1E0BB" stroke="black" stroke-width="2"/>
<path d="M3.65603 50.9341C7.10862 50.1828 9.48079 45.6466 10.4428 42.6039C10.9719 40.9361 12.0381 39.5731 12.8585 38.0468C13.8662 36.1839 14.391 35.9444 16.5129 36.1883C17.935 36.3511 19.2222 36.466 19.6443 38.0836C20.1935 40.1571 19.6901 42.8684 19.6496 45.0215C19.6015 47.5825 19.5282 50.2792 19.7527 52.7773C19.9797 55.1395 21.2777 57.0911 21.3469 59.4276C21.4409 62.8529 19.8352 65.8988 19.7717 69.2758L3.0792 64.8884L3.65603 50.9341Z" fill="#CD353B"/>
<path d="M17.8468 58.2055C20.8535 57.1058 22.8969 59.1167 25.5508 59.9374C29.6895 61.1941 29.7452 55.8219 31.1724 53.3094C32.623 50.752 34.7272 47.1186 37.314 45.4895C38.8709 44.4985 41.0764 45.1068 42.6453 45.8844C43.654 46.3795 44.096 46.9319 45.3304 47.4539C46.1607 47.8096 46.7094 48.7042 47.5355 49.2865C48.5847 50.0317 49.7021 50.7556 50.7048 51.568C51.9525 52.589 52.162 53.4771 54.5108 54.8816L54.1668 50.318C52.8936 49.4552 51.6016 48.388 50.421 47.4136C48.8836 46.1604 47.8741 44.509 46.3368 43.2558C43.6858 41.0748 39.8986 39.1671 36.2387 40.1186C34.6702 40.5199 34.1497 41.7344 33.4031 42.9447C32.4466 44.4911 31.0646 45.8028 29.995 47.3471C28.9723 48.8016 28.1288 50.3501 27.3758 51.9003C26.741 53.1807 26.3933 53.6276 24.8636 53.1681C23.4466 52.7334 22.3799 51.7158 21.0312 51.2596C19.3006 50.6603 17.4237 50.625 15.592 50.5906" fill="#CD353B"/>
<path d="M19.5176 69.2103C20.973 70.0085 22.4689 71.0569 23.7613 72.1014C24.7866 72.9142 25.6733 73.8831 26.9081 74.3824C30.7016 75.9501 33.553 74.6887 34.7783 70.8801C35.3308 69.1674 36.2669 67.5073 37.0438 65.8894C37.9854 63.9347 39.4138 61.3542 40.355 59.422C41.5786 56.9057 44.494 57.0512 46.8689 58.2748C49.5126 59.6395 52.3884 61.8928 55.2945 62.5369L54.8831 59.151C52.0371 57.7145 49.1741 55.9829 46.3081 54.41C44.8527 53.6118 43.5202 52.2944 41.799 52.3981C40.1457 52.5031 38.3516 54.0791 37.6229 55.5391C35.9543 58.8632 33.7613 61.2026 32.3845 64.6456C31.7676 66.1757 31.402 67.5745 29.4581 67.4926C28.2148 67.4466 26.9177 66.6514 25.8659 66.0421C23.584 64.6842 21.7621 62.9269 19.1026 62.4008" fill="#CD353B"/>
<path d="M15.183 8.41234C12.9835 7.48678 9.40935 9.89089 10.9186 12.6399C11.5744 13.8539 13.41 14.886 14.7983 14.436C16.0271 14.0509 16.3778 12.2437 16.4439 11.134C16.5424 9.50349 15.9019 8.67525 15.183 8.41234Z" fill="black"/>
<path d="M13.6107 10.2193C12.1144 10.3952 11.4663 12.3782 13.3625 12.5952C15.3708 12.8597 15.7415 9.98727 13.6107 10.2193Z" fill="#FAC58C"/>
<path d="M42.1856 8.80655C40.7285 8.09899 38.3754 8.12279 37.6215 9.71835C37.1271 10.752 37.1647 12.3624 37.9399 13.2385C38.8479 14.2759 41.1212 14.8854 42.4409 14.4794C43.8741 14.0529 43.7994 12.011 43.5762 10.6465C43.4959 10.1008 43.5045 9.64754 42.8346 9.1815L42.1856 8.80655Z" fill="black"/>
<path d="M40.2661 9.83614C38.8125 10.1489 39.5135 12.5653 41.0111 12.3214C41.7599 12.1995 42.1081 11.7299 41.829 10.9311C41.4633 9.92665 41.2837 9.85526 40.3344 9.81475L40.2661 9.83614Z" fill="#FAC58C"/>
</svg>
