<svg width="40" height="61" viewBox="0 0 40 61" fill="none" xmlns="http://www.w3.org/2000/svg">
<path d="M36.1608 2.60152C33.4036 0.846919 29.2677 1.84955 25.2572 4.85743C25.1319 3.35349 25.0066 1.84955 25.0066 0.345604V0.220276H7.46056C6.58326 0.220276 5.83129 0.972247 5.83129 1.97488C5.83129 2.85218 6.70859 3.60415 7.58589 3.60415H9.84181C11.4711 3.60415 12.8497 5.10809 12.599 6.73736C11.5964 13.2544 8.96451 19.5209 5.20465 25.0353C-1.06178 34.059 -2.69105 44.2106 6.08195 50.853C5.70596 52.733 5.32998 56.2422 6.33261 57.1195C10.7191 61.506 26.7612 61.506 31.1477 57.1195C32.025 56.2422 31.7743 53.2343 31.3983 51.229C40.422 44.9626 39.294 35.187 33.5289 25.9126C37.9154 19.6462 42.5526 6.61203 36.1608 2.60152ZM34.9075 4.60678C39.4193 7.48933 35.4088 19.3955 32.1503 23.782C28.8917 18.7689 26.6358 13.2544 25.6332 7.48933C29.3931 4.35612 32.9023 3.35349 34.9075 4.60678Z" fill="#3CB3E7"/>
</svg>
