<svg width="1920" height="201" viewBox="0 0 1920 201" fill="none" xmlns="http://www.w3.org/2000/svg">
<rect width="1920" height="114" fill="#76482E"/>
<path d="M1204.01 69.0425L1201.27 66.1992L1198.96 63.9391C1197.9 62.481 1191.35 53.0034 1191.35 35.2147C1191.35 26.3932 1187.28 18.0092 1179.84 11.6665C1177.36 9.55223 1174.62 7.72961 1171.69 6.27152V1.67852V-3.20609V-8.0907C1171.69 -12.1005 1167.71 -15.3812 1162.84 -15.3812H1156.91H1150.97H1145.57C1138.05 -25.3691 1124.77 -31.566 1110.25 -31.566H1058.01C1028.26 -31.566 1006.03 -36.0861 992.573 -39.9501C979.026 -43.814 971.5 -47.678 970.968 -47.9696L967.781 -49.7922L964.416 -51.6877C962.911 -52.5626 961.14 -53 959.369 -53C957.598 -53 955.916 -52.5626 954.322 -51.6877L950.958 -49.7922L947.77 -47.9696C947.15 -47.6051 939.801 -43.814 926.786 -40.0959C913.239 -36.2319 890.749 -31.566 860.645 -31.566H808.405C793.884 -31.566 780.603 -25.3691 773.077 -15.3812H767.675H761.743H755.811C750.941 -15.3812 746.957 -12.1005 746.957 -8.0907V-3.20609V1.67852V6.34442C734.915 12.4684 727.389 23.3312 727.3 35.2147C726.858 53.2951 719.774 63.7933 718.977 64.7411L716.852 67.2928L714.55 70.0631C712.425 72.6148 712.514 75.8955 714.639 78.3743L717.029 81.1447L719.066 83.5505C719.951 84.8628 726.858 95.2882 727.3 113.004C727.389 124.887 734.915 135.75 746.957 141.874V146.321V151.206V156.091C746.957 160.1 750.941 163.381 755.811 163.381H761.743H767.675H772.988C780.426 173.442 793.795 179.712 808.405 179.712H862.681C891.723 179.931 913.504 184.451 926.609 188.169C939.801 191.96 947.15 195.751 947.77 196.042L950.958 197.865L954.322 199.761C955.828 200.635 957.598 201 959.281 201C961.052 201 962.734 200.563 964.239 199.761L967.604 197.865L970.791 196.042C971.411 195.751 978.583 192.033 991.244 188.315C1004.53 184.451 1026.48 179.858 1055.88 179.639H1110.16C1124.77 179.639 1138.14 173.369 1145.57 163.308H1150.89H1156.82H1162.75C1167.62 163.308 1171.6 160.028 1171.6 156.018V151.133V146.249V141.874C1174.53 140.416 1177.27 138.594 1179.75 136.552C1187.19 130.282 1191.26 121.971 1191.35 113.15C1191.7 94.9236 1198.88 84.3525 1199.67 83.3318L1201.97 80.5614L1204.45 77.5723C1206.67 75.0936 1206.49 71.5941 1204.01 69.0425Z" fill="#76482E"/>
</svg>
