<svg width="86" height="61" viewBox="0 0 86 61" fill="none" xmlns="http://www.w3.org/2000/svg">
<path d="M13.6065 1.07701C12.6169 2.22489 12.6711 4.3034 12.6886 5.49938C12.8852 18.9937 12.9822 21.3268 12.896 25.7781C10.7409 25.9103 9.93478 25.9166 7.15545 26.1272C5.45047 26.2564 2.07703 26.346 0.879677 27.5526C-0.688103 29.1325 2.18377 32.329 3.07075 33.6341C4.78123 36.1509 6.56908 37.1534 12.6914 37.1012C12.6374 40.1056 12.5511 42.2021 12.5133 47.1619C12.4507 55.3632 15.3478 64.7281 18.0199 58.7122C20.5252 53.0718 21.4045 45.1053 22.2533 36.5184C24.9753 36.2524 27.1433 36.0566 29.5654 35.7615C29.5067 38.926 29.4018 41.5633 29.358 47.161C29.2938 55.3622 32.2089 64.7342 34.8645 58.7113C37.5337 52.6577 38.4083 44.0308 39.2457 34.7671C41.6471 34.4729 44.0419 34.1638 46.4394 33.8361C46.3769 37.1748 46.2561 40.5941 46.2026 47.161C46.1358 55.3622 49.043 64.7426 51.6789 58.7113C54.5559 52.1282 55.4775 42.4891 56.2969 32.3818C58.6898 31.9964 61.0239 31.5821 63.3125 31.1594C63.2424 34.6405 63.1168 38.9918 63.0463 47.1638C62.9756 55.365 65.9117 64.7559 68.5226 58.7141C71.6828 51.4012 72.5883 40.5712 73.3481 29.3579C76.9288 28.519 80.3296 28.0792 83.1174 26.8841C89.7052 24.0602 82.712 21.3101 73.763 21.2421C74.1946 7.29341 73.6498 6.95095 69.7076 2.5052C68.6157 1.27381 66.7222 0.731736 65.0603 0.730667C64.7322 0.730455 64.3548 0.834119 64.1423 1.0798C63.1496 2.22759 63.1793 4.30617 63.195 5.50218C63.3243 15.3245 63.4357 18.7628 63.4319 21.7663C60.6109 22.0065 59.1568 22.1229 56.8899 22.3193C56.9259 21.5447 56.9778 20.7561 57.0083 19.9917C57.5538 6.31309 56.854 7.02681 52.8639 2.50614C51.7749 1.27228 49.8785 0.732668 48.2165 0.731599C47.8885 0.731387 47.5111 0.835051 47.2986 1.08073C46.3059 2.22852 46.3349 4.30711 46.3513 5.50311C46.5063 16.7601 46.6175 19.8828 46.5882 23.2205C43.8998 23.4598 41.7797 23.6404 39.9865 23.8024C40.0519 22.5251 40.1147 21.2421 40.1646 19.9908C40.7105 6.31218 40.0103 7.02588 36.0202 2.5052C34.9312 1.27135 33.0348 0.731736 31.3728 0.730667C31.0448 0.730455 30.6666 0.833464 30.4549 1.0798C29.4671 2.22914 29.5199 4.30619 29.537 5.50218C29.717 18.1064 29.8392 20.8017 29.7738 24.7046C28.0886 24.8284 25.6266 24.9783 23.086 25.1413C23.1826 23.4077 23.2554 21.6825 23.3228 19.9917C23.8673 6.34196 23.1974 7.0243 19.2078 2.50614C18.1117 1.26481 16.2 0.731632 14.5277 0.729737C14.1988 0.729365 13.8191 0.830382 13.6065 1.07701Z" fill="#653E28"/>
</svg>
